<svg width="606" height="283" viewBox="0 0 606 283" fill="none" xmlns="http://www.w3.org/2000/svg">
<path fill-rule="evenodd" clip-rule="evenodd" d="M177.428 75.4219L165.046 107.295C162.287 114.397 156.875 120.149 149.953 123.335L125.597 134.544L155.569 131.76L139.024 173.966C137.773 177.156 134.817 179.379 131.406 179.698C95.2615 183.078 86.0525 182.595 77.4697 194.142C72.4861 200.847 63.6581 203.833 56.423 199.655L54.9563 198.809C90.4949 138.768 89.7651 137.159 121.942 89.4986C128.909 79.1782 162.161 75.2371 177.428 75.4219Z" fill="#3B82F6"/>
<path d="M84.962 133.26C77.8762 121.642 70.1485 109.712 56.5017 89.4984C49.5342 79.178 16.2829 75.237 1.01587 75.4217L13.3975 107.295C16.1566 114.397 21.5689 120.149 28.4907 123.335L52.8468 134.544L22.875 131.76L39.4196 173.966C40.6701 177.156 43.6261 179.379 47.0377 179.698C50.6988 180.04 54.0836 180.343 57.2193 180.623C62.6579 171.36 67.0892 163.74 70.938 157.122C76.3756 147.772 80.6511 140.42 84.962 133.26Z" fill="#3B82F6"/>
<path d="M97.8682 190.533C98.9409 191.586 99.9617 192.78 100.974 194.142C105.957 200.847 114.785 203.832 122.021 199.655L123.487 198.808C121.285 195.088 119.222 191.591 117.281 188.294C108.787 189.059 102.659 189.66 97.8682 190.533Z" fill="#3B82F6"/>
<path d="M89.2219 220.437C45.5338 220.437 10.1176 185.02 10.1176 141.332C10.1176 135.409 10.7687 129.638 12.0031 124.086C8.54922 121.59 7.34313 119.741 4.6715 115.4C2.1594 123.601 0.807617 132.309 0.807617 141.332C0.807617 190.162 40.3921 229.747 89.2219 229.747V220.437Z" fill="#1F2937"/>
<path d="M128.379 72.5838C129.367 72.0944 130.361 71.6468 131.341 71.2358C133.823 70.1952 136.507 69.2733 139.3 68.4579C125.064 58.6561 107.813 52.918 89.2219 52.918C70.6844 52.918 53.4794 58.623 39.2668 68.373C42.1645 69.2091 44.9499 70.1589 47.518 71.2356C48.4246 71.6158 49.3428 72.0273 50.2574 72.4742C61.7588 65.9519 75.0555 62.228 89.2219 62.228C103.468 62.228 116.834 65.9936 128.379 72.5838Z" fill="#1F2937"/>
<path d="M89.2215 220.436C132.91 220.436 168.326 185.019 168.326 141.331C168.326 135.408 167.675 129.637 166.44 124.085C169.894 121.589 171.1 119.74 173.772 115.399C176.284 123.6 177.636 132.308 177.636 141.331C177.636 190.161 138.051 229.746 89.2215 229.746V220.436Z" fill="#1F2937"/>
<path d="M229.131 82.234C231.112 83.8844 233.794 84.7096 237.177 84.7096C240.478 84.7096 243.119 83.8844 245.099 82.234C247.08 80.5835 248.07 78.1491 248.07 74.9308C248.07 71.795 247.08 69.4018 245.099 67.7514C243.119 66.101 240.478 65.2758 237.177 65.2758C233.794 65.2758 231.112 66.101 229.131 67.7514C227.151 69.4018 226.16 71.795 226.16 74.9308C226.16 78.1491 227.151 80.5835 229.131 82.234Z" fill="#1F2937"/>
<path d="M246.956 148.21V94.9836H220.219V103.277L221.333 103.525C223.891 104.02 225.789 104.556 227.027 105.134C228.265 105.629 228.884 106.619 228.884 108.105V148.21C228.884 150.603 228.141 152.212 226.656 153.038C225.17 153.863 223.148 154.276 220.59 154.276H220.219V161.702H255.497V154.276H255.249C252.691 154.276 250.669 153.863 249.184 153.038C247.699 152.212 246.956 150.603 246.956 148.21Z" fill="#1F2937"/>
<path d="M308.312 151.8C306.002 152.955 303.279 153.533 300.143 153.533C296.759 153.533 293.83 153.038 291.354 152.047C288.961 150.975 286.939 149.407 285.289 147.344C283.721 145.281 282.566 142.681 281.823 139.545C281.08 136.327 280.709 132.614 280.709 128.405C280.709 122.876 281.328 118.255 282.566 114.541C283.886 110.745 285.908 107.898 288.631 106C291.354 104.102 294.861 103.153 299.153 103.153C302.371 103.153 305.218 103.648 307.694 104.639C308.121 104.795 308.534 104.962 308.931 105.138V119.493H324.033V99.5636C323.043 98.8209 321.392 98.0369 319.082 97.2117C316.771 96.304 313.883 95.52 310.417 94.8598C306.951 94.1172 302.949 93.7458 298.41 93.7458C290.818 93.7458 284.299 95.1074 278.852 97.8306C273.406 100.554 269.197 104.515 266.226 109.714C263.338 114.83 261.894 121.061 261.894 128.405C261.894 135.667 263.379 141.897 266.35 147.096C269.321 152.295 273.488 156.256 278.852 158.979C284.216 161.702 290.529 163.064 297.791 163.064C302.495 163.064 306.621 162.404 310.169 161.084C313.8 159.681 316.936 157.741 319.577 155.266C322.217 152.708 324.363 149.737 326.013 146.353L318.71 141.155C317.472 143.3 315.987 145.322 314.254 147.22C312.604 149.118 310.623 150.645 308.312 151.8Z" fill="#1F2937"/>
<path fill-rule="evenodd" clip-rule="evenodd" d="M375.99 150.089C374.714 152.333 373.314 154.306 371.788 156.008C369.642 158.319 367.167 160.093 364.361 161.331C361.638 162.486 358.502 163.064 354.953 163.064C350.58 163.064 346.825 162.445 343.689 161.207C340.553 159.887 338.16 157.906 336.51 155.266C334.859 152.625 334.034 149.365 334.034 145.487C334.034 142.021 334.818 139.009 336.386 136.451C337.954 133.893 340.43 131.665 343.813 129.767C347.279 127.869 351.735 126.259 357.182 124.939C362.158 123.657 368.1 122.513 375.006 121.507V112.932C375.006 110.539 374.676 108.641 374.016 107.238C373.356 105.753 372.2 104.68 370.55 104.02C368.982 103.277 366.754 102.906 363.866 102.906C359.657 102.906 356.191 103.483 353.468 104.639C353.427 104.656 353.385 104.674 353.344 104.691V116.522H337.995V101.049C339.233 100.141 341.048 99.151 343.442 98.0782C345.917 96.9229 348.971 95.9326 352.602 95.1074C356.315 94.1997 360.565 93.7458 365.351 93.7458C369.477 93.7458 373.232 94.1172 376.615 94.8598C379.999 95.6025 382.887 96.7991 385.28 98.4496C387.673 100.1 389.53 102.204 390.85 104.762C392.171 107.321 392.831 110.374 392.831 113.922V149.2C392.831 150.108 393.12 150.851 393.697 151.428C394.358 151.924 395.265 152.336 396.421 152.666C397.576 152.914 398.979 153.161 400.629 153.409L401.372 153.657V161.702H377.234L375.99 150.089ZM375.006 129.194C371.714 129.711 368.826 130.314 366.341 131.004C363.371 131.747 360.895 132.614 358.914 133.604C356.934 134.512 355.407 135.543 354.334 136.698C353.262 137.771 352.478 139.009 351.983 140.412C351.57 141.732 351.364 143.176 351.364 144.744C351.364 146.972 351.735 148.788 352.478 150.191C353.22 151.511 354.293 152.501 355.696 153.161C357.099 153.822 358.791 154.152 360.771 154.152C362.834 154.152 364.732 153.657 366.465 152.666C368.281 151.676 370.014 150.191 371.664 148.21C372.778 146.884 373.892 145.336 375.006 143.566V129.194Z" fill="#1F2937"/>
<path d="M457.489 111.57V94.3647C457.159 94.1997 456.54 94.0759 455.632 93.9933C454.724 93.8283 453.734 93.7458 452.661 93.7458C449.113 93.7458 446.018 94.571 443.378 96.2214C440.82 97.7893 438.509 100.1 436.446 103.153C435.011 105.366 433.575 107.947 432.14 110.896L430.752 94.9836H406.367V103.277L407.481 103.525C409.131 103.855 410.493 104.185 411.566 104.515C412.721 104.845 413.546 105.299 414.041 105.876C414.619 106.372 414.908 107.114 414.908 108.105V147.839C414.908 150.397 414.165 152.13 412.68 153.038C411.194 153.863 409.214 154.276 406.738 154.276H406.367V161.702H443.873V154.276H442.016C440.778 154.276 439.458 154.234 438.055 154.152C436.735 154.069 435.579 153.863 434.589 153.533C433.599 153.203 433.104 152.749 433.104 152.171V116.688C433.558 116.228 434.012 115.801 434.465 115.408C435.703 114.252 437.024 113.345 438.427 112.685C439.912 112.024 441.48 111.57 443.13 111.323C444.781 110.993 446.596 110.828 448.577 110.828C449.649 110.828 450.722 110.869 451.795 110.952C452.95 110.952 454.023 111.034 455.013 111.199C456.086 111.282 456.911 111.405 457.489 111.57Z" fill="#1F2937"/>
<path d="M489.846 142.145V94.9836H462.737V103.277L464.223 103.525C466.781 103.855 468.638 104.35 469.793 105.01C471.031 105.588 471.65 106.619 471.65 108.105V143.259C471.65 147.55 472.433 151.181 474.001 154.152C475.569 157.04 477.797 159.227 480.686 160.712C483.656 162.198 487.164 162.94 491.207 162.94C494.838 162.94 498.222 162.28 501.357 160.96C504.493 159.557 507.381 157.576 510.022 155.018C512.02 153.082 513.853 150.863 515.521 148.361L516.954 161.702H541.339V153.657L540.473 153.409C538.822 153.161 537.419 152.914 536.264 152.666C535.109 152.336 534.201 151.924 533.541 151.428C532.963 150.851 532.674 150.108 532.674 149.2V94.9836H503.957V103.277L506.432 103.525C508.991 103.772 510.971 104.226 512.374 104.886C513.777 105.546 514.478 106.619 514.478 108.105V141.135C513.282 142.711 512.085 144.121 510.889 145.363C508.826 147.509 506.721 149.118 504.576 150.191C502.513 151.263 500.367 151.8 498.139 151.8C496.159 151.8 494.549 151.428 493.312 150.686C492.074 149.943 491.166 148.87 490.588 147.467C490.093 145.982 489.846 144.208 489.846 142.145Z" fill="#1F2937"/>
<path d="M587.33 140.412C588.238 141.485 588.692 142.929 588.692 144.744C588.692 146.89 588.197 148.664 587.207 150.067C586.216 151.47 584.731 152.543 582.75 153.285C580.77 153.945 578.294 154.276 575.323 154.276C572.683 154.276 570.248 154.069 568.02 153.657C565.792 153.161 563.812 152.584 562.079 151.924V140.907H547.72V157.123C549.288 158.03 551.351 158.938 553.909 159.846C556.467 160.754 559.52 161.496 563.069 162.074C566.7 162.734 570.743 163.064 575.2 163.064C581.884 163.064 587.454 162.198 591.91 160.465C596.449 158.732 599.832 156.256 602.06 153.038C604.289 149.737 605.403 145.776 605.403 141.155C605.403 137.689 604.701 134.8 603.298 132.49C601.978 130.097 600.162 128.199 597.852 126.796C595.624 125.31 593.107 124.114 590.301 123.206C587.578 122.298 584.855 121.514 582.131 120.854C579.821 120.359 577.634 119.864 575.571 119.369C573.508 118.791 571.692 118.172 570.125 117.512C568.557 116.769 567.319 115.862 566.411 114.789C565.586 113.634 565.173 112.189 565.173 110.456C565.173 107.816 566.122 105.794 568.02 104.391C570.001 102.988 573.054 102.287 577.18 102.287C579.491 102.287 581.554 102.452 583.369 102.782C584.936 103.067 586.38 103.475 587.702 104.006V113.303H601.689V98.0782C600.864 97.583 599.378 96.9641 597.233 96.2214C595.087 95.4787 592.323 94.8598 588.939 94.3647C585.639 93.787 581.719 93.4982 577.18 93.4982C571.486 93.4982 566.535 94.2822 562.326 95.8501C558.2 97.418 554.982 99.7286 552.671 102.782C550.443 105.753 549.329 109.466 549.329 113.922C549.329 117.553 549.989 120.565 551.31 122.959C552.63 125.269 554.404 127.167 556.632 128.652C558.86 130.055 561.295 131.211 563.935 132.118C566.659 132.944 569.382 133.645 572.105 134.223C574.333 134.718 576.396 135.213 578.294 135.708C580.275 136.203 582.049 136.822 583.617 137.565C585.185 138.308 586.423 139.257 587.33 140.412Z" fill="#1F2937"/>
<path fill-rule="evenodd" clip-rule="evenodd" d="M226.532 203.29V211.873C226.532 211.955 226.614 212.024 226.779 212.079C226.895 212.095 227.03 212.112 227.184 212.128C227.288 212.139 227.401 212.15 227.522 212.161C227.706 212.177 227.894 212.192 228.086 212.207C228.239 212.22 228.395 212.232 228.554 212.244H230.699V214.802H217.785V212.285H218.239C219.146 212.285 219.903 212.189 220.508 211.996C221.113 211.804 221.416 211.405 221.416 210.8V189.509C221.416 188.904 221.113 188.505 220.508 188.313C219.903 188.12 219.146 188.024 218.239 188.024H217.785V185.507H231.731C235.087 185.507 237.7 186.263 239.57 187.776C241.441 189.262 242.376 191.407 242.376 194.213C242.376 196.111 241.922 197.734 241.015 199.082C240.134 200.43 238.883 201.475 237.26 202.217C235.664 202.933 233.78 203.29 231.607 203.29H226.532ZM226.532 200.526H231.112C232.46 200.526 233.574 200.292 234.454 199.824C235.334 199.329 235.994 198.628 236.435 197.72C236.875 196.785 237.095 195.643 237.095 194.295C237.095 192.948 236.875 191.834 236.435 190.953C236.022 190.073 235.375 189.413 234.495 188.973C233.615 188.505 232.528 188.271 231.236 188.271H226.532V200.526Z" fill="#6B7280"/>
<path fill-rule="evenodd" clip-rule="evenodd" d="M269.671 201.274C270.381 201.007 271.03 200.689 271.618 200.319C272.828 199.577 273.75 198.642 274.383 197.514C275.043 196.386 275.373 195.093 275.373 193.635C275.373 191.93 274.947 190.472 274.094 189.262C273.269 188.024 272.072 187.089 270.504 186.456C268.936 185.823 267.038 185.507 264.81 185.507H250.905V188.065H251.359C252.267 188.065 253.023 188.161 253.628 188.354C254.234 188.546 254.536 188.945 254.536 189.55V210.759C254.536 211.364 254.234 211.763 253.628 211.955C253.023 212.148 252.267 212.244 251.359 212.244H250.905V214.802H263.49V212.244H261.674C261.501 212.232 261.336 212.219 261.179 212.207C260.988 212.192 260.809 212.176 260.643 212.161C260.34 212.106 260.093 212.065 259.9 212.038C259.708 211.983 259.611 211.914 259.611 211.831V202.548H265.036L271.412 214.802H278.591V212.244H278.22C277.725 212.244 277.271 212.203 276.858 212.12C276.473 212.038 276.116 211.859 275.786 211.584C275.455 211.309 275.139 210.924 274.837 210.428L269.671 201.274ZM259.611 188.23V199.907H264.109C265.484 199.907 266.598 199.673 267.451 199.205C268.303 198.71 268.936 198.009 269.349 197.101C269.761 196.193 269.968 195.121 269.968 193.883C269.968 192.673 269.761 191.655 269.349 190.829C268.936 189.977 268.317 189.33 267.492 188.89C266.667 188.45 265.608 188.23 264.315 188.23H259.611Z" fill="#6B7280"/>
<path fill-rule="evenodd" clip-rule="evenodd" d="M295.478 214.472C297.293 215.16 299.274 215.504 301.419 215.504C303.592 215.504 305.573 215.16 307.361 214.472C309.149 213.784 310.703 212.78 312.023 211.46C313.344 210.112 314.361 208.489 315.077 206.591C315.792 204.693 316.149 202.548 316.149 200.154C316.149 197.734 315.792 195.588 315.077 193.718C314.361 191.82 313.344 190.211 312.023 188.89C310.703 187.542 309.149 186.525 307.361 185.837C305.573 185.122 303.592 184.764 301.419 184.764C299.274 184.764 297.293 185.122 295.478 185.837C293.69 186.525 292.135 187.542 290.815 188.89C289.495 190.211 288.477 191.82 287.762 193.718C287.047 195.588 286.689 197.734 286.689 200.154C286.689 202.548 287.047 204.693 287.762 206.591C288.477 208.489 289.495 210.112 290.815 211.46C292.135 212.78 293.69 213.784 295.478 214.472ZM305.298 211.831C304.17 212.354 302.877 212.615 301.419 212.615C299.989 212.615 298.682 212.354 297.499 211.831C296.344 211.309 295.368 210.538 294.57 209.521C293.772 208.475 293.153 207.169 292.713 205.601C292.301 204.033 292.094 202.217 292.094 200.154C292.094 198.091 292.301 196.276 292.713 194.708C293.153 193.14 293.772 191.847 294.57 190.829C295.395 189.784 296.385 189 297.541 188.478C298.696 187.955 299.989 187.694 301.419 187.694C302.877 187.694 304.17 187.955 305.298 188.478C306.453 189 307.429 189.784 308.227 190.829C309.052 191.847 309.671 193.14 310.084 194.708C310.524 196.276 310.744 198.091 310.744 200.154C310.744 202.217 310.524 204.033 310.084 205.601C309.671 207.169 309.052 208.475 308.227 209.521C307.429 210.538 306.453 211.309 305.298 211.831Z" fill="#6B7280"/>
<path d="M347.449 185.507H334.328V188.065H335.277C335.909 188.065 336.459 188.106 336.927 188.189C337.422 188.271 337.807 188.423 338.082 188.643C338.385 188.835 338.536 189.138 338.536 189.55V205.436C338.536 207.361 338.33 208.847 337.917 209.892C337.505 210.937 336.913 211.666 336.143 212.079C335.373 212.464 334.41 212.657 333.255 212.657C332.43 212.657 331.687 212.56 331.027 212.368C330.442 212.173 329.934 211.935 329.5 211.654V206.22H324.796V212.491C325.264 212.932 325.897 213.385 326.694 213.853C327.492 214.321 328.455 214.706 329.583 215.008C330.738 215.338 332.031 215.504 333.461 215.504C335.002 215.504 336.391 215.325 337.629 214.967C338.866 214.61 339.925 214.046 340.806 213.275C341.713 212.478 342.401 211.432 342.869 210.14C343.364 208.847 343.611 207.265 343.611 205.395V189.55C343.611 188.945 343.914 188.546 344.519 188.354C345.124 188.161 345.881 188.065 346.788 188.065H347.449V185.507Z" fill="#6B7280"/>
<path d="M379.916 214.802V205.56H376.987L376.45 210.222C376.423 210.58 376.299 210.882 376.079 211.13C375.886 211.35 375.584 211.529 375.171 211.666C374.786 211.804 374.277 211.9 373.644 211.955C373.039 212.01 372.297 212.038 371.416 212.038H364.98V201.063C365.598 201.091 366.212 201.118 366.823 201.146L367.703 201.186C368.913 201.241 370.11 201.31 371.293 201.392L374.923 201.557V197.968C373.713 198.023 372.503 198.091 371.293 198.174L367.662 198.339C366.783 198.38 365.889 198.421 364.98 198.462V188.271H370.756C371.856 188.271 372.75 188.326 373.438 188.436C374.126 188.519 374.648 188.698 375.006 188.973C375.364 189.22 375.57 189.592 375.625 190.087L376.038 193.718H378.926V185.507H356.274V188.065H356.727C357.635 188.065 358.392 188.161 358.997 188.354C359.602 188.546 359.905 188.945 359.905 189.55V210.759C359.905 211.364 359.602 211.763 358.997 211.955C358.392 212.148 357.635 212.244 356.727 212.244H356.274V214.802H379.916Z" fill="#6B7280"/>
<path d="M400.043 188.519C401.144 187.969 402.381 187.694 403.757 187.694C405.297 187.694 406.645 188.01 407.8 188.643C408.956 189.248 409.918 190.114 410.689 191.242C411.486 192.342 412.105 193.663 412.545 195.203H415.846V185.301H412.875L412.47 189.839C412.269 189.447 412.046 189.075 411.803 188.725C410.922 187.46 409.795 186.483 408.419 185.796C407.044 185.108 405.38 184.764 403.427 184.764C401.446 184.764 399.603 185.108 397.898 185.796C396.192 186.483 394.693 187.487 393.4 188.808C392.135 190.128 391.145 191.751 390.43 193.676C389.742 195.574 389.398 197.734 389.398 200.154C389.398 202.575 389.742 204.734 390.43 206.632C391.117 208.53 392.094 210.14 393.359 211.46C394.652 212.78 396.179 213.784 397.939 214.472C399.699 215.16 401.652 215.504 403.798 215.504C406.054 215.504 408.02 215.105 409.698 214.307C411.376 213.482 412.779 212.326 413.907 210.841C415.035 209.328 415.874 207.568 416.424 205.56L413.659 204.404C413.219 205.945 412.587 207.348 411.761 208.613C410.964 209.851 409.946 210.827 408.708 211.543C407.47 212.258 405.985 212.615 404.252 212.615C402.712 212.615 401.35 212.354 400.167 211.831C399.012 211.309 398.035 210.525 397.238 209.479C396.44 208.434 395.835 207.141 395.422 205.601C395.01 204.033 394.803 202.217 394.803 200.154C394.803 198.091 395.01 196.29 395.422 194.749C395.835 193.209 396.426 191.916 397.196 190.871C397.994 189.825 398.943 189.042 400.043 188.519Z" fill="#6B7280"/>
<path d="M436.135 188.23V210.759C436.135 211.364 435.819 211.763 435.186 211.955C434.553 212.148 433.769 212.244 432.834 212.244H432.133V214.802H445.254V212.244H444.511C443.603 212.244 442.833 212.148 442.2 211.955C441.568 211.763 441.251 211.364 441.251 210.759V188.23H443.232C444.442 188.23 445.405 188.299 446.12 188.436C446.863 188.546 447.413 188.753 447.771 189.055C448.128 189.33 448.321 189.715 448.348 190.211L448.802 195.038H451.69V185.507H425.696V195.038H428.584L429.038 190.211C429.093 189.715 429.286 189.33 429.616 189.055C429.973 188.753 430.51 188.546 431.225 188.436C431.968 188.299 432.944 188.23 434.155 188.23H436.135Z" fill="#6B7280"/>
<path d="M1.01587 36.918V26.918H177.636V36.918" stroke="black"/>
<path d="M220.219 36.918V26.918H605.403V36.918" stroke="black"/>
<path d="M605.403 245.747L605.403 255.747L1.01585 255.747L1.01585 245.747" stroke="black"/>
<path d="M78.5982 11.4966L79.4522 11.6646C79.5642 11.6926 79.6202 11.7766 79.6202 11.9166V12.5186H76.2462V11.9166C76.2462 11.7673 76.3115 11.6786 76.4422 11.6506L77.2542 11.4966V3.50258L76.4142 3.33458C76.3022 3.30658 76.2462 3.22258 76.2462 3.08258V2.49458H79.6202V3.08258C79.6202 3.23192 79.5502 3.32058 79.4102 3.34858L78.5982 3.50258V11.4966ZM86.0838 11.5246C85.4958 12.2526 84.6185 12.6166 83.4518 12.6166C82.5558 12.6166 81.8185 12.2946 81.2398 11.6506C80.6332 10.9693 80.3298 10.0733 80.3298 8.96259C80.3298 7.87992 80.6145 7.00725 81.1838 6.34459C81.7812 5.66325 82.6118 5.32259 83.6758 5.32259C84.2078 5.32259 84.9078 5.49059 85.7758 5.82658V7.67458H85.2158C85.0852 7.67458 85.0058 7.60925 84.9778 7.47859C84.9685 7.45059 84.9498 7.27325 84.9218 6.94658L84.8798 6.48458C84.7772 6.44725 84.6745 6.41925 84.5718 6.40059C84.4785 6.38192 84.4132 6.36792 84.3758 6.35858C84.1238 6.32125 83.8625 6.30258 83.5918 6.30258C83.3492 6.30258 83.0925 6.36325 82.8218 6.48458C82.5698 6.59658 82.3505 6.76925 82.1638 7.00258C81.8092 7.46925 81.6318 8.12259 81.6318 8.96259C81.6318 9.80259 81.8185 10.4653 82.1918 10.9506C82.5558 11.4173 83.0552 11.6506 83.6898 11.6506C84.2778 11.6506 84.7958 11.4546 85.2438 11.0626C85.3185 10.9879 85.4118 10.9506 85.5238 10.9506C85.6265 10.9506 85.7012 10.9879 85.7478 11.0626L86.0838 11.5246ZM90.431 5.32259C90.9444 5.32259 91.411 5.40659 91.831 5.57458C92.2417 5.74258 92.601 5.98525 92.909 6.30258C93.1984 6.60125 93.4224 6.98392 93.581 7.45058C93.7397 7.90792 93.819 8.41192 93.819 8.96259C93.819 9.51325 93.7397 10.0173 93.581 10.4746C93.4224 10.9413 93.1984 11.3239 92.909 11.6226C92.601 11.9399 92.2417 12.1826 91.831 12.3506C91.411 12.5186 90.9444 12.6026 90.431 12.6026C89.9177 12.6026 89.451 12.5186 89.031 12.3506C88.6204 12.1826 88.261 11.9399 87.953 11.6226C87.673 11.3333 87.4444 10.9506 87.267 10.4746C87.1177 10.0733 87.043 9.56925 87.043 8.96259C87.043 8.35592 87.1177 7.85192 87.267 7.45058C87.4444 6.97458 87.673 6.59192 87.953 6.30258C88.261 5.98525 88.6204 5.74258 89.031 5.57458C89.451 5.40659 89.9177 5.32259 90.431 5.32259ZM90.431 11.6506C91.1497 11.6506 91.6724 11.4173 91.999 10.9506C92.3444 10.4653 92.517 9.80725 92.517 8.97658C92.517 8.14592 92.3444 7.48792 91.999 7.00258C91.6724 6.53592 91.1497 6.30258 90.431 6.30258C90.067 6.30258 89.759 6.35858 89.507 6.47059C89.2644 6.58258 89.0497 6.75992 88.863 7.00258C88.6857 7.24525 88.555 7.52525 88.471 7.84258C88.3777 8.21592 88.331 8.59859 88.331 8.99059C88.331 9.36392 88.3777 9.73725 88.471 10.1106C88.555 10.4279 88.6857 10.7079 88.863 10.9506C89.0217 11.1653 89.2364 11.3333 89.507 11.4546C89.8057 11.5853 90.1137 11.6506 90.431 11.6506ZM96.7915 6.44258C97.4915 5.68658 98.2755 5.30858 99.1435 5.30858C99.9089 5.30858 100.497 5.55592 100.908 6.05059C101.309 6.53592 101.51 7.18458 101.51 7.99659V11.4826C101.958 11.5666 102.224 11.6226 102.308 11.6506C102.457 11.6786 102.532 11.7673 102.532 11.9166V12.5186H100.264V8.01058C100.264 6.87192 99.7689 6.30258 98.7795 6.30258C98.0795 6.30258 97.4355 6.63392 96.8475 7.29658V11.4966C96.8849 11.4966 97.1555 11.5526 97.6595 11.6646C97.7995 11.6926 97.8695 11.7813 97.8695 11.9306V12.5186H94.6075V11.9306C94.6075 11.7813 94.6729 11.6926 94.8035 11.6646L95.6155 11.5106V6.45658C95.1489 6.37258 94.8782 6.31658 94.8035 6.28858C94.6729 6.26058 94.6075 6.17192 94.6075 6.02258V5.43458H96.3435C96.5115 5.43458 96.6235 5.51858 96.6795 5.68658L96.7915 6.45658V6.44258Z" fill="#1F2937"/>
<path d="M393.063 3.09658C393.063 3.24592 392.988 3.33458 392.839 3.36258L392.139 3.51659L389.339 12.5186H388.107L385.573 4.87459C385.526 4.76258 385.48 4.59458 385.433 4.37058L385.363 4.62259C385.354 4.65992 385.344 4.70192 385.335 4.74859C385.326 4.79525 385.316 4.83725 385.307 4.87459L382.759 12.5186H381.527L378.727 3.50258C378.363 3.42792 378.13 3.37192 378.027 3.33458C377.878 3.30658 377.803 3.22258 377.803 3.08258V2.48059H381.219V3.08258C381.219 3.22258 381.144 3.30658 380.995 3.33458C380.79 3.38125 380.622 3.41858 380.491 3.44659C380.36 3.47458 380.267 3.49325 380.211 3.50258L382.059 9.77459C382.162 10.1479 382.227 10.4373 382.255 10.6426C382.339 10.2413 382.409 9.95192 382.465 9.77459L384.831 2.80259C384.859 2.72792 384.915 2.65325 384.999 2.57858C385.092 2.50392 385.19 2.46658 385.293 2.46658H385.685C385.909 2.46658 386.063 2.57858 386.147 2.80259L388.499 9.77459C388.602 10.0919 388.676 10.3719 388.723 10.6146L388.793 10.1666L388.877 9.77459L390.739 3.50258C390.683 3.50258 390.52 3.46992 390.249 3.40458L389.955 3.34858C389.806 3.32058 389.731 3.23192 389.731 3.08258V2.49458H393.063V3.09658ZM396.409 5.32259C396.922 5.32259 397.389 5.40659 397.809 5.57458C398.22 5.74258 398.579 5.98525 398.887 6.30258C399.176 6.60125 399.4 6.98392 399.559 7.45058C399.718 7.90792 399.797 8.41192 399.797 8.96259C399.797 9.51325 399.718 10.0173 399.559 10.4746C399.4 10.9413 399.176 11.3239 398.887 11.6226C398.579 11.9399 398.22 12.1826 397.809 12.3506C397.389 12.5186 396.922 12.6026 396.409 12.6026C395.896 12.6026 395.429 12.5186 395.009 12.3506C394.598 12.1826 394.239 11.9399 393.931 11.6226C393.651 11.3333 393.422 10.9506 393.245 10.4746C393.096 10.0733 393.021 9.56925 393.021 8.96259C393.021 8.35592 393.096 7.85192 393.245 7.45058C393.422 6.97458 393.651 6.59192 393.931 6.30258C394.239 5.98525 394.598 5.74258 395.009 5.57458C395.429 5.40659 395.896 5.32259 396.409 5.32259ZM396.409 11.6506C397.128 11.6506 397.65 11.4173 397.977 10.9506C398.322 10.4653 398.495 9.80725 398.495 8.97658C398.495 8.14592 398.322 7.48792 397.977 7.00258C397.65 6.53592 397.128 6.30258 396.409 6.30258C396.045 6.30258 395.737 6.35858 395.485 6.47059C395.242 6.58258 395.028 6.75992 394.841 7.00258C394.664 7.24525 394.533 7.52525 394.449 7.84258C394.356 8.21592 394.309 8.59859 394.309 8.99059C394.309 9.36392 394.356 9.73725 394.449 10.1106C394.533 10.4279 394.664 10.7079 394.841 10.9506C395 11.1653 395.214 11.3333 395.485 11.4546C395.784 11.5853 396.092 11.6506 396.409 11.6506ZM402.784 6.87658C403.306 5.82192 404.025 5.29458 404.94 5.29458C405.304 5.29458 405.626 5.37858 405.906 5.54658L405.752 6.48458C405.724 6.60592 405.663 6.66659 405.57 6.66659C405.504 6.66659 405.392 6.64325 405.234 6.59659C405.075 6.54992 404.884 6.52658 404.66 6.52658C403.838 6.52658 403.232 7.02125 402.84 8.01058V11.5106L403.638 11.6646C403.778 11.6926 403.848 11.7813 403.848 11.9306V12.5186H400.586V11.9306C400.586 11.7813 400.656 11.6926 400.796 11.6646L401.594 11.5106V6.45658C401.146 6.37258 400.88 6.31658 400.796 6.28858C400.656 6.26058 400.586 6.17192 400.586 6.02258V5.43458H402.308C402.438 5.43458 402.527 5.45792 402.574 5.50458C402.62 5.55125 402.658 5.63992 402.686 5.77058L402.77 6.87658H402.784ZM409.541 5.29458C410.325 5.29458 410.969 5.57458 411.473 6.13458V3.22258L410.535 3.05458C410.395 3.02658 410.325 2.94258 410.325 2.80259V2.18658H412.705V11.4826C413.171 11.5666 413.442 11.6226 413.517 11.6506C413.647 11.6786 413.713 11.7626 413.713 11.9026V12.5186H411.977C411.809 12.5186 411.697 12.4299 411.641 12.2526L411.529 11.3986C410.866 12.2013 410.073 12.6026 409.149 12.6026C408.318 12.6026 407.665 12.2946 407.189 11.6786C406.703 11.0346 406.461 10.1386 406.461 8.99059C406.461 7.91725 406.736 7.03992 407.287 6.35858C407.856 5.64925 408.607 5.29458 409.541 5.29458ZM409.569 11.6086C410.306 11.6086 410.941 11.2493 411.473 10.5306V7.11459C411.053 6.55459 410.507 6.27459 409.835 6.27459C409.153 6.27459 408.635 6.50792 408.281 6.97458C407.926 7.44125 407.749 8.11325 407.749 8.99059C407.749 10.3253 408.094 11.1466 408.785 11.4546C408.999 11.5479 409.256 11.5946 409.555 11.5946L409.569 11.6086ZM416.947 6.42858C417.544 5.69125 418.212 5.32259 418.949 5.32259C419.434 5.32259 419.826 5.45792 420.125 5.72859C420.414 5.98992 420.629 6.34925 420.769 6.80658C420.974 6.30258 421.282 5.92925 421.693 5.68658C422.122 5.44392 422.533 5.32259 422.925 5.32259C423.336 5.32259 423.7 5.38325 424.017 5.50458C424.316 5.61658 424.568 5.78925 424.773 6.02258C425.184 6.48925 425.389 7.15192 425.389 8.01058V11.5106C425.856 11.5946 426.126 11.6506 426.201 11.6786C426.341 11.7066 426.411 11.7906 426.411 11.9306V12.5466H424.157V8.02459C424.157 7.45525 424.036 7.03525 423.793 6.76459C423.532 6.47525 423.177 6.33058 422.729 6.33058C422.3 6.33058 421.945 6.47058 421.665 6.75058C421.357 7.05858 421.203 7.47859 421.203 8.01058V11.5106C421.24 11.5199 421.32 11.5386 421.441 11.5666C421.562 11.5946 421.749 11.6319 422.001 11.6786C422.141 11.7066 422.211 11.7906 422.211 11.9306V12.5326H419.957V8.01058C419.957 6.89058 419.509 6.33058 418.613 6.33058C418.034 6.33058 417.507 6.63858 417.031 7.25458V11.5106L417.409 11.5806L417.829 11.6646C417.969 11.6926 418.039 11.7813 418.039 11.9306V12.5186H414.777V11.9306C414.777 11.7813 414.842 11.6926 414.973 11.6646L415.785 11.5106V6.45658C415.318 6.37258 415.048 6.31658 414.973 6.28858C414.842 6.26058 414.777 6.17192 414.777 6.02258V5.43458H416.513C416.681 5.43458 416.793 5.51858 416.849 5.68658L416.947 6.41458V6.42858ZM433.364 11.6226C433.429 11.6319 433.481 11.6646 433.518 11.7206C433.555 11.7673 433.574 11.8233 433.574 11.8886V12.4906H432.118C432.034 12.4906 431.936 12.4719 431.824 12.4346C431.759 12.4159 431.712 12.3413 431.684 12.2106L431.544 11.5386L430.984 12.0006C430.825 12.1313 430.639 12.2433 430.424 12.3366C430.219 12.4299 430.013 12.4999 429.808 12.5466C429.621 12.5933 429.369 12.6166 429.052 12.6166C428.791 12.6166 428.539 12.5746 428.296 12.4906C428.007 12.3879 427.797 12.2759 427.666 12.1546C427.498 12.0053 427.358 11.8093 427.246 11.5666C427.143 11.3519 427.092 11.0719 427.092 10.7266C427.092 10.4279 427.167 10.1573 427.316 9.91459C427.484 9.64392 427.736 9.41059 428.072 9.21458C428.445 8.99992 428.893 8.83192 429.416 8.71058C429.957 8.58925 430.639 8.52858 431.46 8.52858V7.98259C431.46 7.43192 431.339 7.01192 431.096 6.72258C430.853 6.43325 430.503 6.28858 430.046 6.28858C429.747 6.28858 429.491 6.33058 429.276 6.41458C429.033 6.50792 428.856 6.59192 428.744 6.66659C428.688 6.70392 428.623 6.74592 428.548 6.79259C428.483 6.82992 428.413 6.87192 428.338 6.91859C428.235 6.99325 428.128 7.03058 428.016 7.03058C427.913 7.03058 427.839 7.01192 427.792 6.97458C427.736 6.92792 427.689 6.87192 427.652 6.80658L427.428 6.41458C427.792 6.05992 428.212 5.77992 428.688 5.57458C429.117 5.38792 429.621 5.29458 430.2 5.29458C430.62 5.29458 430.975 5.35992 431.264 5.49058C431.581 5.63058 431.838 5.80792 432.034 6.02258C432.239 6.23725 432.398 6.51725 432.51 6.86259C432.613 7.17058 432.664 7.53458 432.664 7.95459V11.4966C433.112 11.5899 433.345 11.6413 433.364 11.6506V11.6226ZM431.432 9.32658C430.825 9.32658 430.34 9.35925 429.976 9.42458C429.621 9.48992 429.295 9.58792 428.996 9.71859C428.735 9.83992 428.548 9.97992 428.436 10.1386C428.324 10.3066 428.268 10.4839 428.268 10.6706C428.268 10.8199 428.301 10.9786 428.366 11.1466C428.422 11.2866 428.506 11.3986 428.618 11.4826C428.73 11.5666 428.851 11.6273 428.982 11.6646C429.141 11.7113 429.295 11.7346 429.444 11.7346C429.631 11.7346 429.827 11.7113 430.032 11.6646C430.219 11.6179 430.391 11.5573 430.55 11.4826C430.69 11.4173 430.844 11.3146 431.012 11.1746C431.105 11.0999 431.245 10.9693 431.432 10.7826V9.32658ZM436.608 6.87658C437.13 5.82192 437.849 5.29458 438.764 5.29458C439.128 5.29458 439.45 5.37858 439.73 5.54658L439.576 6.48458C439.548 6.60592 439.487 6.66659 439.394 6.66659C439.328 6.66659 439.216 6.64325 439.058 6.59659C438.899 6.54992 438.708 6.52658 438.484 6.52658C437.662 6.52658 437.056 7.02125 436.664 8.01058V11.5106L437.462 11.6646C437.602 11.6926 437.672 11.7813 437.672 11.9306V12.5186H434.41V11.9306C434.41 11.7813 434.48 11.6926 434.62 11.6646L435.418 11.5106V6.45658C434.97 6.37258 434.704 6.31658 434.62 6.28858C434.48 6.26058 434.41 6.17192 434.41 6.02258V5.43458H436.132C436.262 5.43458 436.351 5.45792 436.398 5.50458C436.444 5.55125 436.482 5.63992 436.51 5.77058L436.594 6.87658H436.608ZM447.467 11.6506C447.607 11.6786 447.677 11.7626 447.677 11.9026V12.5186H446.361C446.183 12.5186 446.025 12.4346 445.885 12.2666L443.561 9.35459C443.495 9.26125 443.425 9.20059 443.351 9.17259C443.276 9.14459 443.169 9.13059 443.029 9.13059H442.693V11.4966C442.749 11.4966 442.912 11.5293 443.183 11.5946L443.477 11.6506C443.626 11.6786 443.701 11.7673 443.701 11.9166V12.5186H440.425V11.9166C440.425 11.7673 440.495 11.6786 440.635 11.6506L441.433 11.4966V3.22258C440.985 3.13858 440.719 3.08258 440.635 3.05458C440.495 3.02658 440.425 2.94258 440.425 2.80259V2.20058H442.693V8.26258H443.001C443.197 8.26258 443.346 8.19725 443.449 8.06658L445.045 6.35858C445.017 6.35858 444.989 6.35392 444.961 6.34459C444.933 6.33525 444.905 6.33058 444.877 6.33058L444.653 6.28858C444.503 6.26058 444.429 6.17192 444.429 6.02258V5.43458H447.397V6.02258C447.397 6.16258 447.336 6.24658 447.215 6.27459L446.347 6.44258L444.695 8.20658C444.545 8.38392 444.41 8.50992 444.289 8.58458C444.475 8.70592 444.615 8.85059 444.709 9.01859L446.669 11.5106L447.033 11.5666C447.275 11.6226 447.425 11.6506 447.481 11.6506H447.467Z" fill="#1F2937"/>
<path d="M288.59 277.829V277.227C288.59 277.161 288.609 277.105 288.646 277.059C288.683 277.003 288.735 276.97 288.8 276.961L289.598 276.807V268.813L288.8 268.659C288.735 268.649 288.683 268.621 288.646 268.575C288.609 268.519 288.59 268.458 288.59 268.393V267.805H291.95V268.393C291.95 268.458 291.931 268.519 291.894 268.575C291.857 268.621 291.805 268.649 291.74 268.659L290.942 268.813V276.681H294.554C294.582 276.251 294.61 275.985 294.638 275.883C294.647 275.817 294.68 275.761 294.736 275.715C294.792 275.668 294.857 275.645 294.932 275.645H295.618V277.829H288.59ZM299.548 270.633C300.062 270.633 300.528 270.717 300.948 270.885C301.359 271.053 301.718 271.295 302.026 271.613C302.316 271.911 302.54 272.294 302.698 272.761C302.857 273.218 302.936 273.722 302.936 274.273C302.936 274.823 302.857 275.327 302.698 275.785C302.54 276.251 302.316 276.634 302.026 276.933C301.718 277.25 301.359 277.493 300.948 277.661C300.528 277.829 300.062 277.913 299.548 277.913C299.035 277.913 298.568 277.829 298.148 277.661C297.738 277.493 297.378 277.25 297.07 276.933C296.79 276.643 296.562 276.261 296.384 275.785C296.235 275.383 296.16 274.879 296.16 274.273C296.16 273.666 296.235 273.162 296.384 272.761C296.562 272.285 296.79 271.902 297.07 271.613C297.378 271.295 297.738 271.053 298.148 270.885C298.568 270.717 299.035 270.633 299.548 270.633ZM299.548 276.961C300.267 276.961 300.79 276.727 301.116 276.261C301.462 275.775 301.634 275.117 301.634 274.287C301.634 273.456 301.462 272.798 301.116 272.313C300.79 271.846 300.267 271.613 299.548 271.613C299.184 271.613 298.876 271.669 298.624 271.781C298.382 271.893 298.167 272.07 297.98 272.313C297.803 272.555 297.672 272.835 297.588 273.153C297.495 273.526 297.448 273.909 297.448 274.301C297.448 274.674 297.495 275.047 297.588 275.421C297.672 275.738 297.803 276.018 297.98 276.261C298.139 276.475 298.354 276.643 298.624 276.765C298.923 276.895 299.231 276.961 299.548 276.961ZM306.81 270.647C307.127 270.647 307.412 270.679 307.664 270.745C307.935 270.819 308.177 270.922 308.392 271.053H310.324V271.515C310.324 271.664 310.226 271.762 310.03 271.809L309.232 271.921C309.381 272.191 309.456 272.527 309.456 272.929C309.456 273.293 309.391 273.605 309.26 273.867C309.111 274.165 308.929 274.403 308.714 274.581C308.453 274.795 308.173 274.954 307.874 275.057C307.575 275.159 307.221 275.211 306.81 275.211C306.474 275.211 306.161 275.169 305.872 275.085C305.741 275.159 305.629 275.262 305.536 275.393C305.461 275.495 305.424 275.598 305.424 275.701C305.424 275.878 305.489 276.004 305.62 276.079C305.779 276.172 305.961 276.233 306.166 276.261C306.465 276.298 306.721 276.317 306.936 276.317C307.123 276.317 307.412 276.335 307.804 276.373C307.879 276.382 308.005 276.396 308.182 276.415C308.369 276.424 308.532 276.443 308.672 276.471C308.971 276.527 309.227 276.611 309.442 276.723C309.647 276.825 309.829 276.989 309.988 277.213C310.119 277.399 310.184 277.661 310.184 277.997C310.184 278.323 310.109 278.622 309.96 278.893C309.82 279.154 309.596 279.406 309.288 279.649C309.017 279.863 308.672 280.041 308.252 280.181C307.86 280.311 307.393 280.377 306.852 280.377C306.292 280.377 305.835 280.325 305.48 280.223C305.088 280.111 304.766 279.971 304.514 279.803C304.262 279.635 304.071 279.434 303.94 279.201C303.809 278.967 303.744 278.734 303.744 278.501C303.744 278.155 303.856 277.857 304.08 277.605C304.304 277.353 304.612 277.157 305.004 277.017C304.808 276.933 304.649 276.807 304.528 276.639C304.407 276.471 304.346 276.261 304.346 276.009C304.346 275.953 304.365 275.85 304.402 275.701C304.43 275.589 304.486 275.477 304.57 275.365C304.645 275.262 304.743 275.159 304.864 275.057C304.901 275.019 305.032 274.935 305.256 274.805C304.901 274.609 304.626 274.347 304.43 274.021C304.234 273.694 304.136 273.316 304.136 272.887C304.136 272.523 304.201 272.21 304.332 271.949C304.472 271.659 304.659 271.421 304.892 271.235C305.125 271.039 305.415 270.885 305.76 270.773C306.068 270.67 306.427 270.619 306.838 270.619L306.81 270.647ZM306.824 274.413C307.067 274.413 307.291 274.375 307.496 274.301C307.673 274.235 307.837 274.137 307.986 274.007C308.117 273.885 308.215 273.731 308.28 273.545C308.345 273.349 308.378 273.157 308.378 272.971C308.378 272.532 308.243 272.187 307.972 271.935C307.711 271.683 307.328 271.557 306.824 271.557C306.329 271.557 305.947 271.683 305.676 271.935C305.415 272.187 305.284 272.532 305.284 272.971C305.284 273.176 305.321 273.367 305.396 273.545C305.48 273.741 305.578 273.89 305.69 273.993C305.839 274.123 306.003 274.221 306.18 274.287C306.367 274.352 306.581 274.385 306.824 274.385V274.413ZM309.036 278.249C309.036 278.071 308.989 277.931 308.896 277.829C308.803 277.717 308.667 277.633 308.49 277.577C308.313 277.521 308.121 277.479 307.916 277.451C307.617 277.413 307.384 277.39 307.216 277.381L306.474 277.353C306.427 277.353 306.189 277.325 305.76 277.269C305.489 277.399 305.27 277.553 305.102 277.731C304.934 277.917 304.85 278.137 304.85 278.389C304.85 278.547 304.892 278.697 304.976 278.837C305.06 278.967 305.186 279.084 305.354 279.187C305.531 279.289 305.741 279.369 305.984 279.425C306.236 279.481 306.535 279.509 306.88 279.509C307.169 279.509 307.468 279.476 307.776 279.411C308.019 279.364 308.243 279.275 308.448 279.145C308.635 279.033 308.775 278.902 308.868 278.753C308.971 278.594 309.022 278.426 309.022 278.249H309.036ZM314.396 270.633C314.909 270.633 315.376 270.717 315.796 270.885C316.206 271.053 316.566 271.295 316.874 271.613C317.163 271.911 317.387 272.294 317.546 272.761C317.704 273.218 317.784 273.722 317.784 274.273C317.784 274.823 317.704 275.327 317.546 275.785C317.387 276.251 317.163 276.634 316.874 276.933C316.566 277.25 316.206 277.493 315.796 277.661C315.376 277.829 314.909 277.913 314.396 277.913C313.882 277.913 313.416 277.829 312.996 277.661C312.585 277.493 312.226 277.25 311.918 276.933C311.638 276.643 311.409 276.261 311.232 275.785C311.082 275.383 311.008 274.879 311.008 274.273C311.008 273.666 311.082 273.162 311.232 272.761C311.409 272.285 311.638 271.902 311.918 271.613C312.226 271.295 312.585 271.053 312.996 270.885C313.416 270.717 313.882 270.633 314.396 270.633ZM314.396 276.961C315.114 276.961 315.637 276.727 315.964 276.261C316.309 275.775 316.482 275.117 316.482 274.287C316.482 273.456 316.309 272.798 315.964 272.313C315.637 271.846 315.114 271.613 314.396 271.613C314.032 271.613 313.724 271.669 313.472 271.781C313.229 271.893 313.014 272.07 312.828 272.313C312.65 272.555 312.52 272.835 312.436 273.153C312.342 273.526 312.296 273.909 312.296 274.301C312.296 274.674 312.342 275.047 312.436 275.421C312.52 275.738 312.65 276.018 312.828 276.261C312.986 276.475 313.201 276.643 313.472 276.765C313.77 276.895 314.078 276.961 314.396 276.961Z" fill="#1F2937"/>
</svg>
