<svg width="656" height="356" viewBox="0 0 656 356" fill="none" xmlns="http://www.w3.org/2000/svg">
<rect x="0.724152" y="0.0727539" width="654.487" height="355.922" fill="#1F2937"/>
<path fill-rule="evenodd" clip-rule="evenodd" d="M211.867 67.8849L200.396 97.4145C197.84 103.995 192.825 109.324 186.412 112.275L163.847 122.66L191.615 120.081L176.287 159.184C175.128 162.14 172.39 164.199 169.229 164.495C135.742 167.626 127.21 167.179 119.258 177.877C114.641 184.089 106.462 186.855 99.7589 182.985L98.3999 182.2C131.326 126.574 130.65 125.083 160.461 80.9267C166.916 71.365 197.723 67.7137 211.867 67.8849Z" fill="#60A5FA"/>
<path d="M126.2 121.47C119.635 110.707 112.475 99.6542 99.8317 80.9265C93.3764 71.3649 62.5698 67.7136 48.4252 67.8848L59.8965 97.4144C62.4528 103.995 67.4672 109.324 73.8801 112.275L96.4456 122.66L68.6773 120.081L84.0055 159.184C85.1641 162.139 87.9027 164.199 91.0635 164.495C94.4555 164.812 97.5914 165.092 100.497 165.351C105.535 156.77 109.641 149.71 113.207 143.579C118.244 134.916 122.206 128.104 126.2 121.47Z" fill="#60A5FA"/>
<path d="M138.157 174.533C139.151 175.509 140.097 176.615 141.034 177.877C145.652 184.089 153.831 186.855 160.534 182.985L161.893 182.2C159.852 178.753 157.941 175.513 156.143 172.459C148.273 173.167 142.595 173.724 138.157 174.533Z" fill="#60A5FA"/>
<path d="M130.146 202.238C89.6702 202.238 56.8578 169.426 56.8578 128.95C56.8578 123.462 57.461 118.115 58.6047 112.972C55.4047 110.659 54.2873 108.946 51.8121 104.924C49.4847 112.522 48.2323 120.59 48.2323 128.95C48.2323 174.19 84.9065 210.864 130.146 210.864V202.238Z" fill="white"/>
<path d="M166.425 65.2555C167.34 64.8021 168.261 64.3873 169.169 64.0066C171.468 63.0425 173.956 62.1884 176.543 61.4329C163.353 52.3518 147.371 47.0355 130.146 47.0355C112.972 47.0355 97.0316 52.3211 83.8639 61.3543C86.5486 62.1289 89.1292 63.0088 91.5085 64.0064C92.3484 64.3586 93.1991 64.7399 94.0465 65.154C104.702 59.1112 117.021 55.6611 130.146 55.6611C143.345 55.6611 155.728 59.1499 166.425 65.2555Z" fill="white"/>
<path d="M130.146 202.237C170.622 202.237 203.435 169.425 203.435 128.949C203.435 123.461 202.831 118.114 201.688 112.971C204.888 110.658 206.005 108.945 208.48 104.923C210.808 112.521 212.06 120.589 212.06 128.949C212.06 174.189 175.386 210.863 130.146 210.863V202.237Z" fill="white"/>
<path d="M259.77 74.1962C261.604 75.7253 264.089 76.4898 267.224 76.4898C270.282 76.4898 272.729 75.7253 274.564 74.1962C276.398 72.6671 277.316 70.4116 277.316 67.4299C277.316 64.5247 276.398 62.3074 274.564 60.7784C272.729 59.2493 270.282 58.4847 267.224 58.4847C264.089 58.4847 261.604 59.2493 259.77 60.7784C257.935 62.3074 257.017 64.5247 257.017 67.4299C257.017 70.4116 257.935 72.6671 259.77 74.1962Z" fill="white"/>
<path d="M276.284 135.322V86.0085H251.512V93.6922L252.545 93.9215C254.915 94.3803 256.673 94.8772 257.82 95.4124C258.967 95.8711 259.54 96.7886 259.54 98.1648V135.322C259.54 137.539 258.852 139.03 257.476 139.794C256.1 140.559 254.227 140.941 251.856 140.941H251.512V147.822H284.197V140.941H283.968C281.597 140.941 279.724 140.559 278.348 139.794C276.972 139.03 276.284 137.539 276.284 135.322Z" fill="white"/>
<path d="M333.129 138.648C330.989 139.718 328.466 140.253 325.56 140.253C322.426 140.253 319.712 139.794 317.418 138.877C315.201 137.883 313.328 136.43 311.799 134.519C310.346 132.608 309.276 130.199 308.587 127.294C307.899 124.312 307.555 120.872 307.555 116.973C307.555 111.85 308.129 107.569 309.276 104.128C310.499 100.611 312.372 97.9736 314.895 96.2152C317.418 94.4567 320.667 93.5775 324.643 93.5775C327.625 93.5775 330.262 94.0362 332.556 94.9536C332.952 95.0988 333.334 95.2531 333.703 95.4165V108.716H347.694V90.2517C346.777 89.5636 345.248 88.8373 343.107 88.0727C340.966 87.2318 338.29 86.5054 335.079 85.8938C331.868 85.2057 328.16 84.8616 323.955 84.8616C316.921 84.8616 310.881 86.1231 305.835 88.6461C300.789 91.1691 296.89 94.839 294.138 99.6557C291.462 104.396 290.124 110.168 290.124 116.973C290.124 123.701 291.5 129.473 294.252 134.29C297.005 139.106 300.866 142.776 305.835 145.299C310.805 147.822 316.653 149.084 323.382 149.084C327.739 149.084 331.562 148.472 334.85 147.249C338.214 145.949 341.119 144.152 343.566 141.859C346.012 139.489 348 136.736 349.529 133.602L342.763 128.785C341.616 130.773 340.24 132.646 338.634 134.404C337.105 136.163 335.27 137.577 333.129 138.648Z" fill="white"/>
<path fill-rule="evenodd" clip-rule="evenodd" d="M395.831 137.062C394.65 139.142 393.352 140.97 391.938 142.547C389.95 144.687 387.657 146.331 385.057 147.478C382.534 148.548 379.629 149.084 376.341 149.084C372.289 149.084 368.811 148.51 365.905 147.363C363 146.14 360.783 144.305 359.254 141.859C357.725 139.412 356.96 136.392 356.96 132.799C356.96 129.588 357.686 126.797 359.139 124.427C360.592 122.057 362.885 119.993 366.02 118.234C369.231 116.476 373.36 114.985 378.406 113.762C383.017 112.574 388.521 111.514 394.92 110.582V102.637C394.92 100.42 394.614 98.6617 394.002 97.362C393.391 95.9858 392.32 94.9919 390.791 94.3803C389.339 93.6922 387.274 93.3481 384.599 93.3481C380.699 93.3481 377.488 93.8833 374.965 94.9536C374.927 94.9699 374.889 94.9862 374.85 95.0026V105.963H360.63V91.6279C361.777 90.7869 363.459 89.8694 365.676 88.8755C367.969 87.8051 370.798 86.8877 374.162 86.1231C377.603 85.2822 381.54 84.8616 385.975 84.8616C389.797 84.8616 393.276 85.2057 396.411 85.8938C399.545 86.5818 402.221 87.6905 404.438 89.2196C406.656 90.7486 408.376 92.6982 409.599 95.0683C410.822 97.4385 411.434 100.267 411.434 103.555V136.239C411.434 137.08 411.702 137.768 412.237 138.304C412.848 138.762 413.69 139.145 414.76 139.45C415.83 139.68 417.13 139.909 418.659 140.138L419.347 140.368V147.822H396.984L395.831 137.062ZM394.92 117.704C391.87 118.182 389.194 118.742 386.892 119.381C384.14 120.069 381.846 120.872 380.011 121.789C378.176 122.63 376.762 123.586 375.768 124.656C374.774 125.65 374.048 126.797 373.589 128.097C373.207 129.32 373.016 130.658 373.016 132.111C373.016 134.175 373.36 135.857 374.048 137.157C374.736 138.38 375.73 139.297 377.029 139.909C378.329 140.521 379.896 140.827 381.731 140.827C383.643 140.827 385.401 140.368 387.007 139.45C388.689 138.533 390.294 137.157 391.823 135.322C392.856 134.093 393.888 132.659 394.92 131.019V117.704Z" fill="white"/>
<path d="M471.339 101.376V85.4351C471.033 85.2822 470.459 85.1675 469.618 85.091C468.777 84.9381 467.86 84.8616 466.866 84.8616C463.578 84.8616 460.711 85.6262 458.265 87.1552C455.895 88.6079 453.754 90.7486 451.843 93.5775C450.513 95.6275 449.183 98.0187 447.853 100.751L446.567 86.0085H423.975V93.6922L425.007 93.9215C426.536 94.2273 427.797 94.5332 428.791 94.839C429.862 95.1448 430.626 95.5653 431.085 96.1005C431.62 96.5592 431.888 97.2473 431.888 98.1648V134.978C431.888 137.348 431.2 138.953 429.824 139.794C428.447 140.559 426.612 140.941 424.319 140.941H423.975V147.822H458.723V140.941H457.003C455.856 140.941 454.633 140.903 453.333 140.827C452.11 140.75 451.04 140.559 450.122 140.253C449.205 139.947 448.746 139.527 448.746 138.992V106.117C449.167 105.691 449.587 105.295 450.008 104.931C451.154 103.861 452.378 103.02 453.678 102.408C455.054 101.796 456.506 101.376 458.035 101.146C459.564 100.841 461.247 100.688 463.081 100.688C464.075 100.688 465.069 100.726 466.063 100.802C467.134 100.802 468.127 100.879 469.045 101.032C470.039 101.108 470.803 101.223 471.339 101.376Z" fill="white"/>
<path d="M501.316 129.702V86.0085H476.201V93.6922L477.577 93.9215C479.947 94.2273 481.667 94.6861 482.738 95.2977C483.885 95.8329 484.458 96.7886 484.458 98.1648V130.735C484.458 134.71 485.184 138.074 486.637 140.827C488.09 143.502 490.154 145.529 492.83 146.905C495.582 148.281 498.832 148.969 502.578 148.969C505.942 148.969 509.076 148.357 511.982 147.134C514.887 145.834 517.563 143.999 520.009 141.629C521.861 139.836 523.559 137.78 525.104 135.461L526.432 147.822H549.024V140.368L548.221 140.138C546.692 139.909 545.392 139.68 544.322 139.45C543.252 139.145 542.411 138.762 541.799 138.304C541.264 137.768 540.996 137.08 540.996 136.239V86.0085H514.39V93.6922L516.684 93.9215C519.054 94.1509 520.889 94.5714 522.188 95.183C523.488 95.7947 524.138 96.7886 524.138 98.1648V128.767C523.03 130.227 521.921 131.533 520.812 132.684C518.901 134.672 516.951 136.163 514.964 137.157C513.052 138.151 511.064 138.648 509 138.648C507.165 138.648 505.674 138.304 504.527 137.615C503.381 136.927 502.54 135.933 502.004 134.634C501.546 133.258 501.316 131.614 501.316 129.702Z" fill="white"/>
<path d="M591.634 128.097C592.475 129.091 592.895 130.429 592.895 132.111C592.895 134.099 592.437 135.742 591.519 137.042C590.602 138.342 589.226 139.336 587.391 140.024C585.556 140.635 583.262 140.941 580.51 140.941C578.063 140.941 575.808 140.75 573.743 140.368C571.679 139.909 569.844 139.374 568.239 138.762V128.556H554.936V143.579C556.388 144.42 558.3 145.261 560.67 146.102C563.04 146.943 565.869 147.631 569.156 148.166C572.52 148.778 576.266 149.084 580.395 149.084C586.588 149.084 591.749 148.281 595.877 146.675C600.082 145.07 603.217 142.776 605.281 139.794C607.345 136.736 608.378 133.066 608.378 128.785C608.378 125.574 607.728 122.898 606.428 120.757C605.205 118.54 603.523 116.782 601.382 115.482C599.318 114.106 596.986 112.997 594.386 112.156C591.863 111.315 589.34 110.589 586.817 109.977C584.677 109.518 582.651 109.06 580.739 108.601C578.828 108.066 577.146 107.492 575.693 106.881C574.24 106.193 573.094 105.351 572.253 104.358C571.488 103.287 571.106 101.949 571.106 100.344C571.106 97.8972 571.985 96.024 573.743 94.7243C575.578 93.4246 578.407 92.7747 582.23 92.7747C584.371 92.7747 586.282 92.9276 587.964 93.2335C589.416 93.4974 590.754 93.8753 591.978 94.3672V102.981H604.937V88.8755C604.173 88.4168 602.796 87.8434 600.808 87.1552C598.821 86.4672 596.259 85.8938 593.125 85.4351C590.067 84.8998 586.435 84.6322 582.23 84.6322C576.955 84.6322 572.367 85.3586 568.468 86.8112C564.645 88.2639 561.664 90.4046 559.523 93.2335C557.459 95.9858 556.426 99.4262 556.426 103.555C556.426 106.919 557.038 109.709 558.261 111.927C559.485 114.067 561.128 115.826 563.193 117.202C565.257 118.502 567.512 119.572 569.959 120.413C572.482 121.178 575.005 121.828 577.528 122.363C579.592 122.821 581.504 123.28 583.262 123.739C585.097 124.198 586.741 124.771 588.193 125.459C589.646 126.147 590.793 127.026 591.634 128.097Z" fill="white"/>
<path fill-rule="evenodd" clip-rule="evenodd" d="M257.361 186.353V194.304C257.361 194.38 257.438 194.444 257.591 194.495C257.697 194.51 257.823 194.526 257.966 194.541C258.062 194.551 258.166 194.561 258.279 194.572C258.449 194.586 258.623 194.6 258.801 194.614C258.943 194.625 259.088 194.637 259.235 194.648H261.222V197.018H249.257V194.686H249.678C250.519 194.686 251.22 194.597 251.78 194.419C252.341 194.24 252.621 193.871 252.621 193.31V173.585C252.621 173.024 252.341 172.654 251.78 172.476C251.22 172.298 250.519 172.208 249.678 172.208H249.257V169.877H262.178C265.287 169.877 267.708 170.577 269.441 171.979C271.174 173.355 272.041 175.343 272.041 177.943C272.041 179.701 271.62 181.205 270.779 182.453C269.964 183.702 268.804 184.671 267.301 185.359C265.822 186.021 264.077 186.353 262.063 186.353H257.361ZM257.361 183.791H261.605C262.853 183.791 263.886 183.575 264.701 183.141C265.517 182.683 266.128 182.033 266.536 181.192C266.944 180.325 267.148 179.268 267.148 178.019C267.148 176.77 266.944 175.738 266.536 174.923C266.154 174.107 265.555 173.495 264.739 173.088C263.924 172.654 262.917 172.438 261.719 172.438H257.361V183.791Z" fill="#9CA3AF"/>
<path fill-rule="evenodd" clip-rule="evenodd" d="M297.328 184.485C297.987 184.237 298.588 183.942 299.133 183.6C300.254 182.912 301.108 182.046 301.694 181.001C302.306 179.956 302.612 178.758 302.612 177.407C302.612 175.827 302.217 174.477 301.427 173.355C300.662 172.208 299.553 171.342 298.101 170.756C296.648 170.17 294.89 169.877 292.825 169.877H279.943V172.247H280.363C281.204 172.247 281.905 172.336 282.466 172.514C283.026 172.693 283.307 173.062 283.307 173.623V193.272C283.307 193.832 283.026 194.202 282.466 194.38C281.905 194.559 281.204 194.648 280.363 194.648H279.943V197.018H291.602V194.648H289.92C289.759 194.636 289.607 194.625 289.461 194.614C289.284 194.6 289.119 194.585 288.964 194.572C288.684 194.521 288.455 194.482 288.276 194.457C288.098 194.406 288.009 194.342 288.009 194.266V185.664H293.035L298.942 197.018H305.593V194.648H305.249C304.791 194.648 304.37 194.61 303.988 194.533C303.631 194.457 303.3 194.291 302.994 194.036C302.688 193.781 302.395 193.425 302.115 192.966L297.328 184.485ZM288.009 172.4V183.218H292.176C293.45 183.218 294.482 183.001 295.272 182.568C296.062 182.109 296.648 181.459 297.03 180.618C297.413 179.778 297.604 178.784 297.604 177.637C297.604 176.515 297.413 175.573 297.03 174.808C296.648 174.018 296.075 173.419 295.31 173.011C294.546 172.603 293.564 172.4 292.367 172.4H288.009Z" fill="#9CA3AF"/>
<path fill-rule="evenodd" clip-rule="evenodd" d="M321.238 196.712C322.92 197.349 324.755 197.668 326.743 197.668C328.756 197.668 330.591 197.349 332.248 196.712C333.904 196.075 335.344 195.145 336.567 193.922C337.791 192.673 338.734 191.169 339.396 189.411C340.059 187.652 340.39 185.664 340.39 183.447C340.39 181.205 340.059 179.217 339.396 177.484C338.734 175.725 337.791 174.235 336.567 173.011C335.344 171.762 333.904 170.82 332.248 170.182C330.591 169.52 328.756 169.188 326.743 169.188C324.755 169.188 322.92 169.52 321.238 170.182C319.582 170.82 318.142 171.762 316.918 173.011C315.695 174.235 314.752 175.725 314.09 177.484C313.427 179.217 313.096 181.205 313.096 183.447C313.096 185.664 313.427 187.652 314.09 189.411C314.752 191.169 315.695 192.673 316.918 193.922C318.142 195.145 319.582 196.075 321.238 196.712ZM330.336 194.266C329.291 194.75 328.094 194.992 326.743 194.992C325.418 194.992 324.207 194.75 323.111 194.266C322.041 193.781 321.136 193.068 320.397 192.125C319.658 191.157 319.085 189.946 318.677 188.493C318.295 187.041 318.104 185.359 318.104 183.447C318.104 181.536 318.295 179.854 318.677 178.401C319.085 176.949 319.658 175.751 320.397 174.808C321.162 173.839 322.079 173.113 323.15 172.629C324.22 172.145 325.418 171.903 326.743 171.903C328.094 171.903 329.291 172.145 330.336 172.629C331.407 173.113 332.311 173.839 333.05 174.808C333.815 175.751 334.388 176.949 334.771 178.401C335.178 179.854 335.382 181.536 335.382 183.447C335.382 185.359 335.178 187.041 334.771 188.493C334.388 189.946 333.815 191.157 333.05 192.125C332.311 193.068 331.407 193.781 330.336 194.266Z" fill="#9CA3AF"/>
<path d="M369.388 169.877H357.232V172.247H358.111C358.697 172.247 359.207 172.285 359.64 172.361C360.099 172.438 360.456 172.578 360.711 172.782C360.991 172.96 361.131 173.241 361.131 173.623V188.34C361.131 190.124 360.94 191.501 360.558 192.469C360.176 193.437 359.628 194.113 358.914 194.495C358.2 194.852 357.308 195.03 356.238 195.03C355.473 195.03 354.785 194.941 354.174 194.763C353.632 194.582 353.161 194.362 352.759 194.102V189.067H348.401V194.877C348.835 195.285 349.421 195.706 350.16 196.139C350.899 196.572 351.791 196.929 352.836 197.209C353.906 197.515 355.104 197.668 356.429 197.668C357.856 197.668 359.143 197.502 360.29 197.171C361.437 196.84 362.418 196.317 363.234 195.604C364.075 194.865 364.712 193.896 365.145 192.698C365.604 191.501 365.833 190.035 365.833 188.302V173.623C365.833 173.062 366.114 172.693 366.674 172.514C367.235 172.336 367.936 172.247 368.777 172.247H369.388V169.877Z" fill="#9CA3AF"/>
<path d="M399.469 197.018V188.455H396.755L396.258 192.775C396.232 193.106 396.117 193.386 395.914 193.616C395.735 193.82 395.455 193.985 395.073 194.113C394.716 194.24 394.244 194.329 393.658 194.38C393.098 194.431 392.409 194.457 391.594 194.457H385.63V184.289C386.203 184.315 386.772 184.34 387.338 184.366L388.154 184.403C389.275 184.454 390.383 184.518 391.479 184.594L394.843 184.747V181.421C393.722 181.472 392.601 181.536 391.479 181.612L388.115 181.765C387.301 181.803 386.473 181.841 385.63 181.879V172.438H390.982C392.002 172.438 392.83 172.489 393.467 172.591C394.104 172.667 394.588 172.833 394.92 173.088C395.251 173.317 395.442 173.661 395.493 174.12L395.875 177.484H398.551V169.877H377.564V172.247H377.985C378.826 172.247 379.527 172.336 380.088 172.514C380.648 172.693 380.929 173.062 380.929 173.623V193.272C380.929 193.832 380.648 194.202 380.088 194.38C379.527 194.559 378.826 194.648 377.985 194.648H377.564V197.018H399.469Z" fill="#9CA3AF"/>
<path d="M418.116 172.667C419.136 172.158 420.283 171.903 421.557 171.903C422.984 171.903 424.233 172.196 425.303 172.782C426.373 173.343 427.265 174.145 427.979 175.19C428.718 176.21 429.291 177.433 429.699 178.86H432.757V169.685H430.005L429.63 173.89C429.443 173.527 429.237 173.183 429.011 172.858C428.196 171.686 427.151 170.781 425.876 170.144C424.602 169.507 423.06 169.188 421.251 169.188C419.416 169.188 417.709 169.507 416.129 170.144C414.548 170.781 413.159 171.712 411.962 172.935C410.789 174.158 409.872 175.662 409.209 177.446C408.572 179.204 408.254 181.205 408.254 183.447C408.254 185.69 408.572 187.691 409.209 189.449C409.846 191.207 410.751 192.698 411.923 193.922C413.121 195.145 414.536 196.075 416.167 196.712C417.798 197.349 419.607 197.668 421.595 197.668C423.685 197.668 425.507 197.298 427.061 196.559C428.616 195.795 429.916 194.724 430.961 193.348C432.006 191.947 432.783 190.315 433.293 188.455L430.731 187.385C430.324 188.812 429.737 190.112 428.973 191.284C428.234 192.431 427.291 193.335 426.144 193.998C424.997 194.661 423.621 194.992 422.016 194.992C420.588 194.992 419.327 194.75 418.231 194.266C417.161 193.781 416.256 193.055 415.517 192.087C414.778 191.118 414.217 189.921 413.835 188.493C413.453 187.041 413.261 185.359 413.261 183.447C413.261 181.536 413.453 179.867 413.835 178.44C414.217 177.012 414.765 175.815 415.479 174.846C416.218 173.878 417.097 173.151 418.116 172.667Z" fill="#9CA3AF"/>
<path d="M451.555 172.4V193.272C451.555 193.832 451.262 194.202 450.675 194.38C450.089 194.559 449.363 194.648 448.496 194.648H447.846V197.018H460.003V194.648H459.315C458.474 194.648 457.76 194.559 457.174 194.38C456.588 194.202 456.295 193.832 456.295 193.272V172.4H458.13C459.251 172.4 460.143 172.463 460.806 172.591C461.494 172.693 462.003 172.884 462.335 173.164C462.666 173.419 462.844 173.776 462.87 174.235L463.29 178.707H465.966V169.877H441.883V178.707H444.559L444.979 174.235C445.03 173.776 445.209 173.419 445.515 173.164C445.846 172.884 446.343 172.693 447.005 172.591C447.694 172.463 448.598 172.4 449.72 172.4H451.555Z" fill="#9CA3AF"/>
<rect x="48.2323" y="273.285" width="27.3034" height="27.3023" rx="13.6511" fill="#60A5FA"/>
<rect x="240.94" y="273.285" width="27.3034" height="27.3023" rx="13.6511" fill="white"/>
<rect x="394.736" y="273.285" width="27.3034" height="27.3023" rx="13.6511" fill="#CCCCCC"/>
<path d="M100.804 285.144C103.013 285.633 104.117 286.827 104.117 288.724C104.117 289.406 103.984 290.036 103.717 290.614C103.45 291.207 103.072 291.711 102.583 292.126C102.123 292.526 101.515 292.852 100.759 293.104C100.048 293.342 99.2178 293.46 98.2691 293.46H90.5089V292.148C90.5089 291.778 90.6942 291.548 91.0647 291.459L91.1982 291.437C91.2426 291.437 91.2871 291.429 91.3316 291.415C91.3909 291.4 91.4576 291.385 91.5317 291.37L92.1988 291.259V279.585L91.5317 279.474C91.4576 279.459 91.3909 279.444 91.3316 279.43C91.2871 279.415 91.2426 279.407 91.1982 279.407L91.0647 279.385C90.6942 279.296 90.5089 279.066 90.5089 278.696V277.384H97.7354C98.8027 277.384 99.6995 277.48 100.426 277.673C101.197 277.881 101.812 278.17 102.271 278.54C102.746 278.911 103.094 279.363 103.317 279.897C103.539 280.43 103.65 281.016 103.65 281.653C103.65 282.053 103.598 282.417 103.494 282.743C103.391 283.069 103.213 283.395 102.961 283.721C102.738 283.988 102.442 284.255 102.071 284.522C101.745 284.744 101.323 284.951 100.804 285.144ZM97.5798 284.344C98.6026 284.344 99.3734 284.158 99.8923 283.788C100.411 283.417 100.67 282.824 100.67 282.009C100.67 281.179 100.433 280.586 99.959 280.23C99.4994 279.874 98.7582 279.696 97.7354 279.696H95.1783V284.344H97.5798ZM101.004 289.613C101.108 289.347 101.16 289.028 101.16 288.657C101.16 288.346 101.1 288.035 100.982 287.723C100.863 287.427 100.693 287.19 100.47 287.012C100.248 286.834 99.9441 286.686 99.5587 286.567C99.2029 286.463 98.7508 286.412 98.2024 286.412H95.1783V291.125H98.2246C98.7879 291.125 99.2548 291.059 99.6254 290.925C99.996 290.792 100.292 290.614 100.515 290.392C100.752 290.155 100.915 289.895 101.004 289.613ZM110.377 291.459C110.748 291.548 110.933 291.778 110.933 292.148V293.46H104.818V292.148C104.818 291.778 105.003 291.548 105.374 291.459L105.507 291.437L105.841 291.37L106.508 291.259V279.141L105.841 279.029C105.767 279.015 105.7 279 105.641 278.985C105.596 278.97 105.552 278.963 105.507 278.963L105.374 278.94C105.003 278.851 104.818 278.622 104.818 278.251V276.939H109.243V291.259L109.91 291.37L110.244 291.437L110.377 291.459ZM124.331 291.459C124.701 291.548 124.887 291.778 124.887 292.148V293.46H121.529C121.188 293.46 120.958 293.29 120.84 292.949L120.64 292.037C120.388 292.289 120.143 292.511 119.906 292.704C119.684 292.882 119.417 293.045 119.105 293.193C118.809 293.327 118.498 293.438 118.172 293.527C117.801 293.601 117.453 293.638 117.127 293.638C116.519 293.638 115.963 293.534 115.459 293.327C115.029 293.149 114.629 292.845 114.258 292.415C113.962 292.074 113.717 291.622 113.524 291.059C113.361 290.495 113.28 289.91 113.28 289.302V284.255L112.146 284.055C111.775 283.966 111.59 283.736 111.59 283.365V282.053H116.015V289.302C116.015 289.984 116.178 290.525 116.504 290.925C116.815 291.296 117.297 291.481 117.949 291.481C118.394 291.481 118.839 291.377 119.283 291.17C119.684 290.977 120.076 290.688 120.462 290.303V284.255C120.047 284.181 119.773 284.136 119.639 284.121C119.506 284.092 119.409 284.069 119.35 284.055C118.979 283.966 118.794 283.736 118.794 283.365V282.053H123.219V291.259L124.331 291.459ZM131.132 281.875C131.859 281.875 132.518 281.987 133.111 282.209C133.675 282.417 134.193 282.758 134.668 283.232C135.098 283.662 135.439 284.203 135.691 284.855C135.943 285.522 136.069 286.248 136.069 287.034C136.069 287.212 136.054 287.39 136.024 287.568C135.994 287.731 135.965 287.835 135.935 287.879C135.906 287.953 135.839 288.013 135.735 288.057C135.676 288.087 135.572 288.101 135.424 288.101H128.375C128.464 289.273 128.783 290.132 129.331 290.681C129.88 291.229 130.606 291.503 131.51 291.503C131.97 291.503 132.348 291.452 132.644 291.348C132.97 291.244 133.252 291.125 133.489 290.992C133.593 290.933 133.697 290.881 133.801 290.836C133.919 290.777 134.03 290.718 134.134 290.659C134.297 290.555 134.468 290.503 134.646 290.503C134.764 290.503 134.868 290.525 134.957 290.57C135.031 290.599 135.098 290.659 135.157 290.747L135.957 291.748C135.616 292.133 135.276 292.437 134.935 292.66C134.534 292.912 134.142 293.104 133.756 293.238C133.385 293.356 132.963 293.453 132.489 293.527C132.118 293.586 131.703 293.616 131.243 293.616C130.428 293.616 129.694 293.49 129.042 293.238C128.39 292.986 127.797 292.593 127.263 292.059C126.759 291.555 126.359 290.918 126.063 290.147C125.781 289.406 125.64 288.524 125.64 287.501C125.64 286.76 125.766 286.034 126.018 285.322C126.255 284.655 126.618 284.055 127.108 283.521C127.567 283.017 128.138 282.617 128.82 282.32C129.502 282.024 130.273 281.875 131.132 281.875ZM131.177 283.832C130.391 283.832 129.769 284.062 129.309 284.522C128.864 284.966 128.575 285.604 128.442 286.434H133.6C133.6 286.122 133.549 285.789 133.445 285.433C133.356 285.152 133.208 284.877 133 284.61C132.807 284.373 132.555 284.188 132.244 284.055C131.903 283.906 131.547 283.832 131.177 283.832ZM142.806 287.901H137.025V285.589H142.806V287.901ZM155.957 288.857C155.957 288.946 155.92 289.043 155.846 289.147C155.786 289.235 155.682 289.28 155.534 289.28H153.555V293.46H151.799V289.28H144.75C144.602 289.28 144.476 289.235 144.372 289.147C144.268 289.058 144.194 288.954 144.15 288.835L143.972 287.812L151.71 277.54H153.555V287.723H155.957V288.857ZM151.821 280.519C151.821 280.297 151.843 280.074 151.888 279.852L146.106 287.723H151.799V281.142L151.821 280.519ZM168.742 285.5C168.742 286.938 168.594 288.146 168.297 289.124C167.971 290.206 167.563 291.051 167.074 291.659C166.511 292.356 165.896 292.852 165.229 293.149C164.487 293.475 163.731 293.638 162.961 293.638C162.19 293.638 161.434 293.475 160.693 293.149C160.025 292.852 159.41 292.356 158.847 291.659C158.358 291.051 157.95 290.206 157.624 289.124C157.328 288.146 157.179 286.938 157.179 285.5C157.179 284.062 157.328 282.854 157.624 281.875C157.95 280.793 158.358 279.948 158.847 279.341C159.41 278.644 160.025 278.147 160.693 277.851C161.434 277.525 162.19 277.362 162.961 277.362C163.731 277.362 164.487 277.525 165.229 277.851C165.896 278.147 166.511 278.644 167.074 279.341C167.563 279.948 167.971 280.793 168.297 281.875C168.608 282.898 168.764 284.106 168.764 285.5H168.742ZM166.696 285.522C166.696 284.351 166.592 283.336 166.385 282.476C166.177 281.601 165.903 280.934 165.562 280.475C165.192 279.956 164.791 279.593 164.361 279.385C163.917 279.163 163.45 279.052 162.961 279.052C162.457 279.052 161.982 279.163 161.537 279.385C161.108 279.593 160.707 279.956 160.337 280.475C160.011 280.919 159.744 281.579 159.536 282.454C159.329 283.313 159.225 284.329 159.225 285.5C159.225 286.686 159.329 287.709 159.536 288.568C159.759 289.473 160.025 290.14 160.337 290.57C160.693 291.059 161.093 291.415 161.537 291.637C161.982 291.859 162.457 291.97 162.961 291.97C163.465 291.97 163.939 291.859 164.384 291.637C164.813 291.429 165.214 291.066 165.584 290.547C165.91 290.103 166.177 289.443 166.385 288.568C166.592 287.709 166.696 286.693 166.696 285.522ZM181.836 285.5C181.836 286.938 181.687 288.146 181.391 289.124C181.065 290.206 180.657 291.051 180.168 291.659C179.605 292.356 178.989 292.852 178.322 293.149C177.581 293.475 176.825 293.638 176.054 293.638C175.283 293.638 174.527 293.475 173.786 293.149C173.119 292.852 172.504 292.356 171.941 291.659C171.452 291.051 171.044 290.206 170.718 289.124C170.421 288.146 170.273 286.938 170.273 285.5C170.273 284.062 170.421 282.854 170.718 281.875C171.044 280.793 171.452 279.948 171.941 279.341C172.504 278.644 173.119 278.147 173.786 277.851C174.527 277.525 175.283 277.362 176.054 277.362C176.825 277.362 177.581 277.525 178.322 277.851C178.989 278.147 179.605 278.644 180.168 279.341C180.657 279.948 181.065 280.793 181.391 281.875C181.702 282.898 181.858 284.106 181.858 285.5H181.836ZM179.79 285.522C179.79 284.351 179.686 283.336 179.479 282.476C179.271 281.601 178.997 280.934 178.656 280.475C178.285 279.956 177.885 279.593 177.455 279.385C177.01 279.163 176.543 279.052 176.054 279.052C175.55 279.052 175.076 279.163 174.631 279.385C174.201 279.593 173.801 279.956 173.431 280.475C173.104 280.919 172.838 281.579 172.63 282.454C172.423 283.313 172.319 284.329 172.319 285.5C172.319 286.686 172.423 287.709 172.63 288.568C172.852 289.473 173.119 290.14 173.431 290.57C173.786 291.059 174.187 291.415 174.631 291.637C175.076 291.859 175.55 291.97 176.054 291.97C176.558 291.97 177.033 291.859 177.477 291.637C177.907 291.429 178.308 291.066 178.678 290.547C179.004 290.103 179.271 289.443 179.479 288.568C179.686 287.709 179.79 286.693 179.79 285.522Z" fill="#60A5FA"/>
<path d="M307.631 278.696C307.631 279.066 307.446 279.296 307.075 279.385L306.831 279.43L306.208 279.541L301.872 293.46H299.182L295.669 282.476L295.535 282.031L295.38 281.497L295.246 282.031L295.113 282.476L291.555 293.46H288.865L284.551 279.541L283.906 279.43L283.661 279.385C283.291 279.296 283.106 279.066 283.106 278.696V277.384H289.109V278.696C289.109 279.066 288.924 279.296 288.553 279.385C288.509 279.385 288.472 279.393 288.442 279.407L288.198 279.474C288.02 279.504 287.894 279.533 287.819 279.563L290.11 287.679L290.31 288.457L290.466 289.347L290.666 288.457C290.74 288.146 290.814 287.886 290.888 287.679L294.045 278.073C294.12 277.881 294.238 277.725 294.401 277.606C294.594 277.458 294.801 277.384 295.024 277.384H295.913C296.18 277.384 296.395 277.443 296.558 277.562C296.721 277.68 296.84 277.851 296.914 278.073L300.049 287.679C300.242 288.242 300.383 288.769 300.472 289.258C300.531 288.917 300.583 288.643 300.627 288.435C300.672 288.183 300.731 287.931 300.805 287.679L303.095 279.585L302.184 279.385C301.813 279.296 301.628 279.066 301.628 278.696V277.384H307.631V278.696ZM321.124 291.459C321.495 291.548 321.68 291.778 321.68 292.148V293.46H317.255V286.211C317.255 285.5 317.092 284.959 316.766 284.588C316.455 284.203 315.973 284.01 315.321 284.01C314.861 284.01 314.416 284.121 313.987 284.344C313.542 284.581 313.149 284.87 312.808 285.211V291.259L313.475 291.37C313.549 291.385 313.609 291.4 313.653 291.415C313.712 291.429 313.764 291.437 313.809 291.437L313.942 291.459C314.313 291.548 314.498 291.778 314.498 292.148V293.46H308.383V292.148C308.383 291.778 308.568 291.548 308.939 291.459L309.072 291.437C309.117 291.437 309.161 291.429 309.206 291.415C309.265 291.4 309.332 291.385 309.406 291.37L310.073 291.259V279.141L309.406 279.029C309.332 279.015 309.265 279 309.206 278.985C309.161 278.97 309.117 278.963 309.072 278.963L308.939 278.94C308.568 278.851 308.383 278.622 308.383 278.251V276.939H312.808V283.299C313.238 282.898 313.727 282.557 314.276 282.276C314.809 282.009 315.439 281.875 316.166 281.875C316.759 281.875 317.307 281.979 317.811 282.187C318.241 282.365 318.641 282.661 319.012 283.076C319.323 283.447 319.568 283.906 319.746 284.455C319.923 285.063 320.012 285.641 320.012 286.189V291.259L320.657 291.37L320.991 291.437L321.124 291.459ZM327.323 278.718C327.323 278.926 327.271 279.148 327.167 279.385C327.078 279.593 326.952 279.778 326.789 279.941C326.611 280.119 326.426 280.245 326.233 280.319C326.011 280.408 325.781 280.452 325.544 280.452C325.307 280.452 325.077 280.408 324.855 280.319C324.677 280.245 324.499 280.119 324.321 279.941C324.158 279.778 324.032 279.593 323.943 279.385C323.854 279.178 323.809 278.955 323.809 278.718C323.809 278.481 323.854 278.251 323.943 278.029C324.017 277.836 324.143 277.651 324.321 277.473C324.484 277.31 324.662 277.191 324.855 277.117C325.121 277.013 325.351 276.961 325.544 276.961C325.737 276.961 325.966 277.013 326.233 277.117C326.455 277.206 326.641 277.325 326.789 277.473C326.967 277.651 327.093 277.836 327.167 278.029C327.271 278.281 327.323 278.511 327.323 278.718ZM328.034 291.459C328.405 291.548 328.59 291.778 328.59 292.148V293.46H322.475V292.148C322.475 291.778 322.661 291.548 323.031 291.459L323.165 291.437L323.498 291.37L324.165 291.259V284.255L323.498 284.144C323.424 284.129 323.357 284.114 323.298 284.099C323.254 284.084 323.209 284.077 323.165 284.077L323.031 284.055C322.661 283.966 322.475 283.736 322.475 283.365V282.053H326.9V291.259L327.567 291.37C327.641 291.385 327.701 291.4 327.745 291.415C327.804 291.429 327.856 291.437 327.901 291.437L328.034 291.459ZM334.028 293.638C333.035 293.638 332.272 293.356 331.738 292.793C331.204 292.23 330.937 291.459 330.937 290.481V284.121H329.781C329.663 284.121 329.537 284.069 329.403 283.966C329.285 283.877 329.225 283.736 329.225 283.543V282.431L331.071 282.142L331.649 279.029C331.664 278.896 331.731 278.785 331.849 278.696C331.968 278.607 332.109 278.562 332.272 278.562H333.695V282.165H336.696V284.121H333.695V290.303C333.695 290.644 333.784 290.918 333.962 291.125C334.139 291.318 334.377 291.415 334.673 291.415C334.881 291.415 335.021 291.4 335.096 291.37L335.385 291.237L335.629 291.103C335.674 291.074 335.733 291.059 335.807 291.059C335.926 291.059 336 291.074 336.029 291.103L336.185 291.281L337.008 292.615C336.622 292.927 336.163 293.179 335.629 293.371C335.125 293.549 334.592 293.638 334.028 293.638ZM343.101 281.875C343.827 281.875 344.487 281.987 345.08 282.209C345.643 282.417 346.162 282.758 346.636 283.232C347.066 283.662 347.407 284.203 347.659 284.855C347.911 285.522 348.037 286.248 348.037 287.034C348.037 287.212 348.022 287.39 347.993 287.568C347.963 287.731 347.933 287.835 347.904 287.879C347.874 287.953 347.807 288.013 347.704 288.057C347.644 288.087 347.541 288.101 347.392 288.101H340.344C340.433 289.273 340.751 290.132 341.3 290.681C341.848 291.229 342.575 291.503 343.479 291.503C343.938 291.503 344.316 291.452 344.613 291.348C344.939 291.244 345.221 291.125 345.458 290.992C345.562 290.933 345.665 290.881 345.769 290.836C345.888 290.777 345.999 290.718 346.103 290.659C346.266 290.555 346.436 290.503 346.614 290.503C346.733 290.503 346.836 290.525 346.925 290.57C346.999 290.599 347.066 290.659 347.125 290.747L347.926 291.748C347.585 292.133 347.244 292.437 346.903 292.66C346.503 292.912 346.11 293.104 345.725 293.238C345.354 293.356 344.932 293.453 344.457 293.527C344.087 293.586 343.672 293.616 343.212 293.616C342.397 293.616 341.663 293.49 341.011 293.238C340.358 292.986 339.766 292.593 339.232 292.059C338.728 291.555 338.328 290.918 338.031 290.147C337.749 289.406 337.609 288.524 337.609 287.501C337.609 286.76 337.735 286.034 337.987 285.322C338.224 284.655 338.587 284.055 339.076 283.521C339.536 283.017 340.106 282.617 340.788 282.32C341.47 282.024 342.241 281.875 343.101 281.875ZM343.145 283.832C342.36 283.832 341.737 284.062 341.278 284.522C340.833 284.966 340.544 285.604 340.41 286.434H345.569C345.569 286.122 345.517 285.789 345.413 285.433C345.324 285.152 345.176 284.877 344.969 284.61C344.776 284.373 344.524 284.188 344.213 284.055C343.872 283.906 343.516 283.832 343.145 283.832Z" fill="white"/>
<path d="M451.088 291.904C450.658 292.215 450.235 292.474 449.82 292.682C449.375 292.904 448.908 293.082 448.419 293.216C447.9 293.364 447.359 293.468 446.796 293.527C446.159 293.601 445.543 293.638 444.951 293.638C443.809 293.638 442.734 293.431 441.726 293.015C440.718 292.6 439.866 292.037 439.169 291.326C438.428 290.57 437.865 289.702 437.479 288.724C437.079 287.716 436.879 286.612 436.879 285.411C436.879 284.166 437.072 283.061 437.457 282.098C437.857 281.09 438.421 280.223 439.147 279.496C439.844 278.785 440.718 278.221 441.771 277.806C442.749 277.436 443.854 277.236 445.084 277.206H445.24C446.93 277.206 448.827 277.591 450.932 278.362V282.454H449.642C449.375 282.454 449.205 282.32 449.131 282.053C449.086 281.846 449.02 281.268 448.931 280.319C447.834 279.948 446.566 279.763 445.128 279.763C444.358 279.763 443.646 279.897 442.994 280.163C442.342 280.43 441.793 280.808 441.348 281.297C440.889 281.801 440.54 282.394 440.303 283.076C440.051 283.788 439.925 284.566 439.925 285.411C439.925 286.36 440.059 287.19 440.326 287.901C440.592 288.643 440.956 289.25 441.415 289.725C441.889 290.214 442.445 290.592 443.083 290.859C443.735 291.125 444.439 291.259 445.195 291.259C445.818 291.259 446.403 291.2 446.952 291.081C447.441 290.962 447.915 290.792 448.375 290.57V287.657H446.374C446.181 287.657 446.025 287.597 445.907 287.479C445.803 287.375 445.751 287.249 445.751 287.101V285.411H451.088V291.904ZM459.512 281.853C460.09 281.853 460.557 281.979 460.912 282.231L460.557 284.299C460.542 284.433 460.497 284.522 460.423 284.566C460.334 284.625 460.23 284.655 460.112 284.655C460.008 284.655 459.86 284.633 459.667 284.588C459.4 284.529 459.141 284.499 458.889 284.499C458.311 284.499 457.822 284.655 457.421 284.966C457.051 285.248 456.71 285.715 456.399 286.367V291.259L457.51 291.459C457.881 291.548 458.066 291.778 458.066 292.148V293.46H451.974V292.148C451.974 291.778 452.159 291.548 452.53 291.459L453.641 291.259V284.255L452.53 284.055C452.159 283.966 451.974 283.736 451.974 283.365V282.053H455.265C455.546 282.053 455.739 282.105 455.843 282.209C455.946 282.313 456.021 282.491 456.065 282.743L456.243 284.121C456.643 283.395 457.117 282.839 457.666 282.454C458.229 282.053 458.844 281.853 459.512 281.853ZM471.842 291.437C472.213 291.526 472.398 291.755 472.398 292.126V293.438H469.774C469.493 293.438 469.285 293.401 469.152 293.327C469.003 293.267 468.892 293.104 468.818 292.838L468.574 292.037C468.277 292.319 467.995 292.549 467.729 292.726C467.521 292.875 467.232 293.038 466.861 293.216C466.595 293.334 466.283 293.431 465.928 293.505C465.557 293.579 465.186 293.616 464.816 293.616C464.327 293.616 463.882 293.549 463.482 293.416C463.052 293.267 462.703 293.075 462.437 292.838C462.125 292.556 461.895 292.23 461.747 291.859C461.584 291.459 461.503 291.014 461.503 290.525C461.503 290.08 461.614 289.651 461.836 289.235C462.059 288.806 462.437 288.428 462.97 288.101C463.533 287.746 464.23 287.464 465.06 287.256C465.935 287.034 467.024 286.923 468.329 286.923V286.256C468.329 285.515 468.166 284.944 467.84 284.544C467.528 284.173 467.062 283.988 466.439 283.988C465.965 283.988 465.594 284.04 465.327 284.144C464.986 284.277 464.727 284.396 464.549 284.499L463.949 284.833C463.785 284.937 463.585 284.988 463.348 284.988C463.155 284.988 462.992 284.944 462.859 284.855C462.77 284.796 462.666 284.677 462.548 284.499L462.036 283.632C463.37 282.417 464.949 281.809 466.772 281.809C467.44 281.809 468.04 281.92 468.574 282.142C469.092 282.365 469.53 282.669 469.885 283.054C470.286 283.514 470.567 283.98 470.73 284.455C470.908 284.988 470.997 285.581 470.997 286.234V291.281L471.598 291.392L471.842 291.437ZM468.329 288.591C467.499 288.591 466.832 288.643 466.328 288.746C465.779 288.865 465.342 288.998 465.016 289.147C464.69 289.295 464.46 289.473 464.327 289.68C464.193 289.873 464.126 290.103 464.126 290.369C464.126 290.873 464.267 291.222 464.549 291.415C464.845 291.622 465.216 291.726 465.661 291.726C465.942 291.726 466.202 291.704 466.439 291.659C466.691 291.615 466.921 291.533 467.128 291.415C467.395 291.266 467.595 291.14 467.729 291.037C467.936 290.873 468.136 290.696 468.329 290.503V288.591ZM486.061 283.365C486.061 283.736 485.876 283.966 485.506 284.055C485.446 284.055 485.357 284.069 485.239 284.099C485.12 284.129 484.861 284.181 484.46 284.255L479.191 296.595C479.102 296.803 478.991 296.951 478.857 297.04C478.753 297.129 478.561 297.174 478.279 297.174H476.233L478.368 292.615L474.699 284.255C474.299 284.181 474.039 284.129 473.921 284.099C473.802 284.069 473.713 284.055 473.654 284.055C473.283 283.966 473.098 283.736 473.098 283.365V282.053H478.657V283.365C478.657 283.736 478.472 283.966 478.101 284.055L477.567 284.144L479.369 288.479C479.428 288.613 479.472 288.731 479.502 288.835C479.532 288.939 479.554 289.021 479.569 289.08C479.598 289.184 479.65 289.391 479.724 289.702L479.924 289.08C480.013 288.813 480.087 288.613 480.147 288.479L481.814 284.188L481.058 284.055C480.688 283.966 480.503 283.736 480.503 283.365V282.053H486.061V283.365ZM492.806 287.901H487.025V285.589H492.806V287.901ZM506.045 288.991C506.045 289.109 505.993 289.235 505.89 289.369C505.801 289.487 505.667 289.547 505.489 289.547H504.022V293.46H501.62V289.547H494.839C494.661 289.547 494.498 289.487 494.349 289.369C494.216 289.265 494.127 289.117 494.083 288.924L493.793 287.546L501.42 277.362H504.022V287.412H506.045V288.991ZM501.62 282.142C501.62 281.801 501.628 281.542 501.643 281.364C501.643 281.275 501.643 281.164 501.643 281.031C501.657 280.882 501.68 280.712 501.709 280.519L496.729 287.412H501.62V282.142ZM518.741 285.5C518.741 286.938 518.593 288.146 518.297 289.124C517.971 290.206 517.563 291.051 517.074 291.659C516.51 292.356 515.895 292.852 515.228 293.149C514.487 293.475 513.731 293.638 512.96 293.638C512.189 293.638 511.433 293.475 510.692 293.149C510.025 292.852 509.41 292.356 508.847 291.659C508.357 291.051 507.95 290.206 507.624 289.124C507.327 288.146 507.179 286.938 507.179 285.5C507.179 284.062 507.327 282.854 507.624 281.875C507.95 280.793 508.357 279.948 508.847 279.341C509.41 278.644 510.025 278.147 510.692 277.851C511.433 277.525 512.189 277.362 512.96 277.362C513.731 277.362 514.487 277.525 515.228 277.851C515.895 278.147 516.51 278.644 517.074 279.341C517.563 279.948 517.971 280.793 518.297 281.875C518.608 282.898 518.764 284.106 518.764 285.5H518.741ZM516.696 285.522C516.696 284.351 516.592 283.336 516.384 282.476C516.177 281.601 515.903 280.934 515.562 280.475C515.191 279.956 514.791 279.593 514.361 279.385C513.916 279.163 513.449 279.052 512.96 279.052C512.456 279.052 511.982 279.163 511.537 279.385C511.107 279.593 510.707 279.956 510.336 280.475C510.01 280.919 509.743 281.579 509.536 282.454C509.328 283.313 509.225 284.329 509.225 285.5C509.225 286.686 509.328 287.709 509.536 288.568C509.758 289.473 510.025 290.14 510.336 290.57C510.692 291.059 511.092 291.415 511.537 291.637C511.982 291.859 512.456 291.97 512.96 291.97C513.464 291.97 513.939 291.859 514.383 291.637C514.813 291.429 515.213 291.066 515.584 290.547C515.91 290.103 516.177 289.443 516.384 288.568C516.592 287.709 516.696 286.693 516.696 285.522ZM531.835 285.5C531.835 286.938 531.687 288.146 531.39 289.124C531.064 290.206 530.657 291.051 530.167 291.659C529.604 292.356 528.989 292.852 528.322 293.149C527.581 293.475 526.825 293.638 526.054 293.638C525.283 293.638 524.527 293.475 523.786 293.149C523.119 292.852 522.504 292.356 521.94 291.659C521.451 291.051 521.044 290.206 520.717 289.124C520.421 288.146 520.273 286.938 520.273 285.5C520.273 284.062 520.421 282.854 520.717 281.875C521.044 280.793 521.451 279.948 521.94 279.341C522.504 278.644 523.119 278.147 523.786 277.851C524.527 277.525 525.283 277.362 526.054 277.362C526.825 277.362 527.581 277.525 528.322 277.851C528.989 278.147 529.604 278.644 530.167 279.341C530.657 279.948 531.064 280.793 531.39 281.875C531.702 282.898 531.857 284.106 531.857 285.5H531.835ZM529.789 285.522C529.789 284.351 529.686 283.336 529.478 282.476C529.271 281.601 528.996 280.934 528.655 280.475C528.285 279.956 527.885 279.593 527.455 279.385C527.01 279.163 526.543 279.052 526.054 279.052C525.55 279.052 525.076 279.163 524.631 279.385C524.201 279.593 523.801 279.956 523.43 280.475C523.104 280.919 522.837 281.579 522.63 282.454C522.422 283.313 522.318 284.329 522.318 285.5C522.318 286.686 522.422 287.709 522.63 288.568C522.852 289.473 523.119 290.14 523.43 290.57C523.786 291.059 524.186 291.415 524.631 291.637C525.076 291.859 525.55 291.97 526.054 291.97C526.558 291.97 527.032 291.859 527.477 291.637C527.907 291.429 528.307 291.066 528.678 290.547C529.004 290.103 529.271 289.443 529.478 288.568C529.686 287.709 529.789 286.693 529.789 285.522Z" fill="#CCCCCC"/>
</svg>
