<svg width="606" height="178" viewBox="0 0 606 178" fill="none" xmlns="http://www.w3.org/2000/svg">
<path fill-rule="evenodd" clip-rule="evenodd" d="M177.176 23.0936L164.794 54.9665C162.035 62.0691 156.623 67.8209 149.701 71.0065L125.345 82.2158L155.317 79.4314L138.772 121.638C137.522 124.828 134.566 127.051 131.154 127.37C95.0098 130.749 85.8008 130.267 77.218 141.814C72.2344 148.519 63.4064 151.504 56.1713 147.327L54.7046 146.48C90.2431 86.4394 89.5134 84.8308 121.69 37.1703C128.658 26.8499 161.909 22.9089 177.176 23.0936Z" fill="white"/>
<path d="M84.7103 80.9314C77.6245 69.314 69.8968 57.3839 56.25 37.1701C49.2824 26.8498 16.0312 22.9087 0.76416 23.0935L13.1458 54.9663C15.9049 62.0689 21.3172 67.8207 28.239 71.0063L52.5951 82.2157L22.6233 79.4313L39.1679 121.638C40.4184 124.828 43.3744 127.051 46.786 127.37C50.4471 127.712 53.8319 128.015 56.9676 128.294C62.4062 119.032 66.8375 111.412 70.6863 104.794C76.1239 95.4438 80.3994 88.0919 84.7103 80.9314Z" fill="white"/>
<path d="M97.6165 138.205C98.6892 139.258 99.71 140.452 100.722 141.814C105.706 148.519 114.534 151.504 121.769 147.327L123.236 146.48C121.033 142.759 118.97 139.263 117.03 135.966C108.535 136.731 102.407 137.332 97.6165 138.205Z" fill="white"/>
<path d="M88.9702 168.108C45.2821 168.108 9.86593 132.692 9.86593 89.0041C9.86593 83.0807 10.517 77.3095 11.7514 71.758C8.29752 69.2622 7.09142 67.4128 4.41979 63.0721C1.90769 71.2727 0.555908 79.9805 0.555908 89.0041C0.555908 137.834 40.1404 177.418 88.9702 177.418V168.108Z" fill="white"/>
<path d="M128.127 20.2555C129.115 19.7661 130.109 19.3185 131.089 18.9075C133.571 17.8669 136.256 16.945 139.049 16.1296C124.812 6.32782 107.561 0.589722 88.9702 0.589722C70.4327 0.589722 53.2277 6.29473 39.0151 16.0448C41.9128 16.8809 44.6982 17.8306 47.2662 18.9073C48.1729 19.2875 49.0911 19.699 50.0057 20.1459C61.5071 13.6236 74.8038 9.89975 88.9702 9.89975C103.216 9.89975 116.582 13.6654 128.127 20.2555Z" fill="white"/>
<path d="M88.9698 168.107C132.658 168.107 168.074 132.691 168.074 89.0031C168.074 83.0798 167.423 77.3085 166.189 71.757C169.643 69.2612 170.849 67.4118 173.52 63.0711C176.032 71.2717 177.384 79.9795 177.384 89.0031C177.384 137.833 137.8 177.417 88.9698 177.417V168.107Z" fill="white"/>
<path d="M228.88 29.9057C230.86 31.5562 233.542 32.3813 236.925 32.3813C240.226 32.3813 242.867 31.5562 244.848 29.9057C246.828 28.2552 247.818 25.8209 247.818 22.6025C247.818 19.4667 246.828 17.0735 244.848 15.4232C242.867 13.7727 240.226 12.9475 236.925 12.9475C233.542 12.9475 230.86 13.7727 228.88 15.4232C226.899 17.0735 225.909 19.4667 225.909 22.6025C225.909 25.8209 226.899 28.2552 228.88 29.9057Z" fill="white"/>
<path d="M246.704 95.8819V42.6553H219.967V50.9488L221.081 51.1964C223.639 51.6915 225.537 52.2278 226.775 52.8055C228.013 53.3007 228.632 54.2909 228.632 55.7763V95.8819C228.632 98.275 227.889 99.8842 226.404 100.709C224.918 101.535 222.897 101.947 220.339 101.947H219.967V109.374H255.245V101.947H254.998C252.439 101.947 250.418 101.535 248.932 100.709C247.447 99.8842 246.704 98.275 246.704 95.8819Z" fill="white"/>
<path d="M308.061 99.4716C305.75 100.627 303.027 101.205 299.891 101.205C296.508 101.205 293.578 100.709 291.103 99.7192C288.709 98.6464 286.688 97.0784 285.037 95.0154C283.469 92.9524 282.314 90.3529 281.571 87.2171C280.829 83.9988 280.457 80.2853 280.457 76.0767C280.457 70.5477 281.076 65.9265 282.314 62.213C283.634 58.417 285.656 55.57 288.379 53.672C291.103 51.774 294.61 50.825 298.901 50.825C302.119 50.825 304.966 51.3201 307.442 52.3104C307.869 52.467 308.282 52.6336 308.68 52.81V67.1643H323.781V47.2353C322.791 46.4926 321.141 45.7086 318.83 44.8834C316.519 43.9757 313.631 43.1917 310.165 42.5316C306.699 41.7889 302.697 41.4175 298.158 41.4175C290.566 41.4175 284.047 42.7791 278.6 45.5023C273.154 48.2255 268.945 52.1866 265.975 57.3855C263.086 62.5018 261.642 68.7322 261.642 76.0767C261.642 83.3386 263.128 89.569 266.099 94.7678C269.069 99.9667 273.237 103.928 278.6 106.651C283.964 109.374 290.277 110.736 297.539 110.736C302.243 110.736 306.369 110.076 309.917 108.755C313.548 107.352 316.684 105.413 319.325 102.938C321.966 100.379 324.111 97.4086 325.762 94.0251L318.458 88.8263C317.221 90.9719 315.735 92.9937 314.002 94.8916C312.352 96.7896 310.371 98.3163 308.061 99.4716Z" fill="white"/>
<path fill-rule="evenodd" clip-rule="evenodd" d="M375.738 97.7604C374.463 100.005 373.062 101.978 371.536 103.68C369.391 105.991 366.915 107.765 364.109 109.003C361.386 110.158 358.25 110.736 354.702 110.736C350.328 110.736 346.573 110.117 343.438 108.879C340.302 107.559 337.909 105.578 336.258 102.938C334.608 100.297 333.782 97.0372 333.782 93.1587C333.782 89.6927 334.566 86.6807 336.134 84.1226C337.702 81.5643 340.178 79.3362 343.561 77.4383C347.027 75.5403 351.483 73.9311 356.93 72.6107C361.907 71.3288 367.848 70.1847 374.755 69.1784V60.6038C374.755 58.2107 374.424 56.3127 373.764 54.9098C373.104 53.4244 371.949 52.3516 370.298 51.6915C368.73 50.9488 366.502 50.5775 363.614 50.5775C359.406 50.5775 355.94 51.1551 353.216 52.3104C353.175 52.3279 353.134 52.3455 353.093 52.3632V64.1935H337.744V48.7207C338.981 47.8129 340.797 46.8227 343.19 45.7499C345.666 44.5946 348.719 43.6043 352.35 42.7791C356.063 41.8714 360.313 41.4175 365.099 41.4175C369.226 41.4175 372.98 41.7889 376.364 42.5316C379.747 43.2742 382.635 44.4708 385.028 46.1213C387.422 47.7717 389.278 49.876 390.599 52.4341C391.919 54.9924 392.579 58.0457 392.579 61.5941V96.8721C392.579 97.7799 392.868 98.5226 393.446 99.1002C394.106 99.5954 395.014 100.008 396.169 100.338C397.324 100.586 398.727 100.833 400.378 101.081L401.12 101.328V109.374H376.983L375.738 97.7604ZM374.755 76.8655C371.462 77.3825 368.574 77.986 366.09 78.6761C363.119 79.4188 360.643 80.2853 358.663 81.2755C356.682 82.1833 355.156 83.2148 354.083 84.3701C353.01 85.4429 352.226 86.6807 351.731 88.0836C351.318 89.4039 351.112 90.8481 351.112 92.416C351.112 94.644 351.483 96.4595 352.226 97.8624C352.969 99.1827 354.042 100.173 355.444 100.833C356.847 101.493 358.539 101.823 360.52 101.823C362.583 101.823 364.481 101.328 366.214 100.338C368.029 99.3478 369.762 97.8624 371.412 95.8819C372.526 94.5557 373.641 93.0078 374.755 91.2382V76.8655Z" fill="white"/>
<path d="M457.237 59.2422V42.0364C456.907 41.8714 456.288 41.7476 455.381 41.665C454.473 41.5 453.483 41.4175 452.41 41.4175C448.861 41.4175 445.767 42.2427 443.126 43.8931C440.568 45.4611 438.257 47.7717 436.194 50.825C434.759 53.0377 433.324 55.6187 431.889 58.568L430.5 42.6553H406.115V50.9488L407.229 51.1964C408.88 51.5264 410.241 51.8565 411.314 52.1866C412.469 52.5167 413.294 52.9706 413.79 53.5482C414.367 54.0433 414.656 54.786 414.656 55.7763V95.5106C414.656 98.0687 413.913 99.8017 412.428 100.709C410.943 101.535 408.962 101.947 406.486 101.947H406.115V109.374H443.621V101.947H441.765C440.527 101.947 439.206 101.906 437.803 101.823C436.483 101.741 435.328 101.535 434.338 101.205C433.347 100.874 432.852 100.421 432.852 99.843V64.3594C433.306 63.8995 433.76 63.4728 434.214 63.0795C435.452 61.9242 436.772 61.0164 438.175 60.3563C439.66 59.6961 441.228 59.2422 442.879 58.9946C444.529 58.6646 446.344 58.4995 448.325 58.4995C449.398 58.4995 450.47 58.5408 451.543 58.6233C452.699 58.6233 453.771 58.7058 454.762 58.8708C455.834 58.9534 456.66 59.0771 457.237 59.2422Z" fill="white"/>
<path d="M489.594 89.8165V42.6553H462.485V50.9488L463.971 51.1964C466.529 51.5264 468.386 52.0215 469.541 52.6817C470.779 53.2594 471.398 54.2909 471.398 55.7763V90.9306C471.398 95.2217 472.182 98.8527 473.75 101.823C475.318 104.712 477.546 106.899 480.434 108.384C483.405 109.869 486.912 110.612 490.956 110.612C494.586 110.612 497.97 109.952 501.106 108.632C504.242 107.229 507.13 105.248 509.771 102.69C511.769 100.754 513.602 98.535 515.269 96.0322L516.702 109.374H541.088V101.328L540.221 101.081C538.571 100.833 537.168 100.586 536.012 100.338C534.857 100.008 533.949 99.5954 533.289 99.1002C532.712 98.5226 532.423 97.7799 532.423 96.8721V42.6553H503.705V50.9488L506.181 51.1964C508.739 51.4439 510.719 51.8978 512.122 52.5579C513.525 53.2181 514.227 54.2909 514.227 55.7763V88.8066C513.03 90.3829 511.834 91.7924 510.637 93.0349C508.574 95.1805 506.47 96.7896 504.324 97.8624C502.261 98.9352 500.115 99.4716 497.887 99.4716C495.907 99.4716 494.298 99.1002 493.06 98.3575C491.822 97.6149 490.914 96.5421 490.337 95.1392C489.841 93.6538 489.594 91.8796 489.594 89.8165Z" fill="white"/>
<path d="M587.079 88.0836C587.986 89.1564 588.44 90.6005 588.44 92.416C588.44 94.5615 587.945 96.3358 586.955 97.7386C585.964 99.1415 584.479 100.214 582.499 100.957C580.518 101.617 578.042 101.947 575.072 101.947C572.431 101.947 569.997 101.741 567.768 101.328C565.54 100.833 563.56 100.256 561.827 99.5954V88.5787H547.468V104.794C549.036 105.702 551.099 106.61 553.657 107.517C556.215 108.425 559.269 109.168 562.817 109.746C566.448 110.406 570.492 110.736 574.948 110.736C581.632 110.736 587.202 109.869 591.659 108.136C596.197 106.403 599.581 103.928 601.809 100.709C604.037 97.4086 605.151 93.4475 605.151 88.8263C605.151 85.3604 604.449 82.4721 603.047 80.1615C601.726 77.7684 599.911 75.8704 597.6 74.4675C595.372 72.9821 592.855 71.7855 590.049 70.8778C587.326 69.97 584.603 69.1861 581.88 68.5259C579.569 68.0308 577.382 67.5356 575.319 67.0405C573.256 66.4629 571.441 65.8439 569.873 65.1838C568.305 64.4411 567.067 63.5333 566.159 62.4606C565.334 61.3052 564.922 59.8611 564.922 58.1282C564.922 55.4875 565.87 53.4657 567.768 52.0628C569.749 50.66 572.802 49.9585 576.928 49.9585C579.239 49.9585 581.302 50.1235 583.118 50.4537C584.685 50.7386 586.129 51.1465 587.45 51.6774V60.9752H601.437V45.7499C600.612 45.2548 599.127 44.6359 596.981 43.8931C594.836 43.1505 592.071 42.5316 588.688 42.0364C585.387 41.4587 581.467 41.1699 576.928 41.1699C571.234 41.1699 566.283 41.9539 562.074 43.5218C557.948 45.0897 554.73 47.4003 552.419 50.4537C550.191 53.4244 549.077 57.1379 549.077 61.5941C549.077 65.225 549.737 68.2371 551.058 70.6302C552.378 72.9409 554.152 74.8388 556.38 76.3242C558.609 77.7271 561.043 78.8824 563.684 79.7902C566.407 80.6154 569.13 81.3168 571.853 81.8945C574.081 82.3896 576.144 82.8847 578.042 83.3798C580.023 83.875 581.797 84.4939 583.365 85.2366C584.933 85.9792 586.171 86.9283 587.079 88.0836Z" fill="white"/>
<path fill-rule="evenodd" clip-rule="evenodd" d="M226.28 150.962V159.544C226.28 159.627 226.363 159.696 226.528 159.751C226.643 159.767 226.778 159.784 226.933 159.8C227.036 159.811 227.149 159.822 227.271 159.833C227.454 159.848 227.642 159.864 227.834 159.879C227.988 159.891 228.143 159.903 228.302 159.916H230.448V162.474H217.533V159.957H217.987C218.895 159.957 219.651 159.861 220.256 159.668C220.861 159.476 221.164 159.077 221.164 158.471V137.181C221.164 136.576 220.861 136.177 220.256 135.984C219.651 135.792 218.895 135.695 217.987 135.695H217.533V133.179H231.479C234.835 133.179 237.448 133.935 239.319 135.448C241.189 136.933 242.124 139.079 242.124 141.885C242.124 143.783 241.671 145.406 240.763 146.753C239.883 148.101 238.631 149.147 237.008 149.889C235.413 150.604 233.528 150.962 231.355 150.962H226.28ZM226.28 148.198H230.86C232.208 148.198 233.322 147.964 234.202 147.496C235.083 147.001 235.743 146.3 236.183 145.392C236.623 144.457 236.843 143.315 236.843 141.967C236.843 140.619 236.623 139.505 236.183 138.625C235.77 137.745 235.124 137.085 234.244 136.644C233.363 136.177 232.277 135.943 230.984 135.943H226.28V148.198Z" fill="white"/>
<path fill-rule="evenodd" clip-rule="evenodd" d="M269.419 148.946C270.129 148.679 270.778 148.36 271.366 147.991C272.577 147.249 273.498 146.313 274.131 145.185C274.791 144.058 275.121 142.765 275.121 141.307C275.121 139.602 274.695 138.144 273.842 136.933C273.017 135.695 271.82 134.76 270.252 134.128C268.684 133.495 266.786 133.179 264.558 133.179H250.653V135.737H251.107C252.015 135.737 252.771 135.833 253.377 136.026C253.982 136.218 254.284 136.617 254.284 137.222V158.43C254.284 159.035 253.982 159.434 253.377 159.627C252.771 159.819 252.015 159.916 251.107 159.916H250.653V162.474H263.238V159.916H261.423C261.249 159.903 261.084 159.891 260.927 159.878C260.736 159.863 260.557 159.848 260.391 159.833C260.089 159.778 259.841 159.737 259.648 159.709C259.456 159.654 259.359 159.586 259.359 159.503V150.219H264.785L271.16 162.474H278.339V159.916H277.968C277.473 159.916 277.019 159.874 276.607 159.792C276.221 159.709 275.864 159.531 275.534 159.255C275.204 158.98 274.887 158.595 274.585 158.1L269.419 148.946ZM259.359 135.902V147.579H263.857C265.232 147.579 266.346 147.345 267.199 146.877C268.052 146.382 268.684 145.681 269.097 144.773C269.51 143.865 269.716 142.792 269.716 141.555C269.716 140.344 269.51 139.326 269.097 138.501C268.684 137.648 268.066 137.002 267.24 136.562C266.415 136.122 265.356 135.902 264.063 135.902H259.359Z" fill="white"/>
<path fill-rule="evenodd" clip-rule="evenodd" d="M295.226 162.144C297.041 162.831 299.022 163.175 301.167 163.175C303.341 163.175 305.321 162.831 307.109 162.144C308.897 161.456 310.451 160.452 311.771 159.132C313.092 157.784 314.11 156.161 314.825 154.263C315.54 152.365 315.898 150.219 315.898 147.826C315.898 145.406 315.54 143.26 314.825 141.389C314.11 139.492 313.092 137.882 311.771 136.562C310.451 135.214 308.897 134.196 307.109 133.509C305.321 132.793 303.341 132.436 301.167 132.436C299.022 132.436 297.041 132.793 295.226 133.509C293.438 134.196 291.884 135.214 290.563 136.562C289.243 137.882 288.225 139.492 287.51 141.389C286.795 143.26 286.437 145.406 286.437 147.826C286.437 150.219 286.795 152.365 287.51 154.263C288.225 156.161 289.243 157.784 290.563 159.132C291.884 160.452 293.438 161.456 295.226 162.144ZM305.046 159.503C303.918 160.026 302.625 160.287 301.167 160.287C299.737 160.287 298.43 160.026 297.248 159.503C296.092 158.98 295.116 158.21 294.318 157.192C293.52 156.147 292.901 154.841 292.461 153.273C292.049 151.705 291.843 149.889 291.843 147.826C291.843 145.763 292.049 143.948 292.461 142.38C292.901 140.812 293.52 139.519 294.318 138.501C295.143 137.456 296.134 136.672 297.289 136.149C298.444 135.627 299.737 135.365 301.167 135.365C302.625 135.365 303.918 135.627 305.046 136.149C306.201 136.672 307.178 137.456 307.975 138.501C308.801 139.519 309.42 140.812 309.832 142.38C310.272 143.948 310.492 145.763 310.492 147.826C310.492 149.889 310.272 151.705 309.832 153.273C309.42 154.841 308.801 156.147 307.975 157.192C307.178 158.21 306.201 158.98 305.046 159.503Z" fill="white"/>
<path d="M347.197 133.179H334.076V135.737H335.025C335.658 135.737 336.208 135.778 336.675 135.861C337.171 135.943 337.556 136.094 337.831 136.314C338.133 136.507 338.285 136.81 338.285 137.222V153.108C338.285 155.033 338.078 156.518 337.666 157.564C337.253 158.609 336.662 159.338 335.891 159.751C335.121 160.136 334.158 160.328 333.003 160.328C332.178 160.328 331.435 160.232 330.775 160.039C330.191 159.845 329.682 159.607 329.248 159.326V153.892H324.545V160.163C325.012 160.603 325.645 161.057 326.443 161.525C327.24 161.992 328.203 162.378 329.331 162.68C330.486 163.01 331.779 163.175 333.209 163.175C334.75 163.175 336.139 162.996 337.377 162.639C338.615 162.281 339.674 161.717 340.554 160.947C341.462 160.149 342.149 159.104 342.617 157.811C343.112 156.518 343.36 154.937 343.36 153.066V137.222C343.36 136.617 343.662 136.218 344.267 136.026C344.873 135.833 345.629 135.737 346.537 135.737H347.197V133.179Z" fill="white"/>
<path d="M379.664 162.474V153.231H376.735L376.198 157.894C376.171 158.251 376.047 158.554 375.827 158.802C375.635 159.022 375.332 159.2 374.919 159.338C374.534 159.476 374.025 159.572 373.393 159.627C372.788 159.682 372.045 159.709 371.165 159.709H364.728V148.735C365.346 148.763 365.96 148.79 366.571 148.818L367.451 148.858C368.661 148.913 369.858 148.982 371.041 149.064L374.672 149.229V145.639C373.461 145.694 372.251 145.763 371.041 145.846L367.41 146.011C366.531 146.052 365.637 146.092 364.728 146.133V135.943H370.504C371.605 135.943 372.499 135.998 373.186 136.108C373.874 136.191 374.397 136.369 374.754 136.644C375.112 136.892 375.318 137.263 375.373 137.759L375.786 141.389H378.674V133.179H356.022V135.737H356.476C357.384 135.737 358.14 135.833 358.745 136.026C359.35 136.218 359.653 136.617 359.653 137.222V158.43C359.653 159.035 359.35 159.434 358.745 159.627C358.14 159.819 357.384 159.916 356.476 159.916H356.022V162.474H379.664Z" fill="white"/>
<path d="M399.792 136.191C400.892 135.641 402.13 135.365 403.505 135.365C405.046 135.365 406.393 135.682 407.549 136.314C408.704 136.92 409.667 137.786 410.437 138.914C411.235 140.014 411.854 141.334 412.294 142.875H415.595V132.972H412.624L412.219 137.511C412.017 137.118 411.795 136.747 411.551 136.397C410.671 135.132 409.543 134.155 408.168 133.467C406.792 132.78 405.128 132.436 403.175 132.436C401.194 132.436 399.352 132.78 397.646 133.467C395.941 134.155 394.441 135.159 393.149 136.479C391.883 137.8 390.893 139.423 390.178 141.348C389.49 143.246 389.146 145.406 389.146 147.826C389.146 150.247 389.49 152.406 390.178 154.304C390.865 156.202 391.842 157.811 393.107 159.132C394.4 160.452 395.927 161.456 397.687 162.144C399.448 162.831 401.401 163.175 403.546 163.175C405.802 163.175 407.769 162.776 409.447 161.979C411.125 161.153 412.527 159.998 413.655 158.513C414.783 157 415.622 155.239 416.172 153.231L413.408 152.076C412.968 153.616 412.335 155.019 411.51 156.285C410.712 157.523 409.694 158.499 408.456 159.214C407.219 159.929 405.733 160.287 404 160.287C402.46 160.287 401.098 160.026 399.915 159.503C398.76 158.98 397.784 158.196 396.986 157.151C396.188 156.106 395.583 154.813 395.17 153.273C394.758 151.705 394.552 149.889 394.552 147.826C394.552 145.763 394.758 143.961 395.17 142.421C395.583 140.881 396.174 139.588 396.945 138.542C397.742 137.497 398.691 136.713 399.792 136.191Z" fill="white"/>
<path d="M435.883 135.902V158.43C435.883 159.035 435.567 159.434 434.934 159.627C434.302 159.819 433.518 159.916 432.582 159.916H431.881V162.474H445.002V159.916H444.259C443.352 159.916 442.581 159.819 441.949 159.627C441.316 159.434 441 159.035 441 158.43V135.902H442.98C444.191 135.902 445.153 135.971 445.868 136.108C446.611 136.218 447.161 136.424 447.519 136.727C447.876 137.002 448.069 137.387 448.097 137.882L448.55 142.71H451.439V133.179H425.444V142.71H428.333L428.786 137.882C428.841 137.387 429.034 137.002 429.364 136.727C429.722 136.424 430.258 136.218 430.973 136.108C431.716 135.971 432.693 135.902 433.903 135.902H435.883Z" fill="white"/>
</svg>
