<svg width="655" height="356" viewBox="0 0 655 356" fill="none" xmlns="http://www.w3.org/2000/svg">
<rect x="0.0158691" y="0.0727539" width="654.487" height="355.922" fill="white"/>
<path fill-rule="evenodd" clip-rule="evenodd" d="M210.822 68.2859L199.35 97.8155C196.794 104.396 191.78 109.725 185.367 112.676L162.801 123.061L190.57 120.482L175.241 159.585C174.083 162.541 171.344 164.6 168.183 164.896C134.696 168.027 126.164 167.58 118.213 178.278C113.595 184.49 105.416 187.256 98.7132 183.386L97.3543 182.601C130.28 126.975 129.604 125.484 159.415 81.3277C165.87 71.766 196.677 68.1147 210.822 68.2859Z" fill="#3B82F6"/>
<path d="M125.154 121.871C118.589 111.108 111.43 100.055 98.7861 81.3275C92.3308 71.7659 61.5242 68.1146 47.3796 68.2858L58.8509 97.8154C61.4072 104.396 66.4216 109.725 72.8345 112.676L95.4 123.061L67.6316 120.482L82.9599 159.585C84.1184 162.54 86.8571 164.6 90.0179 164.896C93.4099 165.213 96.5458 165.493 99.451 165.752C104.49 157.171 108.595 150.111 112.161 143.98C117.199 135.317 121.16 128.505 125.154 121.871Z" fill="#3B82F6"/>
<path d="M137.111 174.934C138.105 175.91 139.051 177.016 139.989 178.278C144.606 184.49 152.785 187.256 159.488 183.386L160.847 182.601C158.806 179.154 156.895 175.914 155.097 172.86C147.228 173.568 141.55 174.125 137.111 174.934Z" fill="#3B82F6"/>
<path d="M129.101 202.639C88.6246 202.639 55.8122 169.827 55.8122 129.351C55.8122 123.863 56.4153 118.516 57.559 113.372C54.3591 111.06 53.2416 109.347 50.7664 105.325C48.439 112.923 47.1866 120.99 47.1866 129.351C47.1866 174.59 83.8608 211.265 129.101 211.265V202.639Z" fill="#1F2937"/>
<path d="M165.379 65.6564C166.294 65.203 167.215 64.7882 168.123 64.4075C170.423 63.4434 172.91 62.5892 175.498 61.8338C162.308 52.7526 146.325 47.4364 129.101 47.4364C111.926 47.4364 95.986 52.722 82.8183 61.7552C85.503 62.5298 88.0835 63.4097 90.4628 64.4073C91.3028 64.7595 92.1535 65.1408 93.0009 65.5549C103.657 59.5121 115.976 56.062 129.101 56.062C142.299 56.062 154.682 59.5507 165.379 65.6564Z" fill="#1F2937"/>
<path d="M129.1 202.638C169.577 202.638 202.389 169.826 202.389 129.35C202.389 123.862 201.786 118.515 200.642 113.371C203.842 111.059 204.959 109.346 207.435 105.324C209.762 112.922 211.014 120.989 211.014 129.35C211.014 174.59 174.34 211.264 129.1 211.264V202.638Z" fill="#1F2937"/>
<path d="M258.724 74.5972C260.559 76.1263 263.044 76.8908 266.178 76.8908C269.237 76.8908 271.683 76.1263 273.518 74.5972C275.353 73.0681 276.27 70.8126 276.27 67.8309C276.27 64.9257 275.353 62.7084 273.518 61.1794C271.683 59.6503 269.237 58.8857 266.178 58.8857C263.044 58.8857 260.559 59.6503 258.724 61.1794C256.889 62.7084 255.972 64.9257 255.972 67.8309C255.972 70.8126 256.889 73.0681 258.724 74.5972Z" fill="#1F2937"/>
<path d="M275.238 135.723V86.4095H250.467V94.0932L251.499 94.3225C253.869 94.7813 255.627 95.2782 256.774 95.8134C257.921 96.2721 258.495 97.1896 258.495 98.5658V135.723C258.495 137.94 257.806 139.431 256.43 140.195C255.054 140.96 253.181 141.342 250.811 141.342H250.467V148.223H283.151V141.342H282.922C280.552 141.342 278.679 140.96 277.303 140.195C275.926 139.431 275.238 137.94 275.238 135.723Z" fill="#1F2937"/>
<path d="M332.084 139.049C329.943 140.119 327.42 140.654 324.515 140.654C321.38 140.654 318.666 140.195 316.372 139.278C314.155 138.284 312.282 136.831 310.753 134.92C309.3 133.009 308.23 130.6 307.542 127.695C306.854 124.713 306.51 121.273 306.51 117.374C306.51 112.251 307.083 107.97 308.23 104.529C309.453 101.012 311.326 98.3746 313.849 96.6162C316.372 94.8577 319.622 93.9785 323.597 93.9785C326.579 93.9785 329.217 94.4372 331.51 95.3546C331.906 95.4998 332.289 95.6541 332.657 95.8176V109.117H346.649V90.6527C345.731 89.9646 344.202 89.2383 342.061 88.4737C339.92 87.6328 337.244 86.9064 334.033 86.2948C330.822 85.6067 327.114 85.2626 322.909 85.2626C315.875 85.2626 309.836 86.5241 304.789 89.0471C299.743 91.5701 295.844 95.24 293.092 100.057C290.416 104.797 289.078 110.569 289.078 117.374C289.078 124.102 290.454 129.874 293.207 134.691C295.959 139.507 299.82 143.177 304.789 145.7C309.759 148.223 315.608 149.485 322.336 149.485C326.694 149.485 330.517 148.873 333.804 147.65C337.168 146.35 340.073 144.553 342.52 142.26C344.966 139.89 346.954 137.137 348.483 134.003L341.717 129.186C340.57 131.174 339.194 133.047 337.589 134.805C336.059 136.564 334.225 137.978 332.084 139.049Z" fill="#1F2937"/>
<path fill-rule="evenodd" clip-rule="evenodd" d="M394.786 137.463C393.604 139.543 392.306 141.371 390.892 142.948C388.905 145.088 386.611 146.732 384.012 147.879C381.489 148.949 378.583 149.485 375.296 149.485C371.244 149.485 367.765 148.911 364.86 147.764C361.954 146.541 359.737 144.706 358.208 142.26C356.679 139.813 355.914 136.793 355.914 133.2C355.914 129.989 356.641 127.198 358.093 124.828C359.546 122.458 361.84 120.394 364.974 118.635C368.185 116.877 372.314 115.386 377.36 114.163C381.971 112.975 387.476 111.915 393.874 110.983V103.038C393.874 100.821 393.568 99.0627 392.957 97.763C392.345 96.3868 391.275 95.3929 389.746 94.7813C388.293 94.0932 386.229 93.7491 383.553 93.7491C379.654 93.7491 376.443 94.2843 373.92 95.3546C373.881 95.3709 373.843 95.3872 373.805 95.4036V106.364H359.584V92.0289C360.731 91.1879 362.413 90.2704 364.63 89.2765C366.924 88.2062 369.753 87.2887 373.117 86.5241C376.557 85.6832 380.495 85.2626 384.929 85.2626C388.752 85.2626 392.23 85.6067 395.365 86.2948C398.5 86.9828 401.176 88.0915 403.393 89.6206C405.61 91.1496 407.33 93.0992 408.554 95.4693C409.777 97.8395 410.388 100.668 410.388 103.956V136.64C410.388 137.481 410.656 138.169 411.191 138.705C411.803 139.163 412.644 139.546 413.714 139.851C414.785 140.081 416.084 140.31 417.613 140.539L418.302 140.769V148.223H395.939L394.786 137.463ZM393.874 118.105C390.824 118.583 388.148 119.143 385.846 119.782C383.094 120.47 380.8 121.273 378.965 122.19C377.131 123.031 375.716 123.987 374.722 125.057C373.728 126.051 373.002 127.198 372.543 128.498C372.161 129.721 371.97 131.059 371.97 132.512C371.97 134.576 372.314 136.258 373.002 137.558C373.69 138.781 374.684 139.698 375.984 140.31C377.284 140.922 378.851 141.228 380.686 141.228C382.597 141.228 384.356 140.769 385.961 139.851C387.643 138.934 389.249 137.558 390.778 135.723C391.81 134.494 392.842 133.06 393.874 131.42V118.105Z" fill="#1F2937"/>
<path d="M470.293 101.777V85.8361C469.987 85.6832 469.414 85.5685 468.573 85.492C467.732 85.3391 466.814 85.2626 465.82 85.2626C462.533 85.2626 459.666 86.0272 457.219 87.5562C454.849 89.0089 452.708 91.1496 450.797 93.9785C449.467 96.0285 448.137 98.4197 446.808 101.152L445.522 86.4095H422.929V94.0932L423.961 94.3225C425.49 94.6283 426.752 94.9342 427.746 95.24C428.816 95.5458 429.581 95.9663 430.039 96.5015C430.575 96.9602 430.842 97.6483 430.842 98.5658V135.379C430.842 137.749 430.154 139.354 428.778 140.195C427.402 140.96 425.567 141.342 423.273 141.342H422.929V148.223H457.678V141.342H455.958C454.811 141.342 453.588 141.304 452.288 141.228C451.064 141.151 449.994 140.96 449.077 140.654C448.159 140.348 447.701 139.928 447.701 139.393V106.518C448.121 106.092 448.542 105.696 448.962 105.332C450.109 104.262 451.332 103.421 452.632 102.809C454.008 102.197 455.461 101.777 456.99 101.547C458.519 101.242 460.201 101.089 462.036 101.089C463.03 101.089 464.024 101.127 465.018 101.203C466.088 101.203 467.082 101.28 467.999 101.433C468.993 101.509 469.758 101.624 470.293 101.777Z" fill="#1F2937"/>
<path d="M500.271 130.103V86.4095H475.155V94.0932L476.531 94.3225C478.902 94.6283 480.622 95.0871 481.692 95.6987C482.839 96.2339 483.412 97.1896 483.412 98.5658V131.136C483.412 135.111 484.139 138.475 485.591 141.228C487.044 143.903 489.108 145.93 491.784 147.306C494.537 148.682 497.786 149.37 501.532 149.37C504.896 149.37 508.031 148.758 510.936 147.535C513.841 146.235 516.517 144.4 518.964 142.03C520.815 140.237 522.513 138.181 524.058 135.862L525.386 148.223H547.978V140.769L547.176 140.539C545.647 140.31 544.347 140.081 543.277 139.851C542.206 139.546 541.365 139.163 540.753 138.705C540.218 138.169 539.951 137.481 539.951 136.64V86.4095H513.344V94.0932L515.638 94.3225C518.008 94.5519 519.843 94.9724 521.143 95.584C522.443 96.1957 523.092 97.1896 523.092 98.5658V129.168C521.984 130.628 520.875 131.934 519.767 133.085C517.855 135.073 515.906 136.564 513.918 137.558C512.006 138.552 510.019 139.049 507.954 139.049C506.119 139.049 504.629 138.705 503.482 138.016C502.335 137.328 501.494 136.334 500.959 135.035C500.5 133.659 500.271 132.015 500.271 130.103Z" fill="#1F2937"/>
<path d="M590.588 128.498C591.429 129.492 591.85 130.83 591.85 132.512C591.85 134.5 591.391 136.143 590.474 137.443C589.556 138.743 588.18 139.737 586.345 140.425C584.51 141.036 582.217 141.342 579.464 141.342C577.017 141.342 574.762 141.151 572.698 140.769C570.634 140.31 568.799 139.775 567.193 139.163V128.957H553.89V143.98C555.343 144.821 557.254 145.662 559.624 146.503C561.994 147.344 564.823 148.032 568.111 148.567C571.475 149.179 575.221 149.485 579.349 149.485C585.542 149.485 590.703 148.682 594.832 147.076C599.037 145.471 602.171 143.177 604.235 140.195C606.3 137.137 607.332 133.467 607.332 129.186C607.332 125.975 606.682 123.299 605.382 121.158C604.159 118.941 602.477 117.183 600.336 115.883C598.272 114.507 595.94 113.398 593.341 112.557C590.818 111.716 588.295 110.99 585.772 110.378C583.631 109.919 581.605 109.461 579.693 109.002C577.782 108.467 576.1 107.893 574.647 107.282C573.195 106.594 572.048 105.752 571.207 104.759C570.442 103.688 570.06 102.35 570.06 100.745C570.06 98.2982 570.939 96.425 572.698 95.1253C574.533 93.8256 577.362 93.1757 581.184 93.1757C583.325 93.1757 585.236 93.3286 586.918 93.6345C588.37 93.8984 589.708 94.2763 590.932 94.7682V103.382H603.891V89.2765C603.127 88.8178 601.751 88.2444 599.763 87.5562C597.775 86.8682 595.214 86.2948 592.079 85.8361C589.021 85.3008 585.389 85.0332 581.184 85.0332C575.909 85.0332 571.322 85.7596 567.422 87.2122C563.6 88.6649 560.618 90.8056 558.477 93.6345C556.413 96.3868 555.381 99.8272 555.381 103.956C555.381 107.32 555.992 110.11 557.216 112.328C558.439 114.468 560.083 116.227 562.147 117.603C564.211 118.903 566.467 119.973 568.913 120.814C571.436 121.579 573.959 122.229 576.482 122.764C578.547 123.222 580.458 123.681 582.217 124.14C584.051 124.599 585.695 125.172 587.148 125.86C588.6 126.548 589.747 127.427 590.588 128.498Z" fill="#1F2937"/>
<path fill-rule="evenodd" clip-rule="evenodd" d="M256.316 186.753V194.705C256.316 194.781 256.392 194.845 256.545 194.896C256.652 194.911 256.777 194.926 256.92 194.942C257.016 194.952 257.121 194.962 257.233 194.972C257.403 194.986 257.578 195.001 257.756 195.015C257.898 195.026 258.042 195.037 258.189 195.049H260.177V197.419H248.211V195.087H248.632C249.473 195.087 250.174 194.998 250.735 194.819C251.295 194.641 251.575 194.271 251.575 193.711V173.985C251.575 173.425 251.295 173.055 250.735 172.877C250.174 172.698 249.473 172.609 248.632 172.609H248.211V170.277H261.132C264.242 170.277 266.663 170.978 268.396 172.38C270.129 173.756 270.995 175.744 270.995 178.343C270.995 180.102 270.575 181.605 269.734 182.854C268.918 184.103 267.758 185.071 266.255 185.759C264.777 186.422 263.031 186.753 261.018 186.753H256.316ZM256.316 184.192H260.559C261.808 184.192 262.84 183.976 263.655 183.542C264.471 183.084 265.083 182.434 265.49 181.593C265.898 180.726 266.102 179.669 266.102 178.42C266.102 177.171 265.898 176.139 265.49 175.323C265.108 174.508 264.509 173.896 263.694 173.488C262.878 173.055 261.871 172.839 260.674 172.839H256.316V184.192Z" fill="#6B7280"/>
<path fill-rule="evenodd" clip-rule="evenodd" d="M296.283 184.885C296.941 184.638 297.542 184.343 298.087 184.001C299.209 183.313 300.062 182.446 300.648 181.402C301.26 180.357 301.566 179.159 301.566 177.808C301.566 176.228 301.171 174.877 300.381 173.756C299.616 172.609 298.508 171.743 297.055 171.157C295.602 170.57 293.844 170.277 291.78 170.277H278.897V172.647H279.318C280.159 172.647 280.859 172.737 281.42 172.915C281.981 173.093 282.261 173.463 282.261 174.024V193.673C282.261 194.233 281.981 194.603 281.42 194.781C280.859 194.959 280.159 195.049 279.318 195.049H278.897V197.419H290.556V195.049H288.874C288.714 195.037 288.561 195.026 288.416 195.014C288.239 195 288.073 194.986 287.919 194.972C287.638 194.921 287.409 194.883 287.231 194.858C287.052 194.807 286.963 194.743 286.963 194.666V186.065H291.989L297.896 197.419H304.548V195.049H304.204C303.745 195.049 303.324 195.01 302.942 194.934C302.585 194.858 302.254 194.692 301.948 194.437C301.642 194.182 301.349 193.825 301.069 193.367L296.283 184.885ZM286.963 172.8V183.619H291.13C292.404 183.619 293.436 183.402 294.226 182.969C295.016 182.51 295.602 181.86 295.985 181.019C296.367 180.178 296.558 179.184 296.558 178.038C296.558 176.916 296.367 175.973 295.985 175.209C295.602 174.419 295.029 173.82 294.264 173.412C293.5 173.004 292.519 172.8 291.321 172.8H286.963Z" fill="#6B7280"/>
<path fill-rule="evenodd" clip-rule="evenodd" d="M320.192 197.113C321.875 197.75 323.709 198.069 325.697 198.069C327.711 198.069 329.545 197.75 331.202 197.113C332.859 196.476 334.298 195.546 335.522 194.322C336.745 193.074 337.688 191.57 338.351 189.812C339.013 188.053 339.344 186.065 339.344 183.848C339.344 181.605 339.013 179.618 338.351 177.885C337.688 176.126 336.745 174.635 335.522 173.412C334.298 172.163 332.859 171.22 331.202 170.583C329.545 169.921 327.711 169.589 325.697 169.589C323.709 169.589 321.875 169.921 320.192 170.583C318.536 171.22 317.096 172.163 315.873 173.412C314.65 174.635 313.707 176.126 313.044 177.885C312.381 179.618 312.05 181.605 312.05 183.848C312.05 186.065 312.381 188.053 313.044 189.812C313.707 191.57 314.65 193.074 315.873 194.322C317.096 195.546 318.536 196.476 320.192 197.113ZM329.291 194.666C328.246 195.151 327.048 195.393 325.697 195.393C324.372 195.393 323.161 195.151 322.066 194.666C320.995 194.182 320.091 193.469 319.352 192.526C318.612 191.557 318.039 190.347 317.631 188.894C317.249 187.441 317.058 185.759 317.058 183.848C317.058 181.937 317.249 180.255 317.631 178.802C318.039 177.349 318.612 176.152 319.352 175.209C320.116 174.24 321.034 173.514 322.104 173.03C323.174 172.545 324.372 172.303 325.697 172.303C327.048 172.303 328.246 172.545 329.291 173.03C330.361 173.514 331.266 174.24 332.005 175.209C332.769 176.152 333.343 177.349 333.725 178.802C334.133 180.255 334.337 181.937 334.337 183.848C334.337 185.759 334.133 187.441 333.725 188.894C333.343 190.347 332.769 191.557 332.005 192.526C331.266 193.469 330.361 194.182 329.291 194.666Z" fill="#6B7280"/>
<path d="M368.343 170.277H356.186V172.647H357.066C357.652 172.647 358.161 172.686 358.595 172.762C359.053 172.839 359.41 172.979 359.665 173.183C359.945 173.361 360.086 173.641 360.086 174.024V188.741C360.086 190.525 359.894 191.901 359.512 192.87C359.13 193.838 358.582 194.514 357.868 194.896C357.155 195.253 356.263 195.431 355.192 195.431C354.428 195.431 353.74 195.342 353.128 195.163C352.587 194.983 352.115 194.763 351.714 194.502V189.468H347.356V195.278C347.789 195.686 348.375 196.106 349.114 196.54C349.853 196.973 350.745 197.33 351.79 197.61C352.861 197.916 354.058 198.069 355.384 198.069C356.811 198.069 358.098 197.903 359.245 197.572C360.391 197.24 361.372 196.718 362.188 196.004C363.029 195.265 363.666 194.297 364.099 193.099C364.558 191.901 364.787 190.436 364.787 188.703V174.024C364.787 173.463 365.068 173.093 365.628 172.915C366.189 172.737 366.89 172.647 367.731 172.647H368.343V170.277Z" fill="#6B7280"/>
<path d="M398.423 197.419V188.856H395.709L395.212 193.176C395.186 193.507 395.072 193.787 394.868 194.017C394.69 194.22 394.409 194.386 394.027 194.514C393.67 194.641 393.199 194.73 392.613 194.781C392.052 194.832 391.364 194.858 390.548 194.858H384.585V184.69C385.157 184.716 385.727 184.741 386.293 184.767L387.108 184.804C388.229 184.855 389.338 184.918 390.434 184.995L393.798 185.148V181.822C392.676 181.873 391.555 181.937 390.434 182.013L387.07 182.166C386.255 182.204 385.427 182.242 384.585 182.28V172.839H389.937C390.956 172.839 391.784 172.89 392.421 172.991C393.059 173.068 393.543 173.234 393.874 173.488C394.205 173.718 394.397 174.062 394.448 174.521L394.83 177.885H397.506V170.277H376.519V172.647H376.939C377.78 172.647 378.481 172.737 379.042 172.915C379.602 173.093 379.883 173.463 379.883 174.024V193.673C379.883 194.233 379.602 194.603 379.042 194.781C378.481 194.959 377.78 195.049 376.939 195.049H376.519V197.419H398.423Z" fill="#6B7280"/>
<path d="M417.071 173.068C418.09 172.558 419.237 172.303 420.511 172.303C421.938 172.303 423.187 172.597 424.257 173.183C425.328 173.743 426.22 174.546 426.933 175.591C427.672 176.61 428.246 177.834 428.654 179.261H431.712V170.086H428.959L428.584 174.291C428.397 173.927 428.191 173.583 427.965 173.259C427.15 172.087 426.105 171.182 424.831 170.545C423.557 169.908 422.015 169.589 420.205 169.589C418.37 169.589 416.663 169.908 415.083 170.545C413.503 171.182 412.114 172.112 410.916 173.336C409.744 174.559 408.826 176.062 408.164 177.846C407.526 179.605 407.208 181.605 407.208 183.848C407.208 186.091 407.526 188.091 408.164 189.85C408.801 191.608 409.705 193.099 410.878 194.322C412.076 195.546 413.49 196.476 415.121 197.113C416.752 197.75 418.561 198.069 420.549 198.069C422.639 198.069 424.461 197.699 426.016 196.96C427.57 196.196 428.87 195.125 429.915 193.749C430.96 192.347 431.737 190.716 432.247 188.856L429.686 187.785C429.278 189.213 428.692 190.512 427.927 191.685C427.188 192.832 426.245 193.736 425.098 194.399C423.952 195.061 422.575 195.393 420.97 195.393C419.543 195.393 418.281 195.151 417.185 194.666C416.115 194.182 415.21 193.456 414.471 192.487C413.732 191.519 413.171 190.321 412.789 188.894C412.407 187.441 412.216 185.759 412.216 183.848C412.216 181.937 412.407 180.267 412.789 178.84C413.171 177.413 413.719 176.215 414.433 175.247C415.172 174.278 416.051 173.552 417.071 173.068Z" fill="#6B7280"/>
<path d="M450.509 172.8V193.673C450.509 194.233 450.216 194.603 449.63 194.781C449.043 194.959 448.317 195.049 447.451 195.049H446.801V197.419H458.957V195.049H458.269C457.428 195.049 456.714 194.959 456.128 194.781C455.542 194.603 455.249 194.233 455.249 193.673V172.8H457.084C458.205 172.8 459.097 172.864 459.76 172.991C460.448 173.093 460.958 173.285 461.289 173.565C461.62 173.82 461.799 174.177 461.824 174.635L462.245 179.108H464.921V170.277H440.837V179.108H443.513L443.934 174.635C443.985 174.177 444.163 173.82 444.469 173.565C444.8 173.285 445.297 173.093 445.96 172.991C446.648 172.864 447.553 172.8 448.674 172.8H450.509Z" fill="#6B7280"/>
<rect x="47.1866" y="271.46" width="27.3034" height="27.3023" rx="13.6511" fill="#3B82F6"/>
<rect x="239.895" y="271.46" width="27.3034" height="27.3023" rx="13.6511" fill="#1F2937"/>
<rect x="432.602" y="271.46" width="27.3034" height="27.3023" rx="13.6511" fill="#6B7280"/>
<path d="M99.7583 283.319C101.967 283.808 103.071 285.002 103.071 286.899C103.071 287.581 102.938 288.211 102.671 288.789C102.404 289.382 102.026 289.886 101.537 290.301C101.078 290.701 100.47 291.027 99.7138 291.279C99.0022 291.517 98.1721 291.635 97.2234 291.635H89.4632V290.323C89.4632 289.953 89.6485 289.723 90.0191 289.634L90.1525 289.612C90.197 289.612 90.2414 289.604 90.2859 289.59C90.3452 289.575 90.4119 289.56 90.486 289.545L91.1531 289.434V277.76L90.486 277.649C90.4119 277.634 90.3452 277.619 90.2859 277.605C90.2414 277.59 90.197 277.582 90.1525 277.582L90.0191 277.56C89.6485 277.471 89.4632 277.241 89.4632 276.871V275.559H96.6898C97.7571 275.559 98.6539 275.655 99.3802 275.848C100.151 276.056 100.766 276.345 101.226 276.715C101.7 277.086 102.049 277.538 102.271 278.072C102.493 278.605 102.604 279.191 102.604 279.828C102.604 280.228 102.553 280.592 102.449 280.918C102.345 281.244 102.167 281.57 101.915 281.896C101.693 282.163 101.396 282.43 101.026 282.697C100.7 282.919 100.277 283.126 99.7583 283.319ZM96.5341 282.519C97.5569 282.519 98.3278 282.333 98.8466 281.963C99.3654 281.592 99.6248 280.999 99.6248 280.184C99.6248 279.354 99.3877 278.761 98.9133 278.405C98.4538 278.049 97.7126 277.871 96.6898 277.871H94.1327V282.519H96.5341ZM99.9584 287.789C100.062 287.522 100.114 287.203 100.114 286.832C100.114 286.521 100.055 286.21 99.9361 285.898C99.8175 285.602 99.6471 285.365 99.4247 285.187C99.2024 285.009 98.8985 284.861 98.5131 284.742C98.1573 284.638 97.7052 284.587 97.1567 284.587H94.1327V289.301H97.1789C97.7422 289.301 98.2092 289.234 98.5798 289.1C98.9504 288.967 99.2468 288.789 99.4692 288.567C99.7064 288.33 99.8694 288.07 99.9584 287.789ZM109.331 289.634C109.702 289.723 109.887 289.953 109.887 290.323V291.635H103.772V290.323C103.772 289.953 103.958 289.723 104.328 289.634L104.462 289.612L104.795 289.545L105.462 289.434V277.316L104.795 277.204C104.721 277.19 104.654 277.175 104.595 277.16C104.551 277.145 104.506 277.138 104.462 277.138L104.328 277.115C103.958 277.027 103.772 276.797 103.772 276.426V275.114H108.197V289.434L108.864 289.545L109.198 289.612L109.331 289.634ZM123.285 289.634C123.656 289.723 123.841 289.953 123.841 290.323V291.635H120.483C120.143 291.635 119.913 291.465 119.794 291.124L119.594 290.212C119.342 290.464 119.097 290.687 118.86 290.879C118.638 291.057 118.371 291.22 118.06 291.368C117.763 291.502 117.452 291.613 117.126 291.702C116.755 291.776 116.407 291.813 116.081 291.813C115.473 291.813 114.917 291.709 114.413 291.502C113.983 291.324 113.583 291.02 113.212 290.59C112.916 290.249 112.671 289.797 112.479 289.234C112.316 288.671 112.234 288.085 112.234 287.477V282.43L111.1 282.23C110.73 282.141 110.544 281.911 110.544 281.54V280.228H114.969V287.477C114.969 288.159 115.132 288.7 115.458 289.1C115.77 289.471 116.251 289.656 116.904 289.656C117.348 289.656 117.793 289.553 118.238 289.345C118.638 289.152 119.031 288.863 119.416 288.478V282.43C119.001 282.356 118.727 282.311 118.593 282.296C118.46 282.267 118.364 282.244 118.304 282.23C117.934 282.141 117.749 281.911 117.749 281.54V280.228H122.173V289.434L123.285 289.634ZM130.087 280.051C130.813 280.051 131.473 280.162 132.066 280.384C132.629 280.592 133.148 280.933 133.622 281.407C134.052 281.837 134.393 282.378 134.645 283.03C134.897 283.697 135.023 284.424 135.023 285.209C135.023 285.387 135.008 285.565 134.978 285.743C134.949 285.906 134.919 286.01 134.89 286.054C134.86 286.128 134.793 286.188 134.689 286.232C134.63 286.262 134.526 286.276 134.378 286.276H127.329C127.418 287.448 127.737 288.307 128.286 288.856C128.834 289.404 129.56 289.679 130.465 289.679C130.924 289.679 131.302 289.627 131.599 289.523C131.925 289.419 132.206 289.301 132.444 289.167C132.547 289.108 132.651 289.056 132.755 289.011C132.873 288.952 132.985 288.893 133.088 288.834C133.251 288.73 133.422 288.678 133.6 288.678C133.718 288.678 133.822 288.7 133.911 288.745C133.985 288.774 134.052 288.834 134.111 288.923L134.912 289.923C134.571 290.309 134.23 290.612 133.889 290.835C133.489 291.087 133.096 291.279 132.71 291.413C132.34 291.531 131.917 291.628 131.443 291.702C131.072 291.761 130.657 291.791 130.198 291.791C129.383 291.791 128.649 291.665 127.997 291.413C127.344 291.161 126.751 290.768 126.218 290.234C125.714 289.73 125.313 289.093 125.017 288.322C124.735 287.581 124.594 286.699 124.594 285.676C124.594 284.935 124.72 284.209 124.972 283.497C125.21 282.83 125.573 282.23 126.062 281.696C126.522 281.192 127.092 280.792 127.774 280.495C128.456 280.199 129.227 280.051 130.087 280.051ZM130.131 282.007C129.345 282.007 128.723 282.237 128.263 282.697C127.819 283.141 127.53 283.779 127.396 284.609H132.555C132.555 284.298 132.503 283.964 132.399 283.608C132.31 283.327 132.162 283.052 131.954 282.786C131.762 282.548 131.51 282.363 131.198 282.23C130.857 282.081 130.502 282.007 130.131 282.007ZM141.761 286.076H135.98V283.764H141.761V286.076ZM152.487 276.604C152.487 276.871 152.398 277.093 152.221 277.271C152.043 277.449 151.746 277.538 151.331 277.538H146.306L145.594 281.718C146.439 281.54 147.203 281.451 147.885 281.451C148.715 281.451 149.449 281.577 150.086 281.829C150.738 282.081 151.272 282.415 151.687 282.83C152.102 283.245 152.428 283.764 152.665 284.386C152.888 284.965 152.999 285.602 152.999 286.299C152.999 287.173 152.851 287.929 152.554 288.567C152.228 289.278 151.82 289.864 151.331 290.323C150.827 290.798 150.227 291.168 149.53 291.435C148.863 291.687 148.107 291.813 147.262 291.813C146.802 291.813 146.35 291.769 145.906 291.68C145.431 291.591 145.031 291.472 144.705 291.324C144.305 291.146 143.964 290.968 143.682 290.79C143.312 290.553 143.03 290.346 142.837 290.168L143.438 289.323C143.586 289.115 143.764 289.011 143.971 289.011C144.119 289.011 144.29 289.071 144.483 289.189C144.72 289.338 144.942 289.464 145.15 289.567C145.461 289.716 145.772 289.842 146.084 289.945C146.469 290.064 146.899 290.123 147.373 290.123C147.936 290.123 148.441 290.034 148.885 289.856C149.315 289.679 149.693 289.419 150.019 289.078C150.331 288.752 150.575 288.359 150.753 287.9C150.916 287.485 150.998 286.966 150.998 286.343C150.998 285.854 150.931 285.409 150.797 285.009C150.664 284.624 150.442 284.283 150.13 283.986C149.804 283.675 149.441 283.453 149.041 283.319C148.611 283.171 148.1 283.097 147.507 283.097C147.077 283.097 146.662 283.126 146.261 283.186C145.965 283.23 145.52 283.341 144.927 283.519L143.682 283.141L144.972 275.715H152.532V276.56L152.487 276.604ZM165.981 283.675C165.981 285.113 165.832 286.321 165.536 287.299C165.21 288.381 164.802 289.226 164.313 289.834C163.75 290.531 163.135 291.027 162.467 291.324C161.726 291.65 160.97 291.813 160.199 291.813C159.429 291.813 158.673 291.65 157.931 291.324C157.264 291.027 156.649 290.531 156.086 289.834C155.597 289.226 155.189 288.381 154.863 287.299C154.566 286.321 154.418 285.113 154.418 283.675C154.418 282.237 154.566 281.029 154.863 280.051C155.189 278.968 155.597 278.123 156.086 277.516C156.649 276.819 157.264 276.322 157.931 276.026C158.673 275.7 159.429 275.537 160.199 275.537C160.97 275.537 161.726 275.7 162.467 276.026C163.135 276.322 163.75 276.819 164.313 277.516C164.802 278.123 165.21 278.968 165.536 280.051C165.847 281.073 166.003 282.282 166.003 283.675H165.981ZM163.935 283.697C163.935 282.526 163.831 281.511 163.624 280.651C163.416 279.776 163.142 279.109 162.801 278.65C162.43 278.131 162.03 277.768 161.6 277.56C161.156 277.338 160.689 277.227 160.199 277.227C159.695 277.227 159.221 277.338 158.776 277.56C158.346 277.768 157.946 278.131 157.576 278.65C157.25 279.094 156.983 279.754 156.775 280.629C156.568 281.488 156.464 282.504 156.464 283.675C156.464 284.861 156.568 285.884 156.775 286.743C156.998 287.648 157.264 288.315 157.576 288.745C157.931 289.234 158.332 289.59 158.776 289.812C159.221 290.034 159.695 290.145 160.199 290.145C160.703 290.145 161.178 290.034 161.623 289.812C162.052 289.604 162.453 289.241 162.823 288.722C163.149 288.278 163.416 287.618 163.624 286.743C163.831 285.884 163.935 284.868 163.935 283.697ZM179.074 283.675C179.074 285.113 178.926 286.321 178.63 287.299C178.304 288.381 177.896 289.226 177.407 289.834C176.843 290.531 176.228 291.027 175.561 291.324C174.82 291.65 174.064 291.813 173.293 291.813C172.522 291.813 171.766 291.65 171.025 291.324C170.358 291.027 169.743 290.531 169.18 289.834C168.69 289.226 168.283 288.381 167.957 287.299C167.66 286.321 167.512 285.113 167.512 283.675C167.512 282.237 167.66 281.029 167.957 280.051C168.283 278.968 168.69 278.123 169.18 277.516C169.743 276.819 170.358 276.322 171.025 276.026C171.766 275.7 172.522 275.537 173.293 275.537C174.064 275.537 174.82 275.7 175.561 276.026C176.228 276.322 176.843 276.819 177.407 277.516C177.896 278.123 178.304 278.968 178.63 280.051C178.941 281.073 179.097 282.282 179.097 283.675H179.074ZM177.029 283.697C177.029 282.526 176.925 281.511 176.717 280.651C176.51 279.776 176.236 279.109 175.895 278.65C175.524 278.131 175.124 277.768 174.694 277.56C174.249 277.338 173.782 277.227 173.293 277.227C172.789 277.227 172.315 277.338 171.87 277.56C171.44 277.768 171.04 278.131 170.669 278.65C170.343 279.094 170.076 279.754 169.869 280.629C169.661 281.488 169.558 282.504 169.558 283.675C169.558 284.861 169.661 285.884 169.869 286.743C170.091 287.648 170.358 288.315 170.669 288.745C171.025 289.234 171.425 289.59 171.87 289.812C172.315 290.034 172.789 290.145 173.293 290.145C173.797 290.145 174.272 290.034 174.716 289.812C175.146 289.604 175.546 289.241 175.917 288.722C176.243 288.278 176.51 287.618 176.717 286.743C176.925 285.884 177.029 284.868 177.029 283.697Z" fill="#3B82F6"/>
<path d="M296.246 290.079C295.816 290.39 295.394 290.649 294.979 290.857C294.534 291.079 294.067 291.257 293.578 291.391C293.059 291.539 292.518 291.643 291.955 291.702C291.317 291.776 290.702 291.813 290.109 291.813C288.968 291.813 287.893 291.606 286.885 291.191C285.877 290.775 285.025 290.212 284.328 289.501C283.587 288.745 283.023 287.877 282.638 286.899C282.238 285.891 282.038 284.787 282.038 283.586C282.038 282.341 282.23 281.236 282.616 280.273C283.016 279.265 283.579 278.398 284.306 277.671C285.002 276.96 285.877 276.397 286.929 275.981C287.908 275.611 289.012 275.411 290.243 275.381H290.398C292.088 275.381 293.986 275.767 296.091 276.537V280.629H294.801C294.534 280.629 294.364 280.495 294.289 280.228C294.245 280.021 294.178 279.443 294.089 278.494C292.992 278.123 291.725 277.938 290.287 277.938C289.516 277.938 288.805 278.072 288.152 278.338C287.5 278.605 286.952 278.983 286.507 279.472C286.047 279.976 285.699 280.569 285.462 281.251C285.21 281.963 285.084 282.741 285.084 283.586C285.084 284.535 285.217 285.365 285.484 286.076C285.751 286.818 286.114 287.425 286.574 287.9C287.048 288.389 287.604 288.767 288.241 289.034C288.894 289.301 289.598 289.434 290.354 289.434C290.976 289.434 291.562 289.375 292.11 289.256C292.6 289.137 293.074 288.967 293.533 288.745V285.832H291.532C291.34 285.832 291.184 285.772 291.065 285.654C290.962 285.55 290.91 285.424 290.91 285.276V283.586H296.246V290.079ZM304.67 280.028C305.248 280.028 305.715 280.154 306.071 280.406L305.715 282.474C305.7 282.608 305.656 282.697 305.582 282.741C305.493 282.8 305.389 282.83 305.27 282.83C305.167 282.83 305.018 282.808 304.826 282.763C304.559 282.704 304.3 282.674 304.048 282.674C303.469 282.674 302.98 282.83 302.58 283.141C302.209 283.423 301.868 283.89 301.557 284.542V289.434L302.669 289.634C303.04 289.723 303.225 289.953 303.225 290.323V291.635H297.132V290.323C297.132 289.953 297.318 289.723 297.688 289.634L298.8 289.434V282.43L297.688 282.23C297.318 282.141 297.132 281.911 297.132 281.54V280.228H300.423C300.705 280.228 300.897 280.28 301.001 280.384C301.105 280.488 301.179 280.666 301.224 280.918L301.402 282.296C301.802 281.57 302.276 281.014 302.825 280.629C303.388 280.228 304.003 280.028 304.67 280.028ZM317.001 289.612C317.371 289.701 317.557 289.931 317.557 290.301V291.613H314.933C314.651 291.613 314.444 291.576 314.31 291.502C314.162 291.443 314.051 291.279 313.977 291.013L313.732 290.212C313.436 290.494 313.154 290.724 312.887 290.901C312.68 291.05 312.391 291.213 312.02 291.391C311.753 291.509 311.442 291.606 311.086 291.68C310.716 291.754 310.345 291.791 309.974 291.791C309.485 291.791 309.04 291.724 308.64 291.591C308.21 291.443 307.862 291.25 307.595 291.013C307.284 290.731 307.054 290.405 306.906 290.034C306.743 289.634 306.661 289.189 306.661 288.7C306.661 288.255 306.772 287.826 306.995 287.411C307.217 286.981 307.595 286.603 308.129 286.276C308.692 285.921 309.389 285.639 310.219 285.432C311.094 285.209 312.183 285.098 313.488 285.098V284.431C313.488 283.69 313.324 283.119 312.998 282.719C312.687 282.348 312.22 282.163 311.598 282.163C311.123 282.163 310.753 282.215 310.486 282.319C310.145 282.452 309.885 282.571 309.708 282.674L309.107 283.008C308.944 283.112 308.744 283.164 308.507 283.164C308.314 283.164 308.151 283.119 308.018 283.03C307.929 282.971 307.825 282.852 307.706 282.674L307.195 281.807C308.529 280.592 310.108 279.984 311.931 279.984C312.598 279.984 313.198 280.095 313.732 280.317C314.251 280.54 314.688 280.844 315.044 281.229C315.444 281.689 315.726 282.156 315.889 282.63C316.067 283.164 316.156 283.756 316.156 284.409V289.456L316.756 289.567L317.001 289.612ZM313.488 286.766C312.657 286.766 311.99 286.818 311.486 286.921C310.938 287.04 310.501 287.173 310.174 287.322C309.848 287.47 309.619 287.648 309.485 287.855C309.352 288.048 309.285 288.278 309.285 288.545C309.285 289.049 309.426 289.397 309.708 289.59C310.004 289.797 310.375 289.901 310.819 289.901C311.101 289.901 311.36 289.879 311.598 289.834C311.85 289.79 312.079 289.708 312.287 289.59C312.554 289.441 312.754 289.315 312.887 289.212C313.095 289.049 313.295 288.871 313.488 288.678V286.766ZM331.22 281.54C331.22 281.911 331.035 282.141 330.664 282.23C330.605 282.23 330.516 282.244 330.397 282.274C330.279 282.304 330.019 282.356 329.619 282.43L324.349 294.77C324.26 294.978 324.149 295.126 324.016 295.215C323.912 295.304 323.719 295.349 323.438 295.349H321.392L323.527 290.79L319.858 282.43C319.457 282.356 319.198 282.304 319.079 282.274C318.961 282.244 318.872 282.23 318.813 282.23C318.442 282.141 318.257 281.911 318.257 281.54V280.228H323.816V281.54C323.816 281.911 323.63 282.141 323.26 282.23L322.726 282.319L324.527 286.654C324.586 286.788 324.631 286.906 324.661 287.01C324.69 287.114 324.712 287.196 324.727 287.255C324.757 287.359 324.809 287.566 324.883 287.877L325.083 287.255C325.172 286.988 325.246 286.788 325.305 286.654L326.973 282.363L326.217 282.23C325.846 282.141 325.661 281.911 325.661 281.54V280.228H331.22V281.54ZM337.965 286.076H332.183V283.764H337.965V286.076ZM344.555 291.858C343.74 291.858 343.021 291.754 342.399 291.546C341.732 291.324 341.161 291.02 340.686 290.635C340.242 290.264 339.879 289.79 339.597 289.212C339.345 288.693 339.219 288.063 339.219 287.322C339.219 286.299 339.486 285.454 340.019 284.787C340.568 284.105 341.324 283.63 342.287 283.364C341.472 283.067 340.85 282.6 340.42 281.963C339.99 281.325 339.775 280.584 339.775 279.739C339.775 279.146 339.886 278.598 340.108 278.094C340.331 277.59 340.657 277.145 341.087 276.76C341.472 276.404 341.984 276.107 342.621 275.87C343.199 275.648 343.859 275.537 344.6 275.537C345.326 275.537 345.979 275.648 346.557 275.87C347.164 276.107 347.668 276.404 348.069 276.76C348.499 277.145 348.825 277.59 349.047 278.094C349.284 278.642 349.403 279.191 349.403 279.739C349.403 280.599 349.188 281.333 348.758 281.941C348.284 282.593 347.654 283.067 346.868 283.364C347.846 283.63 348.602 284.097 349.136 284.764C349.67 285.432 349.936 286.276 349.936 287.299C349.936 287.996 349.803 288.626 349.536 289.189C349.269 289.738 348.906 290.212 348.447 290.612C348.032 290.968 347.468 291.265 346.757 291.502C346.134 291.709 345.415 291.813 344.6 291.813L344.555 291.858ZM344.489 282.652C345.022 282.652 345.46 282.578 345.801 282.43C346.186 282.252 346.49 282.037 346.712 281.785C346.979 281.459 347.15 281.155 347.224 280.873C347.313 280.517 347.357 280.162 347.357 279.806C347.357 279.406 347.298 279.065 347.179 278.783C347.016 278.398 346.838 278.109 346.646 277.916C346.379 277.649 346.082 277.456 345.756 277.338C345.4 277.204 344.985 277.138 344.511 277.138C344.037 277.138 343.622 277.204 343.266 277.338C342.91 277.471 342.606 277.664 342.354 277.916C342.132 278.123 341.946 278.413 341.798 278.783C341.68 279.065 341.62 279.406 341.62 279.806C341.62 280.043 341.68 280.399 341.798 280.873C341.872 281.185 342.035 281.488 342.287 281.785C342.51 282.052 342.806 282.267 343.177 282.43C343.518 282.578 343.955 282.652 344.489 282.652ZM344.511 290.301C345.015 290.301 345.489 290.227 345.934 290.079C346.305 289.96 346.646 289.753 346.957 289.456C347.253 289.189 347.476 288.878 347.624 288.522C347.787 288.152 347.869 287.744 347.869 287.299C347.869 286.766 347.78 286.299 347.602 285.898C347.424 285.513 347.179 285.194 346.868 284.942C346.557 284.69 346.201 284.512 345.801 284.409C345.43 284.305 345.015 284.253 344.555 284.253C344.081 284.253 343.659 284.305 343.288 284.409C342.888 284.512 342.532 284.69 342.221 284.942C341.909 285.194 341.665 285.513 341.487 285.898C341.309 286.299 341.22 286.758 341.22 287.277C341.22 287.751 341.294 288.159 341.442 288.5C341.606 288.885 341.828 289.204 342.11 289.456C342.391 289.708 342.747 289.908 343.177 290.057C343.577 290.19 344.037 290.257 344.555 290.257L344.511 290.301ZM362.858 283.675C362.858 285.113 362.709 286.321 362.413 287.299C362.087 288.381 361.679 289.226 361.19 289.834C360.627 290.531 360.012 291.027 359.344 291.324C358.603 291.65 357.847 291.813 357.076 291.813C356.306 291.813 355.55 291.65 354.808 291.324C354.141 291.027 353.526 290.531 352.963 289.834C352.474 289.226 352.066 288.381 351.74 287.299C351.443 286.321 351.295 285.113 351.295 283.675C351.295 282.237 351.443 281.029 351.74 280.051C352.066 278.968 352.474 278.123 352.963 277.516C353.526 276.819 354.141 276.322 354.808 276.026C355.55 275.7 356.306 275.537 357.076 275.537C357.847 275.537 358.603 275.7 359.344 276.026C360.012 276.322 360.627 276.819 361.19 277.516C361.679 278.123 362.087 278.968 362.413 280.051C362.724 281.073 362.88 282.282 362.88 283.675H362.858ZM360.812 283.697C360.812 282.526 360.708 281.511 360.501 280.651C360.293 279.776 360.019 279.109 359.678 278.65C359.307 278.131 358.907 277.768 358.477 277.56C358.033 277.338 357.566 277.227 357.076 277.227C356.572 277.227 356.098 277.338 355.653 277.56C355.224 277.768 354.823 278.131 354.453 278.65C354.127 279.094 353.86 279.754 353.652 280.629C353.445 281.488 353.341 282.504 353.341 283.675C353.341 284.861 353.445 285.884 353.652 286.743C353.875 287.648 354.141 288.315 354.453 288.745C354.808 289.234 355.209 289.59 355.653 289.812C356.098 290.034 356.572 290.145 357.076 290.145C357.58 290.145 358.055 290.034 358.5 289.812C358.929 289.604 359.33 289.241 359.7 288.722C360.026 288.278 360.293 287.618 360.501 286.743C360.708 285.884 360.812 284.868 360.812 283.697ZM375.951 283.675C375.951 285.113 375.803 286.321 375.507 287.299C375.181 288.381 374.773 289.226 374.284 289.834C373.721 290.531 373.105 291.027 372.438 291.324C371.697 291.65 370.941 291.813 370.17 291.813C369.399 291.813 368.643 291.65 367.902 291.324C367.235 291.027 366.62 290.531 366.057 289.834C365.567 289.226 365.16 288.381 364.834 287.299C364.537 286.321 364.389 285.113 364.389 283.675C364.389 282.237 364.537 281.029 364.834 280.051C365.16 278.968 365.567 278.123 366.057 277.516C366.62 276.819 367.235 276.322 367.902 276.026C368.643 275.7 369.399 275.537 370.17 275.537C370.941 275.537 371.697 275.7 372.438 276.026C373.105 276.322 373.721 276.819 374.284 277.516C374.773 278.123 375.181 278.968 375.507 280.051C375.818 281.073 375.974 282.282 375.974 283.675H375.951ZM373.906 283.697C373.906 282.526 373.802 281.511 373.595 280.651C373.387 279.776 373.113 279.109 372.772 278.65C372.401 278.131 372.001 277.768 371.571 277.56C371.126 277.338 370.659 277.227 370.17 277.227C369.666 277.227 369.192 277.338 368.747 277.56C368.317 277.768 367.917 278.131 367.546 278.65C367.22 279.094 366.954 279.754 366.746 280.629C366.538 281.488 366.435 282.504 366.435 283.675C366.435 284.861 366.538 285.884 366.746 286.743C366.968 287.648 367.235 288.315 367.546 288.745C367.902 289.234 368.302 289.59 368.747 289.812C369.192 290.034 369.666 290.145 370.17 290.145C370.674 290.145 371.149 290.034 371.593 289.812C372.023 289.604 372.423 289.241 372.794 288.722C373.12 288.278 373.387 287.618 373.595 286.743C373.802 285.884 373.906 284.868 373.906 283.697Z" fill="#1F2937"/>
<path d="M488.954 290.079C488.524 290.39 488.102 290.649 487.687 290.857C487.242 291.079 486.775 291.257 486.286 291.391C485.767 291.539 485.226 291.643 484.663 291.702C484.025 291.776 483.41 291.813 482.817 291.813C481.676 291.813 480.601 291.606 479.593 291.191C478.585 290.775 477.733 290.212 477.036 289.501C476.295 288.745 475.731 287.877 475.346 286.899C474.946 285.891 474.746 284.787 474.746 283.586C474.746 282.341 474.938 281.236 475.324 280.273C475.724 279.265 476.287 278.398 477.014 277.671C477.71 276.96 478.585 276.397 479.637 275.981C480.616 275.611 481.72 275.411 482.95 275.381H483.106C484.796 275.381 486.693 275.767 488.798 276.537V280.629H487.509C487.242 280.629 487.071 280.495 486.997 280.228C486.953 280.021 486.886 279.443 486.797 278.494C485.7 278.123 484.433 277.938 482.995 277.938C482.224 277.938 481.513 278.072 480.86 278.338C480.208 278.605 479.66 278.983 479.215 279.472C478.755 279.976 478.407 280.569 478.17 281.251C477.918 281.963 477.792 282.741 477.792 283.586C477.792 284.535 477.925 285.365 478.192 286.076C478.459 286.818 478.822 287.425 479.282 287.9C479.756 288.389 480.312 288.767 480.949 289.034C481.602 289.301 482.306 289.434 483.062 289.434C483.684 289.434 484.27 289.375 484.818 289.256C485.307 289.137 485.782 288.967 486.241 288.745V285.832H484.24C484.047 285.832 483.892 285.772 483.773 285.654C483.669 285.55 483.618 285.424 483.618 285.276V283.586H488.954V290.079ZM497.378 280.028C497.956 280.028 498.423 280.154 498.779 280.406L498.423 282.474C498.408 282.608 498.364 282.697 498.29 282.741C498.201 282.8 498.097 282.83 497.978 282.83C497.875 282.83 497.726 282.808 497.534 282.763C497.267 282.704 497.007 282.674 496.755 282.674C496.177 282.674 495.688 282.83 495.288 283.141C494.917 283.423 494.576 283.89 494.265 284.542V289.434L495.377 289.634C495.747 289.723 495.933 289.953 495.933 290.323V291.635H489.84V290.323C489.84 289.953 490.025 289.723 490.396 289.634L491.508 289.434V282.43L490.396 282.23C490.025 282.141 489.84 281.911 489.84 281.54V280.228H493.131C493.413 280.228 493.605 280.28 493.709 280.384C493.813 280.488 493.887 280.666 493.932 280.918L494.109 282.296C494.51 281.57 494.984 281.014 495.532 280.629C496.096 280.228 496.711 280.028 497.378 280.028ZM509.709 289.612C510.079 289.701 510.265 289.931 510.265 290.301V291.613H507.641C507.359 291.613 507.152 291.576 507.018 291.502C506.87 291.443 506.759 291.279 506.685 291.013L506.44 290.212C506.144 290.494 505.862 290.724 505.595 290.901C505.388 291.05 505.099 291.213 504.728 291.391C504.461 291.509 504.15 291.606 503.794 291.68C503.423 291.754 503.053 291.791 502.682 291.791C502.193 291.791 501.748 291.724 501.348 291.591C500.918 291.443 500.57 291.25 500.303 291.013C499.992 290.731 499.762 290.405 499.614 290.034C499.451 289.634 499.369 289.189 499.369 288.7C499.369 288.255 499.48 287.826 499.703 287.411C499.925 286.981 500.303 286.603 500.837 286.276C501.4 285.921 502.097 285.639 502.927 285.432C503.801 285.209 504.891 285.098 506.195 285.098V284.431C506.195 283.69 506.032 283.119 505.706 282.719C505.395 282.348 504.928 282.163 504.305 282.163C503.831 282.163 503.46 282.215 503.194 282.319C502.853 282.452 502.593 282.571 502.415 282.674L501.815 283.008C501.652 283.112 501.452 283.164 501.215 283.164C501.022 283.164 500.859 283.119 500.726 283.03C500.637 282.971 500.533 282.852 500.414 282.674L499.903 281.807C501.237 280.592 502.816 279.984 504.639 279.984C505.306 279.984 505.906 280.095 506.44 280.317C506.959 280.54 507.396 280.844 507.752 281.229C508.152 281.689 508.434 282.156 508.597 282.63C508.775 283.164 508.864 283.756 508.864 284.409V289.456L509.464 289.567L509.709 289.612ZM506.195 286.766C505.365 286.766 504.698 286.818 504.194 286.921C503.646 287.04 503.208 287.173 502.882 287.322C502.556 287.47 502.326 287.648 502.193 287.855C502.06 288.048 501.993 288.278 501.993 288.545C501.993 289.049 502.134 289.397 502.415 289.59C502.712 289.797 503.082 289.901 503.527 289.901C503.809 289.901 504.068 289.879 504.305 289.834C504.557 289.79 504.787 289.708 504.995 289.59C505.262 289.441 505.462 289.315 505.595 289.212C505.803 289.049 506.003 288.871 506.195 288.678V286.766ZM523.928 281.54C523.928 281.911 523.743 282.141 523.372 282.23C523.313 282.23 523.224 282.244 523.105 282.274C522.987 282.304 522.727 282.356 522.327 282.43L517.057 294.77C516.968 294.978 516.857 295.126 516.724 295.215C516.62 295.304 516.427 295.349 516.146 295.349H514.1L516.234 290.79L512.566 282.43C512.165 282.356 511.906 282.304 511.787 282.274C511.669 282.244 511.58 282.23 511.521 282.23C511.15 282.141 510.965 281.911 510.965 281.54V280.228H516.524V281.54C516.524 281.911 516.338 282.141 515.968 282.23L515.434 282.319L517.235 286.654C517.294 286.788 517.339 286.906 517.368 287.01C517.398 287.114 517.42 287.196 517.435 287.255C517.465 287.359 517.517 287.566 517.591 287.877L517.791 287.255C517.88 286.988 517.954 286.788 518.013 286.654L519.681 282.363L518.925 282.23C518.554 282.141 518.369 281.911 518.369 281.54V280.228H523.928V281.54ZM530.673 286.076H524.891V283.764H530.673V286.076ZM541.399 276.604C541.399 276.871 541.31 277.093 541.132 277.271C540.954 277.449 540.658 277.538 540.243 277.538H535.218L534.506 281.718C535.351 281.54 536.115 281.451 536.796 281.451C537.627 281.451 538.36 281.577 538.998 281.829C539.65 282.081 540.184 282.415 540.599 282.83C541.014 283.245 541.34 283.764 541.577 284.386C541.799 284.965 541.911 285.602 541.911 286.299C541.911 287.173 541.762 287.929 541.466 288.567C541.14 289.278 540.732 289.864 540.243 290.323C539.739 290.798 539.139 291.168 538.442 291.435C537.775 291.687 537.019 291.813 536.174 291.813C535.714 291.813 535.262 291.769 534.817 291.68C534.343 291.591 533.943 291.472 533.617 291.324C533.216 291.146 532.876 290.968 532.594 290.79C532.223 290.553 531.942 290.346 531.749 290.168L532.349 289.323C532.498 289.115 532.675 289.011 532.883 289.011C533.031 289.011 533.202 289.071 533.394 289.189C533.632 289.338 533.854 289.464 534.061 289.567C534.373 289.716 534.684 289.842 534.995 289.945C535.381 290.064 535.811 290.123 536.285 290.123C536.848 290.123 537.352 290.034 537.797 289.856C538.227 289.679 538.605 289.419 538.931 289.078C539.242 288.752 539.487 288.359 539.665 287.9C539.828 287.485 539.909 286.966 539.909 286.343C539.909 285.854 539.843 285.409 539.709 285.009C539.576 284.624 539.353 284.283 539.042 283.986C538.716 283.675 538.353 283.453 537.953 283.319C537.523 283.171 537.011 283.097 536.418 283.097C535.989 283.097 535.573 283.126 535.173 283.186C534.877 283.23 534.432 283.341 533.839 283.519L532.594 283.141L533.884 275.715H541.444V276.56L541.399 276.604ZM554.892 283.675C554.892 285.113 554.744 286.321 554.448 287.299C554.122 288.381 553.714 289.226 553.225 289.834C552.662 290.531 552.046 291.027 551.379 291.324C550.638 291.65 549.882 291.813 549.111 291.813C548.34 291.813 547.584 291.65 546.843 291.324C546.176 291.027 545.561 290.531 544.998 289.834C544.508 289.226 544.101 288.381 543.775 287.299C543.478 286.321 543.33 285.113 543.33 283.675C543.33 282.237 543.478 281.029 543.775 280.051C544.101 278.968 544.508 278.123 544.998 277.516C545.561 276.819 546.176 276.322 546.843 276.026C547.584 275.7 548.34 275.537 549.111 275.537C549.882 275.537 550.638 275.7 551.379 276.026C552.046 276.322 552.662 276.819 553.225 277.516C553.714 278.123 554.122 278.968 554.448 280.051C554.759 281.073 554.915 282.282 554.915 283.675H554.892ZM552.847 283.697C552.847 282.526 552.743 281.511 552.536 280.651C552.328 279.776 552.054 279.109 551.713 278.65C551.342 278.131 550.942 277.768 550.512 277.56C550.067 277.338 549.6 277.227 549.111 277.227C548.607 277.227 548.133 277.338 547.688 277.56C547.258 277.768 546.858 278.131 546.487 278.65C546.161 279.094 545.894 279.754 545.687 280.629C545.479 281.488 545.376 282.504 545.376 283.675C545.376 284.861 545.479 285.884 545.687 286.743C545.909 287.648 546.176 288.315 546.487 288.745C546.843 289.234 547.243 289.59 547.688 289.812C548.133 290.034 548.607 290.145 549.111 290.145C549.615 290.145 550.09 290.034 550.534 289.812C550.964 289.604 551.364 289.241 551.735 288.722C552.061 288.278 552.328 287.618 552.536 286.743C552.743 285.884 552.847 284.868 552.847 283.697ZM567.986 283.675C567.986 285.113 567.838 286.321 567.542 287.299C567.215 288.381 566.808 289.226 566.319 289.834C565.755 290.531 565.14 291.027 564.473 291.324C563.732 291.65 562.976 291.813 562.205 291.813C561.434 291.813 560.678 291.65 559.937 291.324C559.27 291.027 558.655 290.531 558.091 289.834C557.602 289.226 557.195 288.381 556.868 287.299C556.572 286.321 556.424 285.113 556.424 283.675C556.424 282.237 556.572 281.029 556.868 280.051C557.195 278.968 557.602 278.123 558.091 277.516C558.655 276.819 559.27 276.322 559.937 276.026C560.678 275.7 561.434 275.537 562.205 275.537C562.976 275.537 563.732 275.7 564.473 276.026C565.14 276.322 565.755 276.819 566.319 277.516C566.808 278.123 567.215 278.968 567.542 280.051C567.853 281.073 568.008 282.282 568.008 283.675H567.986ZM565.941 283.697C565.941 282.526 565.837 281.511 565.629 280.651C565.422 279.776 565.148 279.109 564.807 278.65C564.436 278.131 564.036 277.768 563.606 277.56C563.161 277.338 562.694 277.227 562.205 277.227C561.701 277.227 561.227 277.338 560.782 277.56C560.352 277.768 559.952 278.131 559.581 278.65C559.255 279.094 558.988 279.754 558.781 280.629C558.573 281.488 558.469 282.504 558.469 283.675C558.469 284.861 558.573 285.884 558.781 286.743C559.003 287.648 559.27 288.315 559.581 288.745C559.937 289.234 560.337 289.59 560.782 289.812C561.227 290.034 561.701 290.145 562.205 290.145C562.709 290.145 563.183 290.034 563.628 289.812C564.058 289.604 564.458 289.241 564.829 288.722C565.155 288.278 565.422 287.618 565.629 286.743C565.837 285.884 565.941 284.868 565.941 283.697Z" fill="#6B7280"/>
</svg>
