<svg width="655" height="356" viewBox="0 0 655 356" fill="none" xmlns="http://www.w3.org/2000/svg">
<rect x="0.432373" y="0.0727539" width="654.487" height="355.922" fill="black"/>
<path fill-rule="evenodd" clip-rule="evenodd" d="M211.576 67.8849L200.104 97.4145C197.548 103.995 192.534 109.324 186.121 112.275L163.555 122.66L191.323 120.081L175.995 159.184C174.837 162.14 172.098 164.199 168.937 164.495C135.45 167.626 126.918 167.179 118.966 177.877C114.349 184.089 106.17 186.855 99.4671 182.985L98.1081 182.2C131.034 126.574 130.358 125.083 160.169 80.9267C166.624 71.365 197.431 67.7137 211.576 67.8849Z" fill="white"/>
<path d="M125.908 121.47C119.343 110.707 112.183 99.6542 99.54 80.9265C93.0847 71.3649 62.2781 67.7136 48.1334 67.8848L59.6048 97.4144C62.161 103.995 67.1754 109.324 73.5883 112.275L96.1538 122.66L68.3855 120.081L83.7137 159.184C84.8723 162.139 87.611 164.199 90.7718 164.495C94.1637 164.812 97.2996 165.092 100.205 165.351C105.244 156.77 109.349 149.71 112.915 143.579C117.953 134.916 121.914 128.104 125.908 121.47Z" fill="white"/>
<path d="M137.865 174.533C138.859 175.509 139.805 176.615 140.742 177.877C145.36 184.089 153.539 186.855 160.242 182.985L161.601 182.2C159.56 178.753 157.649 175.513 155.851 172.459C147.981 173.167 142.304 173.724 137.865 174.533Z" fill="white"/>
<path d="M129.855 202.238C89.3784 202.238 56.566 169.426 56.566 128.95C56.566 123.462 57.1692 118.115 58.3128 112.972C55.1129 110.659 53.9955 108.946 51.5202 104.924C49.1928 112.522 47.9404 120.59 47.9404 128.95C47.9404 174.19 84.6146 210.864 129.855 210.864V202.238Z" fill="white"/>
<path d="M166.133 65.2555C167.048 64.8021 167.969 64.3873 168.877 64.0066C171.176 63.0425 173.664 62.1884 176.251 61.4329C163.062 52.3518 147.079 47.0355 129.855 47.0355C112.68 47.0355 96.7398 52.3211 83.5721 61.3543C86.2568 62.1289 88.8374 63.0088 91.2166 64.0064C92.0566 64.3586 92.9073 64.7399 93.7547 65.154C104.411 59.1112 116.73 55.6611 129.855 55.6611C143.053 55.6611 155.436 59.1499 166.133 65.2555Z" fill="white"/>
<path d="M129.854 202.237C170.33 202.237 203.143 169.425 203.143 128.949C203.143 123.461 202.54 118.114 201.396 112.971C204.596 110.658 205.713 108.945 208.189 104.923C210.516 112.521 211.768 120.589 211.768 128.949C211.768 174.189 175.094 210.863 129.854 210.863V202.237Z" fill="white"/>
<path d="M259.478 74.1962C261.313 75.7253 263.798 76.4898 266.932 76.4898C269.99 76.4898 272.437 75.7253 274.272 74.1962C276.107 72.6671 277.024 70.4116 277.024 67.4299C277.024 64.5247 276.107 62.3074 274.272 60.7784C272.437 59.2493 269.99 58.4847 266.932 58.4847C263.798 58.4847 261.313 59.2493 259.478 60.7784C257.643 62.3074 256.725 64.5247 256.725 67.4299C256.725 70.4116 257.643 72.6671 259.478 74.1962Z" fill="white"/>
<path d="M275.992 135.322V86.0085H251.221V93.6922L252.253 93.9215C254.623 94.3803 256.381 94.8772 257.528 95.4124C258.675 95.8711 259.248 96.7886 259.248 98.1648V135.322C259.248 137.539 258.56 139.03 257.184 139.794C255.808 140.559 253.935 140.941 251.565 140.941H251.221V147.822H283.905V140.941H283.676C281.306 140.941 279.433 140.559 278.056 139.794C276.68 139.03 275.992 137.539 275.992 135.322Z" fill="white"/>
<path d="M332.838 138.648C330.697 139.718 328.174 140.253 325.269 140.253C322.134 140.253 319.42 139.794 317.126 138.877C314.909 137.883 313.036 136.43 311.507 134.519C310.054 132.608 308.984 130.199 308.296 127.294C307.608 124.312 307.264 120.872 307.264 116.973C307.264 111.85 307.837 107.569 308.984 104.128C310.207 100.611 312.08 97.9736 314.603 96.2152C317.126 94.4567 320.376 93.5775 324.351 93.5775C327.333 93.5775 329.971 94.0362 332.264 94.9536C332.66 95.0988 333.043 95.2531 333.411 95.4165V108.716H347.402V90.2517C346.485 89.5636 344.956 88.8373 342.815 88.0727C340.674 87.2318 337.998 86.5054 334.787 85.8938C331.576 85.2057 327.868 84.8616 323.663 84.8616C316.629 84.8616 310.589 86.1231 305.543 88.6461C300.497 91.1691 296.598 94.839 293.846 99.6557C291.17 104.396 289.832 110.168 289.832 116.973C289.832 123.701 291.208 129.473 293.96 134.29C296.713 139.106 300.574 142.776 305.543 145.299C310.513 147.822 316.362 149.084 323.09 149.084C327.448 149.084 331.27 148.472 334.558 147.249C337.922 145.949 340.827 144.152 343.274 141.859C345.72 139.489 347.708 136.736 349.237 133.602L342.471 128.785C341.324 130.773 339.948 132.646 338.342 134.404C336.813 136.163 334.978 137.577 332.838 138.648Z" fill="white"/>
<path fill-rule="evenodd" clip-rule="evenodd" d="M395.54 137.062C394.358 139.142 393.06 140.97 391.646 142.547C389.659 144.687 387.365 146.331 384.765 147.478C382.242 148.548 379.337 149.084 376.05 149.084C371.998 149.084 368.519 148.51 365.614 147.363C362.708 146.14 360.491 144.305 358.962 141.859C357.433 139.412 356.668 136.392 356.668 132.799C356.668 129.588 357.395 126.797 358.847 124.427C360.3 122.057 362.594 119.993 365.728 118.234C368.939 116.476 373.068 114.985 378.114 113.762C382.725 112.574 388.23 111.514 394.628 110.582V102.637C394.628 100.42 394.322 98.6617 393.711 97.362C393.099 95.9858 392.029 94.9919 390.5 94.3803C389.047 93.6922 386.983 93.3481 384.307 93.3481C380.408 93.3481 377.196 93.8833 374.673 94.9536C374.635 94.9699 374.597 94.9862 374.559 95.0026V105.963H360.338V91.6279C361.485 90.7869 363.167 89.8694 365.384 88.8755C367.678 87.8051 370.507 86.8877 373.871 86.1231C377.311 85.2822 381.249 84.8616 385.683 84.8616C389.506 84.8616 392.984 85.2057 396.119 85.8938C399.254 86.5818 401.93 87.6905 404.147 89.2196C406.364 90.7486 408.084 92.6982 409.307 95.0683C410.531 97.4385 411.142 100.267 411.142 103.555V136.239C411.142 137.08 411.41 137.768 411.945 138.304C412.557 138.762 413.398 139.145 414.468 139.45C415.538 139.68 416.838 139.909 418.367 140.138L419.055 140.368V147.822H396.692L395.54 137.062ZM394.628 117.704C391.578 118.182 388.902 118.742 386.6 119.381C383.848 120.069 381.554 120.872 379.719 121.789C377.885 122.63 376.47 123.586 375.476 124.656C374.482 125.65 373.756 126.797 373.297 128.097C372.915 129.32 372.724 130.658 372.724 132.111C372.724 134.175 373.068 135.857 373.756 137.157C374.444 138.38 375.438 139.297 376.738 139.909C378.037 140.521 379.605 140.827 381.44 140.827C383.351 140.827 385.11 140.368 386.715 139.45C388.397 138.533 390.003 137.157 391.532 135.322C392.564 134.093 393.596 132.659 394.628 131.019V117.704Z" fill="white"/>
<path d="M471.047 101.376V85.4351C470.741 85.2822 470.168 85.1675 469.327 85.091C468.486 84.9381 467.568 84.8616 466.574 84.8616C463.287 84.8616 460.42 85.6262 457.973 87.1552C455.603 88.6079 453.462 90.7486 451.551 93.5775C450.221 95.6275 448.891 98.0187 447.562 100.751L446.275 86.0085H423.683V93.6922L424.715 93.9215C426.244 94.2273 427.506 94.5332 428.5 94.839C429.57 95.1448 430.335 95.5653 430.793 96.1005C431.328 96.5592 431.596 97.2473 431.596 98.1648V134.978C431.596 137.348 430.908 138.953 429.532 139.794C428.156 140.559 426.321 140.941 424.027 140.941H423.683V147.822H458.432V140.941H456.712C455.565 140.941 454.341 140.903 453.042 140.827C451.818 140.75 450.748 140.559 449.831 140.253C448.913 139.947 448.454 139.527 448.454 138.992V106.117C448.875 105.691 449.295 105.295 449.716 104.931C450.863 103.861 452.086 103.02 453.386 102.408C454.762 101.796 456.215 101.376 457.744 101.146C459.273 100.841 460.955 100.688 462.79 100.688C463.784 100.688 464.777 100.726 465.771 100.802C466.842 100.802 467.836 100.879 468.753 101.032C469.747 101.108 470.512 101.223 471.047 101.376Z" fill="white"/>
<path d="M501.025 129.702V86.0085H475.909V93.6922L477.285 93.9215C479.655 94.2273 481.376 94.6861 482.446 95.2977C483.593 95.8329 484.166 96.7886 484.166 98.1648V130.735C484.166 134.71 484.893 138.074 486.345 140.827C487.798 143.502 489.862 145.529 492.538 146.905C495.29 148.281 498.54 148.969 502.286 148.969C505.65 148.969 508.785 148.357 511.69 147.134C514.595 145.834 517.271 143.999 519.718 141.629C521.569 139.836 523.267 137.78 524.812 135.461L526.14 147.822H548.732V140.368L547.93 140.138C546.4 139.909 545.101 139.68 544.03 139.45C542.96 139.145 542.119 138.762 541.507 138.304C540.972 137.768 540.705 137.08 540.705 136.239V86.0085H514.098V93.6922L516.392 93.9215C518.762 94.1509 520.597 94.5714 521.897 95.183C523.196 95.7947 523.846 96.7886 523.846 98.1648V128.767C522.738 130.227 521.629 131.533 520.521 132.684C518.609 134.672 516.66 136.163 514.672 137.157C512.76 138.151 510.773 138.648 508.708 138.648C506.873 138.648 505.382 138.304 504.236 137.615C503.089 136.927 502.248 135.933 501.713 134.634C501.254 133.258 501.025 131.614 501.025 129.702Z" fill="white"/>
<path d="M591.342 128.097C592.183 129.091 592.604 130.429 592.604 132.111C592.604 134.099 592.145 135.742 591.228 137.042C590.31 138.342 588.934 139.336 587.099 140.024C585.264 140.635 582.97 140.941 580.218 140.941C577.771 140.941 575.516 140.75 573.452 140.368C571.387 139.909 569.552 139.374 567.947 138.762V128.556H554.644V143.579C556.096 144.42 558.008 145.261 560.378 146.102C562.748 146.943 565.577 147.631 568.864 148.166C572.228 148.778 575.975 149.084 580.103 149.084C586.296 149.084 591.457 148.281 595.585 146.675C599.79 145.07 602.925 142.776 604.989 139.794C607.054 136.736 608.086 133.066 608.086 128.785C608.086 125.574 607.436 122.898 606.136 120.757C604.913 118.54 603.231 116.782 601.09 115.482C599.026 114.106 596.694 112.997 594.094 112.156C591.572 111.315 589.048 110.589 586.526 109.977C584.385 109.518 582.359 109.06 580.447 108.601C578.536 108.066 576.854 107.492 575.401 106.881C573.949 106.193 572.802 105.351 571.961 104.358C571.196 103.287 570.814 101.949 570.814 100.344C570.814 97.8972 571.693 96.024 573.452 94.7243C575.287 93.4246 578.116 92.7747 581.938 92.7747C584.079 92.7747 585.99 92.9276 587.672 93.2335C589.124 93.4974 590.462 93.8753 591.686 94.3672V102.981H604.645V88.8755C603.881 88.4168 602.505 87.8434 600.517 87.1552C598.529 86.4672 595.968 85.8938 592.833 85.4351C589.775 84.8998 586.143 84.6322 581.938 84.6322C576.663 84.6322 572.076 85.3586 568.176 86.8112C564.354 88.2639 561.372 90.4046 559.231 93.2335C557.167 95.9858 556.135 99.4262 556.135 103.555C556.135 106.919 556.746 109.709 557.97 111.927C559.193 114.067 560.837 115.826 562.901 117.202C564.965 118.502 567.221 119.572 569.667 120.413C572.19 121.178 574.713 121.828 577.236 122.363C579.301 122.821 581.212 123.28 582.97 123.739C584.805 124.198 586.449 124.771 587.902 125.459C589.354 126.147 590.501 127.026 591.342 128.097Z" fill="white"/>
<path fill-rule="evenodd" clip-rule="evenodd" d="M257.07 186.353V194.304C257.07 194.38 257.146 194.444 257.299 194.495C257.406 194.51 257.531 194.526 257.674 194.541C257.77 194.551 257.875 194.561 257.987 194.572C258.157 194.586 258.331 194.6 258.51 194.614C258.652 194.625 258.796 194.637 258.943 194.648H260.931V197.018H248.965V194.686H249.386C250.227 194.686 250.928 194.597 251.488 194.419C252.049 194.24 252.329 193.871 252.329 193.31V173.585C252.329 173.024 252.049 172.654 251.488 172.476C250.928 172.298 250.227 172.208 249.386 172.208H248.965V169.877H261.886C264.995 169.877 267.416 170.577 269.149 171.979C270.882 173.355 271.749 175.343 271.749 177.943C271.749 179.701 271.328 181.205 270.487 182.453C269.672 183.702 268.512 184.671 267.009 185.359C265.531 186.021 263.785 186.353 261.772 186.353H257.07ZM257.07 183.791H261.313C262.562 183.791 263.594 183.575 264.409 183.141C265.225 182.683 265.836 182.033 266.244 181.192C266.652 180.325 266.856 179.268 266.856 178.019C266.856 176.77 266.652 175.738 266.244 174.923C265.862 174.107 265.263 173.495 264.447 173.088C263.632 172.654 262.625 172.438 261.427 172.438H257.07V183.791Z" fill="white"/>
<path fill-rule="evenodd" clip-rule="evenodd" d="M297.037 184.485C297.695 184.237 298.296 183.942 298.841 183.6C299.962 182.912 300.816 182.046 301.402 181.001C302.014 179.956 302.32 178.758 302.32 177.407C302.32 175.827 301.925 174.477 301.135 173.355C300.37 172.208 299.262 171.342 297.809 170.756C296.356 170.17 294.598 169.877 292.534 169.877H279.651V172.247H280.071C280.913 172.247 281.613 172.336 282.174 172.514C282.735 172.693 283.015 173.062 283.015 173.623V193.272C283.015 193.832 282.735 194.202 282.174 194.38C281.613 194.559 280.913 194.648 280.071 194.648H279.651V197.018H291.31V194.648H289.628C289.468 194.636 289.315 194.625 289.17 194.614C288.992 194.6 288.827 194.585 288.673 194.572C288.392 194.521 288.163 194.482 287.984 194.457C287.806 194.406 287.717 194.342 287.717 194.266V185.664H292.743L298.65 197.018H305.301V194.648H304.957C304.499 194.648 304.078 194.61 303.696 194.533C303.339 194.457 303.008 194.291 302.702 194.036C302.396 193.781 302.103 193.425 301.823 192.966L297.037 184.485ZM287.717 172.4V183.218H291.884C293.158 183.218 294.19 183.001 294.98 182.568C295.77 182.109 296.356 181.459 296.739 180.618C297.121 179.778 297.312 178.784 297.312 177.637C297.312 176.515 297.121 175.573 296.739 174.808C296.356 174.018 295.783 173.419 295.018 173.011C294.254 172.603 293.273 172.4 292.075 172.4H287.717Z" fill="white"/>
<path fill-rule="evenodd" clip-rule="evenodd" d="M320.946 196.712C322.628 197.349 324.463 197.668 326.451 197.668C328.465 197.668 330.299 197.349 331.956 196.712C333.612 196.075 335.052 195.145 336.276 193.922C337.499 192.673 338.442 191.169 339.104 189.411C339.767 187.652 340.098 185.664 340.098 183.447C340.098 181.205 339.767 179.217 339.104 177.484C338.442 175.725 337.499 174.235 336.276 173.011C335.052 171.762 333.612 170.82 331.956 170.182C330.299 169.52 328.465 169.188 326.451 169.188C324.463 169.188 322.628 169.52 320.946 170.182C319.29 170.82 317.85 171.762 316.627 173.011C315.403 174.235 314.46 175.725 313.798 177.484C313.135 179.217 312.804 181.205 312.804 183.447C312.804 185.664 313.135 187.652 313.798 189.411C314.46 191.169 315.403 192.673 316.627 193.922C317.85 195.145 319.29 196.075 320.946 196.712ZM330.045 194.266C329 194.75 327.802 194.992 326.451 194.992C325.126 194.992 323.915 194.75 322.82 194.266C321.749 193.781 320.844 193.068 320.105 192.125C319.366 191.157 318.793 189.946 318.385 188.493C318.003 187.041 317.812 185.359 317.812 183.447C317.812 181.536 318.003 179.854 318.385 178.401C318.793 176.949 319.366 175.751 320.105 174.808C320.87 173.839 321.787 173.113 322.858 172.629C323.928 172.145 325.126 171.903 326.451 171.903C327.802 171.903 329 172.145 330.045 172.629C331.115 173.113 332.02 173.839 332.759 174.808C333.523 175.751 334.097 176.949 334.479 178.401C334.887 179.854 335.091 181.536 335.091 183.447C335.091 185.359 334.887 187.041 334.479 188.493C334.097 189.946 333.523 191.157 332.759 192.125C332.02 193.068 331.115 193.781 330.045 194.266Z" fill="white"/>
<path d="M369.097 169.877H356.94V172.247H357.819C358.406 172.247 358.915 172.285 359.348 172.361C359.807 172.438 360.164 172.578 360.419 172.782C360.699 172.96 360.839 173.241 360.839 173.623V188.34C360.839 190.124 360.648 191.501 360.266 192.469C359.884 193.437 359.336 194.113 358.622 194.495C357.909 194.852 357.017 195.03 355.946 195.03C355.182 195.03 354.494 194.941 353.882 194.763C353.341 194.582 352.869 194.362 352.468 194.102V189.067H348.11V194.877C348.543 195.285 349.129 195.706 349.868 196.139C350.607 196.572 351.499 196.929 352.544 197.209C353.614 197.515 354.812 197.668 356.137 197.668C357.565 197.668 358.852 197.502 359.998 197.171C361.145 196.84 362.126 196.317 362.942 195.604C363.783 194.865 364.42 193.896 364.853 192.698C365.312 191.501 365.541 190.035 365.541 188.302V173.623C365.541 173.062 365.822 172.693 366.382 172.514C366.943 172.336 367.644 172.247 368.485 172.247H369.097V169.877Z" fill="white"/>
<path d="M399.177 197.018V188.455H396.463L395.966 192.775C395.94 193.106 395.826 193.386 395.622 193.616C395.443 193.82 395.163 193.985 394.781 194.113C394.424 194.24 393.953 194.329 393.366 194.38C392.806 194.431 392.118 194.457 391.302 194.457H385.339V184.289C385.911 184.315 386.48 184.34 387.047 184.366L387.862 184.403C388.983 184.454 390.092 184.518 391.188 184.594L394.551 184.747V181.421C393.43 181.472 392.309 181.536 391.188 181.612L387.823 181.765C387.009 181.803 386.181 181.841 385.339 181.879V172.438H390.69C391.71 172.438 392.538 172.489 393.175 172.591C393.812 172.667 394.297 172.833 394.628 173.088C394.959 173.317 395.15 173.661 395.201 174.12L395.584 177.484H398.26V169.877H377.273V172.247H377.693C378.534 172.247 379.235 172.336 379.796 172.514C380.356 172.693 380.637 173.062 380.637 173.623V193.272C380.637 193.832 380.356 194.202 379.796 194.38C379.235 194.559 378.534 194.648 377.693 194.648H377.273V197.018H399.177Z" fill="white"/>
<path d="M417.824 172.667C418.844 172.158 419.991 171.903 421.265 171.903C422.692 171.903 423.941 172.196 425.011 172.782C426.082 173.343 426.974 174.145 427.687 175.19C428.426 176.21 429 177.433 429.407 178.86H432.466V169.685H429.713L429.338 173.89C429.151 173.527 428.945 173.183 428.719 172.858C427.904 171.686 426.859 170.781 425.585 170.144C424.31 169.507 422.769 169.188 420.959 169.188C419.124 169.188 417.417 169.507 415.837 170.144C414.257 170.781 412.868 171.712 411.67 172.935C410.498 174.158 409.58 175.662 408.918 177.446C408.28 179.204 407.962 181.205 407.962 183.447C407.962 185.69 408.28 187.691 408.918 189.449C409.555 191.207 410.459 192.698 411.632 193.922C412.829 195.145 414.244 196.075 415.875 196.712C417.506 197.349 419.315 197.668 421.303 197.668C423.393 197.668 425.215 197.298 426.77 196.559C428.324 195.795 429.624 194.724 430.669 193.348C431.714 191.947 432.491 190.315 433.001 188.455L430.44 187.385C430.032 188.812 429.446 190.112 428.681 191.284C427.942 192.431 426.999 193.335 425.852 193.998C424.705 194.661 423.329 194.992 421.724 194.992C420.297 194.992 419.035 194.75 417.939 194.266C416.869 193.781 415.964 193.055 415.225 192.087C414.486 191.118 413.925 189.921 413.543 188.493C413.161 187.041 412.97 185.359 412.97 183.447C412.97 181.536 413.161 179.867 413.543 178.44C413.925 177.012 414.473 175.815 415.187 174.846C415.926 173.878 416.805 173.151 417.824 172.667Z" fill="white"/>
<path d="M451.263 172.4V193.272C451.263 193.832 450.97 194.202 450.384 194.38C449.797 194.559 449.071 194.648 448.204 194.648H447.555V197.018H459.711V194.648H459.023C458.182 194.648 457.468 194.559 456.882 194.38C456.296 194.202 456.003 193.832 456.003 193.272V172.4H457.838C458.959 172.4 459.851 172.463 460.514 172.591C461.202 172.693 461.712 172.884 462.043 173.164C462.374 173.419 462.553 173.776 462.578 174.235L462.999 178.707H465.675V169.877H441.591V178.707H444.267L444.688 174.235C444.739 173.776 444.917 173.419 445.223 173.164C445.554 172.884 446.051 172.693 446.714 172.591C447.402 172.463 448.307 172.4 449.428 172.4H451.263Z" fill="white"/>
<rect x="47.9404" y="273.285" width="27.3034" height="27.3023" rx="13.6511" fill="white"/>
<path d="M114.632 278.696C114.632 279.066 114.446 279.296 114.076 279.385L113.831 279.43L113.209 279.541L108.873 293.46H106.182L102.669 282.476L102.536 282.031L102.38 281.497L102.246 282.031L102.113 282.476L98.5554 293.46H95.8649L91.5512 279.541L90.9064 279.43L90.6618 279.385C90.2912 279.296 90.1059 279.066 90.1059 278.696V277.384H96.1095V278.696C96.1095 279.066 95.9242 279.296 95.5536 279.385C95.5091 279.385 95.472 279.393 95.4424 279.407L95.1978 279.474C95.0199 279.504 94.8939 279.533 94.8198 279.563L97.1101 287.679L97.3102 288.457L97.4658 289.347L97.666 288.457C97.7401 288.146 97.8142 287.886 97.8883 287.679L101.046 278.073C101.12 277.881 101.238 277.725 101.402 277.606C101.594 277.458 101.802 277.384 102.024 277.384H102.914C103.18 277.384 103.395 277.443 103.558 277.562C103.721 277.68 103.84 277.851 103.914 278.073L107.049 287.679C107.242 288.242 107.383 288.769 107.472 289.258C107.531 288.917 107.583 288.643 107.627 288.435C107.672 288.183 107.731 287.931 107.805 287.679L110.096 279.585L109.184 279.385C108.813 279.296 108.628 279.066 108.628 278.696V277.384H114.632V278.696ZM128.124 291.459C128.495 291.548 128.68 291.778 128.68 292.148V293.46H124.255V286.211C124.255 285.5 124.092 284.959 123.766 284.588C123.455 284.203 122.973 284.01 122.321 284.01C121.861 284.01 121.417 284.121 120.987 284.344C120.542 284.581 120.149 284.87 119.808 285.211V291.259L120.475 291.37C120.55 291.385 120.609 291.4 120.653 291.415C120.713 291.429 120.764 291.437 120.809 291.437L120.942 291.459C121.313 291.548 121.498 291.778 121.498 292.148V293.46H115.383V292.148C115.383 291.778 115.569 291.548 115.939 291.459L116.073 291.437C116.117 291.437 116.162 291.429 116.206 291.415C116.266 291.4 116.332 291.385 116.406 291.37L117.073 291.259V279.141L116.406 279.029C116.332 279.015 116.266 279 116.206 278.985C116.162 278.97 116.117 278.963 116.073 278.963L115.939 278.94C115.569 278.851 115.383 278.622 115.383 278.251V276.939H119.808V283.299C120.238 282.898 120.727 282.557 121.276 282.276C121.81 282.009 122.44 281.875 123.166 281.875C123.759 281.875 124.307 281.979 124.811 282.187C125.241 282.365 125.641 282.661 126.012 283.076C126.323 283.447 126.568 283.906 126.746 284.455C126.924 285.063 127.013 285.641 127.013 286.189V291.259L127.658 291.37L127.991 291.437L128.124 291.459ZM134.323 278.718C134.323 278.926 134.271 279.148 134.167 279.385C134.078 279.593 133.952 279.778 133.789 279.941C133.611 280.119 133.426 280.245 133.233 280.319C133.011 280.408 132.781 280.452 132.544 280.452C132.307 280.452 132.077 280.408 131.855 280.319C131.677 280.245 131.499 280.119 131.321 279.941C131.158 279.778 131.032 279.593 130.943 279.385C130.854 279.178 130.81 278.955 130.81 278.718C130.81 278.481 130.854 278.251 130.943 278.029C131.017 277.836 131.143 277.651 131.321 277.473C131.484 277.31 131.662 277.191 131.855 277.117C132.122 277.013 132.351 276.961 132.544 276.961C132.737 276.961 132.967 277.013 133.233 277.117C133.456 277.206 133.641 277.325 133.789 277.473C133.967 277.651 134.093 277.836 134.167 278.029C134.271 278.281 134.323 278.511 134.323 278.718ZM135.034 291.459C135.405 291.548 135.59 291.778 135.59 292.148V293.46H129.476V292.148C129.476 291.778 129.661 291.548 130.031 291.459L130.165 291.437L130.498 291.37L131.166 291.259V284.255L130.498 284.144C130.424 284.129 130.358 284.114 130.298 284.099C130.254 284.084 130.209 284.077 130.165 284.077L130.031 284.055C129.661 283.966 129.476 283.736 129.476 283.365V282.053H133.9V291.259L134.568 291.37C134.642 291.385 134.701 291.4 134.745 291.415C134.805 291.429 134.857 291.437 134.901 291.437L135.034 291.459ZM141.029 293.638C140.035 293.638 139.272 293.356 138.738 292.793C138.205 292.23 137.938 291.459 137.938 290.481V284.121H136.782C136.663 284.121 136.537 284.069 136.404 283.966C136.285 283.877 136.226 283.736 136.226 283.543V282.431L138.071 282.142L138.649 279.029C138.664 278.896 138.731 278.785 138.849 278.696C138.968 278.607 139.109 278.562 139.272 278.562H140.695V282.165H143.697V284.121H140.695V290.303C140.695 290.644 140.784 290.918 140.962 291.125C141.14 291.318 141.377 291.415 141.673 291.415C141.881 291.415 142.022 291.4 142.096 291.37L142.385 291.237L142.629 291.103C142.674 291.074 142.733 291.059 142.807 291.059C142.926 291.059 143 291.074 143.03 291.103L143.185 291.281L144.008 292.615C143.623 292.927 143.163 293.179 142.629 293.371C142.125 293.549 141.592 293.638 141.029 293.638ZM150.101 281.875C150.828 281.875 151.487 281.987 152.08 282.209C152.643 282.417 153.162 282.758 153.637 283.232C154.066 283.662 154.407 284.203 154.659 284.855C154.911 285.522 155.037 286.248 155.037 287.034C155.037 287.212 155.023 287.39 154.993 287.568C154.963 287.731 154.934 287.835 154.904 287.879C154.874 287.953 154.808 288.013 154.704 288.057C154.645 288.087 154.541 288.101 154.393 288.101H147.344C147.433 289.273 147.752 290.132 148.3 290.681C148.849 291.229 149.575 291.503 150.479 291.503C150.939 291.503 151.317 291.452 151.613 291.348C151.939 291.244 152.221 291.125 152.458 290.992C152.562 290.933 152.666 290.881 152.769 290.836C152.888 290.777 152.999 290.718 153.103 290.659C153.266 290.555 153.436 290.503 153.614 290.503C153.733 290.503 153.837 290.525 153.926 290.57C154 290.599 154.066 290.659 154.126 290.747L154.926 291.748C154.585 292.133 154.244 292.437 153.903 292.66C153.503 292.912 153.11 293.104 152.725 293.238C152.354 293.356 151.932 293.453 151.458 293.527C151.087 293.586 150.672 293.616 150.212 293.616C149.397 293.616 148.663 293.49 148.011 293.238C147.359 292.986 146.766 292.593 146.232 292.059C145.728 291.555 145.328 290.918 145.031 290.147C144.75 289.406 144.609 288.524 144.609 287.501C144.609 286.76 144.735 286.034 144.987 285.322C145.224 284.655 145.587 284.055 146.077 283.521C146.536 283.017 147.107 282.617 147.789 282.32C148.471 282.024 149.241 281.875 150.101 281.875ZM150.146 283.832C149.36 283.832 148.737 284.062 148.278 284.522C147.833 284.966 147.544 285.604 147.411 286.434H152.569C152.569 286.122 152.517 285.789 152.414 285.433C152.325 285.152 152.176 284.877 151.969 284.61C151.776 284.373 151.524 284.188 151.213 284.055C150.872 283.906 150.516 283.832 150.146 283.832Z" fill="white"/>
</svg>
