<svg width="838" height="408" viewBox="0 0 838 408" fill="none" xmlns="http://www.w3.org/2000/svg">
<mask id="mask0_422_3" style="mask-type:alpha" maskUnits="userSpaceOnUse" x="0" y="0" width="838" height="408">
<rect x="0.634277" y="0.377747" width="836.444" height="407.429" fill="#D9D9D9"/>
</mask>
<g mask="url(#mask0_422_3)">
<rect x="0.634277" y="0.377747" width="836.444" height="407.429" fill="#1F2937"/>
<path fill-rule="evenodd" clip-rule="evenodd" d="M512.85 1.30909L475.433 1.49314C467.096 1.53416 459.1 4.81499 453.137 10.6424L432.153 31.1477L446.724 1.60752L397.119 2.00323C393.37 2.03314 389.941 4.1843 388.281 7.54598C370.687 43.1613 367.578 52.7612 352.419 57.0147C343.617 59.4845 337.113 67.3384 338.551 76.3664L338.843 78.1966C414.104 65.3673 415.463 66.7424 476.757 52.5053C490.03 49.4224 507.066 16.9834 512.85 1.30909Z" fill="#374151"/>
<path fill-rule="evenodd" clip-rule="evenodd" d="M-116.421 143.123L-79.0048 142.939C-70.6669 142.898 -62.6716 139.617 -56.7081 133.79L-35.7243 113.285L-50.2953 142.825L-0.690463 142.429C3.05891 142.399 6.48719 140.248 8.14785 136.886C25.7417 101.271 28.8511 91.6713 44.0097 87.4177C52.8115 84.9479 59.316 77.0941 57.8777 68.0661L57.5861 66.2359C-17.6755 79.0651 -19.034 77.69 -80.3283 91.9271C-93.6009 95.01 -110.637 127.449 -116.421 143.123Z" fill="#4B5563"/>
<path fill-rule="evenodd" clip-rule="evenodd" d="M241.466 1.02162L204.05 1.20567C195.712 1.24668 187.716 4.52752 181.753 10.3549L160.769 30.8602L175.34 1.32004L125.735 1.71575C121.986 1.74567 118.558 3.89682 116.897 7.25851C99.3032 42.8738 96.1938 52.4737 81.0352 56.7272C72.2334 59.1971 65.7289 67.0509 67.1672 76.0789L67.4588 77.9091C142.72 65.0799 144.079 66.455 205.373 52.2178C218.646 49.1349 235.682 16.6959 241.466 1.02162Z" fill="#374151"/>
<path fill-rule="evenodd" clip-rule="evenodd" d="M154.929 143.733L192.345 143.549C200.683 143.508 208.678 140.227 214.641 134.4L235.625 113.895L221.054 143.435L270.659 143.039C274.409 143.009 277.837 140.858 279.497 137.496C297.091 101.881 300.201 92.281 315.359 88.0275C324.161 85.5576 330.666 77.7038 329.227 68.6758L328.936 66.8456C253.674 79.6748 252.316 78.2997 191.021 92.5369C177.749 95.6198 160.713 128.059 154.929 143.733Z" fill="#4B5563"/>
<path fill-rule="evenodd" clip-rule="evenodd" d="M377.158 1.16511L339.742 1.34916C331.404 1.39017 323.408 4.67101 317.445 10.4984L296.461 31.0037L311.032 1.46354L261.427 1.85925C257.678 1.88916 254.25 4.04032 252.589 7.402C234.995 43.0173 231.886 52.6172 216.727 56.8707C207.925 59.3406 201.421 67.1944 202.859 76.2224L203.151 78.0526C278.412 65.2234 279.771 66.5985 341.065 52.3613C354.338 49.2784 371.374 16.8394 377.158 1.16511Z" fill="#374151"/>
<path fill-rule="evenodd" clip-rule="evenodd" d="M19.2544 143.428L56.6705 143.244C65.0084 143.203 73.0037 139.922 78.9672 134.095L99.951 113.59L85.38 143.13L134.985 142.734C138.734 142.704 142.162 140.553 143.823 137.191C161.417 101.576 164.526 91.9763 179.685 87.7228C188.487 85.2529 194.991 77.3991 193.553 68.3711L193.261 66.5409C118 79.3701 116.641 77.995 55.347 92.2322C42.0744 95.3151 25.0384 127.754 19.2544 143.428Z" fill="#4B5563"/>
<path fill-rule="evenodd" clip-rule="evenodd" d="M105.824 0.394481L68.4081 0.578533C60.0702 0.619546 52.0749 3.90038 46.1114 9.7278L25.1276 30.233L39.6986 0.692905L-9.90624 1.08862C-13.6556 1.11853 -17.0839 3.26968 -18.7446 6.63137C-36.3384 42.2467 -39.4478 51.8466 -54.6064 56.1001C-63.4082 58.5699 -69.9127 66.4238 -68.4744 75.4517L-68.1828 77.282C7.07884 64.4527 8.43726 65.8278 69.7316 51.5907C83.0043 48.5078 100.04 16.0688 105.824 0.394481Z" fill="#374151"/>
<path fill-rule="evenodd" clip-rule="evenodd" d="M290.604 144.038L328.02 143.854C336.358 143.813 344.353 140.532 350.317 134.705L371.301 114.199L356.73 143.739L406.334 143.344C410.084 143.314 413.512 141.163 415.173 137.801C432.767 102.186 435.876 92.5859 451.035 88.3323C459.836 85.8625 466.341 78.0087 464.903 68.9807L464.611 67.1505C389.349 79.9797 387.991 78.6046 326.697 92.8417C313.424 95.9246 296.388 128.364 290.604 144.038Z" fill="#4B5563"/>
<path fill-rule="evenodd" clip-rule="evenodd" d="M410.212 150.693L372.796 150.877C364.458 150.918 356.463 154.199 350.499 160.027L329.515 180.532L344.086 150.992L294.481 151.387C290.732 151.417 287.304 153.568 285.643 156.93C268.049 192.545 264.94 202.145 249.781 206.399C240.979 208.869 234.475 216.722 235.913 225.75L236.205 227.581C311.467 214.751 312.825 216.127 374.119 201.889C387.392 198.806 404.428 166.368 410.212 150.693Z" fill="#6B7280"/>
<path fill-rule="evenodd" clip-rule="evenodd" d="M138.829 150.406L101.412 150.59C93.0746 150.631 85.0793 153.912 79.1158 159.739L58.132 180.244L72.703 150.704L23.0982 151.1C19.3488 151.13 15.9205 153.281 14.2598 156.643C-3.33398 192.258 -6.44346 201.858 -21.602 206.112C-30.4038 208.581 -36.9083 216.435 -35.47 225.463L-35.1784 227.293C40.0832 214.464 41.4417 215.839 102.736 201.602C116.009 198.519 133.045 166.08 138.829 150.406Z" fill="#6B7280"/>
<path fill-rule="evenodd" clip-rule="evenodd" d="M52.291 293.117L89.7071 292.933C98.045 292.892 106.04 289.612 112.004 283.784L132.988 263.279L118.417 292.819L168.021 292.423C171.771 292.393 175.199 290.242 176.86 286.881C194.454 251.265 197.563 241.665 212.722 237.412C221.523 234.942 228.028 227.088 226.59 218.06L226.298 216.23C151.036 229.059 149.678 227.684 88.3836 241.921C75.111 245.004 58.075 277.443 52.291 293.117Z" fill="#9CA3AF"/>
<path fill-rule="evenodd" clip-rule="evenodd" d="M274.52 150.549L237.104 150.733C228.767 150.774 220.771 154.055 214.808 159.883L193.824 180.388L208.395 150.848L158.79 151.243C155.041 151.273 151.612 153.424 149.952 156.786C132.358 192.401 129.248 202.001 114.09 206.255C105.288 208.725 98.7836 216.579 100.222 225.606L100.514 227.437C175.775 214.607 177.134 215.983 238.428 201.745C251.701 198.662 268.737 166.224 274.52 150.549Z" fill="#6B7280"/>
<path fill-rule="evenodd" clip-rule="evenodd" d="M-83.3838 292.813L-45.9677 292.628C-37.6298 292.587 -29.6345 289.307 -23.671 283.479L-2.68717 262.974L-17.2582 292.514L32.3466 292.118C36.096 292.088 39.5243 289.937 41.185 286.576C58.7788 250.96 61.8883 241.36 77.0468 237.107C85.8486 234.637 92.3531 226.783 90.9148 217.755L90.6232 215.925C15.3616 228.754 14.0032 227.379 -47.2912 241.616C-60.5638 244.699 -77.5998 277.138 -83.3838 292.813Z" fill="#9CA3AF"/>
<path fill-rule="evenodd" clip-rule="evenodd" d="M3.18649 149.779L-34.2296 149.963C-42.5675 150.004 -50.5628 153.285 -56.5263 159.112L-77.5101 179.617L-62.9391 150.077L-112.544 150.473C-116.293 150.503 -119.722 152.654 -121.382 156.016C-138.976 191.631 -142.086 201.231 -157.244 205.484C-166.046 207.954 -172.55 215.808 -171.112 224.836L-170.82 226.666C-95.5589 213.837 -94.2004 215.212 -32.9061 200.975C-19.6334 197.892 -2.59746 165.453 3.18649 149.779Z" fill="#6B7280"/>
<path fill-rule="evenodd" clip-rule="evenodd" d="M187.966 293.422L225.382 293.238C233.72 293.197 241.715 289.916 247.679 284.089L268.662 263.584L254.091 293.124L303.696 292.728C307.446 292.698 310.874 290.547 312.535 287.185C330.128 251.57 333.238 241.97 348.396 237.717C357.198 235.247 363.703 227.393 362.264 218.365L361.973 216.535C286.711 229.364 285.353 227.989 224.058 242.226C210.786 245.309 193.75 277.748 187.966 293.422Z" fill="#9CA3AF"/>
<path fill-rule="evenodd" clip-rule="evenodd" d="M427.5 143.123L464.916 142.939C473.254 142.898 481.249 139.617 487.213 133.79L508.197 113.285L493.626 142.825L543.23 142.429C546.98 142.399 550.408 140.248 552.069 136.886C569.663 101.271 572.772 91.6713 587.931 87.4177C596.732 84.9479 603.237 77.0941 601.799 68.0661L601.507 66.2359C526.245 79.0651 524.887 77.69 463.593 91.9271C450.32 95.01 433.284 127.449 427.5 143.123Z" fill="#4B5563"/>
<path fill-rule="evenodd" clip-rule="evenodd" d="M785.387 1.02156L747.971 1.20561C739.633 1.24662 731.637 4.52746 725.674 10.3549L704.69 30.8601L719.261 1.31998L669.656 1.71569C665.907 1.7456 662.479 3.89676 660.818 7.25844C643.224 42.8737 640.115 52.4736 624.956 56.7272C616.154 59.197 609.65 67.0509 611.088 76.0788L611.38 77.909C686.641 65.0798 688 66.4549 749.294 52.2178C762.567 49.1348 779.603 16.6959 785.387 1.02156Z" fill="#374151"/>
<path fill-rule="evenodd" clip-rule="evenodd" d="M698.85 143.733L736.266 143.549C744.604 143.508 752.599 140.227 758.562 134.4L779.546 113.894L764.975 143.435L814.58 143.039C818.329 143.009 821.758 140.858 823.418 137.496C841.012 101.881 844.122 92.2809 859.28 88.0274C868.082 85.5576 874.587 77.7037 873.148 68.6758L872.857 66.8455C797.595 79.6748 796.237 78.2997 734.942 92.5368C721.67 95.6197 704.634 128.059 698.85 143.733Z" fill="#4B5563"/>
<path fill-rule="evenodd" clip-rule="evenodd" d="M921.079 1.16504L883.662 1.3491C875.325 1.39011 867.329 4.67095 861.366 10.4984L840.382 31.0036L854.953 1.46347L805.348 1.85919C801.599 1.8891 798.171 4.04026 796.51 7.40194C778.916 43.0172 775.807 52.6171 760.648 56.8707C751.846 59.3405 745.342 67.1943 746.78 76.2223L747.072 78.0525C822.333 65.2233 823.692 66.5984 884.986 52.3612C898.259 49.2783 915.295 16.8394 921.079 1.16504Z" fill="#374151"/>
<path fill-rule="evenodd" clip-rule="evenodd" d="M563.175 143.428L600.591 143.244C608.929 143.203 616.925 139.922 622.888 134.095L643.872 113.59L629.301 143.13L678.906 142.734C682.655 142.704 686.083 140.553 687.744 137.191C705.338 101.576 708.447 91.9763 723.606 87.7227C732.408 85.2529 738.912 77.399 737.474 68.3711L737.182 66.5409C661.921 79.3701 660.562 77.995 599.268 92.2321C585.995 95.315 568.959 127.754 563.175 143.428Z" fill="#4B5563"/>
<path fill-rule="evenodd" clip-rule="evenodd" d="M649.745 0.39442L612.329 0.578472C603.991 0.619485 595.996 3.90032 590.032 9.72774L569.048 30.233L583.619 0.692844L534.015 1.08856C530.265 1.11847 526.837 3.26962 525.176 6.63131C507.583 42.2466 504.473 51.8465 489.315 56.1C480.513 58.5699 474.008 66.4237 475.447 75.4517L475.738 77.2819C551 64.4527 552.358 65.8278 613.653 51.5906C626.925 48.5077 643.961 16.0687 649.745 0.39442Z" fill="#374151"/>
<path fill-rule="evenodd" clip-rule="evenodd" d="M834.525 144.038L871.941 143.854C880.279 143.813 888.274 140.532 894.238 134.705L915.222 114.199L900.651 143.739L950.255 143.344C954.005 143.314 957.433 141.163 959.094 137.801C976.687 102.186 979.797 92.5859 994.955 88.3323C1003.76 85.8625 1010.26 78.0087 1008.82 68.9807L1008.53 67.1505C933.27 79.9797 931.912 78.6046 870.617 92.8417C857.345 95.9246 840.309 128.364 834.525 144.038Z" fill="#4B5563"/>
<path fill-rule="evenodd" clip-rule="evenodd" d="M954.133 150.693L916.717 150.877C908.379 150.918 900.384 154.199 894.421 160.027L873.437 180.532L888.008 150.992L838.403 151.387C834.653 151.417 831.225 153.568 829.565 156.93C811.971 192.545 808.861 202.145 793.703 206.399C784.901 208.869 778.396 216.722 779.835 225.75L780.126 227.581C855.388 214.751 856.746 216.127 918.041 201.889C931.313 198.806 948.349 166.368 954.133 150.693Z" fill="#6B7280"/>
<path fill-rule="evenodd" clip-rule="evenodd" d="M324.863 292.507L362.279 292.323C370.617 292.282 378.613 289.001 384.576 283.174L405.56 262.669L390.989 292.209L440.594 291.813C444.343 291.783 447.771 289.632 449.432 286.27C467.026 250.655 470.135 241.055 485.294 236.802C494.096 234.332 500.6 226.478 499.162 217.45L498.87 215.62C423.609 228.449 422.25 227.074 360.956 241.311C347.683 244.394 330.647 276.833 324.863 292.507Z" fill="#9CA3AF"/>
<path fill-rule="evenodd" clip-rule="evenodd" d="M682.749 150.406L645.333 150.59C636.996 150.631 629 153.912 623.037 159.739L602.053 180.244L616.624 150.704L567.019 151.1C563.27 151.13 559.841 153.281 558.181 156.643C540.587 192.258 537.477 201.858 522.319 206.112C513.517 208.581 507.013 216.435 508.451 225.463L508.743 227.293C584.004 214.464 585.363 215.839 646.657 201.602C659.93 198.519 676.966 166.08 682.749 150.406Z" fill="#6B7280"/>
<path fill-rule="evenodd" clip-rule="evenodd" d="M596.212 293.117L633.629 292.933C641.966 292.892 649.962 289.612 655.925 283.784L676.909 263.279L662.338 292.819L711.943 292.423C715.692 292.393 719.12 290.242 720.781 286.881C738.375 251.265 741.484 241.665 756.643 237.412C765.445 234.942 771.949 227.088 770.511 218.06L770.219 216.23C694.958 229.059 693.599 227.684 632.305 241.921C619.032 245.004 601.996 277.443 596.212 293.117Z" fill="#9CA3AF"/>
<path fill-rule="evenodd" clip-rule="evenodd" d="M818.442 150.549L781.026 150.733C772.688 150.774 764.693 154.055 758.729 159.883L737.745 180.388L752.316 150.848L702.711 151.243C698.962 151.273 695.534 153.424 693.873 156.786C676.279 192.401 673.17 202.001 658.011 206.255C649.209 208.725 642.705 216.579 644.143 225.606L644.435 227.437C719.697 214.607 721.055 215.983 782.349 201.745C795.622 198.662 812.658 166.224 818.442 150.549Z" fill="#6B7280"/>
<path fill-rule="evenodd" clip-rule="evenodd" d="M460.538 292.813L497.954 292.628C506.292 292.587 514.287 289.307 520.25 283.479L541.234 262.974L526.663 292.514L576.268 292.118C580.017 292.088 583.446 289.937 585.106 286.576C602.7 250.96 605.81 241.36 620.968 237.107C629.77 234.637 636.274 226.783 634.836 217.755L634.545 215.925C559.283 228.754 557.925 227.379 496.63 241.616C483.358 244.699 466.322 277.138 460.538 292.813Z" fill="#9CA3AF"/>
<path fill-rule="evenodd" clip-rule="evenodd" d="M547.108 149.779L509.692 149.963C501.354 150.004 493.359 153.285 487.395 159.112L466.411 179.617L480.982 150.077L431.377 150.473C427.628 150.503 424.2 152.654 422.539 156.016C404.945 191.631 401.836 201.231 386.677 205.484C377.875 207.954 371.371 215.808 372.809 224.836L373.101 226.666C448.363 213.837 449.721 215.212 511.015 200.975C524.288 197.892 541.324 165.453 547.108 149.779Z" fill="#6B7280"/>
<path fill-rule="evenodd" clip-rule="evenodd" d="M731.887 293.422L769.303 293.238C777.641 293.197 785.637 289.916 791.6 284.089L812.584 263.584L798.013 293.124L847.618 292.728C851.367 292.698 854.795 290.547 856.456 287.185C874.05 251.57 877.159 241.97 892.318 237.717C901.12 235.247 907.624 227.393 906.186 218.365L905.894 216.535C830.633 229.364 829.274 227.989 767.98 242.226C754.707 245.309 737.671 277.748 731.887 293.422Z" fill="#9CA3AF"/>
</g>
<rect x="55.5771" y="334.993" width="27.3034" height="27.3023" rx="13.6511" fill="#374151"/>
<rect x="248.285" y="334.993" width="27.3034" height="27.3023" rx="13.6511" fill="#4B5563"/>
<rect x="440.993" y="334.993" width="27.3034" height="27.3023" rx="13.6511" fill="#6B7280"/>
<rect x="638.964" y="334.993" width="27.3034" height="27.3023" rx="13.6511" fill="#9CA3AF"/>
<path d="M111.929 353.611C111.499 353.923 111.077 354.182 110.662 354.39C110.217 354.612 109.75 354.79 109.261 354.923C108.742 355.071 108.201 355.175 107.638 355.235C107 355.309 106.385 355.346 105.792 355.346C104.651 355.346 103.576 355.138 102.568 354.723C101.56 354.308 100.707 353.745 100.011 353.033C99.2696 352.277 98.7063 351.41 98.3208 350.432C97.9206 349.424 97.7205 348.319 97.7205 347.119C97.7205 345.873 97.9132 344.769 98.2986 343.805C98.6988 342.797 99.2621 341.93 99.9885 341.204C100.685 340.492 101.56 339.929 102.612 339.514C103.591 339.143 104.695 338.943 105.925 338.914H106.081C107.771 338.914 109.668 339.299 111.773 340.07V344.161H110.484C110.217 344.161 110.046 344.028 109.972 343.761C109.928 343.553 109.861 342.975 109.772 342.027C108.675 341.656 107.408 341.471 105.97 341.471C105.199 341.471 104.487 341.604 103.835 341.871C103.183 342.138 102.635 342.516 102.19 343.005C101.73 343.509 101.382 344.102 101.145 344.784C100.893 345.495 100.767 346.274 100.767 347.119C100.767 348.067 100.9 348.897 101.167 349.609C101.434 350.35 101.797 350.958 102.257 351.432C102.731 351.921 103.287 352.299 103.924 352.566C104.576 352.833 105.281 352.967 106.037 352.967C106.659 352.967 107.245 352.907 107.793 352.789C108.282 352.67 108.757 352.5 109.216 352.277V349.364H107.215C107.022 349.364 106.867 349.305 106.748 349.186C106.644 349.083 106.592 348.957 106.592 348.808V347.119H111.929V353.611ZM120.353 343.561C120.931 343.561 121.398 343.687 121.754 343.939L121.398 346.007C121.383 346.14 121.339 346.229 121.265 346.274C121.176 346.333 121.072 346.363 120.953 346.363C120.85 346.363 120.701 346.34 120.509 346.296C120.242 346.237 119.982 346.207 119.73 346.207C119.152 346.207 118.663 346.363 118.263 346.674C117.892 346.956 117.551 347.422 117.24 348.075V352.967L118.352 353.167C118.722 353.256 118.908 353.485 118.908 353.856V355.168H112.815V353.856C112.815 353.485 113 353.256 113.371 353.167L114.483 352.967V345.962L113.371 345.762C113 345.673 112.815 345.444 112.815 345.073V343.761H116.106C116.388 343.761 116.58 343.813 116.684 343.917C116.788 344.02 116.862 344.198 116.906 344.45L117.084 345.829C117.485 345.103 117.959 344.547 118.507 344.161C119.071 343.761 119.686 343.561 120.353 343.561ZM132.684 353.144C133.054 353.233 133.239 353.463 133.239 353.834V355.146H130.616C130.334 355.146 130.126 355.109 129.993 355.034C129.845 354.975 129.734 354.812 129.66 354.545L129.415 353.745C129.118 354.026 128.837 354.256 128.57 354.434C128.362 354.582 128.073 354.745 127.703 354.923C127.436 355.042 127.125 355.138 126.769 355.212C126.398 355.286 126.028 355.323 125.657 355.323C125.168 355.323 124.723 355.257 124.323 355.123C123.893 354.975 123.545 354.782 123.278 354.545C122.967 354.264 122.737 353.937 122.589 353.567C122.426 353.167 122.344 352.722 122.344 352.233C122.344 351.788 122.455 351.358 122.678 350.943C122.9 350.513 123.278 350.135 123.812 349.809C124.375 349.453 125.072 349.172 125.902 348.964C126.776 348.742 127.866 348.631 129.17 348.631V347.964C129.17 347.222 129.007 346.652 128.681 346.251C128.37 345.881 127.903 345.696 127.28 345.696C126.806 345.696 126.435 345.747 126.169 345.851C125.828 345.985 125.568 346.103 125.39 346.207L124.79 346.54C124.627 346.644 124.427 346.696 124.19 346.696C123.997 346.696 123.834 346.652 123.7 346.563C123.611 346.503 123.508 346.385 123.389 346.207L122.878 345.34C124.212 344.124 125.791 343.516 127.614 343.516C128.281 343.516 128.881 343.628 129.415 343.85C129.934 344.072 130.371 344.376 130.727 344.762C131.127 345.221 131.409 345.688 131.572 346.162C131.75 346.696 131.839 347.289 131.839 347.941V352.989L132.439 353.1L132.684 353.144ZM129.17 350.298C128.34 350.298 127.673 350.35 127.169 350.454C126.621 350.573 126.183 350.706 125.857 350.854C125.531 351.002 125.301 351.18 125.168 351.388C125.035 351.581 124.968 351.81 124.968 352.077C124.968 352.581 125.109 352.929 125.39 353.122C125.687 353.33 126.057 353.433 126.502 353.433C126.784 353.433 127.043 353.411 127.28 353.367C127.532 353.322 127.762 353.241 127.97 353.122C128.236 352.974 128.437 352.848 128.57 352.744C128.778 352.581 128.978 352.403 129.17 352.211V350.298ZM146.903 345.073C146.903 345.444 146.718 345.673 146.347 345.762C146.288 345.762 146.199 345.777 146.08 345.807C145.962 345.836 145.702 345.888 145.302 345.962L140.032 358.303C139.943 358.511 139.832 358.659 139.699 358.748C139.595 358.837 139.402 358.881 139.12 358.881H137.075L139.209 354.323L135.54 345.962C135.14 345.888 134.881 345.836 134.762 345.807C134.644 345.777 134.555 345.762 134.495 345.762C134.125 345.673 133.94 345.444 133.94 345.073V343.761H139.498V345.073C139.498 345.444 139.313 345.673 138.943 345.762L138.409 345.851L140.21 350.187C140.269 350.321 140.314 350.439 140.343 350.543C140.373 350.647 140.395 350.728 140.41 350.787C140.44 350.891 140.492 351.099 140.566 351.41L140.766 350.787C140.855 350.521 140.929 350.321 140.988 350.187L142.656 345.896L141.9 345.762C141.529 345.673 141.344 345.444 141.344 345.073V343.761H146.903V345.073ZM153.648 349.609H147.866V347.296H153.648V349.609ZM165.797 340.137C165.797 340.537 165.716 340.878 165.553 341.159L158.949 354.456C158.726 354.931 158.37 355.168 157.881 355.168H156.458L163.151 342.027C163.388 341.597 163.603 341.278 163.796 341.071H156.681C156.592 342.049 156.532 342.605 156.503 342.738C156.458 342.99 156.31 343.116 156.058 343.116H154.968V339.247H165.797V340.137ZM178.671 347.208C178.671 348.645 178.523 349.854 178.226 350.832C177.9 351.914 177.492 352.759 177.003 353.367C176.44 354.063 175.825 354.56 175.158 354.857C174.416 355.183 173.66 355.346 172.89 355.346C172.119 355.346 171.363 355.183 170.622 354.857C169.954 354.56 169.339 354.063 168.776 353.367C168.287 352.759 167.879 351.914 167.553 350.832C167.257 349.854 167.108 348.645 167.108 347.208C167.108 345.77 167.257 344.562 167.553 343.583C167.879 342.501 168.287 341.656 168.776 341.048C169.339 340.352 169.954 339.855 170.622 339.559C171.363 339.232 172.119 339.069 172.89 339.069C173.66 339.069 174.416 339.232 175.158 339.559C175.825 339.855 176.44 340.352 177.003 341.048C177.492 341.656 177.9 342.501 178.226 343.583C178.537 344.606 178.693 345.814 178.693 347.208H178.671ZM176.625 347.23C176.625 346.059 176.521 345.043 176.314 344.183C176.106 343.309 175.832 342.642 175.491 342.182C175.121 341.663 174.72 341.3 174.29 341.093C173.846 340.87 173.379 340.759 172.89 340.759C172.386 340.759 171.911 340.87 171.467 341.093C171.037 341.3 170.636 341.663 170.266 342.182C169.94 342.627 169.673 343.287 169.465 344.161C169.258 345.021 169.154 346.036 169.154 347.208C169.154 348.393 169.258 349.416 169.465 350.276C169.688 351.18 169.954 351.847 170.266 352.277C170.622 352.766 171.022 353.122 171.467 353.345C171.911 353.567 172.386 353.678 172.89 353.678C173.394 353.678 173.868 353.567 174.313 353.345C174.743 353.137 175.143 352.774 175.513 352.255C175.839 351.81 176.106 351.151 176.314 350.276C176.521 349.416 176.625 348.401 176.625 347.23ZM191.765 347.208C191.765 348.645 191.616 349.854 191.32 350.832C190.994 351.914 190.586 352.759 190.097 353.367C189.534 354.063 188.918 354.56 188.251 354.857C187.51 355.183 186.754 355.346 185.983 355.346C185.213 355.346 184.457 355.183 183.715 354.857C183.048 354.56 182.433 354.063 181.87 353.367C181.381 352.759 180.973 351.914 180.647 350.832C180.35 349.854 180.202 348.645 180.202 347.208C180.202 345.77 180.35 344.562 180.647 343.583C180.973 342.501 181.381 341.656 181.87 341.048C182.433 340.352 183.048 339.855 183.715 339.559C184.457 339.232 185.213 339.069 185.983 339.069C186.754 339.069 187.51 339.232 188.251 339.559C188.918 339.855 189.534 340.352 190.097 341.048C190.586 341.656 190.994 342.501 191.32 343.583C191.631 344.606 191.787 345.814 191.787 347.208H191.765ZM189.719 347.23C189.719 346.059 189.615 345.043 189.408 344.183C189.2 343.309 188.926 342.642 188.585 342.182C188.214 341.663 187.814 341.3 187.384 341.093C186.939 340.87 186.473 340.759 185.983 340.759C185.479 340.759 185.005 340.87 184.56 341.093C184.13 341.3 183.73 341.663 183.36 342.182C183.033 342.627 182.767 343.287 182.559 344.161C182.352 345.021 182.248 346.036 182.248 347.208C182.248 348.393 182.352 349.416 182.559 350.276C182.781 351.18 183.048 351.847 183.36 352.277C183.715 352.766 184.116 353.122 184.56 353.345C185.005 353.567 185.479 353.678 185.983 353.678C186.487 353.678 186.962 353.567 187.406 353.345C187.836 353.137 188.237 352.774 188.607 352.255C188.933 351.81 189.2 351.151 189.408 350.276C189.615 349.416 189.719 348.401 189.719 347.23Z" fill="white"/>
<path d="M304.636 353.611C304.207 353.923 303.784 354.182 303.369 354.39C302.924 354.612 302.457 354.79 301.968 354.923C301.449 355.071 300.908 355.175 300.345 355.235C299.708 355.309 299.092 355.346 298.499 355.346C297.358 355.346 296.283 355.138 295.275 354.723C294.267 354.308 293.415 353.745 292.718 353.033C291.977 352.277 291.414 351.41 291.028 350.432C290.628 349.424 290.428 348.319 290.428 347.119C290.428 345.873 290.621 344.769 291.006 343.805C291.406 342.797 291.97 341.93 292.696 341.204C293.393 340.492 294.267 339.929 295.32 339.514C296.298 339.143 297.403 338.943 298.633 338.914H298.789C300.478 338.914 302.376 339.299 304.481 340.07V344.161H303.191C302.924 344.161 302.754 344.028 302.68 343.761C302.635 343.553 302.569 342.975 302.48 342.027C301.383 341.656 300.115 341.471 298.677 341.471C297.907 341.471 297.195 341.604 296.543 341.871C295.891 342.138 295.342 342.516 294.897 343.005C294.438 343.509 294.089 344.102 293.852 344.784C293.6 345.495 293.474 346.274 293.474 347.119C293.474 348.067 293.608 348.897 293.875 349.609C294.141 350.35 294.505 350.958 294.964 351.432C295.438 351.921 295.994 352.299 296.632 352.566C297.284 352.833 297.988 352.967 298.744 352.967C299.367 352.967 299.952 352.907 300.501 352.789C300.99 352.67 301.464 352.5 301.924 352.277V349.364H299.923C299.73 349.364 299.574 349.305 299.456 349.186C299.352 349.083 299.3 348.957 299.3 348.808V347.119H304.636V353.611ZM313.06 343.561C313.639 343.561 314.106 343.687 314.461 343.939L314.106 346.007C314.091 346.14 314.046 346.229 313.972 346.274C313.883 346.333 313.779 346.363 313.661 346.363C313.557 346.363 313.409 346.34 313.216 346.296C312.949 346.237 312.69 346.207 312.438 346.207C311.86 346.207 311.371 346.363 310.97 346.674C310.6 346.956 310.259 347.422 309.947 348.075V352.967L311.059 353.167C311.43 353.256 311.615 353.485 311.615 353.856V355.168H305.523V353.856C305.523 353.485 305.708 353.256 306.079 353.167L307.19 352.967V345.962L306.079 345.762C305.708 345.673 305.523 345.444 305.523 345.073V343.761H308.813C309.095 343.761 309.288 343.813 309.392 343.917C309.495 344.02 309.569 344.198 309.614 344.45L309.792 345.829C310.192 345.103 310.666 344.547 311.215 344.161C311.778 343.761 312.393 343.561 313.06 343.561ZM325.391 353.144C325.762 353.233 325.947 353.463 325.947 353.834V355.146H323.323C323.042 355.146 322.834 355.109 322.701 355.034C322.552 354.975 322.441 354.812 322.367 354.545L322.122 353.745C321.826 354.026 321.544 354.256 321.278 354.434C321.07 354.582 320.781 354.745 320.41 354.923C320.144 355.042 319.832 355.138 319.476 355.212C319.106 355.286 318.735 355.323 318.365 355.323C317.875 355.323 317.431 355.257 317.031 355.123C316.601 354.975 316.252 354.782 315.985 354.545C315.674 354.264 315.444 353.937 315.296 353.567C315.133 353.167 315.052 352.722 315.052 352.233C315.052 351.788 315.163 351.358 315.385 350.943C315.607 350.513 315.985 350.135 316.519 349.809C317.082 349.453 317.779 349.172 318.609 348.964C319.484 348.742 320.573 348.631 321.878 348.631V347.964C321.878 347.222 321.715 346.652 321.389 346.251C321.077 345.881 320.61 345.696 319.988 345.696C319.514 345.696 319.143 345.747 318.876 345.851C318.535 345.985 318.276 346.103 318.098 346.207L317.497 346.54C317.334 346.644 317.134 346.696 316.897 346.696C316.704 346.696 316.541 346.652 316.408 346.563C316.319 346.503 316.215 346.385 316.097 346.207L315.585 345.34C316.919 344.124 318.498 343.516 320.321 343.516C320.988 343.516 321.589 343.628 322.122 343.85C322.641 344.072 323.079 344.376 323.434 344.762C323.835 345.221 324.116 345.688 324.279 346.162C324.457 346.696 324.546 347.289 324.546 347.941V352.989L325.147 353.1L325.391 353.144ZM321.878 350.298C321.048 350.298 320.381 350.35 319.877 350.454C319.328 350.573 318.891 350.706 318.565 350.854C318.239 351.002 318.009 351.18 317.875 351.388C317.742 351.581 317.675 351.81 317.675 352.077C317.675 352.581 317.816 352.929 318.098 353.122C318.394 353.33 318.765 353.433 319.21 353.433C319.491 353.433 319.751 353.411 319.988 353.367C320.24 353.322 320.47 353.241 320.677 353.122C320.944 352.974 321.144 352.848 321.278 352.744C321.485 352.581 321.685 352.403 321.878 352.211V350.298ZM339.61 345.073C339.61 345.444 339.425 345.673 339.054 345.762C338.995 345.762 338.906 345.777 338.788 345.807C338.669 345.836 338.41 345.888 338.009 345.962L332.74 358.303C332.651 358.511 332.539 358.659 332.406 358.748C332.302 358.837 332.11 358.881 331.828 358.881H329.782L331.917 354.323L328.248 345.962C327.848 345.888 327.588 345.836 327.47 345.807C327.351 345.777 327.262 345.762 327.203 345.762C326.832 345.673 326.647 345.444 326.647 345.073V343.761H332.206V345.073C332.206 345.444 332.021 345.673 331.65 345.762L331.116 345.851L332.917 350.187C332.977 350.321 333.021 350.439 333.051 350.543C333.081 350.647 333.103 350.728 333.118 350.787C333.147 350.891 333.199 351.099 333.273 351.41L333.473 350.787C333.562 350.521 333.636 350.321 333.696 350.187L335.363 345.896L334.607 345.762C334.237 345.673 334.051 345.444 334.051 345.073V343.761H339.61V345.073ZM346.488 349.342H341.019V347.652H346.488V349.342ZM354.156 345.429C354.838 345.429 355.445 345.532 355.979 345.74C356.527 345.948 357.024 346.251 357.469 346.652C357.884 347.022 358.232 347.519 358.514 348.141C358.751 348.66 358.87 349.327 358.87 350.143C358.87 350.884 358.736 351.566 358.469 352.188C358.188 352.841 357.817 353.389 357.358 353.834C356.854 354.308 356.275 354.679 355.623 354.945C354.956 355.212 354.215 355.346 353.4 355.346C352.599 355.346 351.873 355.212 351.221 354.945C350.524 354.664 349.975 354.308 349.575 353.878C349.101 353.374 348.745 352.803 348.508 352.166C348.271 351.514 348.152 350.765 348.152 349.92C348.152 349.224 348.308 348.475 348.619 347.674C348.916 346.918 349.412 346.074 350.109 345.14L354.133 339.692C354.208 339.588 354.348 339.484 354.556 339.381C354.734 339.292 354.949 339.247 355.201 339.247H356.957L351.443 346.229C351.814 345.962 352.229 345.762 352.688 345.629C353.177 345.481 353.674 345.406 354.178 345.406L354.156 345.429ZM350.064 350.276C350.064 350.721 350.138 351.18 350.287 351.655C350.42 352.07 350.635 352.44 350.932 352.766C351.169 353.018 351.517 353.248 351.977 353.456C352.347 353.619 352.814 353.7 353.377 353.7C353.896 353.7 354.378 353.611 354.823 353.433C355.297 353.241 355.668 353.011 355.935 352.744C356.216 352.463 356.453 352.107 356.646 351.677C356.824 351.277 356.913 350.825 356.913 350.321C356.913 349.787 356.824 349.312 356.646 348.897C356.453 348.423 356.224 348.067 355.957 347.83C355.645 347.534 355.29 347.311 354.889 347.163C354.504 347.015 354.052 346.941 353.533 346.941C352.999 346.941 352.51 347.03 352.066 347.208C351.665 347.371 351.302 347.615 350.976 347.941C350.68 348.238 350.45 348.594 350.287 349.009C350.138 349.394 350.064 349.816 350.064 350.276ZM371.791 347.208C371.791 348.645 371.643 349.854 371.346 350.832C371.02 351.914 370.612 352.759 370.123 353.367C369.56 354.063 368.945 354.56 368.278 354.857C367.537 355.183 366.781 355.346 366.01 355.346C365.239 355.346 364.483 355.183 363.742 354.857C363.075 354.56 362.459 354.063 361.896 353.367C361.407 352.759 360.999 351.914 360.673 350.832C360.377 349.854 360.228 348.645 360.228 347.208C360.228 345.77 360.377 344.562 360.673 343.583C360.999 342.501 361.407 341.656 361.896 341.048C362.459 340.352 363.075 339.855 363.742 339.559C364.483 339.232 365.239 339.069 366.01 339.069C366.781 339.069 367.537 339.232 368.278 339.559C368.945 339.855 369.56 340.352 370.123 341.048C370.612 341.656 371.02 342.501 371.346 343.583C371.657 344.606 371.813 345.814 371.813 347.208H371.791ZM369.745 347.23C369.745 346.059 369.641 345.043 369.434 344.183C369.226 343.309 368.952 342.642 368.611 342.182C368.241 341.663 367.84 341.3 367.411 341.093C366.966 340.87 366.499 340.759 366.01 340.759C365.506 340.759 365.031 340.87 364.587 341.093C364.157 341.3 363.756 341.663 363.386 342.182C363.06 342.627 362.793 343.287 362.585 344.161C362.378 345.021 362.274 346.036 362.274 347.208C362.274 348.393 362.378 349.416 362.585 350.276C362.808 351.18 363.075 351.847 363.386 352.277C363.742 352.766 364.142 353.122 364.587 353.345C365.031 353.567 365.506 353.678 366.01 353.678C366.514 353.678 366.988 353.567 367.433 353.345C367.863 353.137 368.263 352.774 368.633 352.255C368.96 351.81 369.226 351.151 369.434 350.276C369.641 349.416 369.745 348.401 369.745 347.23ZM384.885 347.208C384.885 348.645 384.736 349.854 384.44 350.832C384.114 351.914 383.706 352.759 383.217 353.367C382.654 354.063 382.039 354.56 381.371 354.857C380.63 355.183 379.874 355.346 379.103 355.346C378.333 355.346 377.577 355.183 376.835 354.857C376.168 354.56 375.553 354.063 374.99 353.367C374.501 352.759 374.093 351.914 373.767 350.832C373.47 349.854 373.322 348.645 373.322 347.208C373.322 345.77 373.47 344.562 373.767 343.583C374.093 342.501 374.501 341.656 374.99 341.048C375.553 340.352 376.168 339.855 376.835 339.559C377.577 339.232 378.333 339.069 379.103 339.069C379.874 339.069 380.63 339.232 381.371 339.559C382.039 339.855 382.654 340.352 383.217 341.048C383.706 341.656 384.114 342.501 384.44 343.583C384.751 344.606 384.907 345.814 384.907 347.208H384.885ZM382.839 347.23C382.839 346.059 382.735 345.043 382.528 344.183C382.32 343.309 382.046 342.642 381.705 342.182C381.334 341.663 380.934 341.3 380.504 341.093C380.06 340.87 379.593 340.759 379.103 340.759C378.599 340.759 378.125 340.87 377.68 341.093C377.25 341.3 376.85 341.663 376.48 342.182C376.154 342.627 375.887 343.287 375.679 344.161C375.472 345.021 375.368 346.036 375.368 347.208C375.368 348.393 375.472 349.416 375.679 350.276C375.902 351.18 376.168 351.847 376.48 352.277C376.835 352.766 377.236 353.122 377.68 353.345C378.125 353.567 378.599 353.678 379.103 353.678C379.607 353.678 380.082 353.567 380.527 353.345C380.956 353.137 381.357 352.774 381.727 352.255C382.053 351.81 382.32 351.151 382.528 350.276C382.735 349.416 382.839 348.401 382.839 347.23Z" fill="white"/>
<path d="M497.345 353.611C496.915 353.923 496.492 354.182 496.077 354.39C495.632 354.612 495.165 354.79 494.676 354.923C494.157 355.071 493.616 355.175 493.053 355.235C492.416 355.309 491.8 355.346 491.208 355.346C490.066 355.346 488.991 355.138 487.983 354.723C486.975 354.308 486.123 353.745 485.426 353.033C484.685 352.277 484.122 351.41 483.736 350.432C483.336 349.424 483.136 348.319 483.136 347.119C483.136 345.873 483.329 344.769 483.714 343.805C484.114 342.797 484.678 341.93 485.404 341.204C486.101 340.492 486.975 339.929 488.028 339.514C489.006 339.143 490.111 338.943 491.341 338.914H491.497C493.186 338.914 495.084 339.299 497.189 340.07V344.161H495.899C495.632 344.161 495.462 344.028 495.388 343.761C495.343 343.553 495.277 342.975 495.188 342.027C494.091 341.656 492.823 341.471 491.385 341.471C490.615 341.471 489.903 341.604 489.251 341.871C488.599 342.138 488.05 342.516 487.605 343.005C487.146 343.509 486.797 344.102 486.56 344.784C486.308 345.495 486.182 346.274 486.182 347.119C486.182 348.067 486.316 348.897 486.583 349.609C486.849 350.35 487.213 350.958 487.672 351.432C488.146 351.921 488.702 352.299 489.34 352.566C489.992 352.833 490.696 352.967 491.452 352.967C492.075 352.967 492.66 352.907 493.209 352.789C493.698 352.67 494.172 352.5 494.632 352.277V349.364H492.631C492.438 349.364 492.282 349.305 492.164 349.186C492.06 349.083 492.008 348.957 492.008 348.808V347.119H497.345V353.611ZM505.768 343.561C506.347 343.561 506.814 343.687 507.169 343.939L506.814 346.007C506.799 346.14 506.754 346.229 506.68 346.274C506.591 346.333 506.487 346.363 506.369 346.363C506.265 346.363 506.117 346.34 505.924 346.296C505.657 346.237 505.398 346.207 505.146 346.207C504.568 346.207 504.079 346.363 503.678 346.674C503.308 346.956 502.967 347.422 502.655 348.075V352.967L503.767 353.167C504.138 353.256 504.323 353.485 504.323 353.856V355.168H498.231V353.856C498.231 353.485 498.416 353.256 498.787 353.167L499.898 352.967V345.962L498.787 345.762C498.416 345.673 498.231 345.444 498.231 345.073V343.761H501.521C501.803 343.761 501.996 343.813 502.1 343.917C502.203 344.02 502.277 344.198 502.322 344.45L502.5 345.829C502.9 345.103 503.374 344.547 503.923 344.161C504.486 343.761 505.101 343.561 505.768 343.561ZM518.099 353.144C518.47 353.233 518.655 353.463 518.655 353.834V355.146H516.031C515.75 355.146 515.542 355.109 515.409 355.034C515.26 354.975 515.149 354.812 515.075 354.545L514.83 353.745C514.534 354.026 514.252 354.256 513.986 354.434C513.778 354.582 513.489 354.745 513.118 354.923C512.852 355.042 512.54 355.138 512.184 355.212C511.814 355.286 511.443 355.323 511.073 355.323C510.584 355.323 510.139 355.257 509.739 355.123C509.309 354.975 508.96 354.782 508.693 354.545C508.382 354.264 508.152 353.937 508.004 353.567C507.841 353.167 507.76 352.722 507.76 352.233C507.76 351.788 507.871 351.358 508.093 350.943C508.315 350.513 508.693 350.135 509.227 349.809C509.79 349.453 510.487 349.172 511.317 348.964C512.192 348.742 513.281 348.631 514.586 348.631V347.964C514.586 347.222 514.423 346.652 514.097 346.251C513.785 345.881 513.318 345.696 512.696 345.696C512.222 345.696 511.851 345.747 511.584 345.851C511.243 345.985 510.984 346.103 510.806 346.207L510.205 346.54C510.042 346.644 509.842 346.696 509.605 346.696C509.412 346.696 509.249 346.652 509.116 346.563C509.027 346.503 508.923 346.385 508.805 346.207L508.293 345.34C509.627 344.124 511.206 343.516 513.029 343.516C513.696 343.516 514.297 343.628 514.83 343.85C515.349 344.072 515.787 344.376 516.142 344.762C516.543 345.221 516.824 345.688 516.987 346.162C517.165 346.696 517.254 347.289 517.254 347.941V352.989L517.855 353.1L518.099 353.144ZM514.586 350.298C513.756 350.298 513.089 350.35 512.585 350.454C512.036 350.573 511.599 350.706 511.273 350.854C510.947 351.002 510.717 351.18 510.584 351.388C510.45 351.581 510.383 351.81 510.383 352.077C510.383 352.581 510.524 352.929 510.806 353.122C511.102 353.33 511.473 353.433 511.918 353.433C512.199 353.433 512.459 353.411 512.696 353.367C512.948 353.322 513.178 353.241 513.385 353.122C513.652 352.974 513.852 352.848 513.986 352.744C514.193 352.581 514.393 352.403 514.586 352.211V350.298ZM532.318 345.073C532.318 345.444 532.133 345.673 531.762 345.762C531.703 345.762 531.614 345.777 531.496 345.807C531.377 345.836 531.118 345.888 530.717 345.962L525.448 358.303C525.359 358.511 525.247 358.659 525.114 358.748C525.01 358.837 524.818 358.881 524.536 358.881H522.49L524.625 354.323L520.956 345.962C520.556 345.888 520.296 345.836 520.178 345.807C520.059 345.777 519.97 345.762 519.911 345.762C519.54 345.673 519.355 345.444 519.355 345.073V343.761H524.914V345.073C524.914 345.444 524.729 345.673 524.358 345.762L523.824 345.851L525.625 350.187C525.685 350.321 525.729 350.439 525.759 350.543C525.789 350.647 525.811 350.728 525.826 350.787C525.855 350.891 525.907 351.099 525.981 351.41L526.181 350.787C526.27 350.521 526.344 350.321 526.404 350.187L528.071 345.896L527.315 345.762C526.945 345.673 526.759 345.444 526.759 345.073V343.761H532.318V345.073ZM539.196 349.342H533.727V347.652H539.196V349.342ZM550.332 340.137C550.332 340.403 550.244 340.626 550.066 340.804C549.888 340.982 549.591 341.071 549.176 341.071H544.151L543.439 345.251C544.284 345.073 545.048 344.984 545.73 344.984C546.56 344.984 547.294 345.11 547.931 345.362C548.583 345.614 549.117 345.948 549.532 346.363C549.947 346.778 550.273 347.296 550.51 347.919C550.733 348.497 550.844 349.135 550.844 349.831C550.844 350.706 550.696 351.462 550.399 352.099C550.073 352.811 549.665 353.396 549.176 353.856C548.672 354.33 548.072 354.701 547.375 354.968C546.708 355.22 545.952 355.346 545.107 355.346C544.648 355.346 544.195 355.301 543.751 355.212C543.276 355.123 542.876 355.005 542.55 354.857C542.15 354.679 541.809 354.501 541.527 354.323C541.157 354.086 540.875 353.878 540.682 353.7L541.283 352.855C541.431 352.648 541.609 352.544 541.816 352.544C541.964 352.544 542.135 352.603 542.328 352.722C542.565 352.87 542.787 352.996 542.995 353.1C543.306 353.248 543.617 353.374 543.929 353.478C544.314 353.597 544.744 353.656 545.218 353.656C545.782 353.656 546.286 353.567 546.73 353.389C547.16 353.211 547.538 352.952 547.864 352.611C548.176 352.285 548.42 351.892 548.598 351.432C548.761 351.017 548.843 350.498 548.843 349.876C548.843 349.387 548.776 348.942 548.643 348.542C548.509 348.156 548.287 347.815 547.975 347.519C547.649 347.208 547.286 346.985 546.886 346.852C546.456 346.704 545.945 346.629 545.352 346.629C544.922 346.629 544.507 346.659 544.107 346.718C543.81 346.763 543.365 346.874 542.772 347.052L541.527 346.674L542.817 339.247H550.377V340.092L550.332 340.137ZM563.826 347.208C563.826 348.645 563.678 349.854 563.381 350.832C563.055 351.914 562.647 352.759 562.158 353.367C561.595 354.063 560.98 354.56 560.313 354.857C559.571 355.183 558.815 355.346 558.045 355.346C557.274 355.346 556.518 355.183 555.777 354.857C555.109 354.56 554.494 354.063 553.931 353.367C553.442 352.759 553.034 351.914 552.708 350.832C552.412 349.854 552.263 348.645 552.263 347.208C552.263 345.77 552.412 344.562 552.708 343.583C553.034 342.501 553.442 341.656 553.931 341.048C554.494 340.352 555.109 339.855 555.777 339.559C556.518 339.232 557.274 339.069 558.045 339.069C558.815 339.069 559.571 339.232 560.313 339.559C560.98 339.855 561.595 340.352 562.158 341.048C562.647 341.656 563.055 342.501 563.381 343.583C563.692 344.606 563.848 345.814 563.848 347.208H563.826ZM561.78 347.23C561.78 346.059 561.676 345.043 561.469 344.183C561.261 343.309 560.987 342.642 560.646 342.182C560.276 341.663 559.875 341.3 559.445 341.093C559.001 340.87 558.534 340.759 558.045 340.759C557.541 340.759 557.066 340.87 556.621 341.093C556.192 341.3 555.791 341.663 555.421 342.182C555.095 342.627 554.828 343.287 554.62 344.161C554.413 345.021 554.309 346.036 554.309 347.208C554.309 348.393 554.413 349.416 554.62 350.276C554.843 351.18 555.109 351.847 555.421 352.277C555.777 352.766 556.177 353.122 556.621 353.345C557.066 353.567 557.541 353.678 558.045 353.678C558.549 353.678 559.023 353.567 559.468 353.345C559.897 353.137 560.298 352.774 560.668 352.255C560.994 351.81 561.261 351.151 561.469 350.276C561.676 349.416 561.78 348.401 561.78 347.23ZM576.92 347.208C576.92 348.645 576.771 349.854 576.475 350.832C576.149 351.914 575.741 352.759 575.252 353.367C574.689 354.063 574.073 354.56 573.406 354.857C572.665 355.183 571.909 355.346 571.138 355.346C570.367 355.346 569.611 355.183 568.87 354.857C568.203 354.56 567.588 354.063 567.025 353.367C566.536 352.759 566.128 351.914 565.802 350.832C565.505 349.854 565.357 348.645 565.357 347.208C565.357 345.77 565.505 344.562 565.802 343.583C566.128 342.501 566.536 341.656 567.025 341.048C567.588 340.352 568.203 339.855 568.87 339.559C569.611 339.232 570.367 339.069 571.138 339.069C571.909 339.069 572.665 339.232 573.406 339.559C574.073 339.855 574.689 340.352 575.252 341.048C575.741 341.656 576.149 342.501 576.475 343.583C576.786 344.606 576.942 345.814 576.942 347.208H576.92ZM574.874 347.23C574.874 346.059 574.77 345.043 574.563 344.183C574.355 343.309 574.081 342.642 573.74 342.182C573.369 341.663 572.969 341.3 572.539 341.093C572.094 340.87 571.627 340.759 571.138 340.759C570.634 340.759 570.16 340.87 569.715 341.093C569.285 341.3 568.885 341.663 568.515 342.182C568.188 342.627 567.922 343.287 567.714 344.161C567.507 345.021 567.403 346.036 567.403 347.208C567.403 348.393 567.507 349.416 567.714 350.276C567.936 351.18 568.203 351.847 568.515 352.277C568.87 352.766 569.271 353.122 569.715 353.345C570.16 353.567 570.634 353.678 571.138 353.678C571.642 353.678 572.117 353.567 572.561 353.345C572.991 353.137 573.392 352.774 573.762 352.255C574.088 351.81 574.355 351.151 574.563 350.276C574.77 349.416 574.874 348.401 574.874 347.23Z" fill="white"/>
<path d="M695.315 353.611C694.885 353.923 694.463 354.182 694.048 354.39C693.603 354.612 693.136 354.79 692.647 354.923C692.128 355.071 691.587 355.175 691.024 355.235C690.386 355.309 689.771 355.346 689.178 355.346C688.037 355.346 686.962 355.138 685.954 354.723C684.946 354.308 684.094 353.745 683.397 353.033C682.656 352.277 682.092 351.41 681.707 350.432C681.307 349.424 681.107 348.319 681.107 347.119C681.107 345.873 681.299 344.769 681.685 343.805C682.085 342.797 682.648 341.93 683.375 341.204C684.071 340.492 684.946 339.929 685.999 339.514C686.977 339.143 688.081 338.943 689.312 338.914H689.467C691.157 338.914 693.055 339.299 695.16 340.07V344.161H693.87C693.603 344.161 693.433 344.028 693.358 343.761C693.314 343.553 693.247 342.975 693.158 342.027C692.061 341.656 690.794 341.471 689.356 341.471C688.585 341.471 687.874 341.604 687.221 341.871C686.569 342.138 686.021 342.516 685.576 343.005C685.117 343.509 684.768 344.102 684.531 344.784C684.279 345.495 684.153 346.274 684.153 347.119C684.153 348.067 684.286 348.897 684.553 349.609C684.82 350.35 685.183 350.958 685.643 351.432C686.117 351.921 686.673 352.299 687.31 352.566C687.963 352.833 688.667 352.967 689.423 352.967C690.045 352.967 690.631 352.907 691.179 352.789C691.669 352.67 692.143 352.5 692.602 352.277V349.364H690.601C690.409 349.364 690.253 349.305 690.134 349.186C690.031 349.083 689.979 348.957 689.979 348.808V347.119H695.315V353.611ZM703.739 343.561C704.317 343.561 704.784 343.687 705.14 343.939L704.784 346.007C704.769 346.14 704.725 346.229 704.651 346.274C704.562 346.333 704.458 346.363 704.34 346.363C704.236 346.363 704.088 346.34 703.895 346.296C703.628 346.237 703.369 346.207 703.117 346.207C702.538 346.207 702.049 346.363 701.649 346.674C701.278 346.956 700.937 347.422 700.626 348.075V352.967L701.738 353.167C702.109 353.256 702.294 353.485 702.294 353.856V355.168H696.201V353.856C696.201 353.485 696.387 353.256 696.757 353.167L697.869 352.967V345.962L696.757 345.762C696.387 345.673 696.201 345.444 696.201 345.073V343.761H699.492C699.774 343.761 699.967 343.813 700.07 343.917C700.174 344.02 700.248 344.198 700.293 344.45L700.471 345.829C700.871 345.103 701.345 344.547 701.894 344.161C702.457 343.761 703.072 343.561 703.739 343.561ZM716.07 353.144C716.44 353.233 716.626 353.463 716.626 353.834V355.146H714.002C713.72 355.146 713.513 355.109 713.379 355.034C713.231 354.975 713.12 354.812 713.046 354.545L712.801 353.745C712.505 354.026 712.223 354.256 711.956 354.434C711.749 354.582 711.46 354.745 711.089 354.923C710.822 355.042 710.511 355.138 710.155 355.212C709.785 355.286 709.414 355.323 709.043 355.323C708.554 355.323 708.109 355.257 707.709 355.123C707.279 354.975 706.931 354.782 706.664 354.545C706.353 354.264 706.123 353.937 705.975 353.567C705.812 353.167 705.73 352.722 705.73 352.233C705.73 351.788 705.841 351.358 706.064 350.943C706.286 350.513 706.664 350.135 707.198 349.809C707.761 349.453 708.458 349.172 709.288 348.964C710.163 348.742 711.252 348.631 712.557 348.631V347.964C712.557 347.222 712.394 346.652 712.067 346.251C711.756 345.881 711.289 345.696 710.667 345.696C710.192 345.696 709.822 345.747 709.555 345.851C709.214 345.985 708.954 346.103 708.777 346.207L708.176 346.54C708.013 346.644 707.813 346.696 707.576 346.696C707.383 346.696 707.22 346.652 707.087 346.563C706.998 346.503 706.894 346.385 706.775 346.207L706.264 345.34C707.598 344.124 709.177 343.516 711 343.516C711.667 343.516 712.268 343.628 712.801 343.85C713.32 344.072 713.757 344.376 714.113 344.762C714.513 345.221 714.795 345.688 714.958 346.162C715.136 346.696 715.225 347.289 715.225 347.941V352.989L715.825 353.1L716.07 353.144ZM712.557 350.298C711.726 350.298 711.059 350.35 710.555 350.454C710.007 350.573 709.57 350.706 709.244 350.854C708.917 351.002 708.688 351.18 708.554 351.388C708.421 351.581 708.354 351.81 708.354 352.077C708.354 352.581 708.495 352.929 708.777 353.122C709.073 353.33 709.444 353.433 709.888 353.433C710.17 353.433 710.429 353.411 710.667 353.367C710.919 353.322 711.148 353.241 711.356 353.122C711.623 352.974 711.823 352.848 711.956 352.744C712.164 352.581 712.364 352.403 712.557 352.211V350.298ZM730.289 345.073C730.289 345.444 730.104 345.673 729.733 345.762C729.674 345.762 729.585 345.777 729.466 345.807C729.348 345.836 729.088 345.888 728.688 345.962L723.418 358.303C723.329 358.511 723.218 358.659 723.085 358.748C722.981 358.837 722.788 358.881 722.507 358.881H720.461L722.596 354.323L718.927 345.962C718.526 345.888 718.267 345.836 718.148 345.807C718.03 345.777 717.941 345.762 717.882 345.762C717.511 345.673 717.326 345.444 717.326 345.073V343.761H722.885V345.073C722.885 345.444 722.699 345.673 722.329 345.762L721.795 345.851L723.596 350.187C723.655 350.321 723.7 350.439 723.73 350.543C723.759 350.647 723.781 350.728 723.796 350.787C723.826 350.891 723.878 351.099 723.952 351.41L724.152 350.787C724.241 350.521 724.315 350.321 724.374 350.187L726.042 345.896L725.286 345.762C724.915 345.673 724.73 345.444 724.73 345.073V343.761H730.289V345.073ZM737.167 349.342H731.697V347.652H737.167V349.342ZM750.727 350.565C750.727 350.654 750.69 350.75 750.616 350.854C750.556 350.943 750.453 350.988 750.304 350.988H748.325V355.168H746.569V350.988H739.52C739.372 350.988 739.246 350.943 739.142 350.854C739.038 350.765 738.964 350.661 738.92 350.543L738.742 349.52L746.48 339.247H748.325V349.431H750.727V350.565ZM746.591 342.227C746.591 342.004 746.613 341.782 746.658 341.56L740.876 349.431H746.569V342.849L746.591 342.227ZM763.512 347.208C763.512 348.645 763.364 349.854 763.067 350.832C762.741 351.914 762.333 352.759 761.844 353.367C761.281 354.063 760.666 354.56 759.999 354.857C759.258 355.183 758.502 355.346 757.731 355.346C756.96 355.346 756.204 355.183 755.463 354.857C754.796 354.56 754.18 354.063 753.617 353.367C753.128 352.759 752.72 351.914 752.394 350.832C752.098 349.854 751.949 348.645 751.949 347.208C751.949 345.77 752.098 344.562 752.394 343.583C752.72 342.501 753.128 341.656 753.617 341.048C754.18 340.352 754.796 339.855 755.463 339.559C756.204 339.232 756.96 339.069 757.731 339.069C758.502 339.069 759.258 339.232 759.999 339.559C760.666 339.855 761.281 340.352 761.844 341.048C762.333 341.656 762.741 342.501 763.067 343.583C763.378 344.606 763.534 345.814 763.534 347.208H763.512ZM761.466 347.23C761.466 346.059 761.362 345.043 761.155 344.183C760.947 343.309 760.673 342.642 760.332 342.182C759.962 341.663 759.561 341.3 759.132 341.093C758.687 340.87 758.22 340.759 757.731 340.759C757.227 340.759 756.752 340.87 756.308 341.093C755.878 341.3 755.477 341.663 755.107 342.182C754.781 342.627 754.514 343.287 754.306 344.161C754.099 345.021 753.995 346.036 753.995 347.208C753.995 348.393 754.099 349.416 754.306 350.276C754.529 351.18 754.796 351.847 755.107 352.277C755.463 352.766 755.863 353.122 756.308 353.345C756.752 353.567 757.227 353.678 757.731 353.678C758.235 353.678 758.709 353.567 759.154 353.345C759.584 353.137 759.984 352.774 760.354 352.255C760.681 351.81 760.947 351.151 761.155 350.276C761.362 349.416 761.466 348.401 761.466 347.23ZM776.606 347.208C776.606 348.645 776.457 349.854 776.161 350.832C775.835 351.914 775.427 352.759 774.938 353.367C774.375 354.063 773.76 354.56 773.092 354.857C772.351 355.183 771.595 355.346 770.824 355.346C770.054 355.346 769.298 355.183 768.556 354.857C767.889 354.56 767.274 354.063 766.711 353.367C766.222 352.759 765.814 351.914 765.488 350.832C765.191 349.854 765.043 348.645 765.043 347.208C765.043 345.77 765.191 344.562 765.488 343.583C765.814 342.501 766.222 341.656 766.711 341.048C767.274 340.352 767.889 339.855 768.556 339.559C769.298 339.232 770.054 339.069 770.824 339.069C771.595 339.069 772.351 339.232 773.092 339.559C773.76 339.855 774.375 340.352 774.938 341.048C775.427 341.656 775.835 342.501 776.161 343.583C776.472 344.606 776.628 345.814 776.628 347.208H776.606ZM774.56 347.23C774.56 346.059 774.456 345.043 774.249 344.183C774.041 343.309 773.767 342.642 773.426 342.182C773.055 341.663 772.655 341.3 772.225 341.093C771.781 340.87 771.314 340.759 770.824 340.759C770.32 340.759 769.846 340.87 769.401 341.093C768.971 341.3 768.571 341.663 768.201 342.182C767.875 342.627 767.608 343.287 767.4 344.161C767.193 345.021 767.089 346.036 767.089 347.208C767.089 348.393 767.193 349.416 767.4 350.276C767.623 351.18 767.889 351.847 768.201 352.277C768.556 352.766 768.957 353.122 769.401 353.345C769.846 353.567 770.32 353.678 770.824 353.678C771.328 353.678 771.803 353.567 772.248 353.345C772.677 353.137 773.078 352.774 773.448 352.255C773.774 351.81 774.041 351.151 774.249 350.276C774.456 349.416 774.56 348.401 774.56 347.23Z" fill="white"/>
</svg>
