<svg width="838" height="407" viewBox="0 0 838 407" fill="none" xmlns="http://www.w3.org/2000/svg">
<mask id="mask0_422_2" style="mask-type:alpha" maskUnits="userSpaceOnUse" x="0" y="0" width="838" height="407">
<rect x="0.634277" y="0.291687" width="836.444" height="406.124" fill="#D9D9D9"/>
</mask>
<g mask="url(#mask0_422_2)">
<path fill-rule="evenodd" clip-rule="evenodd" d="M512.85 1.40773L475.433 1.59178C467.096 1.63279 459.1 4.91363 453.137 10.741L432.153 31.2463L446.724 1.70615L397.119 2.10186C393.37 2.13177 389.941 4.28293 388.281 7.64461C370.687 43.2599 367.578 52.8598 352.419 57.1133C343.617 59.5832 337.113 67.437 338.551 76.465L338.843 78.2952C414.104 65.466 415.463 66.8411 476.757 52.6039C490.03 49.521 507.066 17.0821 512.85 1.40773Z" fill="#EFF6FF"/>
<path fill-rule="evenodd" clip-rule="evenodd" d="M-116.421 143.222L-79.0048 143.038C-70.6669 142.997 -62.6716 139.716 -56.7081 133.889L-35.7243 113.383L-50.2953 142.924L-0.690463 142.528C3.05891 142.498 6.48719 140.347 8.14785 136.985C25.7417 101.37 28.8511 91.7699 44.0097 87.5164C52.8115 85.0466 59.316 77.1927 57.8777 68.1648L57.5861 66.3345C-17.6755 79.1637 -19.034 77.7887 -80.3283 92.0258C-93.6009 95.1087 -110.637 127.548 -116.421 143.222Z" fill="#DBEAFE"/>
<path fill-rule="evenodd" clip-rule="evenodd" d="M241.466 1.12025L204.05 1.3043C195.712 1.34531 187.716 4.62615 181.753 10.4536L160.769 30.9588L175.34 1.41867L125.735 1.81439C121.986 1.8443 118.558 3.99545 116.897 7.35714C99.3032 42.9724 96.1938 52.5723 81.0352 56.8259C72.2334 59.2957 65.7289 67.1495 67.1672 76.1775L67.4588 78.0077C142.72 65.1785 144.079 66.5536 205.373 52.3165C218.646 49.2335 235.682 16.7946 241.466 1.12025Z" fill="#EFF6FF"/>
<path fill-rule="evenodd" clip-rule="evenodd" d="M154.929 143.832L192.345 143.648C200.683 143.607 208.678 140.326 214.641 134.498L235.625 113.993L221.054 143.533L270.659 143.138C274.409 143.108 277.837 140.957 279.497 137.595C297.091 101.98 300.201 92.3796 315.359 88.1261C324.161 85.6563 330.666 77.8024 329.227 68.7745L328.936 66.9442C253.674 79.7735 252.316 78.3984 191.021 92.6355C177.749 95.7184 160.713 128.157 154.929 143.832Z" fill="#DBEAFE"/>
<path fill-rule="evenodd" clip-rule="evenodd" d="M377.158 1.26374L339.742 1.44779C331.404 1.48881 323.408 4.76965 317.445 10.5971L296.461 31.1023L311.032 1.56217L261.427 1.95788C257.678 1.98779 254.25 4.13895 252.589 7.50064C234.995 43.1159 231.886 52.7158 216.727 56.9694C207.925 59.4392 201.421 67.293 202.859 76.321L203.151 78.1512C278.412 65.322 279.771 66.6971 341.065 52.4599C354.338 49.377 371.374 16.9381 377.158 1.26374Z" fill="#EFF6FF"/>
<path fill-rule="evenodd" clip-rule="evenodd" d="M19.2544 143.527L56.6705 143.343C65.0084 143.302 73.0037 140.021 78.9672 134.194L99.951 113.688L85.38 143.229L134.985 142.833C138.734 142.803 142.162 140.652 143.823 137.29C161.417 101.675 164.526 92.0749 179.685 87.8214C188.487 85.3516 194.991 77.4977 193.553 68.4698L193.261 66.6396C118 79.4688 116.641 78.0937 55.347 92.3308C42.0744 95.4137 25.0384 127.853 19.2544 143.527Z" fill="#DBEAFE"/>
<path fill-rule="evenodd" clip-rule="evenodd" d="M105.824 0.493098L68.4081 0.67715C60.0702 0.718163 52.0749 3.999 46.1114 9.82642L25.1276 30.3317L39.6986 0.791522L-9.90624 1.18724C-13.6556 1.21715 -17.0839 3.3683 -18.7446 6.72999C-36.3384 42.3453 -39.4478 51.9452 -54.6064 56.1987C-63.4082 58.6686 -69.9127 66.5224 -68.4744 75.5504L-68.1828 77.3806C7.07884 64.5513 8.43726 65.9264 69.7316 51.6893C83.0043 48.6064 100.04 16.1674 105.824 0.493098Z" fill="#EFF6FF"/>
<path fill-rule="evenodd" clip-rule="evenodd" d="M290.604 144.137L328.02 143.953C336.358 143.912 344.353 140.631 350.317 134.803L371.301 114.298L356.73 143.838L406.334 143.442C410.084 143.413 413.512 141.261 415.173 137.9C432.767 102.284 435.876 92.6845 451.035 88.431C459.836 85.9612 466.341 78.1073 464.903 69.0794L464.611 67.2491C389.349 80.0784 387.991 78.7033 326.697 92.9404C313.424 96.0233 296.388 128.462 290.604 144.137Z" fill="#DBEAFE"/>
<path fill-rule="evenodd" clip-rule="evenodd" d="M410.212 150.792L372.796 150.976C364.458 151.017 356.463 154.298 350.499 160.125L329.515 180.63L344.086 151.09L294.481 151.486C290.732 151.516 287.304 153.667 285.643 157.029C268.049 192.644 264.94 202.244 249.781 206.497C240.979 208.967 234.475 216.821 235.913 225.849L236.205 227.679C311.467 214.85 312.825 216.225 374.119 201.988C387.392 198.905 404.428 166.466 410.212 150.792Z" fill="#BFDBFE"/>
<path fill-rule="evenodd" clip-rule="evenodd" d="M138.829 150.505L101.412 150.689C93.0746 150.73 85.0793 154.01 79.1158 159.838L58.132 180.343L72.703 150.803L23.0982 151.199C19.3488 151.229 15.9205 153.38 14.2598 156.741C-3.33398 192.357 -6.44346 201.957 -21.602 206.21C-30.4038 208.68 -36.9083 216.534 -35.47 225.562L-35.1784 227.392C40.0832 214.563 41.4417 215.938 102.736 201.701C116.009 198.618 133.045 166.179 138.829 150.505Z" fill="#BFDBFE"/>
<path fill-rule="evenodd" clip-rule="evenodd" d="M52.291 293.216L89.7071 293.032C98.045 292.991 106.04 289.71 112.004 283.883L132.988 263.378L118.417 292.918L168.021 292.522C171.771 292.492 175.199 290.341 176.86 286.979C194.454 251.364 197.563 241.764 212.722 237.51C221.523 235.041 228.028 227.187 226.59 218.159L226.298 216.329C151.036 229.158 149.678 227.783 88.3836 242.02C75.111 245.103 58.075 277.542 52.291 293.216Z" fill="#93C5FD"/>
<path fill-rule="evenodd" clip-rule="evenodd" d="M274.52 150.648L237.104 150.832C228.767 150.873 220.771 154.154 214.808 159.981L193.824 180.486L208.395 150.946L158.79 151.342C155.041 151.372 151.612 153.523 149.952 156.885C132.358 192.5 129.248 202.1 114.09 206.353C105.288 208.823 98.7836 216.677 100.222 225.705L100.514 227.535C175.775 214.706 177.134 216.081 238.428 201.844C251.701 198.761 268.737 166.322 274.52 150.648Z" fill="#BFDBFE"/>
<path fill-rule="evenodd" clip-rule="evenodd" d="M-83.3838 292.911L-45.9677 292.727C-37.6298 292.686 -29.6345 289.405 -23.671 283.578L-2.68717 263.073L-17.2582 292.613L32.3466 292.217C36.096 292.187 39.5243 290.036 41.185 286.674C58.7788 251.059 61.8883 241.459 77.0468 237.206C85.8486 234.736 92.3531 226.882 90.9148 217.854L90.6232 216.024C15.3616 228.853 14.0032 227.478 -47.2912 241.715C-60.5638 244.798 -77.5998 277.237 -83.3838 292.911Z" fill="#93C5FD"/>
<path fill-rule="evenodd" clip-rule="evenodd" d="M3.18649 149.877L-34.2296 150.061C-42.5675 150.102 -50.5628 153.383 -56.5263 159.211L-77.5101 179.716L-62.9391 150.176L-112.544 150.571C-116.293 150.601 -119.722 152.752 -121.382 156.114C-138.976 191.729 -142.086 201.329 -157.244 205.583C-166.046 208.053 -172.55 215.907 -171.112 224.935L-170.82 226.765C-95.5589 213.936 -94.2004 215.311 -32.9061 201.073C-19.6334 197.991 -2.59746 165.552 3.18649 149.877Z" fill="#BFDBFE"/>
<path fill-rule="evenodd" clip-rule="evenodd" d="M187.966 293.521L225.382 293.337C233.72 293.296 241.715 290.015 247.679 284.187L268.662 263.682L254.091 293.222L303.696 292.827C307.446 292.797 310.874 290.646 312.535 287.284C330.128 251.669 333.238 242.069 348.396 237.815C357.198 235.345 363.703 227.492 362.264 218.464L361.973 216.633C286.711 229.463 285.353 228.087 224.058 242.325C210.786 245.407 193.75 277.846 187.966 293.521Z" fill="#93C5FD"/>
<path fill-rule="evenodd" clip-rule="evenodd" d="M427.5 143.222L464.916 143.038C473.254 142.997 481.249 139.716 487.213 133.889L508.197 113.383L493.626 142.924L543.23 142.528C546.98 142.498 550.408 140.347 552.069 136.985C569.663 101.37 572.772 91.7699 587.931 87.5164C596.732 85.0465 603.237 77.1927 601.799 68.1647L601.507 66.3345C526.245 79.1637 524.887 77.7886 463.593 92.0258C450.32 95.1087 433.284 127.548 427.5 143.222Z" fill="#DBEAFE"/>
<path fill-rule="evenodd" clip-rule="evenodd" d="M785.387 1.12023L747.971 1.30429C739.633 1.3453 731.637 4.62613 725.674 10.4536L704.69 30.9588L719.261 1.41866L669.656 1.81437C665.907 1.84428 662.479 3.99544 660.818 7.35712C643.224 42.9724 640.115 52.5723 624.956 56.8259C616.154 59.2957 609.65 67.1495 611.088 76.1775L611.38 78.0077C686.641 65.1785 688 66.5536 749.294 52.3164C762.567 49.2335 779.603 16.7946 785.387 1.12023Z" fill="#EFF6FF"/>
<path fill-rule="evenodd" clip-rule="evenodd" d="M698.85 143.832L736.266 143.648C744.604 143.607 752.599 140.326 758.562 134.498L779.546 113.993L764.975 143.533L814.58 143.138C818.329 143.108 821.758 140.956 823.418 137.595C841.012 101.98 844.122 92.3796 859.28 88.1261C868.082 85.6563 874.587 77.8024 873.148 68.7745L872.857 66.9442C797.595 79.7735 796.237 78.3984 734.942 92.6355C721.67 95.7184 704.634 128.157 698.85 143.832Z" fill="#DBEAFE"/>
<path fill-rule="evenodd" clip-rule="evenodd" d="M921.079 1.26374L883.662 1.44779C875.325 1.48881 867.329 4.76965 861.366 10.5971L840.382 31.1023L854.953 1.56217L805.348 1.95788C801.599 1.98779 798.171 4.13895 796.51 7.50064C778.916 43.1159 775.807 52.7158 760.648 56.9694C751.846 59.4392 745.342 67.293 746.78 76.321L747.072 78.1512C822.333 65.322 823.692 66.6971 884.986 52.4599C898.259 49.377 915.295 16.9381 921.079 1.26374Z" fill="#EFF6FF"/>
<path fill-rule="evenodd" clip-rule="evenodd" d="M563.175 143.527L600.591 143.343C608.929 143.302 616.925 140.021 622.888 134.194L643.872 113.688L629.301 143.229L678.906 142.833C682.655 142.803 686.083 140.652 687.744 137.29C705.338 101.675 708.447 92.0749 723.606 87.8214C732.408 85.3516 738.912 77.4977 737.474 68.4698L737.182 66.6395C661.921 79.4688 660.562 78.0937 599.268 92.3308C585.995 95.4137 568.959 127.853 563.175 143.527Z" fill="#DBEAFE"/>
<path fill-rule="evenodd" clip-rule="evenodd" d="M649.745 0.493083L612.329 0.677135C603.991 0.718148 595.996 3.99898 590.032 9.8264L569.048 30.3316L583.619 0.791507L534.015 1.18722C530.265 1.21713 526.837 3.36829 525.176 6.72997C507.583 42.3453 504.473 51.9452 489.315 56.1987C480.513 58.6685 474.008 66.5224 475.447 75.5503L475.738 77.3806C551 64.5513 552.358 65.9264 613.653 51.6893C626.925 48.6064 643.961 16.1674 649.745 0.493083Z" fill="#EFF6FF"/>
<path fill-rule="evenodd" clip-rule="evenodd" d="M834.525 144.137L871.941 143.953C880.279 143.912 888.274 140.631 894.238 134.803L915.222 114.298L900.651 143.838L950.255 143.442C954.005 143.413 957.433 141.261 959.094 137.9C976.687 102.284 979.797 92.6845 994.955 88.431C1003.76 85.9611 1010.26 78.1073 1008.82 69.0794L1008.53 67.2491C933.27 80.0783 931.912 78.7032 870.617 92.9404C857.345 96.0233 840.309 128.462 834.525 144.137Z" fill="#DBEAFE"/>
<path fill-rule="evenodd" clip-rule="evenodd" d="M954.133 150.792L916.717 150.976C908.379 151.017 900.384 154.298 894.421 160.125L873.437 180.63L888.008 151.09L838.403 151.486C834.653 151.516 831.225 153.667 829.565 157.029C811.971 192.644 808.861 202.244 793.703 206.497C784.901 208.967 778.396 216.821 779.835 225.849L780.126 227.679C855.388 214.85 856.746 216.225 918.041 201.988C931.313 198.905 948.349 166.466 954.133 150.792Z" fill="#BFDBFE"/>
<path fill-rule="evenodd" clip-rule="evenodd" d="M324.863 292.606L362.279 292.422C370.617 292.381 378.613 289.1 384.576 283.273L405.56 262.767L390.989 292.308L440.594 291.912C444.343 291.882 447.771 289.731 449.432 286.369C467.026 250.754 470.135 241.154 485.294 236.9C494.096 234.431 500.6 226.577 499.162 217.549L498.87 215.718C423.609 228.548 422.25 227.173 360.956 241.41C347.683 244.493 330.647 276.932 324.863 292.606Z" fill="#93C5FD"/>
<path fill-rule="evenodd" clip-rule="evenodd" d="M682.749 150.505L645.333 150.689C636.996 150.73 629 154.01 623.037 159.838L602.053 180.343L616.624 150.803L567.019 151.199C563.27 151.229 559.841 153.38 558.181 156.741C540.587 192.357 537.477 201.957 522.319 206.21C513.517 208.68 507.013 216.534 508.451 225.562L508.743 227.392C584.004 214.563 585.363 215.938 646.657 201.701C659.93 198.618 676.966 166.179 682.749 150.505Z" fill="#BFDBFE"/>
<path fill-rule="evenodd" clip-rule="evenodd" d="M596.212 293.216L633.629 293.032C641.966 292.991 649.962 289.71 655.925 283.883L676.909 263.378L662.338 292.918L711.943 292.522C715.692 292.492 719.12 290.341 720.781 286.979C738.375 251.364 741.484 241.764 756.643 237.51C765.445 235.041 771.949 227.187 770.511 218.159L770.219 216.329C694.958 229.158 693.599 227.783 632.305 242.02C619.032 245.103 601.996 277.542 596.212 293.216Z" fill="#93C5FD"/>
<path fill-rule="evenodd" clip-rule="evenodd" d="M818.442 150.648L781.026 150.832C772.688 150.873 764.693 154.154 758.729 159.981L737.745 180.486L752.316 150.946L702.711 151.342C698.962 151.372 695.534 153.523 693.873 156.885C676.279 192.5 673.17 202.1 658.011 206.353C649.209 208.823 642.705 216.677 644.143 225.705L644.435 227.535C719.697 214.706 721.055 216.081 782.349 201.844C795.622 198.761 812.658 166.322 818.442 150.648Z" fill="#BFDBFE"/>
<path fill-rule="evenodd" clip-rule="evenodd" d="M460.538 292.911L497.954 292.727C506.292 292.686 514.287 289.405 520.25 283.578L541.234 263.073L526.663 292.613L576.268 292.217C580.017 292.187 583.446 290.036 585.106 286.674C602.7 251.059 605.81 241.459 620.968 237.206C629.77 234.736 636.274 226.882 634.836 217.854L634.545 216.024C559.283 228.853 557.925 227.478 496.63 241.715C483.358 244.798 466.322 277.237 460.538 292.911Z" fill="#93C5FD"/>
<path fill-rule="evenodd" clip-rule="evenodd" d="M547.108 149.877L509.692 150.061C501.354 150.102 493.359 153.383 487.395 159.211L466.411 179.716L480.982 150.176L431.377 150.571C427.628 150.601 424.2 152.752 422.539 156.114C404.945 191.729 401.836 201.329 386.677 205.583C377.875 208.053 371.371 215.907 372.809 224.935L373.101 226.765C448.363 213.936 449.721 215.311 511.015 201.073C524.288 197.991 541.324 165.552 547.108 149.877Z" fill="#BFDBFE"/>
<path fill-rule="evenodd" clip-rule="evenodd" d="M731.887 293.521L769.303 293.337C777.641 293.296 785.637 290.015 791.6 284.187L812.584 263.682L798.013 293.222L847.618 292.827C851.367 292.797 854.795 290.646 856.456 287.284C874.05 251.669 877.159 242.069 892.318 237.815C901.12 235.345 907.624 227.492 906.186 218.464L905.894 216.633C830.633 229.463 829.274 228.087 767.98 242.325C754.707 245.407 737.671 277.846 731.887 293.521Z" fill="#93C5FD"/>
</g>
<rect x="55.5771" y="335.918" width="27.3034" height="27.3023" rx="13.6511" fill="#EFF6FF"/>
<rect x="248.285" y="335.918" width="27.3034" height="27.3023" rx="13.6511" fill="#DBEAFE"/>
<rect x="440.993" y="335.918" width="27.3034" height="27.3023" rx="13.6511" fill="#BFDBFE"/>
<rect x="638.964" y="335.918" width="27.3034" height="27.3023" rx="13.6511" fill="#93C5FD"/>
<path d="M108.149 347.777C110.358 348.266 111.462 349.46 111.462 351.357C111.462 352.039 111.329 352.669 111.062 353.247C110.795 353.84 110.417 354.344 109.928 354.759C109.468 355.159 108.86 355.485 108.104 355.737C107.393 355.975 106.563 356.093 105.614 356.093H97.8539V354.781C97.8539 354.411 98.0392 354.181 98.4098 354.092L98.5432 354.07C98.5877 354.07 98.6321 354.062 98.6766 354.048C98.7359 354.033 98.8026 354.018 98.8767 354.003L99.5438 353.892V342.218L98.8767 342.107C98.8026 342.092 98.7359 342.077 98.6766 342.063C98.6321 342.048 98.5877 342.04 98.5432 342.04L98.4098 342.018C98.0392 341.929 97.8539 341.699 97.8539 341.329V340.017H105.08C106.148 340.017 107.045 340.113 107.771 340.306C108.542 340.514 109.157 340.803 109.616 341.173C110.091 341.544 110.439 341.996 110.662 342.53C110.884 343.063 110.995 343.649 110.995 344.286C110.995 344.686 110.943 345.05 110.839 345.376C110.736 345.702 110.558 346.028 110.306 346.354C110.083 346.621 109.787 346.888 109.416 347.155C109.09 347.377 108.668 347.584 108.149 347.777ZM104.925 346.977C105.948 346.977 106.718 346.791 107.237 346.421C107.756 346.05 108.016 345.457 108.016 344.642C108.016 343.812 107.778 343.219 107.304 342.863C106.844 342.507 106.103 342.329 105.08 342.329H102.523V346.977H104.925ZM108.349 352.246C108.453 351.98 108.505 351.661 108.505 351.29C108.505 350.979 108.445 350.668 108.327 350.356C108.208 350.06 108.038 349.823 107.815 349.645C107.593 349.467 107.289 349.319 106.904 349.2C106.548 349.096 106.096 349.045 105.547 349.045H102.523V353.759H105.57C106.133 353.759 106.6 353.692 106.97 353.558C107.341 353.425 107.638 353.247 107.86 353.025C108.097 352.788 108.26 352.528 108.349 352.246ZM117.722 354.092C118.093 354.181 118.278 354.411 118.278 354.781V356.093H112.163V354.781C112.163 354.411 112.348 354.181 112.719 354.092L112.852 354.07L113.186 354.003L113.853 353.892V341.774L113.186 341.662C113.112 341.648 113.045 341.633 112.986 341.618C112.941 341.603 112.897 341.596 112.852 341.596L112.719 341.573C112.348 341.484 112.163 341.255 112.163 340.884V339.572H116.588V353.892L117.255 354.003L117.589 354.07L117.722 354.092ZM131.676 354.092C132.046 354.181 132.232 354.411 132.232 354.781V356.093H128.874C128.533 356.093 128.303 355.923 128.185 355.582L127.985 354.67C127.733 354.922 127.488 355.145 127.251 355.337C127.029 355.515 126.762 355.678 126.451 355.826C126.154 355.96 125.843 356.071 125.517 356.16C125.146 356.234 124.798 356.271 124.472 356.271C123.864 356.271 123.308 356.167 122.804 355.96C122.374 355.782 121.974 355.478 121.603 355.048C121.307 354.707 121.062 354.255 120.869 353.692C120.706 353.128 120.625 352.543 120.625 351.935V346.888L119.491 346.688C119.12 346.599 118.935 346.369 118.935 345.998V344.686H123.36V351.935C123.36 352.617 123.523 353.158 123.849 353.558C124.16 353.929 124.642 354.114 125.294 354.114C125.739 354.114 126.184 354.011 126.628 353.803C127.029 353.61 127.421 353.321 127.807 352.936V346.888C127.392 346.814 127.118 346.769 126.984 346.754C126.851 346.725 126.754 346.702 126.695 346.688C126.325 346.599 126.139 346.369 126.139 345.998V344.686H130.564V353.892L131.676 354.092ZM138.477 344.509C139.204 344.509 139.863 344.62 140.456 344.842C141.02 345.05 141.538 345.391 142.013 345.865C142.443 346.295 142.784 346.836 143.036 347.488C143.288 348.155 143.414 348.882 143.414 349.667C143.414 349.845 143.399 350.023 143.369 350.201C143.339 350.364 143.31 350.468 143.28 350.512C143.251 350.586 143.184 350.646 143.08 350.69C143.021 350.72 142.917 350.734 142.769 350.734H135.72C135.809 351.906 136.128 352.765 136.676 353.314C137.225 353.862 137.951 354.137 138.855 354.137C139.315 354.137 139.693 354.085 139.989 353.981C140.315 353.877 140.597 353.759 140.834 353.625C140.938 353.566 141.042 353.514 141.146 353.469C141.264 353.41 141.375 353.351 141.479 353.292C141.642 353.188 141.813 353.136 141.991 353.136C142.109 353.136 142.213 353.158 142.302 353.203C142.376 353.232 142.443 353.292 142.502 353.38L143.302 354.381C142.961 354.767 142.621 355.07 142.28 355.293C141.879 355.545 141.487 355.737 141.101 355.871C140.731 355.989 140.308 356.086 139.834 356.16C139.463 356.219 139.048 356.249 138.589 356.249C137.773 356.249 137.039 356.123 136.387 355.871C135.735 355.619 135.142 355.226 134.608 354.692C134.104 354.188 133.704 353.551 133.408 352.78C133.126 352.039 132.985 351.157 132.985 350.134C132.985 349.393 133.111 348.667 133.363 347.955C133.6 347.288 133.964 346.688 134.453 346.154C134.912 345.65 135.483 345.25 136.165 344.953C136.847 344.657 137.618 344.509 138.477 344.509ZM138.522 346.465C137.736 346.465 137.114 346.695 136.654 347.155C136.209 347.599 135.92 348.237 135.787 349.067H140.945C140.945 348.756 140.894 348.422 140.79 348.066C140.701 347.785 140.553 347.51 140.345 347.243C140.152 347.006 139.9 346.821 139.589 346.688C139.248 346.539 138.892 346.465 138.522 346.465ZM150.151 350.534H144.37V348.222H150.151V350.534ZM160.878 341.062C160.878 341.329 160.789 341.551 160.611 341.729C160.433 341.907 160.137 341.996 159.722 341.996H154.697L153.985 346.176C154.83 345.998 155.593 345.909 156.275 345.909C157.105 345.909 157.839 346.035 158.477 346.287C159.129 346.539 159.663 346.873 160.078 347.288C160.493 347.703 160.819 348.222 161.056 348.844C161.278 349.423 161.389 350.06 161.389 350.757C161.389 351.631 161.241 352.387 160.945 353.025C160.619 353.736 160.211 354.322 159.722 354.781C159.218 355.256 158.617 355.626 157.921 355.893C157.254 356.145 156.498 356.271 155.653 356.271C155.193 356.271 154.741 356.227 154.296 356.138C153.822 356.049 153.422 355.93 153.096 355.782C152.695 355.604 152.354 355.426 152.073 355.248C151.702 355.011 151.421 354.804 151.228 354.626L151.828 353.781C151.976 353.573 152.154 353.469 152.362 353.469C152.51 353.469 152.681 353.529 152.873 353.647C153.11 353.796 153.333 353.922 153.54 354.025C153.852 354.174 154.163 354.3 154.474 354.403C154.86 354.522 155.29 354.581 155.764 354.581C156.327 354.581 156.831 354.492 157.276 354.314C157.706 354.137 158.084 353.877 158.41 353.536C158.721 353.21 158.966 352.817 159.144 352.358C159.307 351.943 159.388 351.424 159.388 350.801C159.388 350.312 159.322 349.867 159.188 349.467C159.055 349.082 158.832 348.741 158.521 348.444C158.195 348.133 157.832 347.911 157.432 347.777C157.002 347.629 156.49 347.555 155.897 347.555C155.467 347.555 155.052 347.584 154.652 347.644C154.356 347.688 153.911 347.799 153.318 347.977L152.073 347.599L153.362 340.173H160.923V341.018L160.878 341.062ZM174.371 348.133C174.371 349.571 174.223 350.779 173.927 351.757C173.601 352.839 173.193 353.684 172.704 354.292C172.14 354.989 171.525 355.485 170.858 355.782C170.117 356.108 169.361 356.271 168.59 356.271C167.819 356.271 167.063 356.108 166.322 355.782C165.655 355.485 165.04 354.989 164.477 354.292C163.987 353.684 163.58 352.839 163.254 351.757C162.957 350.779 162.809 349.571 162.809 348.133C162.809 346.695 162.957 345.487 163.254 344.509C163.58 343.426 163.987 342.581 164.477 341.974C165.04 341.277 165.655 340.78 166.322 340.484C167.063 340.158 167.819 339.995 168.59 339.995C169.361 339.995 170.117 340.158 170.858 340.484C171.525 340.78 172.14 341.277 172.704 341.974C173.193 342.581 173.601 343.426 173.927 344.509C174.238 345.531 174.394 346.739 174.394 348.133H174.371ZM172.326 348.155C172.326 346.984 172.222 345.969 172.014 345.109C171.807 344.234 171.533 343.567 171.192 343.108C170.821 342.589 170.421 342.226 169.991 342.018C169.546 341.796 169.079 341.685 168.59 341.685C168.086 341.685 167.612 341.796 167.167 342.018C166.737 342.226 166.337 342.589 165.966 343.108C165.64 343.552 165.373 344.212 165.166 345.087C164.958 345.946 164.855 346.962 164.855 348.133C164.855 349.319 164.958 350.342 165.166 351.201C165.388 352.106 165.655 352.773 165.966 353.203C166.322 353.692 166.722 354.048 167.167 354.27C167.612 354.492 168.086 354.603 168.59 354.603C169.094 354.603 169.568 354.492 170.013 354.27C170.443 354.062 170.843 353.699 171.214 353.18C171.54 352.736 171.807 352.076 172.014 351.201C172.222 350.342 172.326 349.326 172.326 348.155Z" fill="#3B82F6"/>
<path d="M300.856 347.777C303.065 348.266 304.17 349.46 304.17 351.357C304.17 352.039 304.036 352.669 303.769 353.247C303.502 353.84 303.124 354.344 302.635 354.759C302.176 355.159 301.568 355.485 300.812 355.737C300.1 355.975 299.27 356.093 298.322 356.093H290.561V354.781C290.561 354.411 290.747 354.181 291.117 354.092L291.251 354.07C291.295 354.07 291.34 354.062 291.384 354.048C291.443 354.033 291.51 354.018 291.584 354.003L292.251 353.892V342.218L291.584 342.107C291.51 342.092 291.443 342.077 291.384 342.063C291.34 342.048 291.295 342.04 291.251 342.04L291.117 342.018C290.747 341.929 290.561 341.699 290.561 341.329V340.017H297.788C298.855 340.017 299.752 340.113 300.478 340.306C301.249 340.514 301.864 340.803 302.324 341.173C302.798 341.544 303.147 341.996 303.369 342.53C303.591 343.063 303.703 343.649 303.703 344.286C303.703 344.686 303.651 345.05 303.547 345.376C303.443 345.702 303.265 346.028 303.013 346.354C302.791 346.621 302.494 346.888 302.124 347.155C301.798 347.377 301.375 347.584 300.856 347.777ZM297.632 346.977C298.655 346.977 299.426 346.791 299.945 346.421C300.464 346.05 300.723 345.457 300.723 344.642C300.723 343.812 300.486 343.219 300.012 342.863C299.552 342.507 298.811 342.329 297.788 342.329H295.231V346.977H297.632ZM301.057 352.246C301.16 351.98 301.212 351.661 301.212 351.29C301.212 350.979 301.153 350.668 301.034 350.356C300.916 350.06 300.745 349.823 300.523 349.645C300.301 349.467 299.997 349.319 299.611 349.2C299.256 349.096 298.803 349.045 298.255 349.045H295.231V353.759H298.277C298.84 353.759 299.307 353.692 299.678 353.558C300.049 353.425 300.345 353.247 300.567 353.025C300.805 352.788 300.968 352.528 301.057 352.246ZM310.43 354.092C310.8 354.181 310.985 354.411 310.985 354.781V356.093H304.871V354.781C304.871 354.411 305.056 354.181 305.427 354.092L305.56 354.07L305.893 354.003L306.561 353.892V341.774L305.893 341.662C305.819 341.648 305.753 341.633 305.693 341.618C305.649 341.603 305.604 341.596 305.56 341.596L305.427 341.573C305.056 341.484 304.871 341.255 304.871 340.884V339.572H309.296V353.892L309.963 354.003L310.296 354.07L310.43 354.092ZM324.383 354.092C324.754 354.181 324.939 354.411 324.939 354.781V356.093H321.582C321.241 356.093 321.011 355.923 320.892 355.582L320.692 354.67C320.44 354.922 320.196 355.145 319.959 355.337C319.736 355.515 319.469 355.678 319.158 355.826C318.862 355.96 318.55 356.071 318.224 356.16C317.854 356.234 317.505 356.271 317.179 356.271C316.571 356.271 316.015 356.167 315.511 355.96C315.082 355.782 314.681 355.478 314.311 355.048C314.014 354.707 313.77 354.255 313.577 353.692C313.414 353.128 313.332 352.543 313.332 351.935V346.888L312.198 346.688C311.828 346.599 311.642 346.369 311.642 345.998V344.686H316.067V351.935C316.067 352.617 316.23 353.158 316.556 353.558C316.868 353.929 317.35 354.114 318.002 354.114C318.446 354.114 318.891 354.011 319.336 353.803C319.736 353.61 320.129 353.321 320.514 352.936V346.888C320.099 346.814 319.825 346.769 319.692 346.754C319.558 346.725 319.462 346.702 319.403 346.688C319.032 346.599 318.847 346.369 318.847 345.998V344.686H323.272V353.892L324.383 354.092ZM331.185 344.509C331.911 344.509 332.571 344.62 333.164 344.842C333.727 345.05 334.246 345.391 334.72 345.865C335.15 346.295 335.491 346.836 335.743 347.488C335.995 348.155 336.121 348.882 336.121 349.667C336.121 349.845 336.106 350.023 336.077 350.201C336.047 350.364 336.017 350.468 335.988 350.512C335.958 350.586 335.891 350.646 335.788 350.69C335.728 350.72 335.625 350.734 335.476 350.734H328.428C328.517 351.906 328.835 352.765 329.384 353.314C329.932 353.862 330.659 354.137 331.563 354.137C332.022 354.137 332.4 354.085 332.697 353.981C333.023 353.877 333.305 353.759 333.542 353.625C333.646 353.566 333.749 353.514 333.853 353.469C333.972 353.41 334.083 353.351 334.187 353.292C334.35 353.188 334.52 353.136 334.698 353.136C334.817 353.136 334.92 353.158 335.009 353.203C335.083 353.232 335.15 353.292 335.209 353.38L336.01 354.381C335.669 354.767 335.328 355.07 334.987 355.293C334.587 355.545 334.194 355.737 333.809 355.871C333.438 355.989 333.016 356.086 332.541 356.16C332.171 356.219 331.756 356.249 331.296 356.249C330.481 356.249 329.747 356.123 329.095 355.871C328.442 355.619 327.85 355.226 327.316 354.692C326.812 354.188 326.412 353.551 326.115 352.78C325.833 352.039 325.693 351.157 325.693 350.134C325.693 349.393 325.819 348.667 326.071 347.955C326.308 347.288 326.671 346.688 327.16 346.154C327.62 345.65 328.19 345.25 328.872 344.953C329.554 344.657 330.325 344.509 331.185 344.509ZM331.229 346.465C330.444 346.465 329.821 346.695 329.362 347.155C328.917 347.599 328.628 348.237 328.494 349.067H333.653C333.653 348.756 333.601 348.422 333.497 348.066C333.408 347.785 333.26 347.51 333.053 347.243C332.86 347.006 332.608 346.821 332.297 346.688C331.956 346.539 331.6 346.465 331.229 346.465ZM342.859 350.534H337.078V348.222H342.859V350.534ZM353.096 354.804C353.304 354.848 353.408 354.981 353.408 355.204V356.093H344.869V355.204C344.869 354.981 344.973 354.848 345.181 354.804L348.294 354.581V343.73C348.294 343.286 348.301 342.952 348.316 342.73L345.47 345.153C345.336 345.272 345.181 345.331 345.003 345.331C344.795 345.331 344.639 345.25 344.536 345.087L343.913 344.219L348.649 340.128H350.25V354.581L353.096 354.804ZM366.145 348.133C366.145 349.571 365.997 350.779 365.7 351.757C365.374 352.839 364.967 353.684 364.478 354.292C363.914 354.989 363.299 355.485 362.632 355.782C361.891 356.108 361.135 356.271 360.364 356.271C359.593 356.271 358.837 356.108 358.096 355.782C357.429 355.485 356.814 354.989 356.25 354.292C355.761 353.684 355.354 352.839 355.027 351.757C354.731 350.779 354.583 349.571 354.583 348.133C354.583 346.695 354.731 345.487 355.027 344.509C355.354 343.426 355.761 342.581 356.25 341.974C356.814 341.277 357.429 340.78 358.096 340.484C358.837 340.158 359.593 339.995 360.364 339.995C361.135 339.995 361.891 340.158 362.632 340.484C363.299 340.78 363.914 341.277 364.478 341.974C364.967 342.581 365.374 343.426 365.7 344.509C366.012 345.531 366.167 346.739 366.167 348.133H366.145ZM364.1 348.155C364.1 346.984 363.996 345.969 363.788 345.109C363.581 344.234 363.306 343.567 362.965 343.108C362.595 342.589 362.195 342.226 361.765 342.018C361.32 341.796 360.853 341.685 360.364 341.685C359.86 341.685 359.386 341.796 358.941 342.018C358.511 342.226 358.111 342.589 357.74 343.108C357.414 343.552 357.147 344.212 356.94 345.087C356.732 345.946 356.628 346.962 356.628 348.133C356.628 349.319 356.732 350.342 356.94 351.201C357.162 352.106 357.429 352.773 357.74 353.203C358.096 353.692 358.496 354.048 358.941 354.27C359.386 354.492 359.86 354.603 360.364 354.603C360.868 354.603 361.342 354.492 361.787 354.27C362.217 354.062 362.617 353.699 362.988 353.18C363.314 352.736 363.581 352.076 363.788 351.201C363.996 350.342 364.1 349.326 364.1 348.155ZM379.239 348.133C379.239 349.571 379.091 350.779 378.794 351.757C378.468 352.839 378.06 353.684 377.571 354.292C377.008 354.989 376.393 355.485 375.726 355.782C374.985 356.108 374.229 356.271 373.458 356.271C372.687 356.271 371.931 356.108 371.19 355.782C370.523 355.485 369.907 354.989 369.344 354.292C368.855 353.684 368.447 352.839 368.121 351.757C367.825 350.779 367.676 349.571 367.676 348.133C367.676 346.695 367.825 345.487 368.121 344.509C368.447 343.426 368.855 342.581 369.344 341.974C369.907 341.277 370.523 340.78 371.19 340.484C371.931 340.158 372.687 339.995 373.458 339.995C374.229 339.995 374.985 340.158 375.726 340.484C376.393 340.78 377.008 341.277 377.571 341.974C378.06 342.581 378.468 343.426 378.794 344.509C379.106 345.531 379.261 346.739 379.261 348.133H379.239ZM377.193 348.155C377.193 346.984 377.09 345.969 376.882 345.109C376.674 344.234 376.4 343.567 376.059 343.108C375.689 342.589 375.288 342.226 374.859 342.018C374.414 341.796 373.947 341.685 373.458 341.685C372.954 341.685 372.479 341.796 372.035 342.018C371.605 342.226 371.205 342.589 370.834 343.108C370.508 343.552 370.241 344.212 370.033 345.087C369.826 345.946 369.722 346.962 369.722 348.133C369.722 349.319 369.826 350.342 370.033 351.201C370.256 352.106 370.523 352.773 370.834 353.203C371.19 353.692 371.59 354.048 372.035 354.27C372.479 354.492 372.954 354.603 373.458 354.603C373.962 354.603 374.436 354.492 374.881 354.27C375.311 354.062 375.711 353.699 376.082 353.18C376.408 352.736 376.674 352.076 376.882 351.201C377.09 350.342 377.193 349.326 377.193 348.155Z" fill="#3B82F6"/>
<path d="M493.564 347.777C495.773 348.266 496.878 349.46 496.878 351.357C496.878 352.039 496.744 352.669 496.477 353.247C496.21 353.84 495.832 354.344 495.343 354.759C494.884 355.159 494.276 355.485 493.52 355.737C492.808 355.975 491.978 356.093 491.03 356.093H483.269V354.781C483.269 354.411 483.455 354.181 483.825 354.092L483.959 354.07C484.003 354.07 484.048 354.062 484.092 354.048C484.151 354.033 484.218 354.018 484.292 354.003L484.959 353.892V342.218L484.292 342.107C484.218 342.092 484.151 342.077 484.092 342.063C484.048 342.048 484.003 342.04 483.959 342.04L483.825 342.018C483.455 341.929 483.269 341.699 483.269 341.329V340.017H490.496C491.563 340.017 492.46 340.113 493.186 340.306C493.957 340.514 494.572 340.803 495.032 341.173C495.506 341.544 495.855 341.996 496.077 342.53C496.299 343.063 496.411 343.649 496.411 344.286C496.411 344.686 496.359 345.05 496.255 345.376C496.151 345.702 495.973 346.028 495.721 346.354C495.499 346.621 495.202 346.888 494.832 347.155C494.506 347.377 494.083 347.584 493.564 347.777ZM490.34 346.977C491.363 346.977 492.134 346.791 492.653 346.421C493.172 346.05 493.431 345.457 493.431 344.642C493.431 343.812 493.194 343.219 492.72 342.863C492.26 342.507 491.519 342.329 490.496 342.329H487.939V346.977H490.34ZM493.765 352.246C493.868 351.98 493.92 351.661 493.92 351.29C493.92 350.979 493.861 350.668 493.742 350.356C493.624 350.06 493.453 349.823 493.231 349.645C493.009 349.467 492.705 349.319 492.319 349.2C491.964 349.096 491.511 349.045 490.963 349.045H487.939V353.759H490.985C491.548 353.759 492.015 353.692 492.386 353.558C492.757 353.425 493.053 353.247 493.275 353.025C493.513 352.788 493.676 352.528 493.765 352.246ZM503.138 354.092C503.508 354.181 503.693 354.411 503.693 354.781V356.093H497.579V354.781C497.579 354.411 497.764 354.181 498.135 354.092L498.268 354.07L498.602 354.003L499.269 353.892V341.774L498.602 341.662C498.527 341.648 498.461 341.633 498.401 341.618C498.357 341.603 498.312 341.596 498.268 341.596L498.135 341.573C497.764 341.484 497.579 341.255 497.579 340.884V339.572H502.004V353.892L502.671 354.003L503.004 354.07L503.138 354.092ZM517.091 354.092C517.462 354.181 517.647 354.411 517.647 354.781V356.093H514.29C513.949 356.093 513.719 355.923 513.6 355.582L513.4 354.67C513.148 354.922 512.904 355.145 512.667 355.337C512.444 355.515 512.177 355.678 511.866 355.826C511.57 355.96 511.258 356.071 510.932 356.16C510.562 356.234 510.213 356.271 509.887 356.271C509.279 356.271 508.723 356.167 508.219 355.96C507.79 355.782 507.389 355.478 507.019 355.048C506.722 354.707 506.478 354.255 506.285 353.692C506.122 353.128 506.04 352.543 506.04 351.935V346.888L504.906 346.688C504.536 346.599 504.35 346.369 504.35 345.998V344.686H508.775V351.935C508.775 352.617 508.938 353.158 509.264 353.558C509.576 353.929 510.058 354.114 510.71 354.114C511.155 354.114 511.599 354.011 512.044 353.803C512.444 353.61 512.837 353.321 513.222 352.936V346.888C512.807 346.814 512.533 346.769 512.4 346.754C512.266 346.725 512.17 346.702 512.111 346.688C511.74 346.599 511.555 346.369 511.555 345.998V344.686H515.98V353.892L517.091 354.092ZM523.893 344.509C524.619 344.509 525.279 344.62 525.872 344.842C526.435 345.05 526.954 345.391 527.428 345.865C527.858 346.295 528.199 346.836 528.451 347.488C528.703 348.155 528.829 348.882 528.829 349.667C528.829 349.845 528.814 350.023 528.785 350.201C528.755 350.364 528.725 350.468 528.696 350.512C528.666 350.586 528.599 350.646 528.496 350.69C528.436 350.72 528.333 350.734 528.184 350.734H521.136C521.225 351.906 521.543 352.765 522.092 353.314C522.64 353.862 523.367 354.137 524.271 354.137C524.73 354.137 525.108 354.085 525.405 353.981C525.731 353.877 526.013 353.759 526.25 353.625C526.354 353.566 526.457 353.514 526.561 353.469C526.68 353.41 526.791 353.351 526.895 353.292C527.058 353.188 527.228 353.136 527.406 353.136C527.525 353.136 527.628 353.158 527.717 353.203C527.791 353.232 527.858 353.292 527.917 353.38L528.718 354.381C528.377 354.767 528.036 355.07 527.695 355.293C527.295 355.545 526.902 355.737 526.517 355.871C526.146 355.989 525.724 356.086 525.249 356.16C524.879 356.219 524.464 356.249 524.004 356.249C523.189 356.249 522.455 356.123 521.803 355.871C521.15 355.619 520.558 355.226 520.024 354.692C519.52 354.188 519.12 353.551 518.823 352.78C518.542 352.039 518.401 351.157 518.401 350.134C518.401 349.393 518.527 348.667 518.779 347.955C519.016 347.288 519.379 346.688 519.868 346.154C520.328 345.65 520.898 345.25 521.58 344.953C522.262 344.657 523.033 344.509 523.893 344.509ZM523.937 346.465C523.152 346.465 522.529 346.695 522.07 347.155C521.625 347.599 521.336 348.237 521.202 349.067H526.361C526.361 348.756 526.309 348.422 526.205 348.066C526.116 347.785 525.968 347.51 525.761 347.243C525.568 347.006 525.316 346.821 525.005 346.688C524.664 346.539 524.308 346.465 523.937 346.465ZM535.567 350.534H529.786V348.222H535.567V350.534ZM536.732 356.093V355.426C536.732 355.308 536.762 355.159 536.821 354.981C536.866 354.848 536.955 354.715 537.088 354.581L542.202 349.467C542.721 348.933 543.106 348.518 543.358 348.222C543.685 347.851 543.981 347.451 544.248 347.021C544.455 346.68 544.641 346.265 544.804 345.776C544.937 345.376 545.004 344.938 545.004 344.464C545.004 344.049 544.93 343.641 544.782 343.241C544.633 342.871 544.433 342.574 544.181 342.352C543.885 342.114 543.581 341.944 543.27 341.84C542.943 341.736 542.573 341.685 542.158 341.685C541.728 341.685 541.357 341.744 541.046 341.862C540.646 342.011 540.342 342.174 540.134 342.352C539.853 342.589 539.63 342.841 539.467 343.108C539.304 343.375 539.178 343.686 539.089 344.042C539.045 344.279 538.956 344.442 538.822 344.531C538.689 344.62 538.526 344.664 538.333 344.664H538.244L538.089 344.642L537.044 344.464C537.133 343.753 537.34 343.108 537.666 342.53C537.977 341.981 538.348 341.522 538.778 341.151C539.238 340.766 539.764 340.469 540.357 340.262C540.92 340.069 541.55 339.972 542.247 339.972C542.958 339.972 543.596 340.069 544.159 340.262C544.722 340.454 545.226 340.751 545.671 341.151C546.116 341.551 546.457 342.011 546.694 342.53C546.931 343.048 547.05 343.671 547.05 344.397C547.05 345.005 546.961 345.554 546.783 346.043C546.575 346.591 546.338 347.073 546.071 347.488C545.775 347.933 545.419 348.385 545.004 348.844C544.604 349.289 544.181 349.734 543.736 350.179L539.534 354.448C539.756 354.389 540.06 354.329 540.446 354.27C540.757 354.225 541.046 354.203 541.313 354.203H545.671C545.701 353.833 545.73 353.544 545.76 353.336C545.79 353.128 545.804 352.995 545.804 352.936C545.834 352.817 545.893 352.721 545.982 352.647C546.071 352.573 546.168 352.536 546.271 352.536H547.361V354.715L547.339 356.093H536.732ZM560.33 348.133C560.33 349.571 560.182 350.779 559.885 351.757C559.559 352.839 559.151 353.684 558.662 354.292C558.099 354.989 557.484 355.485 556.817 355.782C556.075 356.108 555.319 356.271 554.549 356.271C553.778 356.271 553.022 356.108 552.28 355.782C551.613 355.485 550.998 354.989 550.435 354.292C549.946 353.684 549.538 352.839 549.212 351.757C548.916 350.779 548.767 349.571 548.767 348.133C548.767 346.695 548.916 345.487 549.212 344.509C549.538 343.426 549.946 342.581 550.435 341.974C550.998 341.277 551.613 340.78 552.28 340.484C553.022 340.158 553.778 339.995 554.549 339.995C555.319 339.995 556.075 340.158 556.817 340.484C557.484 340.78 558.099 341.277 558.662 341.974C559.151 342.581 559.559 343.426 559.885 344.509C560.196 345.531 560.352 346.739 560.352 348.133H560.33ZM558.284 348.155C558.284 346.984 558.18 345.969 557.973 345.109C557.765 344.234 557.491 343.567 557.15 343.108C556.779 342.589 556.379 342.226 555.949 342.018C555.505 341.796 555.038 341.685 554.549 341.685C554.045 341.685 553.57 341.796 553.125 342.018C552.696 342.226 552.295 342.589 551.925 343.108C551.599 343.552 551.332 344.212 551.124 345.087C550.917 345.946 550.813 346.962 550.813 348.133C550.813 349.319 550.917 350.342 551.124 351.201C551.347 352.106 551.613 352.773 551.925 353.203C552.28 353.692 552.681 354.048 553.125 354.27C553.57 354.492 554.045 354.603 554.549 354.603C555.053 354.603 555.527 354.492 555.972 354.27C556.401 354.062 556.802 353.699 557.172 353.18C557.498 352.736 557.765 352.076 557.973 351.201C558.18 350.342 558.284 349.326 558.284 348.155ZM573.424 348.133C573.424 349.571 573.275 350.779 572.979 351.757C572.653 352.839 572.245 353.684 571.756 354.292C571.193 354.989 570.577 355.485 569.91 355.782C569.169 356.108 568.413 356.271 567.642 356.271C566.871 356.271 566.115 356.108 565.374 355.782C564.707 355.485 564.092 354.989 563.529 354.292C563.04 353.684 562.632 352.839 562.306 351.757C562.009 350.779 561.861 349.571 561.861 348.133C561.861 346.695 562.009 345.487 562.306 344.509C562.632 343.426 563.04 342.581 563.529 341.974C564.092 341.277 564.707 340.78 565.374 340.484C566.115 340.158 566.871 339.995 567.642 339.995C568.413 339.995 569.169 340.158 569.91 340.484C570.577 340.78 571.193 341.277 571.756 341.974C572.245 342.581 572.653 343.426 572.979 344.509C573.29 345.531 573.446 346.739 573.446 348.133H573.424ZM571.378 348.155C571.378 346.984 571.274 345.969 571.067 345.109C570.859 344.234 570.585 343.567 570.244 343.108C569.873 342.589 569.473 342.226 569.043 342.018C568.598 341.796 568.131 341.685 567.642 341.685C567.138 341.685 566.664 341.796 566.219 342.018C565.789 342.226 565.389 342.589 565.019 343.108C564.692 343.552 564.426 344.212 564.218 345.087C564.01 345.946 563.907 346.962 563.907 348.133C563.907 349.319 564.01 350.342 564.218 351.201C564.44 352.106 564.707 352.773 565.019 353.203C565.374 353.692 565.775 354.048 566.219 354.27C566.664 354.492 567.138 354.603 567.642 354.603C568.146 354.603 568.621 354.492 569.065 354.27C569.495 354.062 569.895 353.699 570.266 353.18C570.592 352.736 570.859 352.076 571.067 351.201C571.274 350.342 571.378 349.326 571.378 348.155Z" fill="#3B82F6"/>
<path d="M691.535 347.777C693.744 348.266 694.848 349.46 694.848 351.357C694.848 352.039 694.715 352.669 694.448 353.247C694.181 353.84 693.803 354.344 693.314 354.759C692.854 355.159 692.247 355.485 691.491 355.737C690.779 355.975 689.949 356.093 689 356.093H681.24V354.781C681.24 354.411 681.425 354.181 681.796 354.092L681.929 354.07C681.974 354.07 682.018 354.062 682.063 354.048C682.122 354.033 682.189 354.018 682.263 354.003L682.93 353.892V342.218L682.263 342.107C682.189 342.092 682.122 342.077 682.063 342.063C682.018 342.048 681.974 342.04 681.929 342.04L681.796 342.018C681.425 341.929 681.24 341.699 681.24 341.329V340.017H688.467C689.534 340.017 690.431 340.113 691.157 340.306C691.928 340.514 692.543 340.803 693.003 341.173C693.477 341.544 693.825 341.996 694.048 342.53C694.27 343.063 694.381 343.649 694.381 344.286C694.381 344.686 694.329 345.05 694.226 345.376C694.122 345.702 693.944 346.028 693.692 346.354C693.47 346.621 693.173 346.888 692.803 347.155C692.476 347.377 692.054 347.584 691.535 347.777ZM688.311 346.977C689.334 346.977 690.105 346.791 690.624 346.421C691.142 346.05 691.402 345.457 691.402 344.642C691.402 343.812 691.165 343.219 690.69 342.863C690.231 342.507 689.49 342.329 688.467 342.329H685.91V346.977H688.311ZM691.735 352.246C691.839 351.98 691.891 351.661 691.891 351.29C691.891 350.979 691.832 350.668 691.713 350.356C691.594 350.06 691.424 349.823 691.202 349.645C690.979 349.467 690.675 349.319 690.29 349.2C689.934 349.096 689.482 349.045 688.934 349.045H685.91V353.759H688.956C689.519 353.759 689.986 353.692 690.357 353.558C690.727 353.425 691.024 353.247 691.246 353.025C691.483 352.788 691.646 352.528 691.735 352.246ZM701.108 354.092C701.479 354.181 701.664 354.411 701.664 354.781V356.093H695.549V354.781C695.549 354.411 695.735 354.181 696.105 354.092L696.239 354.07L696.572 354.003L697.239 353.892V341.774L696.572 341.662C696.498 341.648 696.431 341.633 696.372 341.618C696.328 341.603 696.283 341.596 696.239 341.596L696.105 341.573C695.735 341.484 695.549 341.255 695.549 340.884V339.572H699.974V353.892L700.641 354.003L700.975 354.07L701.108 354.092ZM715.062 354.092C715.433 354.181 715.618 354.411 715.618 354.781V356.093H712.26C711.919 356.093 711.69 355.923 711.571 355.582L711.371 354.67C711.119 354.922 710.874 355.145 710.637 355.337C710.415 355.515 710.148 355.678 709.837 355.826C709.54 355.96 709.229 356.071 708.903 356.16C708.532 356.234 708.184 356.271 707.858 356.271C707.25 356.271 706.694 356.167 706.19 355.96C705.76 355.782 705.36 355.478 704.989 355.048C704.693 354.707 704.448 354.255 704.256 353.692C704.093 353.128 704.011 352.543 704.011 351.935V346.888L702.877 346.688C702.506 346.599 702.321 346.369 702.321 345.998V344.686H706.746V351.935C706.746 352.617 706.909 353.158 707.235 353.558C707.546 353.929 708.028 354.114 708.68 354.114C709.125 354.114 709.57 354.011 710.015 353.803C710.415 353.61 710.808 353.321 711.193 352.936V346.888C710.778 346.814 710.504 346.769 710.37 346.754C710.237 346.725 710.141 346.702 710.081 346.688C709.711 346.599 709.525 346.369 709.525 345.998V344.686H713.95V353.892L715.062 354.092ZM721.864 344.509C722.59 344.509 723.25 344.62 723.843 344.842C724.406 345.05 724.925 345.391 725.399 345.865C725.829 346.295 726.17 346.836 726.422 347.488C726.674 348.155 726.8 348.882 726.8 349.667C726.8 349.845 726.785 350.023 726.755 350.201C726.726 350.364 726.696 350.468 726.666 350.512C726.637 350.586 726.57 350.646 726.466 350.69C726.407 350.72 726.303 350.734 726.155 350.734H719.106C719.195 351.906 719.514 352.765 720.062 353.314C720.611 353.862 721.337 354.137 722.242 354.137C722.701 354.137 723.079 354.085 723.376 353.981C723.702 353.877 723.983 353.759 724.221 353.625C724.324 353.566 724.428 353.514 724.532 353.469C724.65 353.41 724.762 353.351 724.865 353.292C725.028 353.188 725.199 353.136 725.377 353.136C725.495 353.136 725.599 353.158 725.688 353.203C725.762 353.232 725.829 353.292 725.888 353.38L726.689 354.381C726.348 354.767 726.007 355.07 725.666 355.293C725.266 355.545 724.873 355.737 724.487 355.871C724.117 355.989 723.694 356.086 723.22 356.16C722.849 356.219 722.434 356.249 721.975 356.249C721.159 356.249 720.426 356.123 719.773 355.871C719.121 355.619 718.528 355.226 717.995 354.692C717.491 354.188 717.09 353.551 716.794 352.78C716.512 352.039 716.371 351.157 716.371 350.134C716.371 349.393 716.497 348.667 716.749 347.955C716.987 347.288 717.35 346.688 717.839 346.154C718.298 345.65 718.869 345.25 719.551 344.953C720.233 344.657 721.004 344.509 721.864 344.509ZM721.908 346.465C721.122 346.465 720.5 346.695 720.04 347.155C719.596 347.599 719.306 348.237 719.173 349.067H724.332C724.332 348.756 724.28 348.422 724.176 348.066C724.087 347.785 723.939 347.51 723.731 347.243C723.539 347.006 723.287 346.821 722.975 346.688C722.634 346.539 722.279 346.465 721.908 346.465ZM733.538 350.534H727.756V348.222H733.538V350.534ZM740.373 339.995C741.04 339.995 741.663 340.084 742.241 340.262C742.775 340.425 743.264 340.706 743.708 341.106C744.123 341.477 744.442 341.907 744.665 342.396C744.902 342.915 745.02 343.463 745.02 344.042C745.02 344.546 744.954 344.998 744.82 345.398C744.687 345.783 744.501 346.132 744.264 346.443C744.057 346.71 743.76 346.962 743.375 347.199C743.064 347.392 742.678 347.562 742.219 347.71C743.256 347.977 744.042 348.437 744.576 349.089C745.094 349.712 745.354 350.52 745.354 351.513C745.354 352.224 745.213 352.884 744.931 353.492C744.65 354.114 744.279 354.611 743.82 354.981C743.301 355.411 742.737 355.73 742.13 355.938C741.492 356.16 740.803 356.271 740.062 356.271C739.187 356.271 738.468 356.167 737.905 355.96C737.297 355.737 736.786 355.441 736.371 355.07C735.956 354.7 735.615 354.263 735.348 353.759C735.066 353.21 734.836 352.654 734.659 352.091L735.503 351.735C735.637 351.676 735.8 351.646 735.993 351.646C736.141 351.646 736.267 351.676 736.371 351.735C736.489 351.809 736.571 351.913 736.615 352.046C736.615 352.061 736.623 352.076 736.638 352.091C736.652 352.106 736.66 352.12 736.66 352.135C736.66 352.15 736.667 352.172 736.682 352.202C736.697 352.217 736.704 352.232 736.704 352.246C736.734 352.321 736.852 352.565 737.06 352.98C737.208 353.277 737.408 353.529 737.66 353.736C737.898 353.929 738.216 354.122 738.616 354.314C739.002 354.492 739.461 354.581 739.995 354.581C740.558 354.581 741.048 354.492 741.463 354.314C741.907 354.122 742.263 353.885 742.53 353.603C742.812 353.292 743.019 352.965 743.153 352.624C743.301 352.224 743.375 351.876 743.375 351.579C743.375 351.179 743.316 350.786 743.197 350.401C743.078 350.03 742.871 349.719 742.574 349.467C742.278 349.215 741.863 349.022 741.329 348.889C740.736 348.741 740.054 348.667 739.284 348.667V347.221C739.847 347.221 740.425 347.14 741.018 346.977C741.448 346.858 741.833 346.665 742.174 346.399C742.5 346.147 742.723 345.857 742.841 345.531C742.975 345.176 743.041 344.798 743.041 344.397C743.041 343.953 742.975 343.552 742.841 343.197C742.723 342.885 742.515 342.604 742.219 342.352C741.952 342.129 741.655 341.966 741.329 341.862C740.944 341.744 740.573 341.685 740.217 341.685C739.788 341.685 739.417 341.744 739.106 341.862C738.705 342.011 738.402 342.174 738.194 342.352C737.912 342.589 737.69 342.841 737.527 343.108C737.349 343.404 737.216 343.723 737.127 344.064C737.082 344.286 736.993 344.442 736.86 344.531C736.726 344.62 736.571 344.664 736.393 344.664H736.126L735.103 344.486C735.192 343.745 735.392 343.1 735.704 342.552C736.015 342.003 736.393 341.536 736.838 341.151C737.268 340.78 737.786 340.491 738.394 340.284C738.957 340.091 739.595 339.995 740.306 339.995H740.373ZM758.279 348.133C758.279 349.571 758.131 350.779 757.834 351.757C757.508 352.839 757.1 353.684 756.611 354.292C756.048 354.989 755.433 355.485 754.766 355.782C754.024 356.108 753.268 356.271 752.498 356.271C751.727 356.271 750.971 356.108 750.229 355.782C749.562 355.485 748.947 354.989 748.384 354.292C747.895 353.684 747.487 352.839 747.161 351.757C746.865 350.779 746.716 349.571 746.716 348.133C746.716 346.695 746.865 345.487 747.161 344.509C747.487 343.426 747.895 342.581 748.384 341.974C748.947 341.277 749.562 340.78 750.229 340.484C750.971 340.158 751.727 339.995 752.498 339.995C753.268 339.995 754.024 340.158 754.766 340.484C755.433 340.78 756.048 341.277 756.611 341.974C757.1 342.581 757.508 343.426 757.834 344.509C758.145 345.531 758.301 346.739 758.301 348.133H758.279ZM756.233 348.155C756.233 346.984 756.129 345.969 755.922 345.109C755.714 344.234 755.44 343.567 755.099 343.108C754.728 342.589 754.328 342.226 753.898 342.018C753.454 341.796 752.987 341.685 752.498 341.685C751.994 341.685 751.519 341.796 751.074 342.018C750.645 342.226 750.244 342.589 749.874 343.108C749.548 343.552 749.281 344.212 749.073 345.087C748.866 345.946 748.762 346.962 748.762 348.133C748.762 349.319 748.866 350.342 749.073 351.201C749.296 352.106 749.562 352.773 749.874 353.203C750.229 353.692 750.63 354.048 751.074 354.27C751.519 354.492 751.994 354.603 752.498 354.603C753.002 354.603 753.476 354.492 753.921 354.27C754.35 354.062 754.751 353.699 755.121 353.18C755.447 352.736 755.714 352.076 755.922 351.201C756.129 350.342 756.233 349.326 756.233 348.155ZM771.373 348.133C771.373 349.571 771.224 350.779 770.928 351.757C770.602 352.839 770.194 353.684 769.705 354.292C769.142 354.989 768.526 355.485 767.859 355.782C767.118 356.108 766.362 356.271 765.591 356.271C764.82 356.271 764.064 356.108 763.323 355.782C762.656 355.485 762.041 354.989 761.478 354.292C760.989 353.684 760.581 352.839 760.255 351.757C759.958 350.779 759.81 349.571 759.81 348.133C759.81 346.695 759.958 345.487 760.255 344.509C760.581 343.426 760.989 342.581 761.478 341.974C762.041 341.277 762.656 340.78 763.323 340.484C764.064 340.158 764.82 339.995 765.591 339.995C766.362 339.995 767.118 340.158 767.859 340.484C768.526 340.78 769.142 341.277 769.705 341.974C770.194 342.581 770.602 343.426 770.928 344.509C771.239 345.531 771.395 346.739 771.395 348.133H771.373ZM769.327 348.155C769.327 346.984 769.223 345.969 769.016 345.109C768.808 344.234 768.534 343.567 768.193 343.108C767.822 342.589 767.422 342.226 766.992 342.018C766.547 341.796 766.08 341.685 765.591 341.685C765.087 341.685 764.613 341.796 764.168 342.018C763.738 342.226 763.338 342.589 762.967 343.108C762.641 343.552 762.375 344.212 762.167 345.087C761.959 345.946 761.856 346.962 761.856 348.133C761.856 349.319 761.959 350.342 762.167 351.201C762.389 352.106 762.656 352.773 762.967 353.203C763.323 353.692 763.723 354.048 764.168 354.27C764.613 354.492 765.087 354.603 765.591 354.603C766.095 354.603 766.57 354.492 767.014 354.27C767.444 354.062 767.844 353.699 768.215 353.18C768.541 352.736 768.808 352.076 769.016 351.201C769.223 350.342 769.327 349.326 769.327 348.155Z" fill="#3B82F6"/>
</svg>
