<svg width="708" height="281" viewBox="0 0 708 281" fill="none" xmlns="http://www.w3.org/2000/svg">
<rect x="1.51587" y="1.44678" width="705.423" height="278.073" fill="#EFF6FF" stroke="#3B82F6" stroke-dasharray="5 5"/>
<rect x="51.9298" y="52.069" width="604.387" height="176.829" fill="white"/>
<path fill-rule="evenodd" clip-rule="evenodd" d="M228.55 74.5729L216.168 106.446C213.409 113.548 207.997 119.3 201.075 122.486L176.719 133.695L206.691 130.911L190.146 173.117C188.896 176.307 185.94 178.53 182.528 178.849C146.384 182.229 137.175 181.746 128.592 193.293C123.608 199.998 114.78 202.984 107.545 198.806L106.078 197.96C141.617 137.919 140.887 136.31 173.064 88.6495C180.032 78.3292 213.283 74.3881 228.55 74.5729Z" fill="#3B82F6"/>
<path d="M136.084 132.411C128.998 120.793 121.271 108.863 107.624 88.6494C100.656 78.329 67.4051 74.388 52.1381 74.5727L64.5197 106.446C67.2788 113.548 72.6911 119.3 79.6129 122.486L103.969 133.695L73.9972 130.91L90.5418 173.117C91.7923 176.307 94.7483 178.53 98.1599 178.849C101.821 179.191 105.206 179.494 108.342 179.774C113.78 170.511 118.211 162.891 122.06 156.273C127.498 146.923 131.773 139.571 136.084 132.411Z" fill="#3B82F6"/>
<path d="M148.99 189.684C150.063 190.737 151.084 191.931 152.096 193.293C157.08 199.998 165.908 202.983 173.143 198.806L174.61 197.959C172.407 194.238 170.344 190.742 168.404 187.445C159.909 188.21 153.781 188.811 148.99 189.684Z" fill="#3B82F6"/>
<path d="M140.344 219.588C96.656 219.588 61.2398 184.171 61.2398 140.483C61.2398 134.56 61.8909 128.789 63.1253 123.237C59.6714 120.741 58.4653 118.892 55.7937 114.551C53.2816 122.752 51.9298 131.46 51.9298 140.483C51.9298 189.313 91.5143 228.898 140.344 228.898V219.588Z" fill="#1F2937"/>
<path d="M179.501 71.7348C180.489 71.2454 181.483 70.7977 182.463 70.3868C184.945 69.3462 187.63 68.4242 190.423 67.6088C176.186 57.8071 158.935 52.069 140.344 52.069C121.807 52.069 104.602 57.774 90.389 67.524C93.2867 68.3601 96.0721 69.3098 98.6401 70.3866C99.5468 70.7667 100.465 71.1783 101.38 71.6252C112.881 65.1029 126.178 61.379 140.344 61.379C154.59 61.379 167.956 65.1446 179.501 71.7348Z" fill="#1F2937"/>
<path d="M140.344 219.587C184.032 219.587 219.448 184.17 219.448 140.482C219.448 134.559 218.797 128.788 217.563 123.236C221.016 120.74 222.223 118.891 224.894 114.55C227.406 122.751 228.758 131.459 228.758 140.482C228.758 189.312 189.174 228.897 140.344 228.897V219.587Z" fill="#1F2937"/>
<path d="M280.253 81.3849C282.234 83.0354 284.916 83.8606 288.299 83.8606C291.6 83.8606 294.241 83.0354 296.221 81.3849C298.202 79.7345 299.192 77.3001 299.192 74.0818C299.192 70.946 298.202 68.5528 296.221 66.9024C294.241 65.252 291.6 64.4268 288.299 64.4268C284.916 64.4268 282.234 65.252 280.253 66.9024C278.273 68.5528 277.283 70.946 277.283 74.0818C277.283 77.3001 278.273 79.7345 280.253 81.3849Z" fill="#1F2937"/>
<path d="M298.078 147.361V94.1346H271.341V102.428L272.455 102.676C275.013 103.171 276.911 103.707 278.149 104.285C279.387 104.78 280.006 105.77 280.006 107.256V147.361C280.006 149.754 279.263 151.363 277.778 152.189C276.292 153.014 274.271 153.427 271.712 153.427H271.341V160.853H306.619V153.427H306.372C303.813 153.427 301.792 153.014 300.306 152.189C298.821 151.363 298.078 149.754 298.078 147.361Z" fill="#1F2937"/>
<path d="M359.435 150.951C357.124 152.106 354.401 152.684 351.265 152.684C347.882 152.684 344.952 152.189 342.476 151.198C340.083 150.126 338.062 148.558 336.411 146.495C334.843 144.432 333.688 141.832 332.945 138.696C332.203 135.478 331.831 131.765 331.831 127.556C331.831 122.027 332.45 117.406 333.688 113.692C335.008 109.896 337.03 107.049 339.753 105.151C342.476 103.253 345.984 102.304 350.275 102.304C353.493 102.304 356.34 102.799 358.816 103.79C359.243 103.946 359.656 104.113 360.054 104.289V118.644H375.155V98.7145C374.165 97.9719 372.514 97.1879 370.204 96.3627C367.893 95.455 365.005 94.671 361.539 94.0108C358.073 93.2681 354.071 92.8967 349.532 92.8967C341.94 92.8967 335.421 94.2584 329.974 96.9816C324.528 99.7048 320.319 103.666 317.349 108.865C314.46 113.981 313.016 120.211 313.016 127.556C313.016 134.818 314.502 141.048 317.472 146.247C320.443 151.446 324.61 155.407 329.974 158.13C335.338 160.853 341.651 162.215 348.913 162.215C353.617 162.215 357.743 161.555 361.291 160.235C364.922 158.832 368.058 156.892 370.699 154.417C373.34 151.859 375.485 148.888 377.136 145.504L369.832 140.306C368.595 142.451 367.109 144.473 365.376 146.371C363.726 148.269 361.745 149.796 359.435 150.951Z" fill="#1F2937"/>
<path fill-rule="evenodd" clip-rule="evenodd" d="M427.112 149.24C425.837 151.484 424.436 153.457 422.91 155.159C420.765 157.47 418.289 159.244 415.483 160.482C412.76 161.637 409.624 162.215 406.076 162.215C401.702 162.215 397.947 161.596 394.811 160.358C391.676 159.038 389.282 157.057 387.632 154.417C385.982 151.776 385.156 148.516 385.156 144.638C385.156 141.172 385.94 138.16 387.508 135.602C389.076 133.044 391.552 130.815 394.935 128.918C398.401 127.02 402.857 125.41 408.304 124.09C413.281 122.808 419.222 121.664 426.128 120.658V112.083C426.128 109.69 425.798 107.792 425.138 106.389C424.478 104.904 423.323 103.831 421.672 103.171C420.104 102.428 417.876 102.057 414.988 102.057C410.779 102.057 407.313 102.634 404.59 103.79C404.549 103.807 404.508 103.825 404.466 103.842V115.673H389.117V100.2C390.355 99.2922 392.171 98.3019 394.564 97.2291C397.039 96.0739 400.093 95.0836 403.724 94.2584C407.437 93.3506 411.687 92.8967 416.473 92.8967C420.599 92.8967 424.354 93.2681 427.738 94.0108C431.121 94.7535 434.009 95.9501 436.402 97.6005C438.796 99.2509 440.652 101.355 441.973 103.913C443.293 106.472 443.953 109.525 443.953 113.073V148.351C443.953 149.259 444.242 150.002 444.82 150.579C445.48 151.075 446.388 151.487 447.543 151.817C448.698 152.065 450.101 152.312 451.751 152.56L452.494 152.808V160.853H428.357L427.112 149.24ZM426.128 128.345C422.836 128.862 419.948 129.465 417.464 130.155C414.493 130.898 412.017 131.765 410.037 132.755C408.056 133.663 406.53 134.694 405.457 135.849C404.384 136.922 403.6 138.16 403.105 139.563C402.692 140.883 402.486 142.327 402.486 143.895C402.486 146.123 402.857 147.939 403.6 149.342C404.343 150.662 405.415 151.652 406.818 152.312C408.221 152.973 409.913 153.303 411.893 153.303C413.956 153.303 415.854 152.808 417.587 151.817C419.403 150.827 421.136 149.342 422.786 147.361C423.9 146.035 425.014 144.487 426.128 142.717V128.345Z" fill="#1F2937"/>
<path d="M508.611 110.721V93.5157C508.281 93.3506 507.662 93.2269 506.755 93.1443C505.847 92.9792 504.856 92.8967 503.784 92.8967C500.235 92.8967 497.141 93.722 494.5 95.3724C491.942 96.9403 489.631 99.2509 487.568 102.304C486.133 104.517 484.698 107.098 483.262 110.047L481.874 94.1346H457.489V102.428L458.603 102.676C460.253 103.006 461.615 103.336 462.688 103.666C463.843 103.996 464.668 104.45 465.163 105.027C465.741 105.523 466.03 106.265 466.03 107.256V146.99C466.03 149.548 465.287 151.281 463.802 152.189C462.317 153.014 460.336 153.427 457.86 153.427H457.489V160.853H494.995V153.427H493.138C491.901 153.427 490.58 153.385 489.177 153.303C487.857 153.22 486.702 153.014 485.711 152.684C484.721 152.354 484.226 151.9 484.226 151.322V115.839C484.68 115.379 485.134 114.952 485.588 114.559C486.825 113.403 488.146 112.496 489.549 111.836C491.034 111.175 492.602 110.721 494.252 110.474C495.903 110.144 497.718 109.979 499.699 109.979C500.772 109.979 501.844 110.02 502.917 110.103C504.073 110.103 505.145 110.185 506.135 110.35C507.208 110.433 508.034 110.556 508.611 110.721Z" fill="#1F2937"/>
<path d="M540.968 141.296V94.1346H513.859V102.428L515.345 102.676C517.903 103.006 519.76 103.501 520.915 104.161C522.153 104.739 522.772 105.77 522.772 107.256V142.41C522.772 146.701 523.556 150.332 525.124 153.303C526.692 156.191 528.92 158.378 531.808 159.863C534.779 161.349 538.286 162.091 542.329 162.091C545.96 162.091 549.344 161.431 552.48 160.111C555.615 158.708 558.504 156.727 561.144 154.169C563.143 152.233 564.975 150.014 566.643 147.511L568.076 160.853H592.461V152.808L591.595 152.56C589.944 152.312 588.542 152.065 587.386 151.817C586.231 151.487 585.323 151.075 584.663 150.579C584.085 150.002 583.797 149.259 583.797 148.351V94.1346H555.079V102.428L557.555 102.676C560.113 102.923 562.093 103.377 563.496 104.037C564.899 104.697 565.601 105.77 565.601 107.256V140.286C564.404 141.862 563.208 143.272 562.011 144.514C559.948 146.66 557.844 148.269 555.698 149.342C553.635 150.414 551.489 150.951 549.261 150.951C547.281 150.951 545.672 150.579 544.434 149.837C543.196 149.094 542.288 148.021 541.711 146.618C541.215 145.133 540.968 143.359 540.968 141.296Z" fill="#1F2937"/>
<path d="M638.453 139.563C639.36 140.636 639.814 142.08 639.814 143.895C639.814 146.041 639.319 147.815 638.329 149.218C637.338 150.621 635.853 151.694 633.873 152.436C631.892 153.096 629.416 153.427 626.446 153.427C623.805 153.427 621.37 153.22 619.142 152.808C616.914 152.312 614.934 151.735 613.201 151.075V140.058H598.842V156.273C600.41 157.181 602.473 158.089 605.031 158.997C607.589 159.904 610.643 160.647 614.191 161.225C617.822 161.885 621.866 162.215 626.322 162.215C633.006 162.215 638.576 161.349 643.032 159.616C647.571 157.883 650.955 155.407 653.183 152.189C655.411 148.888 656.525 144.927 656.525 140.306C656.525 136.84 655.823 133.951 654.42 131.641C653.1 129.248 651.285 127.35 648.974 125.947C646.746 124.461 644.229 123.265 641.423 122.357C638.7 121.449 635.977 120.665 633.254 120.005C630.943 119.51 628.756 119.015 626.693 118.52C624.63 117.942 622.815 117.323 621.247 116.663C619.679 115.92 618.441 115.013 617.533 113.94C616.708 112.784 616.295 111.34 616.295 109.607C616.295 106.967 617.244 104.945 619.142 103.542C621.123 102.139 624.176 101.438 628.302 101.438C630.613 101.438 632.676 101.603 634.491 101.933C636.058 102.218 637.503 102.626 638.824 103.157V112.454H652.811V97.2291C651.986 96.734 650.501 96.1151 648.355 95.3724C646.209 94.6297 643.445 94.0108 640.062 93.5157C636.761 92.938 632.841 92.6492 628.302 92.6492C622.608 92.6492 617.657 93.4332 613.448 95.001C609.322 96.569 606.104 98.8796 603.793 101.933C601.565 104.904 600.451 108.617 600.451 113.073C600.451 116.704 601.111 119.716 602.432 122.109C603.752 124.42 605.526 126.318 607.754 127.803C609.982 129.206 612.417 130.362 615.057 131.269C617.781 132.095 620.504 132.796 623.227 133.374C625.455 133.869 627.518 134.364 629.416 134.859C631.397 135.354 633.171 135.973 634.739 136.716C636.307 137.458 637.545 138.408 638.453 139.563Z" fill="#1F2937"/>
<path fill-rule="evenodd" clip-rule="evenodd" d="M277.654 202.441V211.024C277.654 211.106 277.737 211.175 277.902 211.23C278.017 211.246 278.152 211.263 278.307 211.279C278.41 211.29 278.523 211.301 278.644 211.312C278.828 211.328 279.016 211.343 279.208 211.358C279.362 211.37 279.517 211.383 279.676 211.395H281.821V213.953H268.907V211.436H269.361C270.268 211.436 271.025 211.34 271.63 211.147C272.235 210.955 272.538 210.556 272.538 209.951V188.66C272.538 188.055 272.235 187.656 271.63 187.464C271.025 187.271 270.268 187.175 269.361 187.175H268.907V184.658H282.853C286.209 184.658 288.822 185.414 290.693 186.927C292.563 188.413 293.498 190.558 293.498 193.364C293.498 195.262 293.044 196.885 292.137 198.233C291.256 199.581 290.005 200.626 288.382 201.368C286.786 202.084 284.902 202.441 282.729 202.441H277.654ZM277.654 199.677H282.234C283.582 199.677 284.696 199.443 285.576 198.975C286.456 198.48 287.117 197.779 287.557 196.871C287.997 195.936 288.217 194.794 288.217 193.446C288.217 192.099 287.997 190.984 287.557 190.104C287.144 189.224 286.498 188.564 285.617 188.124C284.737 187.656 283.651 187.422 282.358 187.422H277.654V199.677Z" fill="#6B7280"/>
<path fill-rule="evenodd" clip-rule="evenodd" d="M320.793 200.425C321.503 200.158 322.152 199.84 322.74 199.47C323.951 198.728 324.872 197.793 325.505 196.665C326.165 195.537 326.495 194.244 326.495 192.786C326.495 191.081 326.069 189.623 325.216 188.413C324.391 187.175 323.194 186.24 321.626 185.607C320.058 184.974 318.16 184.658 315.932 184.658H302.027V187.216H302.481C303.389 187.216 304.145 187.312 304.751 187.505C305.356 187.697 305.658 188.096 305.658 188.701V209.909C305.658 210.515 305.356 210.914 304.751 211.106C304.145 211.299 303.389 211.395 302.481 211.395H302.027V213.953H314.612V211.395H312.797C312.623 211.383 312.458 211.37 312.301 211.358C312.11 211.343 311.931 211.327 311.765 211.312C311.462 211.257 311.215 211.216 311.022 211.189C310.83 211.134 310.733 211.065 310.733 210.982V201.699H316.159L322.534 213.953H329.713V211.395H329.342C328.847 211.395 328.393 211.354 327.98 211.271C327.595 211.189 327.238 211.01 326.908 210.735C326.578 210.46 326.261 210.075 325.959 209.579L320.793 200.425ZM310.733 187.381V199.058H315.231C316.606 199.058 317.72 198.824 318.573 198.356C319.426 197.861 320.058 197.16 320.471 196.252C320.884 195.344 321.09 194.272 321.09 193.034C321.09 191.823 320.884 190.806 320.471 189.98C320.058 189.128 319.439 188.481 318.614 188.041C317.789 187.601 316.73 187.381 315.437 187.381H310.733Z" fill="#6B7280"/>
<path fill-rule="evenodd" clip-rule="evenodd" d="M346.6 213.623C348.415 214.311 350.396 214.654 352.541 214.654C354.714 214.654 356.695 214.311 358.483 213.623C360.271 212.935 361.825 211.931 363.145 210.611C364.466 209.263 365.484 207.64 366.199 205.742C366.914 203.844 367.271 201.699 367.271 199.305C367.271 196.885 366.914 194.739 366.199 192.869C365.484 190.971 364.466 189.362 363.145 188.041C361.825 186.693 360.271 185.676 358.483 184.988C356.695 184.273 354.714 183.915 352.541 183.915C350.396 183.915 348.415 184.273 346.6 184.988C344.812 185.676 343.258 186.693 341.937 188.041C340.617 189.362 339.599 190.971 338.884 192.869C338.169 194.739 337.811 196.885 337.811 199.305C337.811 201.699 338.169 203.844 338.884 205.742C339.599 207.64 340.617 209.263 341.937 210.611C343.258 211.931 344.812 212.935 346.6 213.623ZM356.42 210.982C355.292 211.505 353.999 211.766 352.541 211.766C351.111 211.766 349.804 211.505 348.622 210.982C347.466 210.46 346.49 209.689 345.692 208.672C344.894 207.626 344.275 206.32 343.835 204.752C343.423 203.184 343.216 201.368 343.216 199.305C343.216 197.242 343.423 195.427 343.835 193.859C344.275 192.291 344.894 190.998 345.692 189.98C346.517 188.935 347.508 188.151 348.663 187.629C349.818 187.106 351.111 186.845 352.541 186.845C353.999 186.845 355.292 187.106 356.42 187.629C357.575 188.151 358.552 188.935 359.349 189.98C360.175 190.998 360.794 192.291 361.206 193.859C361.646 195.427 361.866 197.242 361.866 199.305C361.866 201.368 361.646 203.184 361.206 204.752C360.794 206.32 360.175 207.626 359.349 208.672C358.552 209.689 357.575 210.46 356.42 210.982Z" fill="#6B7280"/>
<path d="M398.571 184.658H385.45V187.216H386.399C387.031 187.216 387.582 187.257 388.049 187.34C388.544 187.422 388.929 187.574 389.205 187.794C389.507 187.986 389.658 188.289 389.658 188.701V204.587C389.658 206.512 389.452 207.998 389.04 209.043C388.627 210.088 388.036 210.817 387.265 211.23C386.495 211.615 385.532 211.807 384.377 211.807C383.552 211.807 382.809 211.711 382.149 211.519C381.565 211.324 381.056 211.086 380.622 210.805V205.371H375.919V211.642C376.386 212.083 377.019 212.536 377.817 213.004C378.614 213.472 379.577 213.857 380.705 214.159C381.86 214.489 383.153 214.654 384.583 214.654C386.124 214.654 387.513 214.476 388.751 214.118C389.989 213.76 391.047 213.197 391.928 212.426C392.836 211.629 393.523 210.583 393.991 209.291C394.486 207.998 394.734 206.416 394.734 204.546V188.701C394.734 188.096 395.036 187.697 395.641 187.505C396.246 187.312 397.003 187.216 397.911 187.216H398.571V184.658Z" fill="#6B7280"/>
<path d="M431.038 213.953V204.711H428.109L427.572 209.373C427.545 209.731 427.421 210.033 427.201 210.281C427.008 210.501 426.706 210.68 426.293 210.817C425.908 210.955 425.399 211.051 424.767 211.106C424.161 211.161 423.419 211.189 422.539 211.189H416.102V200.214C416.72 200.242 417.334 200.269 417.945 200.297L418.825 200.337C420.035 200.392 421.232 200.461 422.415 200.543L426.046 200.708V197.119C424.835 197.174 423.625 197.242 422.415 197.325L418.784 197.49C417.905 197.531 417.011 197.572 416.102 197.613V187.422H421.878C422.979 187.422 423.873 187.477 424.56 187.587C425.248 187.67 425.771 187.849 426.128 188.124C426.486 188.371 426.692 188.743 426.747 189.238L427.16 192.869H430.048V184.658H407.396V187.216H407.85C408.757 187.216 409.514 187.312 410.119 187.505C410.724 187.697 411.027 188.096 411.027 188.701V209.909C411.027 210.515 410.724 210.914 410.119 211.106C409.514 211.299 408.757 211.395 407.85 211.395H407.396V213.953H431.038Z" fill="#6B7280"/>
<path d="M451.166 187.67C452.266 187.12 453.504 186.845 454.879 186.845C456.419 186.845 457.767 187.161 458.923 187.794C460.078 188.399 461.041 189.265 461.811 190.393C462.609 191.493 463.227 192.814 463.668 194.354H466.969V184.452H463.998L463.593 188.99C463.391 188.598 463.168 188.226 462.925 187.876C462.045 186.611 460.917 185.634 459.542 184.947C458.166 184.259 456.502 183.915 454.549 183.915C452.568 183.915 450.725 184.259 449.02 184.947C447.314 185.634 445.815 186.638 444.522 187.959C443.257 189.279 442.267 190.902 441.552 192.827C440.864 194.725 440.52 196.885 440.52 199.305C440.52 201.726 440.864 203.885 441.552 205.783C442.239 207.681 443.216 209.291 444.481 210.611C445.774 211.931 447.301 212.935 449.061 213.623C450.822 214.311 452.775 214.654 454.92 214.654C457.176 214.654 459.143 214.256 460.821 213.458C462.499 212.633 463.901 211.477 465.029 209.992C466.157 208.479 466.996 206.719 467.546 204.711L464.782 203.555C464.342 205.096 463.709 206.499 462.884 207.764C462.086 209.002 461.068 209.978 459.83 210.693C458.593 211.409 457.107 211.766 455.374 211.766C453.834 211.766 452.472 211.505 451.289 210.982C450.134 210.46 449.157 209.676 448.36 208.63C447.562 207.585 446.957 206.292 446.544 204.752C446.132 203.184 445.925 201.368 445.925 199.305C445.925 197.242 446.132 195.441 446.544 193.9C446.957 192.36 447.548 191.067 448.318 190.022C449.116 188.976 450.065 188.193 451.166 187.67Z" fill="#6B7280"/>
<path d="M487.257 187.381V209.909C487.257 210.515 486.941 210.914 486.308 211.106C485.676 211.299 484.892 211.395 483.956 211.395H483.255V213.953H496.376V211.395H495.633C494.725 211.395 493.955 211.299 493.323 211.106C492.69 210.914 492.374 210.515 492.374 209.909V187.381H494.354C495.564 187.381 496.527 187.45 497.242 187.587C497.985 187.697 498.535 187.904 498.893 188.206C499.25 188.481 499.443 188.866 499.47 189.362L499.924 194.189H502.813V184.658H476.818V194.189H479.706L480.16 189.362C480.215 188.866 480.408 188.481 480.738 188.206C481.096 187.904 481.632 187.697 482.347 187.587C483.09 187.45 484.066 187.381 485.277 187.381H487.257Z" fill="#6B7280"/>
<path d="M638.7 52.069L655.906 52.069C656.071 51.7389 656.195 51.12 656.277 50.2123C656.442 49.3044 656.525 48.3142 656.525 47.2415C656.525 43.693 655.7 40.5984 654.049 37.9578C652.481 35.3995 650.171 33.089 647.117 31.0259C644.905 29.5907 642.324 28.1554 639.374 26.7202L655.287 25.3319L655.287 0.946777L646.993 0.946777L646.746 2.06079C646.416 3.71118 646.086 5.07275 645.756 6.14563C645.426 7.3009 644.972 8.1261 644.394 8.62122C643.899 9.19885 643.156 9.48767 642.166 9.48767L602.432 9.48767C599.874 9.48767 598.141 8.74499 597.233 7.25964C596.408 5.77429 595.995 3.7937 595.995 1.31811L595.995 0.946775L588.568 0.946774L588.568 38.4529L595.995 38.4529L595.995 36.5962C595.995 35.3583 596.036 34.038 596.119 32.6351C596.201 31.3147 596.408 30.1594 596.738 29.1692C597.068 28.179 597.522 27.6838 598.099 27.6838L633.583 27.6838C634.043 28.1377 634.469 28.5916 634.863 29.0454C636.018 30.2832 636.926 31.6035 637.586 33.0065C638.246 34.4918 638.7 36.0597 638.948 37.7102C639.278 39.3606 639.443 41.1761 639.443 43.1566C639.443 44.2294 639.401 45.3021 639.319 46.375C639.319 47.5303 639.236 48.603 639.071 49.5933C638.989 50.6661 638.865 51.4913 638.7 52.069Z" fill="#DBEAFE"/>
<path d="M51.9298 69.8937V52.6879C51.5997 52.5229 50.9808 52.3991 50.0731 52.3165C49.1653 52.1515 48.175 52.069 47.1023 52.069C43.5538 52.069 40.4592 52.8942 37.8186 54.5446C35.2604 56.1125 32.9498 58.4232 30.8867 61.4765C29.4515 63.6891 28.0162 66.2701 26.5811 69.2195L25.1927 53.3068L0.807617 53.3068L0.807617 61.6003L1.92163 61.8478C3.57202 62.1779 4.93359 62.508 6.00647 62.8381C7.16174 63.1682 7.98694 63.6221 8.48206 64.1997C9.05969 64.6948 9.34851 65.4375 9.34851 66.4278L9.34851 106.162C9.34851 108.72 8.60583 110.453 7.12048 111.361C5.63513 112.186 3.65454 112.599 1.17896 112.599H0.807617L0.807617 120.026H38.3137L38.3137 112.599H36.457C35.2191 112.599 33.8988 112.557 32.496 112.475C31.1755 112.392 30.0203 112.186 29.03 111.856C28.0398 111.526 27.5447 111.072 27.5447 110.494L27.5447 75.0109C27.9985 74.551 28.4524 74.1243 28.9063 73.731C30.144 72.5757 31.4644 71.6679 32.8673 71.0078C34.3527 70.3476 35.9205 69.8937 37.571 69.6461C39.2214 69.316 41.037 69.151 43.0175 69.151C44.0902 69.151 45.163 69.1923 46.2358 69.2748C47.3911 69.2748 48.4639 69.3573 49.4541 69.5223C50.527 69.6049 51.3522 69.7286 51.9298 69.8937Z" fill="#DBEAFE"/>
<path d="M69.9628 228.898L52.757 228.898C52.592 229.228 52.4682 229.847 52.3856 230.754C52.2206 231.662 52.1381 232.652 52.1381 233.725C52.1381 237.274 52.9633 240.368 54.6137 243.009C56.1816 245.567 58.4922 247.878 61.5456 249.941C63.7582 251.376 66.3392 252.811 69.2886 254.246L53.3759 255.635L53.3759 280.02L61.6694 280.02L61.9169 278.906C62.247 277.255 62.5771 275.894 62.9072 274.821C63.2372 273.666 63.6912 272.84 64.2688 272.345C64.7639 271.768 65.5066 271.479 66.4969 271.479L106.231 271.479C108.789 271.479 110.522 272.222 111.43 273.707C112.255 275.192 112.668 277.173 112.668 279.648L112.668 280.02L120.095 280.02L120.095 242.514L112.668 242.514L112.668 244.37C112.668 245.608 112.627 246.929 112.544 248.331C112.462 249.652 112.255 250.807 111.925 251.797C111.595 252.788 111.141 253.283 110.564 253.283L75.08 253.283C74.6201 252.829 74.1934 252.375 73.8 251.921C72.6448 250.683 71.737 249.363 71.0768 247.96C70.4167 246.475 69.9628 244.907 69.7152 243.256C69.3851 241.606 69.2201 239.79 69.2201 237.81C69.2201 236.737 69.2614 235.664 69.3439 234.592C69.3439 233.436 69.4264 232.364 69.5914 231.373C69.6739 230.3 69.7977 229.475 69.9628 228.898Z" fill="#DBEAFE"/>
<path d="M656.317 211.073L656.317 228.279C656.647 228.444 657.266 228.567 658.173 228.65C659.081 228.815 660.071 228.898 661.144 228.898C664.693 228.898 667.787 228.072 670.428 226.422C672.986 224.854 675.297 222.543 677.36 219.49C678.795 217.277 680.23 214.696 681.665 211.747L683.054 227.66L707.439 227.66L707.439 219.366L706.325 219.119C704.674 218.789 703.313 218.459 702.24 218.128C701.085 217.798 700.259 217.344 699.764 216.767C699.187 216.272 698.898 215.529 698.898 214.539L698.898 174.805C698.898 172.246 699.64 170.513 701.126 169.606C702.611 168.78 704.592 168.368 707.067 168.368L707.439 168.368L707.439 160.941L669.933 160.941L669.933 168.368L671.789 168.368C673.027 168.368 674.348 168.409 675.75 168.492C677.071 168.574 678.226 168.78 679.216 169.111C680.207 169.441 680.702 169.894 680.702 170.472L680.702 205.956C680.248 206.416 679.794 206.842 679.34 207.236C678.102 208.391 676.782 209.299 675.379 209.959C673.894 210.619 672.326 211.073 670.675 211.32C669.025 211.651 667.209 211.816 665.229 211.816C664.156 211.816 663.083 211.774 662.01 211.692C660.855 211.692 659.782 211.609 658.792 211.444C657.719 211.362 656.894 211.238 656.317 211.073Z" fill="#DBEAFE"/>
</svg>
