<svg width="319" height="319" viewBox="0 0 319 319" fill="none" xmlns="http://www.w3.org/2000/svg">
<rect x="20.3281" y="20.4468" width="278.068" height="278.073" fill="#EFF6FF" stroke="#3B82F6" stroke-dasharray="5 5"/>
<rect x="75.4507" y="75.5709" width="167.822" height="167.825" fill="white"/>
<path fill-rule="evenodd" clip-rule="evenodd" d="M243.275 96.9286L231.524 127.179C228.905 133.92 223.768 139.379 217.199 142.402L194.083 153.041L222.529 150.398L206.827 190.456C205.64 193.484 202.834 195.594 199.596 195.897C165.292 199.104 156.552 198.646 148.406 209.605C143.676 215.969 135.297 218.802 128.43 214.838L127.038 214.034C160.768 157.05 160.075 155.523 190.614 110.289C197.227 100.494 228.785 96.7532 243.275 96.9286Z" fill="#3B82F6"/>
<path d="M155.517 151.822C148.791 140.796 141.457 129.473 128.505 110.288C121.892 100.493 90.3337 96.7531 75.8438 96.9284L87.5951 127.179C90.2138 133.92 95.3505 139.379 101.92 142.402L125.036 153.041L96.5902 150.398L112.293 190.456C113.479 193.484 116.285 195.594 119.523 195.896C122.998 196.221 126.21 196.509 129.186 196.774C134.348 187.983 138.554 180.751 142.207 174.47C147.367 165.596 151.425 158.618 155.517 151.822Z" fill="#3B82F6"/>
<path d="M167.766 206.18C168.784 207.179 169.753 208.313 170.713 209.605C175.443 215.969 183.822 218.802 190.689 214.838L192.081 214.034C189.99 210.502 188.032 207.184 186.191 204.055C178.129 204.781 172.313 205.351 167.766 206.18Z" fill="#3B82F6"/>
<path fill-rule="evenodd" clip-rule="evenodd" d="M199.337 92.955C198.407 93.3451 197.463 93.7699 196.526 94.2344C185.568 87.9797 172.882 84.4058 159.362 84.4058C145.917 84.4058 133.297 87.9401 122.381 94.1304C121.513 93.7062 120.641 93.3156 119.781 92.9549C117.344 91.9329 114.7 91.0315 111.95 90.238C125.439 80.9843 141.768 75.5697 159.362 75.5697C177.007 75.5697 193.379 81.0157 206.891 90.3185C204.24 91.0924 201.692 91.9674 199.337 92.955ZM84.2845 159.483C84.2845 200.947 117.898 234.561 159.362 234.561L159.362 234.56C200.826 234.56 234.439 200.946 234.439 159.482C234.439 153.86 233.821 148.383 232.65 143.114C235.928 140.745 237.073 138.99 239.608 134.87C241.992 142.654 243.275 150.918 243.275 159.482C243.275 205.826 205.706 243.396 159.362 243.396L159.362 243.397C113.018 243.397 75.4484 205.827 75.4484 159.483C75.4484 150.919 76.7313 142.655 79.1155 134.871C81.6512 138.991 82.7959 140.746 86.0739 143.115C84.9023 148.384 84.2845 153.861 84.2845 159.483Z" fill="#1F2937"/>
<path d="M318.65 75.5721L0.0738367 75.5721" stroke="#3B82F6" stroke-width="0.5" stroke-dasharray="5 5"/>
<path d="M318.65 243.395L0.0738367 243.395" stroke="#3B82F6" stroke-width="0.5" stroke-dasharray="5 5"/>
<path d="M75.4506 0.195129L75.4506 318.771" stroke="#3B82F6" stroke-width="0.5" stroke-dasharray="5 5"/>
<path d="M243.273 0.195068L243.273 318.771" stroke="#3B82F6" stroke-width="0.5" stroke-dasharray="5 5"/>
<path d="M33.7437 51.84V51.42C33.7437 51.3453 33.7624 51.252 33.7997 51.14C33.8277 51.056 33.8837 50.972 33.9677 50.888L37.1877 47.668C37.5144 47.332 37.757 47.0706 37.9157 46.884C38.121 46.6506 38.3077 46.3986 38.4757 46.128C38.6064 45.9133 38.723 45.652 38.8257 45.344C38.9097 45.092 38.9517 44.8166 38.9517 44.518C38.9517 44.2566 38.905 44 38.8117 43.748C38.7184 43.5146 38.5924 43.328 38.4337 43.188C38.247 43.0386 38.0557 42.9313 37.8597 42.866C37.6544 42.8006 37.421 42.768 37.1597 42.768C36.889 42.768 36.6557 42.8053 36.4597 42.88C36.2077 42.9733 36.0164 43.076 35.8857 43.188C35.7084 43.3373 35.5684 43.496 35.4657 43.664C35.363 43.832 35.2837 44.028 35.2277 44.252C35.1997 44.4013 35.1437 44.504 35.0597 44.56C34.9757 44.616 34.873 44.644 34.7517 44.644H34.6957L34.5977 44.63L33.9397 44.518C33.9957 44.07 34.1264 43.664 34.3317 43.3C34.5277 42.9546 34.761 42.6653 35.0317 42.432C35.321 42.1893 35.6524 42.0026 36.0257 41.872C36.3804 41.7506 36.777 41.69 37.2157 41.69C37.6637 41.69 38.065 41.7506 38.4197 41.872C38.7744 41.9933 39.0917 42.18 39.3717 42.432C39.6517 42.684 39.8664 42.9733 40.0157 43.3C40.165 43.6266 40.2397 44.0186 40.2397 44.476C40.2397 44.8586 40.1837 45.204 40.0717 45.512C39.941 45.8573 39.7917 46.1606 39.6237 46.422C39.437 46.702 39.213 46.9866 38.9517 47.276C38.6997 47.556 38.4337 47.836 38.1537 48.116L35.5077 50.804C35.6477 50.7666 35.839 50.7293 36.0817 50.692C36.2777 50.664 36.4597 50.65 36.6277 50.65H39.3717C39.3904 50.4166 39.409 50.2346 39.4277 50.104C39.4464 49.9733 39.4557 49.8893 39.4557 49.852C39.4744 49.7773 39.5117 49.7166 39.5677 49.67C39.6237 49.6233 39.6844 49.6 39.7497 49.6H40.4357V50.972L40.4217 51.84H33.7437ZM48.6012 46.828C48.6012 47.7333 48.5079 48.494 48.3212 49.11C48.1159 49.7913 47.8592 50.3233 47.5512 50.706C47.1965 51.1446 46.8092 51.4573 46.3892 51.644C45.9225 51.8493 45.4465 51.952 44.9612 51.952C44.4759 51.952 43.9999 51.8493 43.5332 51.644C43.1132 51.4573 42.7259 51.1446 42.3712 50.706C42.0632 50.3233 41.8065 49.7913 41.6012 49.11C41.4145 48.494 41.3212 47.7333 41.3212 46.828C41.3212 45.9226 41.4145 45.162 41.6012 44.546C41.8065 43.8646 42.0632 43.3326 42.3712 42.95C42.7259 42.5113 43.1132 42.1986 43.5332 42.012C43.9999 41.8066 44.4759 41.704 44.9612 41.704C45.4465 41.704 45.9225 41.8066 46.3892 42.012C46.8092 42.1986 47.1965 42.5113 47.5512 42.95C47.8592 43.3326 48.1159 43.8646 48.3212 44.546C48.5172 45.19 48.6152 45.9506 48.6152 46.828H48.6012ZM47.3132 46.842C47.3132 46.1046 47.2479 45.4653 47.1172 44.924C46.9865 44.3733 46.8139 43.9533 46.5992 43.664C46.3659 43.3373 46.1139 43.1086 45.8432 42.978C45.5632 42.838 45.2692 42.768 44.9612 42.768C44.6439 42.768 44.3452 42.838 44.0652 42.978C43.7945 43.1086 43.5425 43.3373 43.3092 43.664C43.1039 43.944 42.9359 44.3593 42.8052 44.91C42.6745 45.4513 42.6092 46.0906 42.6092 46.828C42.6092 47.5746 42.6745 48.2186 42.8052 48.76C42.9452 49.3293 43.1132 49.7493 43.3092 50.02C43.5332 50.328 43.7852 50.552 44.0652 50.692C44.3452 50.832 44.6439 50.902 44.9612 50.902C45.2785 50.902 45.5772 50.832 45.8572 50.692C46.1279 50.5613 46.3799 50.3326 46.6132 50.006C46.8185 49.726 46.9865 49.3106 47.1172 48.76C47.2479 48.2186 47.3132 47.5793 47.3132 46.842ZM53.9054 44.224C53.9054 44.6253 53.8494 44.98 53.7374 45.288C53.644 45.5586 53.4807 45.8153 53.2474 46.058C53.042 46.2726 52.804 46.436 52.5334 46.548C52.2534 46.66 51.9734 46.716 51.6934 46.716C51.376 46.716 51.082 46.66 50.8114 46.548C50.5407 46.436 50.3074 46.2726 50.1114 46.058C49.9154 45.8433 49.7614 45.5866 49.6494 45.288C49.5374 44.98 49.4814 44.6253 49.4814 44.224C49.4814 43.8226 49.5374 43.468 49.6494 43.16C49.7614 42.852 49.9154 42.586 50.1114 42.362C50.2887 42.166 50.5267 42.0026 50.8254 41.872C51.096 41.76 51.3854 41.704 51.6934 41.704C52.0014 41.704 52.2954 41.76 52.5754 41.872C52.8647 41.9933 53.1027 42.1566 53.2894 42.362C53.4667 42.5673 53.616 42.8333 53.7374 43.16C53.8494 43.468 53.9054 43.8226 53.9054 44.224ZM57.4054 42.054C57.452 41.9793 57.5174 41.9186 57.6014 41.872C57.6667 41.8346 57.7554 41.816 57.8674 41.816H58.7634L51.4414 51.644C51.3667 51.7186 51.3107 51.7653 51.2734 51.784C51.1987 51.8213 51.1194 51.84 51.0354 51.84H50.1114L57.4054 42.068V42.054ZM52.9254 44.224C52.9254 43.9626 52.8927 43.7013 52.8274 43.44C52.7807 43.244 52.692 43.0666 52.5614 42.908C52.4494 42.768 52.3187 42.67 52.1694 42.614C51.992 42.5486 51.824 42.516 51.6654 42.516C51.5254 42.516 51.3667 42.5486 51.1894 42.614C51.0307 42.67 50.8954 42.768 50.7834 42.908C50.6527 43.0666 50.564 43.244 50.5174 43.44C50.4614 43.664 50.4334 43.9253 50.4334 44.224C50.4334 44.504 50.466 44.7653 50.5314 45.008C50.578 45.176 50.6667 45.344 50.7974 45.512C50.9094 45.652 51.04 45.75 51.1894 45.806C51.348 45.862 51.516 45.89 51.6934 45.89C51.8614 45.89 52.02 45.862 52.1694 45.806C52.328 45.75 52.4634 45.652 52.5754 45.512C52.706 45.344 52.7947 45.176 52.8414 45.008C52.9067 44.7653 52.9394 44.504 52.9394 44.224H52.9254ZM59.4074 49.46C59.4074 49.8333 59.3467 50.188 59.2254 50.524C59.1227 50.804 58.964 51.0606 58.7494 51.294C58.5534 51.4993 58.3154 51.6626 58.0354 51.784C57.774 51.896 57.494 51.952 57.1954 51.952C56.878 51.952 56.584 51.896 56.3134 51.784C56.0427 51.672 55.8094 51.5086 55.6134 51.294C55.4174 51.0793 55.2634 50.8226 55.1514 50.524C55.0394 50.216 54.9834 49.8613 54.9834 49.46C54.9834 49.0586 55.0394 48.704 55.1514 48.396C55.2634 48.088 55.4174 47.822 55.6134 47.598C55.7907 47.402 56.0287 47.2386 56.3274 47.108C56.598 46.996 56.892 46.94 57.2094 46.94C57.508 46.94 57.7974 46.996 58.0774 47.108C58.3854 47.2293 58.628 47.3926 58.8054 47.598C59.0014 47.822 59.1554 48.088 59.2674 48.396C59.3794 48.704 59.4354 49.0586 59.4354 49.46H59.4074ZM58.4274 49.488C58.4274 49.2173 58.3947 48.9513 58.3294 48.69C58.2827 48.5126 58.194 48.34 58.0634 48.172C57.942 48.0226 57.8067 47.92 57.6574 47.864C57.508 47.808 57.3494 47.78 57.1814 47.78C57.004 47.78 56.836 47.808 56.6774 47.864C56.5374 47.9106 56.4067 48.0133 56.2854 48.172C56.164 48.3213 56.08 48.494 56.0334 48.69C55.968 48.9513 55.9354 49.2126 55.9354 49.474C55.9354 49.7446 55.968 50.0013 56.0334 50.244C56.08 50.412 56.1687 50.58 56.2994 50.748C56.4114 50.888 56.5467 50.986 56.7054 51.042C56.864 51.098 57.0227 51.126 57.1814 51.126C57.368 51.126 57.536 51.098 57.6854 51.042C57.8347 50.986 57.9654 50.888 58.0774 50.748C58.208 50.58 58.2967 50.412 58.3434 50.244C58.4087 50.0013 58.4414 49.74 58.4414 49.46L58.4274 49.488Z" fill="#3B82F6"/>
<path d="M255.124 51.84V51.42C255.124 51.3453 255.143 51.252 255.18 51.14C255.208 51.056 255.264 50.972 255.348 50.888L258.568 47.668C258.895 47.332 259.137 47.0706 259.296 46.884C259.501 46.6506 259.688 46.3986 259.856 46.128C259.987 45.9133 260.103 45.652 260.206 45.344C260.29 45.092 260.332 44.8166 260.332 44.518C260.332 44.2566 260.285 44 260.192 43.748C260.099 43.5146 259.973 43.328 259.814 43.188C259.627 43.0386 259.436 42.9313 259.24 42.866C259.035 42.8006 258.801 42.768 258.54 42.768C258.269 42.768 258.036 42.8053 257.84 42.88C257.588 42.9733 257.397 43.076 257.266 43.188C257.089 43.3373 256.949 43.496 256.846 43.664C256.743 43.832 256.664 44.028 256.608 44.252C256.58 44.4013 256.524 44.504 256.44 44.56C256.356 44.616 256.253 44.644 256.132 44.644H256.076L255.978 44.63L255.32 44.518C255.376 44.07 255.507 43.664 255.712 43.3C255.908 42.9546 256.141 42.6653 256.412 42.432C256.701 42.1893 257.033 42.0026 257.406 41.872C257.761 41.7506 258.157 41.69 258.596 41.69C259.044 41.69 259.445 41.7506 259.8 41.872C260.155 41.9933 260.472 42.18 260.752 42.432C261.032 42.684 261.247 42.9733 261.396 43.3C261.545 43.6266 261.62 44.0186 261.62 44.476C261.62 44.8586 261.564 45.204 261.452 45.512C261.321 45.8573 261.172 46.1606 261.004 46.422C260.817 46.702 260.593 46.9866 260.332 47.276C260.08 47.556 259.814 47.836 259.534 48.116L256.888 50.804C257.028 50.7666 257.219 50.7293 257.462 50.692C257.658 50.664 257.84 50.65 258.008 50.65H260.752C260.771 50.4166 260.789 50.2346 260.808 50.104C260.827 49.9733 260.836 49.8893 260.836 49.852C260.855 49.7773 260.892 49.7166 260.948 49.67C261.004 49.6233 261.065 49.6 261.13 49.6H261.816V50.972L261.802 51.84H255.124ZM269.981 46.828C269.981 47.7333 269.888 48.494 269.701 49.11C269.496 49.7913 269.239 50.3233 268.931 50.706C268.577 51.1446 268.189 51.4573 267.769 51.644C267.303 51.8493 266.827 51.952 266.341 51.952C265.856 51.952 265.38 51.8493 264.913 51.644C264.493 51.4573 264.106 51.1446 263.751 50.706C263.443 50.3233 263.187 49.7913 262.981 49.11C262.795 48.494 262.701 47.7333 262.701 46.828C262.701 45.9226 262.795 45.162 262.981 44.546C263.187 43.8646 263.443 43.3326 263.751 42.95C264.106 42.5113 264.493 42.1986 264.913 42.012C265.38 41.8066 265.856 41.704 266.341 41.704C266.827 41.704 267.303 41.8066 267.769 42.012C268.189 42.1986 268.577 42.5113 268.931 42.95C269.239 43.3326 269.496 43.8646 269.701 44.546C269.897 45.19 269.995 45.9506 269.995 46.828H269.981ZM268.693 46.842C268.693 46.1046 268.628 45.4653 268.497 44.924C268.367 44.3733 268.194 43.9533 267.979 43.664C267.746 43.3373 267.494 43.1086 267.223 42.978C266.943 42.838 266.649 42.768 266.341 42.768C266.024 42.768 265.725 42.838 265.445 42.978C265.175 43.1086 264.923 43.3373 264.689 43.664C264.484 43.944 264.316 44.3593 264.185 44.91C264.055 45.4513 263.989 46.0906 263.989 46.828C263.989 47.5746 264.055 48.2186 264.185 48.76C264.325 49.3293 264.493 49.7493 264.689 50.02C264.913 50.328 265.165 50.552 265.445 50.692C265.725 50.832 266.024 50.902 266.341 50.902C266.659 50.902 266.957 50.832 267.237 50.692C267.508 50.5613 267.76 50.3326 267.993 50.006C268.199 49.726 268.367 49.3106 268.497 48.76C268.628 48.2186 268.693 47.5793 268.693 46.842ZM275.286 44.224C275.286 44.6253 275.23 44.98 275.118 45.288C275.024 45.5586 274.861 45.8153 274.628 46.058C274.422 46.2726 274.184 46.436 273.914 46.548C273.634 46.66 273.354 46.716 273.074 46.716C272.756 46.716 272.462 46.66 272.192 46.548C271.921 46.436 271.688 46.2726 271.492 46.058C271.296 45.8433 271.142 45.5866 271.03 45.288C270.918 44.98 270.862 44.6253 270.862 44.224C270.862 43.8226 270.918 43.468 271.03 43.16C271.142 42.852 271.296 42.586 271.492 42.362C271.669 42.166 271.907 42.0026 272.206 41.872C272.476 41.76 272.766 41.704 273.074 41.704C273.382 41.704 273.676 41.76 273.956 41.872C274.245 41.9933 274.483 42.1566 274.67 42.362C274.847 42.5673 274.996 42.8333 275.118 43.16C275.23 43.468 275.286 43.8226 275.286 44.224ZM278.786 42.054C278.832 41.9793 278.898 41.9186 278.982 41.872C279.047 41.8346 279.136 41.816 279.248 41.816H280.144L272.822 51.644C272.747 51.7186 272.691 51.7653 272.654 51.784C272.579 51.8213 272.5 51.84 272.416 51.84H271.492L278.786 42.068V42.054ZM274.306 44.224C274.306 43.9626 274.273 43.7013 274.208 43.44C274.161 43.244 274.072 43.0666 273.942 42.908C273.83 42.768 273.699 42.67 273.55 42.614C273.372 42.5486 273.204 42.516 273.046 42.516C272.906 42.516 272.747 42.5486 272.57 42.614C272.411 42.67 272.276 42.768 272.164 42.908C272.033 43.0666 271.944 43.244 271.898 43.44C271.842 43.664 271.814 43.9253 271.814 44.224C271.814 44.504 271.846 44.7653 271.912 45.008C271.958 45.176 272.047 45.344 272.178 45.512C272.29 45.652 272.42 45.75 272.57 45.806C272.728 45.862 272.896 45.89 273.074 45.89C273.242 45.89 273.4 45.862 273.55 45.806C273.708 45.75 273.844 45.652 273.956 45.512C274.086 45.344 274.175 45.176 274.222 45.008C274.287 44.7653 274.32 44.504 274.32 44.224H274.306ZM280.788 49.46C280.788 49.8333 280.727 50.188 280.606 50.524C280.503 50.804 280.344 51.0606 280.13 51.294C279.934 51.4993 279.696 51.6626 279.416 51.784C279.154 51.896 278.874 51.952 278.576 51.952C278.258 51.952 277.964 51.896 277.694 51.784C277.423 51.672 277.19 51.5086 276.994 51.294C276.798 51.0793 276.644 50.8226 276.532 50.524C276.42 50.216 276.364 49.8613 276.364 49.46C276.364 49.0586 276.42 48.704 276.532 48.396C276.644 48.088 276.798 47.822 276.994 47.598C277.171 47.402 277.409 47.2386 277.708 47.108C277.978 46.996 278.272 46.94 278.59 46.94C278.888 46.94 279.178 46.996 279.458 47.108C279.766 47.2293 280.008 47.3926 280.186 47.598C280.382 47.822 280.536 48.088 280.648 48.396C280.76 48.704 280.816 49.0586 280.816 49.46H280.788ZM279.808 49.488C279.808 49.2173 279.775 48.9513 279.71 48.69C279.663 48.5126 279.574 48.34 279.444 48.172C279.322 48.0226 279.187 47.92 279.038 47.864C278.888 47.808 278.73 47.78 278.562 47.78C278.384 47.78 278.216 47.808 278.058 47.864C277.918 47.9106 277.787 48.0133 277.666 48.172C277.544 48.3213 277.46 48.494 277.414 48.69C277.348 48.9513 277.316 49.2126 277.316 49.474C277.316 49.7446 277.348 50.0013 277.414 50.244C277.46 50.412 277.549 50.58 277.68 50.748C277.792 50.888 277.927 50.986 278.086 51.042C278.244 51.098 278.403 51.126 278.562 51.126C278.748 51.126 278.916 51.098 279.066 51.042C279.215 50.986 279.346 50.888 279.458 50.748C279.588 50.58 279.677 50.412 279.724 50.244C279.789 50.0013 279.822 49.74 279.822 49.46L279.808 49.488Z" fill="#3B82F6"/>
<path d="M33.7437 275.559V275.139C33.7437 275.064 33.7624 274.971 33.7997 274.859C33.8277 274.775 33.8837 274.691 33.9677 274.607L37.1877 271.387C37.5144 271.051 37.757 270.789 37.9157 270.603C38.121 270.369 38.3077 270.117 38.4757 269.847C38.6064 269.632 38.723 269.371 38.8257 269.063C38.9097 268.811 38.9517 268.535 38.9517 268.237C38.9517 267.975 38.905 267.719 38.8117 267.467C38.7184 267.233 38.5924 267.047 38.4337 266.907C38.247 266.757 38.0557 266.65 37.8597 266.585C37.6544 266.519 37.421 266.487 37.1597 266.487C36.889 266.487 36.6557 266.524 36.4597 266.599C36.2077 266.692 36.0164 266.795 35.8857 266.907C35.7084 267.056 35.5684 267.215 35.4657 267.383C35.363 267.551 35.2837 267.747 35.2277 267.971C35.1997 268.12 35.1437 268.223 35.0597 268.279C34.9757 268.335 34.873 268.363 34.7517 268.363H34.6957L34.5977 268.349L33.9397 268.237C33.9957 267.789 34.1264 267.383 34.3317 267.019C34.5277 266.673 34.761 266.384 35.0317 266.151C35.321 265.908 35.6524 265.721 36.0257 265.591C36.3804 265.469 36.777 265.409 37.2157 265.409C37.6637 265.409 38.065 265.469 38.4197 265.591C38.7744 265.712 39.0917 265.899 39.3717 266.151C39.6517 266.403 39.8664 266.692 40.0157 267.019C40.165 267.345 40.2397 267.737 40.2397 268.195C40.2397 268.577 40.1837 268.923 40.0717 269.231C39.941 269.576 39.7917 269.879 39.6237 270.141C39.437 270.421 39.213 270.705 38.9517 270.995C38.6997 271.275 38.4337 271.555 38.1537 271.835L35.5077 274.523C35.6477 274.485 35.839 274.448 36.0817 274.411C36.2777 274.383 36.4597 274.369 36.6277 274.369H39.3717C39.3904 274.135 39.409 273.953 39.4277 273.823C39.4464 273.692 39.4557 273.608 39.4557 273.571C39.4744 273.496 39.5117 273.435 39.5677 273.389C39.6237 273.342 39.6844 273.319 39.7497 273.319H40.4357V274.691L40.4217 275.559H33.7437ZM48.6012 270.547C48.6012 271.452 48.5079 272.213 48.3212 272.829C48.1159 273.51 47.8592 274.042 47.5512 274.425C47.1965 274.863 46.8092 275.176 46.3892 275.363C45.9225 275.568 45.4465 275.671 44.9612 275.671C44.4759 275.671 43.9999 275.568 43.5332 275.363C43.1132 275.176 42.7259 274.863 42.3712 274.425C42.0632 274.042 41.8065 273.51 41.6012 272.829C41.4145 272.213 41.3212 271.452 41.3212 270.547C41.3212 269.641 41.4145 268.881 41.6012 268.265C41.8065 267.583 42.0632 267.051 42.3712 266.669C42.7259 266.23 43.1132 265.917 43.5332 265.731C43.9999 265.525 44.4759 265.423 44.9612 265.423C45.4465 265.423 45.9225 265.525 46.3892 265.731C46.8092 265.917 47.1965 266.23 47.5512 266.669C47.8592 267.051 48.1159 267.583 48.3212 268.265C48.5172 268.909 48.6152 269.669 48.6152 270.547H48.6012ZM47.3132 270.561C47.3132 269.823 47.2479 269.184 47.1172 268.643C46.9865 268.092 46.8139 267.672 46.5992 267.383C46.3659 267.056 46.1139 266.827 45.8432 266.697C45.5632 266.557 45.2692 266.487 44.9612 266.487C44.6439 266.487 44.3452 266.557 44.0652 266.697C43.7945 266.827 43.5425 267.056 43.3092 267.383C43.1039 267.663 42.9359 268.078 42.8052 268.629C42.6745 269.17 42.6092 269.809 42.6092 270.547C42.6092 271.293 42.6745 271.937 42.8052 272.479C42.9452 273.048 43.1132 273.468 43.3092 273.739C43.5332 274.047 43.7852 274.271 44.0652 274.411C44.3452 274.551 44.6439 274.621 44.9612 274.621C45.2785 274.621 45.5772 274.551 45.8572 274.411C46.1279 274.28 46.3799 274.051 46.6132 273.725C46.8185 273.445 46.9865 273.029 47.1172 272.479C47.2479 271.937 47.3132 271.298 47.3132 270.561ZM53.9054 267.943C53.9054 268.344 53.8494 268.699 53.7374 269.007C53.644 269.277 53.4807 269.534 53.2474 269.777C53.042 269.991 52.804 270.155 52.5334 270.267C52.2534 270.379 51.9734 270.435 51.6934 270.435C51.376 270.435 51.082 270.379 50.8114 270.267C50.5407 270.155 50.3074 269.991 50.1114 269.777C49.9154 269.562 49.7614 269.305 49.6494 269.007C49.5374 268.699 49.4814 268.344 49.4814 267.943C49.4814 267.541 49.5374 267.187 49.6494 266.879C49.7614 266.571 49.9154 266.305 50.1114 266.081C50.2887 265.885 50.5267 265.721 50.8254 265.591C51.096 265.479 51.3854 265.423 51.6934 265.423C52.0014 265.423 52.2954 265.479 52.5754 265.591C52.8647 265.712 53.1027 265.875 53.2894 266.081C53.4667 266.286 53.616 266.552 53.7374 266.879C53.8494 267.187 53.9054 267.541 53.9054 267.943ZM57.4054 265.773C57.452 265.698 57.5174 265.637 57.6014 265.591C57.6667 265.553 57.7554 265.535 57.8674 265.535H58.7634L51.4414 275.363C51.3667 275.437 51.3107 275.484 51.2734 275.503C51.1987 275.54 51.1194 275.559 51.0354 275.559H50.1114L57.4054 265.787V265.773ZM52.9254 267.943C52.9254 267.681 52.8927 267.42 52.8274 267.159C52.7807 266.963 52.692 266.785 52.5614 266.627C52.4494 266.487 52.3187 266.389 52.1694 266.333C51.992 266.267 51.824 266.235 51.6654 266.235C51.5254 266.235 51.3667 266.267 51.1894 266.333C51.0307 266.389 50.8954 266.487 50.7834 266.627C50.6527 266.785 50.564 266.963 50.5174 267.159C50.4614 267.383 50.4334 267.644 50.4334 267.943C50.4334 268.223 50.466 268.484 50.5314 268.727C50.578 268.895 50.6667 269.063 50.7974 269.231C50.9094 269.371 51.04 269.469 51.1894 269.525C51.348 269.581 51.516 269.609 51.6934 269.609C51.8614 269.609 52.02 269.581 52.1694 269.525C52.328 269.469 52.4634 269.371 52.5754 269.231C52.706 269.063 52.7947 268.895 52.8414 268.727C52.9067 268.484 52.9394 268.223 52.9394 267.943H52.9254ZM59.4074 273.179C59.4074 273.552 59.3467 273.907 59.2254 274.243C59.1227 274.523 58.964 274.779 58.7494 275.013C58.5534 275.218 58.3154 275.381 58.0354 275.503C57.774 275.615 57.494 275.671 57.1954 275.671C56.878 275.671 56.584 275.615 56.3134 275.503C56.0427 275.391 55.8094 275.227 55.6134 275.013C55.4174 274.798 55.2634 274.541 55.1514 274.243C55.0394 273.935 54.9834 273.58 54.9834 273.179C54.9834 272.777 55.0394 272.423 55.1514 272.115C55.2634 271.807 55.4174 271.541 55.6134 271.317C55.7907 271.121 56.0287 270.957 56.3274 270.827C56.598 270.715 56.892 270.659 57.2094 270.659C57.508 270.659 57.7974 270.715 58.0774 270.827C58.3854 270.948 58.628 271.111 58.8054 271.317C59.0014 271.541 59.1554 271.807 59.2674 272.115C59.3794 272.423 59.4354 272.777 59.4354 273.179H59.4074ZM58.4274 273.207C58.4274 272.936 58.3947 272.67 58.3294 272.409C58.2827 272.231 58.194 272.059 58.0634 271.891C57.942 271.741 57.8067 271.639 57.6574 271.583C57.508 271.527 57.3494 271.499 57.1814 271.499C57.004 271.499 56.836 271.527 56.6774 271.583C56.5374 271.629 56.4067 271.732 56.2854 271.891C56.164 272.04 56.08 272.213 56.0334 272.409C55.968 272.67 55.9354 272.931 55.9354 273.193C55.9354 273.463 55.968 273.72 56.0334 273.963C56.08 274.131 56.1687 274.299 56.2994 274.467C56.4114 274.607 56.5467 274.705 56.7054 274.761C56.864 274.817 57.0227 274.845 57.1814 274.845C57.368 274.845 57.536 274.817 57.6854 274.761C57.8347 274.705 57.9654 274.607 58.0774 274.467C58.208 274.299 58.2967 274.131 58.3434 273.963C58.4087 273.72 58.4414 273.459 58.4414 273.179L58.4274 273.207Z" fill="#3B82F6"/>
<path d="M37.5797 157.002C38.009 157.002 38.3917 157.067 38.7277 157.198C39.073 157.329 39.3857 157.52 39.6657 157.772C39.927 158.005 40.1464 158.318 40.3237 158.71C40.473 159.037 40.5477 159.457 40.5477 159.97C40.5477 160.437 40.4637 160.866 40.2957 161.258C40.1184 161.669 39.885 162.014 39.5957 162.294C39.2784 162.593 38.9144 162.826 38.5037 162.994C38.0837 163.162 37.617 163.246 37.1037 163.246C36.5997 163.246 36.1424 163.162 35.7317 162.994C35.293 162.817 34.9477 162.593 34.6957 162.322C34.397 162.005 34.173 161.645 34.0237 161.244C33.8744 160.833 33.7997 160.362 33.7997 159.83C33.7997 159.391 33.8977 158.92 34.0937 158.416C34.2804 157.94 34.593 157.408 35.0317 156.82L37.5657 153.39C37.6124 153.325 37.701 153.259 37.8317 153.194C37.9437 153.138 38.079 153.11 38.2377 153.11H39.3437L35.8717 157.506C36.105 157.338 36.3664 157.212 36.6557 157.128C36.9637 157.035 37.2764 156.988 37.5937 156.988L37.5797 157.002ZM35.0037 160.054C35.0037 160.334 35.0504 160.623 35.1437 160.922C35.2277 161.183 35.363 161.417 35.5497 161.622C35.699 161.781 35.9184 161.925 36.2077 162.056C36.441 162.159 36.735 162.21 37.0897 162.21C37.4164 162.21 37.7197 162.154 37.9997 162.042C38.2984 161.921 38.5317 161.776 38.6997 161.608C38.877 161.431 39.0264 161.207 39.1477 160.936C39.2597 160.684 39.3157 160.399 39.3157 160.082C39.3157 159.746 39.2597 159.447 39.1477 159.186C39.0264 158.887 38.8817 158.663 38.7137 158.514C38.5177 158.327 38.2937 158.187 38.0417 158.094C37.799 158.001 37.5144 157.954 37.1877 157.954C36.8517 157.954 36.5437 158.01 36.2637 158.122C36.0117 158.225 35.783 158.379 35.5777 158.584C35.391 158.771 35.2464 158.995 35.1437 159.256C35.0504 159.499 35.0037 159.765 35.0037 160.054ZM48.6832 158.122C48.6832 159.027 48.5899 159.788 48.4032 160.404C48.1979 161.085 47.9412 161.617 47.6332 162C47.2786 162.439 46.8912 162.751 46.4712 162.938C46.0046 163.143 45.5286 163.246 45.0432 163.246C44.5579 163.246 44.0819 163.143 43.6152 162.938C43.1952 162.751 42.8079 162.439 42.4532 162C42.1452 161.617 41.8886 161.085 41.6832 160.404C41.4966 159.788 41.4032 159.027 41.4032 158.122C41.4032 157.217 41.4966 156.456 41.6832 155.84C41.8886 155.159 42.1452 154.627 42.4532 154.244C42.8079 153.805 43.1952 153.493 43.6152 153.306C44.0819 153.101 44.5579 152.998 45.0432 152.998C45.5286 152.998 46.0046 153.101 46.4712 153.306C46.8912 153.493 47.2786 153.805 47.6332 154.244C47.9412 154.627 48.1979 155.159 48.4032 155.84C48.5992 156.484 48.6972 157.245 48.6972 158.122H48.6832ZM47.3952 158.136C47.3952 157.399 47.3299 156.759 47.1992 156.218C47.0686 155.667 46.8959 155.247 46.6812 154.958C46.4479 154.631 46.1959 154.403 45.9252 154.272C45.6452 154.132 45.3512 154.062 45.0432 154.062C44.7259 154.062 44.4272 154.132 44.1472 154.272C43.8766 154.403 43.6246 154.631 43.3912 154.958C43.1859 155.238 43.0179 155.653 42.8872 156.204C42.7566 156.745 42.6912 157.385 42.6912 158.122C42.6912 158.869 42.7566 159.513 42.8872 160.054C43.0272 160.623 43.1952 161.043 43.3912 161.314C43.6152 161.622 43.8672 161.846 44.1472 161.986C44.4272 162.126 44.7259 162.196 45.0432 162.196C45.3606 162.196 45.6592 162.126 45.9392 161.986C46.2099 161.855 46.4619 161.627 46.6952 161.3C46.9006 161.02 47.0686 160.605 47.1992 160.054C47.3299 159.513 47.3952 158.873 47.3952 158.136ZM53.9874 155.518C53.9874 155.919 53.9314 156.274 53.8194 156.582C53.7261 156.853 53.5627 157.109 53.3294 157.352C53.1241 157.567 52.8861 157.73 52.6154 157.842C52.3354 157.954 52.0554 158.01 51.7754 158.01C51.4581 158.01 51.1641 157.954 50.8934 157.842C50.6227 157.73 50.3894 157.567 50.1934 157.352C49.9974 157.137 49.8434 156.881 49.7314 156.582C49.6194 156.274 49.5634 155.919 49.5634 155.518C49.5634 155.117 49.6194 154.762 49.7314 154.454C49.8434 154.146 49.9974 153.88 50.1934 153.656C50.3707 153.46 50.6087 153.297 50.9074 153.166C51.1781 153.054 51.4674 152.998 51.7754 152.998C52.0834 152.998 52.3774 153.054 52.6574 153.166C52.9467 153.287 53.1847 153.451 53.3714 153.656C53.5487 153.861 53.6981 154.127 53.8194 154.454C53.9314 154.762 53.9874 155.117 53.9874 155.518ZM57.4874 153.348C57.5341 153.273 57.5994 153.213 57.6834 153.166C57.7487 153.129 57.8374 153.11 57.9494 153.11H58.8454L51.5234 162.938C51.4487 163.013 51.3927 163.059 51.3554 163.078C51.2807 163.115 51.2014 163.134 51.1174 163.134H50.1934L57.4874 153.362V153.348ZM53.0074 155.518C53.0074 155.257 52.9747 154.995 52.9094 154.734C52.8627 154.538 52.7741 154.361 52.6434 154.202C52.5314 154.062 52.4007 153.964 52.2514 153.908C52.0741 153.843 51.9061 153.81 51.7474 153.81C51.6074 153.81 51.4487 153.843 51.2714 153.908C51.1127 153.964 50.9774 154.062 50.8654 154.202C50.7347 154.361 50.6461 154.538 50.5994 154.734C50.5434 154.958 50.5154 155.219 50.5154 155.518C50.5154 155.798 50.5481 156.059 50.6134 156.302C50.6601 156.47 50.7487 156.638 50.8794 156.806C50.9914 156.946 51.1221 157.044 51.2714 157.1C51.4301 157.156 51.5981 157.184 51.7754 157.184C51.9434 157.184 52.1021 157.156 52.2514 157.1C52.4101 157.044 52.5454 156.946 52.6574 156.806C52.7881 156.638 52.8767 156.47 52.9234 156.302C52.9887 156.059 53.0214 155.798 53.0214 155.518H53.0074ZM59.4894 160.754C59.4894 161.127 59.4287 161.482 59.3074 161.818C59.2047 162.098 59.0461 162.355 58.8314 162.588C58.6354 162.793 58.3974 162.957 58.1174 163.078C57.8561 163.19 57.5761 163.246 57.2774 163.246C56.9601 163.246 56.6661 163.19 56.3954 163.078C56.1247 162.966 55.8914 162.803 55.6954 162.588C55.4994 162.373 55.3454 162.117 55.2334 161.818C55.1214 161.51 55.0654 161.155 55.0654 160.754C55.0654 160.353 55.1214 159.998 55.2334 159.69C55.3454 159.382 55.4994 159.116 55.6954 158.892C55.8727 158.696 56.1107 158.533 56.4094 158.402C56.6801 158.29 56.9741 158.234 57.2914 158.234C57.5901 158.234 57.8794 158.29 58.1594 158.402C58.4674 158.523 58.7101 158.687 58.8874 158.892C59.0834 159.116 59.2374 159.382 59.3494 159.69C59.4614 159.998 59.5174 160.353 59.5174 160.754H59.4894ZM58.5094 160.782C58.5094 160.511 58.4767 160.245 58.4114 159.984C58.3647 159.807 58.2761 159.634 58.1454 159.466C58.0241 159.317 57.8887 159.214 57.7394 159.158C57.5901 159.102 57.4314 159.074 57.2634 159.074C57.0861 159.074 56.9181 159.102 56.7594 159.158C56.6194 159.205 56.4887 159.307 56.3674 159.466C56.2461 159.615 56.1621 159.788 56.1154 159.984C56.0501 160.245 56.0174 160.507 56.0174 160.768C56.0174 161.039 56.0501 161.295 56.1154 161.538C56.1621 161.706 56.2507 161.874 56.3814 162.042C56.4934 162.182 56.6287 162.28 56.7874 162.336C56.9461 162.392 57.1047 162.42 57.2634 162.42C57.4501 162.42 57.6181 162.392 57.7674 162.336C57.9167 162.28 58.0474 162.182 58.1594 162.042C58.2901 161.874 58.3787 161.706 58.4254 161.538C58.4907 161.295 58.5234 161.034 58.5234 160.754L58.5094 160.782Z" fill="#3B82F6"/>
<path d="M154.027 45.708C154.456 45.708 154.839 45.7733 155.175 45.904C155.52 46.0346 155.833 46.226 156.113 46.478C156.374 46.7113 156.594 47.024 156.771 47.416C156.92 47.7426 156.995 48.1626 156.995 48.676C156.995 49.1426 156.911 49.572 156.743 49.964C156.566 50.3746 156.332 50.72 156.043 51C155.726 51.2986 155.362 51.532 154.951 51.7C154.531 51.868 154.064 51.952 153.551 51.952C153.047 51.952 152.59 51.868 152.179 51.7C151.74 51.5226 151.395 51.2986 151.143 51.028C150.844 50.7106 150.62 50.3513 150.471 49.95C150.322 49.5393 150.247 49.068 150.247 48.536C150.247 48.0973 150.345 47.626 150.541 47.122C150.728 46.646 151.04 46.114 151.479 45.526L154.013 42.096C154.06 42.0306 154.148 41.9653 154.279 41.9C154.391 41.844 154.526 41.816 154.685 41.816H155.791L152.319 46.212C152.552 46.044 152.814 45.918 153.103 45.834C153.411 45.7406 153.724 45.694 154.041 45.694L154.027 45.708ZM151.451 48.76C151.451 49.04 151.498 49.3293 151.591 49.628C151.675 49.8893 151.81 50.1226 151.997 50.328C152.146 50.4866 152.366 50.6313 152.655 50.762C152.888 50.8646 153.182 50.916 153.537 50.916C153.864 50.916 154.167 50.86 154.447 50.748C154.746 50.6266 154.979 50.482 155.147 50.314C155.324 50.1366 155.474 49.9126 155.595 49.642C155.707 49.39 155.763 49.1053 155.763 48.788C155.763 48.452 155.707 48.1533 155.595 47.892C155.474 47.5933 155.329 47.3693 155.161 47.22C154.965 47.0333 154.741 46.8933 154.489 46.8C154.246 46.7066 153.962 46.66 153.635 46.66C153.299 46.66 152.991 46.716 152.711 46.828C152.459 46.9306 152.23 47.0846 152.025 47.29C151.838 47.4766 151.694 47.7006 151.591 47.962C151.498 48.2046 151.451 48.4706 151.451 48.76ZM165.131 46.828C165.131 47.7333 165.037 48.494 164.851 49.11C164.645 49.7913 164.389 50.3233 164.081 50.706C163.726 51.1446 163.339 51.4573 162.919 51.644C162.452 51.8493 161.976 51.952 161.491 51.952C161.005 51.952 160.529 51.8493 160.063 51.644C159.643 51.4573 159.255 51.1446 158.901 50.706C158.593 50.3233 158.336 49.7913 158.131 49.11C157.944 48.494 157.851 47.7333 157.851 46.828C157.851 45.9226 157.944 45.162 158.131 44.546C158.336 43.8646 158.593 43.3326 158.901 42.95C159.255 42.5113 159.643 42.1986 160.063 42.012C160.529 41.8066 161.005 41.704 161.491 41.704C161.976 41.704 162.452 41.8066 162.919 42.012C163.339 42.1986 163.726 42.5113 164.081 42.95C164.389 43.3326 164.645 43.8646 164.851 44.546C165.047 45.19 165.145 45.9506 165.145 46.828H165.131ZM163.843 46.842C163.843 46.1046 163.777 45.4653 163.647 44.924C163.516 44.3733 163.343 43.9533 163.129 43.664C162.895 43.3373 162.643 43.1086 162.373 42.978C162.093 42.838 161.799 42.768 161.491 42.768C161.173 42.768 160.875 42.838 160.595 42.978C160.324 43.1086 160.072 43.3373 159.839 43.664C159.633 43.944 159.465 44.3593 159.335 44.91C159.204 45.4513 159.139 46.0906 159.139 46.828C159.139 47.5746 159.204 48.2186 159.335 48.76C159.475 49.3293 159.643 49.7493 159.839 50.02C160.063 50.328 160.315 50.552 160.595 50.692C160.875 50.832 161.173 50.902 161.491 50.902C161.808 50.902 162.107 50.832 162.387 50.692C162.657 50.5613 162.909 50.3326 163.143 50.006C163.348 49.726 163.516 49.3106 163.647 48.76C163.777 48.2186 163.843 47.5793 163.843 46.842ZM170.435 44.224C170.435 44.6253 170.379 44.98 170.267 45.288C170.174 45.5586 170.01 45.8153 169.777 46.058C169.572 46.2726 169.334 46.436 169.063 46.548C168.783 46.66 168.503 46.716 168.223 46.716C167.906 46.716 167.612 46.66 167.341 46.548C167.07 46.436 166.837 46.2726 166.641 46.058C166.445 45.8433 166.291 45.5866 166.179 45.288C166.067 44.98 166.011 44.6253 166.011 44.224C166.011 43.8226 166.067 43.468 166.179 43.16C166.291 42.852 166.445 42.586 166.641 42.362C166.818 42.166 167.056 42.0026 167.355 41.872C167.626 41.76 167.915 41.704 168.223 41.704C168.531 41.704 168.825 41.76 169.105 41.872C169.394 41.9933 169.632 42.1566 169.819 42.362C169.996 42.5673 170.146 42.8333 170.267 43.16C170.379 43.468 170.435 43.8226 170.435 44.224ZM173.935 42.054C173.982 41.9793 174.047 41.9186 174.131 41.872C174.196 41.8346 174.285 41.816 174.397 41.816H175.293L167.971 51.644C167.896 51.7186 167.84 51.7653 167.803 51.784C167.728 51.8213 167.649 51.84 167.565 51.84H166.641L173.935 42.068V42.054ZM169.455 44.224C169.455 43.9626 169.422 43.7013 169.357 43.44C169.31 43.244 169.222 43.0666 169.091 42.908C168.979 42.768 168.848 42.67 168.699 42.614C168.522 42.5486 168.354 42.516 168.195 42.516C168.055 42.516 167.896 42.5486 167.719 42.614C167.56 42.67 167.425 42.768 167.313 42.908C167.182 43.0666 167.094 43.244 167.047 43.44C166.991 43.664 166.963 43.9253 166.963 44.224C166.963 44.504 166.996 44.7653 167.061 45.008C167.108 45.176 167.196 45.344 167.327 45.512C167.439 45.652 167.57 45.75 167.719 45.806C167.878 45.862 168.046 45.89 168.223 45.89C168.391 45.89 168.55 45.862 168.699 45.806C168.858 45.75 168.993 45.652 169.105 45.512C169.236 45.344 169.324 45.176 169.371 45.008C169.436 44.7653 169.469 44.504 169.469 44.224H169.455ZM175.937 49.46C175.937 49.8333 175.876 50.188 175.755 50.524C175.652 50.804 175.494 51.0606 175.279 51.294C175.083 51.4993 174.845 51.6626 174.565 51.784C174.304 51.896 174.024 51.952 173.725 51.952C173.408 51.952 173.114 51.896 172.843 51.784C172.572 51.672 172.339 51.5086 172.143 51.294C171.947 51.0793 171.793 50.8226 171.681 50.524C171.569 50.216 171.513 49.8613 171.513 49.46C171.513 49.0586 171.569 48.704 171.681 48.396C171.793 48.088 171.947 47.822 172.143 47.598C172.32 47.402 172.558 47.2386 172.857 47.108C173.128 46.996 173.422 46.94 173.739 46.94C174.038 46.94 174.327 46.996 174.607 47.108C174.915 47.2293 175.158 47.3926 175.335 47.598C175.531 47.822 175.685 48.088 175.797 48.396C175.909 48.704 175.965 49.0586 175.965 49.46H175.937ZM174.957 49.488C174.957 49.2173 174.924 48.9513 174.859 48.69C174.812 48.5126 174.724 48.34 174.593 48.172C174.472 48.0226 174.336 47.92 174.187 47.864C174.038 47.808 173.879 47.78 173.711 47.78C173.534 47.78 173.366 47.808 173.207 47.864C173.067 47.9106 172.936 48.0133 172.815 48.172C172.694 48.3213 172.61 48.494 172.563 48.69C172.498 48.9513 172.465 49.2126 172.465 49.474C172.465 49.7446 172.498 50.0013 172.563 50.244C172.61 50.412 172.698 50.58 172.829 50.748C172.941 50.888 173.076 50.986 173.235 51.042C173.394 51.098 173.552 51.126 173.711 51.126C173.898 51.126 174.066 51.098 174.215 51.042C174.364 50.986 174.495 50.888 174.607 50.748C174.738 50.58 174.826 50.412 174.873 50.244C174.938 50.0013 174.971 49.74 174.971 49.46L174.957 49.488Z" fill="#3B82F6"/>
</svg>
