<svg width="169" height="169" viewBox="0 0 169 169" fill="none" xmlns="http://www.w3.org/2000/svg">
<path fill-rule="evenodd" clip-rule="evenodd" d="M168.275 21.9286L156.524 52.1789C153.905 58.92 148.768 64.3789 142.199 67.4024L119.083 78.0411L147.529 75.3984L131.827 115.456C130.64 118.484 127.834 120.594 124.596 120.897C90.2918 124.104 81.5516 123.646 73.4057 134.605C68.6758 140.969 60.2971 143.802 53.4304 139.838L52.0383 139.034C85.7678 82.0497 85.0752 80.523 115.614 35.2886C122.227 25.4936 153.785 21.7532 168.275 21.9286Z" fill="#3B82F6"/>
<path d="M80.5166 76.8221C73.7915 65.796 66.4572 54.4733 53.5051 35.2885C46.8922 25.4935 15.3337 21.7531 0.843781 21.9284L12.5951 52.1788C15.2138 58.9198 20.3505 64.3788 26.92 67.4022L50.0363 78.0409L21.5902 75.3983L37.2925 115.456C38.4794 118.484 41.2849 120.594 44.5229 120.896C47.9976 121.221 51.2101 121.509 54.1862 121.774C59.3479 112.983 63.5536 105.751 67.2065 99.4698C72.3672 90.5957 76.4251 83.618 80.5166 76.8221Z" fill="#3B82F6"/>
<path d="M92.7658 131.18C93.7839 132.179 94.7527 133.313 95.7133 134.605C100.443 140.969 108.822 143.802 115.689 139.838L117.081 139.034C114.99 135.502 113.032 132.184 111.191 129.055C103.129 129.781 97.3125 130.351 92.7658 131.18Z" fill="#3B82F6"/>
<path fill-rule="evenodd" clip-rule="evenodd" d="M124.337 17.955C123.407 18.3451 122.463 18.7699 121.526 19.2344C110.568 12.9797 97.8823 9.4058 84.3619 9.4058C70.9166 9.4058 58.2968 12.9401 47.3809 19.1304C46.5128 18.7062 45.6413 18.3156 44.7809 17.9549C42.3435 16.9329 39.7 16.0315 36.9498 15.238C50.4388 5.98429 66.7681 0.569702 84.3619 0.569702C102.007 0.569702 118.379 6.0157 131.891 15.3185C129.24 16.0924 126.692 16.9674 124.337 17.955ZM9.28446 84.4832C9.28446 125.947 42.8978 159.561 84.3619 159.561L84.3619 159.56C125.826 159.56 159.439 125.946 159.439 84.4823C159.439 78.8605 158.821 73.383 157.65 68.1141C160.928 65.7453 162.073 63.9901 164.608 59.8704C166.992 67.6535 168.275 75.9181 168.275 84.4823C168.275 130.826 130.706 168.396 84.3619 168.396L84.3619 168.397C38.0177 168.397 0.448364 130.827 0.448364 84.4832C0.448364 75.9191 1.73133 67.6545 4.11555 59.8714C6.65118 63.9911 7.79588 65.7463 11.0739 68.1151C9.90235 73.384 9.28446 78.8615 9.28446 84.4832Z" fill="#1F2937"/>
</svg>
